<svg width="1366" height="499" viewBox="0 0 1366 499" fill="none" xmlns="http://www.w3.org/2000/svg">
<path d="M0 284.5C0 284.5 59.5 298.812 108.5 272C157.5 245.188 209 207.423 352.5 179.5C496 151.577 648 197.171 741.5 179.5C648 197.171 835 161.829 741.5 179.5C835 161.829 918.258 84.0647 985.5 50.1507C905.5 90.4991 1075.5 4.75874 985.5 50.1507C1052.74 16.2367 1290 -10.8496 1366 5.96421V575.524C1366 575.524 1267 620.528 1193 657C1260.83 623.567 1125.17 690.433 1193 657C1118.19 693.872 998.495 575.524 920 575.524C841.895 575.524 681 663.984 600.5 620.528C526.915 580.806 518.41 537.501 440.5 537.501C361.224 537.501 326.775 566.663 255.5 620.528C198 663.984 0 537.501 0 537.501L0 284.5Z" fill="url(#paint0_linear_22_575)"/>
<defs>
<linearGradient id="paint0_linear_22_575" x1="3.42237e-06" y1="271.03" x2="1366.07" y2="262.653" gradientUnits="userSpaceOnUse">
<stop stop-color="#8E4CF0" stop-opacity="0.26"/>
<stop offset="1" stop-color="#864BF2"/>
</linearGradient>
</defs>
</svg>
