<svg width="95" height="88" viewBox="0 0 95 88" fill="none" xmlns="http://www.w3.org/2000/svg">
<g filter="url(#filter0_d_49_2)">
<rect x="4.5" y="3.5" width="86" height="79" stroke="#894BF1"/>
</g>
<g clip-path="url(#clip0_49_2)">
<path d="M62.8519 24.8065C62.5655 24.7491 62.3507 24.7204 62.2075 24.7204C61.1478 24.7204 60.2314 25.0789 59.4581 25.7957C57.7111 25.0215 56.0786 24.3907 54.5607 23.9032C52.069 23.1004 49.4628 22.4409 46.7421 21.9247C46.4843 21.2366 46.0977 20.6631 45.5821 20.2043C46.2981 16.8208 47.2576 13.7527 48.4604 11C52.069 11.2581 55.3841 12.3047 58.4056 14.1398C61.4271 15.9749 63.8686 18.3835 65.7302 21.3656C64.6705 22.5125 63.7111 23.6595 62.8519 24.8065ZM42.9186 19.2151C42.174 19.2151 41.4723 19.4158 40.8136 19.8172C38.4938 18.0968 36.1597 16.6344 33.8112 15.4301C37.3625 12.7348 41.3435 11.2581 45.754 11C44.637 13.4946 43.7349 16.233 43.0475 19.2151H42.9186ZM28.0117 21.8817C28.9854 20.2473 30.2169 18.6989 31.7062 17.2366C33.6537 18.2401 35.6728 19.4731 37.7635 20.9355C34.069 20.8495 30.8184 21.1649 28.0117 21.8817ZM38.7945 23.6022C38.8518 24.491 39.1597 25.2724 39.7182 25.9462C40.2766 26.6201 40.9711 27.0717 41.8017 27.3011C41.6299 29.3082 41.5439 31.2151 41.5439 33.0215C41.5439 34.2832 41.5869 35.7312 41.6728 37.3656C41.0427 37.5663 40.4843 37.9104 39.9974 38.3979C38.4508 37.7957 36.9616 37.1075 35.5296 36.3333C35.8446 35.7025 36.0021 35.0573 36.0021 34.3979C36.0021 33.2509 35.6012 32.276 34.7993 31.4731C33.9974 30.6703 33.0236 30.2688 31.878 30.2688C30.6179 30.2688 29.5725 30.7563 28.742 31.7312C27.5391 30.6416 26.4651 29.509 25.52 28.3333C25.7778 27.1004 26.1644 25.8817 26.6799 24.6774C30.174 23.7025 34.2122 23.3441 38.7945 23.6022ZM27.7969 34.7419C27.8828 35.8029 28.3195 36.6989 29.1071 37.4301C29.8947 38.1613 30.8184 38.5269 31.878 38.5269C32.1931 38.5269 32.5367 38.4695 32.9091 38.3548C34.742 39.4158 36.7038 40.3333 38.7945 41.1075V41.2796C38.7945 42.3979 39.174 43.3513 39.933 44.1398C40.6919 44.9283 41.6299 45.3513 42.7468 45.4086C43.4628 48.9068 44.4652 52.1039 45.754 55C42.89 54.828 40.1835 54.1326 37.6346 52.914C35.0857 51.6953 32.8876 50.1111 31.0403 48.1613C29.193 46.2115 27.7253 43.9176 26.637 41.2796C25.5486 38.6416 25.0045 35.8889 25.0045 33.0215C25.0045 32.9928 25.0188 32.6057 25.0474 31.8602C25.8494 32.8638 26.7658 33.8244 27.7969 34.7419ZM46.5273 43.2151C48.5893 43.5878 50.6657 43.8315 52.7564 43.9462C52.9569 44.5197 53.2719 45.0502 53.7015 45.5376C53.0428 48.5484 52.6418 51.4731 52.4986 54.3118C51.038 54.6846 49.6919 54.914 48.4604 55C47.1144 51.9319 46.069 48.4624 45.3244 44.5914C45.8399 44.2473 46.2409 43.7885 46.5273 43.2151ZM59.8447 45.2796C60.217 44.8208 60.4748 44.3333 60.618 43.8172C62.7087 43.6452 64.7278 43.3728 66.6753 43C65.3006 45.6953 63.4104 48.0323 61.0046 50.0108C60.7469 48.5197 60.3602 46.9427 59.8447 45.2796ZM52.8423 41.1935C50.8375 41.0789 48.8614 40.8208 46.9139 40.4194C46.5989 38.9857 45.7826 37.9964 44.4652 37.4516C44.3506 35.7599 44.2934 34.2832 44.2934 33.0215C44.2934 31.129 44.3793 29.1649 44.5511 27.129C44.6084 27.129 44.68 27.1004 44.7659 27.043C44.8518 26.9857 44.9091 26.957 44.9377 26.957C46.0547 28.0466 47.0284 29.0502 47.859 29.9677C50.3507 32.7204 52.47 35.8459 54.217 39.3441C53.5869 39.8315 53.1287 40.448 52.8423 41.1935ZM56.6657 46.7849C56.723 46.7849 56.8805 46.7706 57.1383 46.7419C57.6252 48.491 57.9831 50.2258 58.2123 51.9462C57.3817 52.4337 56.3793 52.9211 55.2051 53.4086C55.4056 51.172 55.7492 48.9498 56.2361 46.7419C56.4652 46.7706 56.6084 46.7849 56.6657 46.7849ZM56.4509 36.5054C56.4223 36.5627 56.3865 36.6487 56.3435 36.7634C56.3006 36.8781 56.2648 36.9642 56.2361 37.0215C54.4318 33.7527 52.3125 30.7849 49.8781 28.1183C48.9903 27.1147 47.9306 26.0251 46.6991 24.8495C46.7277 24.8495 46.7492 24.828 46.7635 24.7849L46.785 24.7204C49.1907 25.2079 51.4962 25.81 53.7015 26.5269C55.0476 26.957 56.5225 27.5305 58.1263 28.2473C58.0691 28.534 58.0404 28.7491 58.0404 28.8925C58.0404 29.7527 58.2982 30.5412 58.8137 31.2581C57.8686 33.0645 57.081 34.8136 56.4509 36.5054ZM58.47 39C58.8137 37.9964 58.9855 37.4803 58.9855 37.4516C59.5583 36.0179 60.2743 34.4839 61.1335 32.8495C61.5058 32.9642 61.8638 33.0215 62.2075 33.0215C63.1813 33.0215 64.0548 32.6918 64.828 32.0323C66.2314 33.0072 67.6061 34.0968 68.9522 35.3011C68.7803 36.9355 68.4367 38.5125 67.9211 40.0323C65.5727 40.5197 63.0953 40.8638 60.4891 41.0645C60.1168 40.147 59.4438 39.4588 58.47 39ZM66.3316 28.8495C66.3316 27.9032 66.0166 27.043 65.3865 26.2688C65.988 25.4946 66.5894 24.7921 67.1908 24.1613C68.2219 26.5125 68.8233 28.9355 68.9951 31.4301C68.05 30.7133 67.1335 30.0681 66.2457 29.4946C66.303 29.2366 66.3316 29.0215 66.3316 28.8495Z" fill="#7C3C92"/>
</g>
<path d="M30.8184 72.5391L32.3496 65.0469H34.0654L31.7686 75H30.1143L28.2207 67.7334L26.2861 75H24.625L22.3281 65.0469H24.0439L25.5889 72.5254L27.4893 65.0469H28.9385L30.8184 72.5391ZM38.208 75.1367C37.1553 75.1367 36.3008 74.8063 35.6445 74.1455C34.9928 73.4801 34.667 72.596 34.667 71.4932V71.2881C34.667 70.5498 34.8083 69.8913 35.0908 69.3125C35.3779 68.7292 35.779 68.2757 36.2939 67.9521C36.8089 67.6286 37.3831 67.4668 38.0166 67.4668C39.0238 67.4668 39.8008 67.7881 40.3477 68.4307C40.8991 69.0732 41.1748 69.9824 41.1748 71.1582V71.8281H36.3418C36.3919 72.4388 36.5947 72.9219 36.9502 73.2773C37.3102 73.6328 37.7614 73.8105 38.3037 73.8105C39.0648 73.8105 39.6846 73.5029 40.1631 72.8877L41.0586 73.7422C40.7624 74.1842 40.3659 74.5283 39.8691 74.7744C39.377 75.016 38.8232 75.1367 38.208 75.1367ZM38.0098 68.7998C37.554 68.7998 37.1849 68.9593 36.9023 69.2783C36.6243 69.5973 36.4466 70.0417 36.3691 70.6113H39.5342V70.4883C39.4977 69.9323 39.3496 69.513 39.0898 69.2305C38.8301 68.9434 38.4701 68.7998 38.0098 68.7998ZM48.9609 71.377C48.9609 72.5254 48.7035 73.4391 48.1885 74.1182C47.6781 74.7972 46.974 75.1367 46.0762 75.1367C45.2103 75.1367 44.5358 74.8245 44.0527 74.2002L43.9707 75H42.4668V64.5H44.1279V68.3145C44.6064 67.7493 45.2513 67.4668 46.0625 67.4668C46.9648 67.4668 47.6735 67.8018 48.1885 68.4717C48.7035 69.1416 48.9609 70.0781 48.9609 71.2812V71.377ZM47.2998 71.2334C47.2998 70.4313 47.1585 69.8298 46.876 69.4287C46.5934 69.0277 46.1833 68.8271 45.6455 68.8271C44.9255 68.8271 44.4196 69.1416 44.1279 69.7705V72.8193C44.4242 73.4619 44.9346 73.7832 45.6592 73.7832C46.1787 73.7832 46.5798 73.5895 46.8623 73.2021C47.1449 72.8148 47.2907 72.2292 47.2998 71.4453V71.2334ZM54.5049 72.9902C54.5049 72.694 54.3818 72.4684 54.1357 72.3135C53.8942 72.1585 53.4909 72.0218 52.9258 71.9033C52.3607 71.7848 51.889 71.6344 51.5107 71.4521C50.6813 71.0511 50.2666 70.4701 50.2666 69.709C50.2666 69.071 50.5355 68.5378 51.0732 68.1094C51.611 67.681 52.2946 67.4668 53.124 67.4668C54.0081 67.4668 54.7214 67.6855 55.2637 68.123C55.8105 68.5605 56.084 69.1279 56.084 69.8252H54.4229C54.4229 69.5062 54.3044 69.2419 54.0674 69.0322C53.8304 68.818 53.516 68.7109 53.124 68.7109C52.7594 68.7109 52.4609 68.7952 52.2285 68.9639C52.0007 69.1325 51.8867 69.3581 51.8867 69.6406C51.8867 69.8958 51.9938 70.0941 52.208 70.2354C52.4222 70.3766 52.8551 70.5202 53.5068 70.666C54.1585 70.8073 54.6689 70.9782 55.0381 71.1787C55.4118 71.3747 55.6875 71.6117 55.8652 71.8896C56.0475 72.1676 56.1387 72.5049 56.1387 72.9014C56.1387 73.5667 55.863 74.1068 55.3115 74.5215C54.7601 74.9316 54.0378 75.1367 53.1445 75.1367C52.5384 75.1367 51.9984 75.0273 51.5244 74.8086C51.0505 74.5898 50.6813 74.2891 50.417 73.9062C50.1527 73.5234 50.0205 73.111 50.0205 72.6689H51.6338C51.6566 73.0609 51.8047 73.3639 52.0781 73.5781C52.3516 73.7878 52.7139 73.8926 53.165 73.8926C53.6025 73.8926 53.9352 73.8105 54.1631 73.6465C54.391 73.4779 54.5049 73.2591 54.5049 72.9902ZM59.3584 75H57.6973V67.6035H59.3584V75ZM57.5947 65.6826C57.5947 65.4274 57.6745 65.2155 57.834 65.0469C57.998 64.8783 58.2305 64.7939 58.5312 64.7939C58.832 64.7939 59.0645 64.8783 59.2285 65.0469C59.3926 65.2155 59.4746 65.4274 59.4746 65.6826C59.4746 65.9333 59.3926 66.1429 59.2285 66.3115C59.0645 66.4756 58.832 66.5576 58.5312 66.5576C58.2305 66.5576 57.998 66.4756 57.834 66.3115C57.6745 66.1429 57.5947 65.9333 57.5947 65.6826ZM63.2549 65.8057V67.6035H64.5605V68.834H63.2549V72.9629C63.2549 73.2454 63.3096 73.4505 63.4189 73.5781C63.5329 73.7012 63.7334 73.7627 64.0205 73.7627C64.2119 73.7627 64.4056 73.7399 64.6016 73.6943V74.9795C64.2233 75.0843 63.8587 75.1367 63.5078 75.1367C62.2318 75.1367 61.5938 74.4326 61.5938 73.0244V68.834H60.377V67.6035H61.5938V65.8057H63.2549ZM69.0928 75.1367C68.04 75.1367 67.1855 74.8063 66.5293 74.1455C65.8776 73.4801 65.5518 72.596 65.5518 71.4932V71.2881C65.5518 70.5498 65.693 69.8913 65.9756 69.3125C66.2627 68.7292 66.6637 68.2757 67.1787 67.9521C67.6937 67.6286 68.2679 67.4668 68.9014 67.4668C69.9085 67.4668 70.6855 67.7881 71.2324 68.4307C71.7839 69.0732 72.0596 69.9824 72.0596 71.1582V71.8281H67.2266C67.2767 72.4388 67.4795 72.9219 67.835 73.2773C68.195 73.6328 68.6462 73.8105 69.1885 73.8105C69.9495 73.8105 70.5693 73.5029 71.0479 72.8877L71.9434 73.7422C71.6471 74.1842 71.2507 74.5283 70.7539 74.7744C70.2617 75.016 69.708 75.1367 69.0928 75.1367ZM68.8945 68.7998C68.4388 68.7998 68.0697 68.9593 67.7871 69.2783C67.5091 69.5973 67.3314 70.0417 67.2539 70.6113H70.4189V70.4883C70.3825 69.9323 70.2344 69.513 69.9746 69.2305C69.7148 68.9434 69.3548 68.7998 68.8945 68.7998Z" fill="#272323"/>
<defs>
<filter id="filter0_d_49_2" x="0" y="0" width="95" height="88" filterUnits="userSpaceOnUse" color-interpolation-filters="sRGB">
<feFlood flood-opacity="0" result="BackgroundImageFix"/>
<feColorMatrix in="SourceAlpha" type="matrix" values="0 0 0 0 0 0 0 0 0 0 0 0 0 0 0 0 0 0 127 0" result="hardAlpha"/>
<feOffset dy="1"/>
<feGaussianBlur stdDeviation="2"/>
<feColorMatrix type="matrix" values="0 0 0 0 0 0 0 0 0 0 0 0 0 0 0 0 0 0 0.25 0"/>
<feBlend mode="normal" in2="BackgroundImageFix" result="effect1_dropShadow_49_2"/>
<feBlend mode="normal" in="SourceGraphic" in2="effect1_dropShadow_49_2" result="shape"/>
</filter>
<clipPath id="clip0_49_2">
<rect width="44" height="44" fill="white" transform="translate(25 11)"/>
</clipPath>
</defs>
</svg>
