<svg width="95" height="88" viewBox="0 0 95 88" fill="none" xmlns="http://www.w3.org/2000/svg">
<g filter="url(#filter0_d_49_3)">
<rect x="4.5" y="3.5" width="86" height="79" stroke="#894BF1"/>
</g>
<path d="M69.3125 33C69.3125 21.2266 59.7734 11.6875 48 11.6875C36.2266 11.6875 26.6875 21.2266 26.6875 33C26.6875 43.6373 34.4812 52.4545 44.6699 54.0547V39.1609H39.2559V33H44.6699V28.3044C44.6699 22.9634 47.8496 20.0131 52.7197 20.0131C55.052 20.0131 57.4909 20.4291 57.4909 20.4291V25.6713H54.8028C52.1559 25.6713 51.3301 27.3144 51.3301 28.9996V33H57.2409L56.2955 39.1609H51.3301V54.0547C61.5188 52.4545 69.3125 43.6373 69.3125 33Z" fill="#7C3C92"/>
<path d="M24.7471 70.7822H20.7412V75H19.0117V65.0469H25.335V66.4414H20.7412V69.4014H24.7471V70.7822ZM30.7354 75C30.6624 74.8587 30.5986 74.6286 30.5439 74.3096C30.0153 74.861 29.3682 75.1367 28.6025 75.1367C27.8597 75.1367 27.2536 74.9248 26.7842 74.501C26.3148 74.0771 26.0801 73.5531 26.0801 72.9287C26.0801 72.1403 26.3717 71.5365 26.9551 71.1172C27.543 70.6934 28.3815 70.4814 29.4707 70.4814H30.4893V69.9961C30.4893 69.6133 30.3822 69.3079 30.168 69.0801C29.9538 68.8477 29.6279 68.7314 29.1904 68.7314C28.8122 68.7314 28.5023 68.8271 28.2607 69.0186C28.0192 69.2054 27.8984 69.4447 27.8984 69.7363H26.2373C26.2373 69.3307 26.3717 68.9525 26.6406 68.6016C26.9095 68.2461 27.2741 67.9681 27.7344 67.7676C28.1992 67.5671 28.7165 67.4668 29.2861 67.4668C30.152 67.4668 30.8424 67.6855 31.3574 68.123C31.8724 68.556 32.1367 69.1667 32.1504 69.9551V73.291C32.1504 73.9564 32.2438 74.4873 32.4307 74.8838V75H30.7354ZM28.9102 73.8037C29.2383 73.8037 29.5459 73.724 29.833 73.5645C30.1247 73.4049 30.3434 73.1908 30.4893 72.9219V71.5273H29.5938C28.9785 71.5273 28.516 71.6344 28.2061 71.8486C27.8962 72.0628 27.7412 72.3659 27.7412 72.7578C27.7412 73.0768 27.846 73.332 28.0557 73.5234C28.2699 73.7103 28.5547 73.8037 28.9102 73.8037ZM36.9287 73.8105C37.3434 73.8105 37.6875 73.6898 37.9609 73.4482C38.2344 73.2067 38.3802 72.9082 38.3984 72.5527H39.9639C39.9456 73.013 39.8021 73.4437 39.5332 73.8447C39.2643 74.2412 38.8997 74.5557 38.4395 74.7881C37.9792 75.0205 37.4824 75.1367 36.9492 75.1367C35.9147 75.1367 35.0944 74.8018 34.4883 74.1318C33.8822 73.4619 33.5791 72.5368 33.5791 71.3564V71.1855C33.5791 70.0599 33.8799 69.1598 34.4814 68.4854C35.083 67.8063 35.9033 67.4668 36.9424 67.4668C37.8219 67.4668 38.5374 67.7243 39.0889 68.2393C39.6449 68.7497 39.9365 69.4219 39.9639 70.2559H38.3984C38.3802 69.832 38.2344 69.4834 37.9609 69.21C37.6921 68.9365 37.348 68.7998 36.9287 68.7998C36.391 68.7998 35.9762 68.9958 35.6846 69.3877C35.3929 69.7751 35.2448 70.3652 35.2402 71.1582V71.4248C35.2402 72.2269 35.3838 72.8262 35.6709 73.2227C35.9626 73.6146 36.3818 73.8105 36.9287 73.8105ZM44.4756 75.1367C43.4229 75.1367 42.5684 74.8063 41.9121 74.1455C41.2604 73.4801 40.9346 72.596 40.9346 71.4932V71.2881C40.9346 70.5498 41.0758 69.8913 41.3584 69.3125C41.6455 68.7292 42.0465 68.2757 42.5615 67.9521C43.0765 67.6286 43.6507 67.4668 44.2842 67.4668C45.2913 67.4668 46.0684 67.7881 46.6152 68.4307C47.1667 69.0732 47.4424 69.9824 47.4424 71.1582V71.8281H42.6094C42.6595 72.4388 42.8623 72.9219 43.2178 73.2773C43.5778 73.6328 44.029 73.8105 44.5713 73.8105C45.3324 73.8105 45.9521 73.5029 46.4307 72.8877L47.3262 73.7422C47.0299 74.1842 46.6335 74.5283 46.1367 74.7744C45.6445 75.016 45.0908 75.1367 44.4756 75.1367ZM44.2773 68.7998C43.8216 68.7998 43.4525 68.9593 43.1699 69.2783C42.8919 69.5973 42.7142 70.0417 42.6367 70.6113H45.8018V70.4883C45.7653 69.9323 45.6172 69.513 45.3574 69.2305C45.0977 68.9434 44.7376 68.7998 44.2773 68.7998ZM55.2285 71.377C55.2285 72.5254 54.971 73.4391 54.4561 74.1182C53.9456 74.7972 53.2415 75.1367 52.3438 75.1367C51.4779 75.1367 50.8034 74.8245 50.3203 74.2002L50.2383 75H48.7344V64.5H50.3955V68.3145C50.874 67.7493 51.5189 67.4668 52.3301 67.4668C53.2324 67.4668 53.9411 67.8018 54.4561 68.4717C54.971 69.1416 55.2285 70.0781 55.2285 71.2812V71.377ZM53.5674 71.2334C53.5674 70.4313 53.4261 69.8298 53.1436 69.4287C52.861 69.0277 52.4508 68.8271 51.9131 68.8271C51.193 68.8271 50.6872 69.1416 50.3955 69.7705V72.8193C50.6917 73.4619 51.2021 73.7832 51.9268 73.7832C52.4463 73.7832 52.8473 73.5895 53.1299 73.2021C53.4124 72.8148 53.5583 72.2292 53.5674 71.4453V71.2334ZM56.3154 71.2334C56.3154 70.5088 56.459 69.8571 56.7461 69.2783C57.0332 68.695 57.4365 68.2484 57.9561 67.9385C58.4756 67.624 59.0726 67.4668 59.7471 67.4668C60.7451 67.4668 61.554 67.7881 62.1738 68.4307C62.7982 69.0732 63.1354 69.9255 63.1855 70.9873L63.1924 71.377C63.1924 72.1061 63.0511 72.7578 62.7686 73.332C62.4906 73.9062 62.0895 74.3506 61.5654 74.665C61.0459 74.9795 60.4443 75.1367 59.7607 75.1367C58.7171 75.1367 57.8809 74.7904 57.252 74.0977C56.6276 73.4004 56.3154 72.473 56.3154 71.3154V71.2334ZM57.9766 71.377C57.9766 72.138 58.1338 72.735 58.4482 73.168C58.7627 73.5964 59.2002 73.8105 59.7607 73.8105C60.3213 73.8105 60.7565 73.5918 61.0664 73.1543C61.3809 72.7168 61.5381 72.0765 61.5381 71.2334C61.5381 70.486 61.3763 69.8936 61.0527 69.4561C60.7337 69.0186 60.2985 68.7998 59.7471 68.7998C59.2048 68.7998 58.7741 69.0163 58.4551 69.4492C58.1361 69.8776 57.9766 70.5202 57.9766 71.377ZM64.2861 71.2334C64.2861 70.5088 64.4297 69.8571 64.7168 69.2783C65.0039 68.695 65.4072 68.2484 65.9268 67.9385C66.4463 67.624 67.0433 67.4668 67.7178 67.4668C68.7158 67.4668 69.5247 67.7881 70.1445 68.4307C70.7689 69.0732 71.1061 69.9255 71.1562 70.9873L71.1631 71.377C71.1631 72.1061 71.0218 72.7578 70.7393 73.332C70.4613 73.9062 70.0602 74.3506 69.5361 74.665C69.0166 74.9795 68.415 75.1367 67.7314 75.1367C66.6878 75.1367 65.8516 74.7904 65.2227 74.0977C64.5983 73.4004 64.2861 72.473 64.2861 71.3154V71.2334ZM65.9473 71.377C65.9473 72.138 66.1045 72.735 66.4189 73.168C66.7334 73.5964 67.1709 73.8105 67.7314 73.8105C68.292 73.8105 68.7272 73.5918 69.0371 73.1543C69.3516 72.7168 69.5088 72.0765 69.5088 71.2334C69.5088 70.486 69.347 69.8936 69.0234 69.4561C68.7044 69.0186 68.2692 68.7998 67.7178 68.7998C67.1755 68.7998 66.7448 69.0163 66.4258 69.4492C66.1068 69.8776 65.9473 70.5202 65.9473 71.377ZM74.9707 71.8281L74.2324 72.5869V75H72.5713V64.5H74.2324V70.5566L74.752 69.9072L76.7959 67.6035H78.792L76.0439 70.6865L79.0859 75H77.165L74.9707 71.8281Z" fill="#272323"/>
<defs>
<filter id="filter0_d_49_3" x="0" y="0" width="95" height="88" filterUnits="userSpaceOnUse" color-interpolation-filters="sRGB">
<feFlood flood-opacity="0" result="BackgroundImageFix"/>
<feColorMatrix in="SourceAlpha" type="matrix" values="0 0 0 0 0 0 0 0 0 0 0 0 0 0 0 0 0 0 127 0" result="hardAlpha"/>
<feOffset dy="1"/>
<feGaussianBlur stdDeviation="2"/>
<feColorMatrix type="matrix" values="0 0 0 0 0 0 0 0 0 0 0 0 0 0 0 0 0 0 0.25 0"/>
<feBlend mode="normal" in2="BackgroundImageFix" result="effect1_dropShadow_49_3"/>
<feBlend mode="normal" in="SourceGraphic" in2="effect1_dropShadow_49_3" result="shape"/>
</filter>
</defs>
</svg>
