<svg width="386" height="386" viewBox="0 0 386 386" fill="none" xmlns="http://www.w3.org/2000/svg">
<path fill-rule="evenodd" clip-rule="evenodd" d="M175.077 34.062C218.293 38.8131 256.547 56.1033 289.778 78.4919C320.876 99.4434 342.884 126.365 357.078 156.681C371.813 188.151 381.975 221.562 372.04 254.19C361.597 288.489 335.158 318.112 301.023 340.786C264.954 364.745 221.445 391.476 175.077 385.023C129.255 378.646 109.761 336.361 77.6523 309.7C52.6913 288.973 21.1588 273.188 8.19481 246.45C-5.22291 218.776 0.963891 189.21 4.94105 159.734C10.0661 121.751 -0.632429 76.498 34.642 50.4424C70.1111 24.2431 127.034 28.7802 175.077 34.062Z" fill="#DBD6FB"/>
<path d="M386 282.976H10V283.161H386V282.976Z" fill="#EBEBEB"/>
<path d="M348.325 294.883H323.419V295.068H348.325V294.883Z" fill="#EBEBEB"/>
<path d="M259.077 296.895H252.543V297.08H259.077V296.895Z" fill="#EBEBEB"/>
<path d="M322.667 288.015H308.236V288.2H322.667V288.015Z" fill="#EBEBEB"/>
<path d="M81.9288 289.259H49.4499V289.444H81.9288V289.259Z" fill="#EBEBEB"/>
<path d="M93.3893 289.259H88.6292V289.444H93.3893V289.259Z" fill="#EBEBEB"/>
<path d="M179.313 292.381H108.865V292.566H179.313V292.381Z" fill="#EBEBEB"/>
<path d="M188.224 249.972H43.0203C41.8828 249.97 40.7925 249.524 39.9889 248.732C39.1852 247.94 38.7339 246.866 38.7339 245.747V44.8884C38.7438 43.7754 39.1995 42.7113 40.0021 41.927C40.8047 41.1428 41.8893 40.7019 43.0203 40.7H188.224C189.363 40.7 190.455 41.1451 191.26 41.9375C192.065 42.73 192.518 43.8047 192.518 44.9254V245.747C192.518 246.867 192.065 247.942 191.26 248.734C190.455 249.527 189.363 249.972 188.224 249.972ZM43.0203 40.848C41.9326 40.8499 40.8902 41.2765 40.1218 42.034C39.3534 42.7915 38.9219 43.8181 38.9219 44.8884V245.747C38.9219 246.817 39.3534 247.843 40.1218 248.601C40.8902 249.358 41.9326 249.785 43.0203 249.787H188.224C189.312 249.785 190.355 249.359 191.125 248.601C191.895 247.844 192.328 246.818 192.33 245.747V44.8884C192.328 43.8174 191.895 42.7908 191.125 42.0335C190.355 41.2762 189.312 40.8499 188.224 40.848H43.0203Z" fill="#EBEBEB"/>
<path d="M350.889 249.972H205.678C204.54 249.97 203.449 249.524 202.644 248.732C201.839 247.94 201.386 246.867 201.384 245.747V44.8884C201.396 43.7747 201.853 42.7106 202.657 41.9266C203.461 41.1426 204.546 40.7018 205.678 40.7H350.889C352.019 40.7038 353.102 41.1456 353.902 41.9296C354.703 42.7136 355.158 43.7767 355.168 44.8884V245.747C355.168 246.865 354.718 247.937 353.916 248.729C353.114 249.521 352.025 249.968 350.889 249.972ZM205.678 40.848C204.59 40.8499 203.546 41.2762 202.777 42.0335C202.007 42.7908 201.574 43.8174 201.572 44.8884V245.747C201.574 246.818 202.007 247.844 202.777 248.601C203.546 249.359 204.59 249.785 205.678 249.787H350.889C351.977 249.785 353.021 249.359 353.79 248.601C354.56 247.844 354.993 246.818 354.995 245.747V44.8884C354.993 43.8174 354.56 42.7908 353.79 42.0335C353.021 41.2762 351.977 40.8499 350.889 40.848H205.678Z" fill="#EBEBEB"/>
<path d="M162.13 218.833H235.292L235.292 58.9706H162.13V218.833Z" fill="#E6E6E6"/>
<path d="M157.663 218.833H230.825L230.825 58.9706H157.663V218.833Z" fill="#F5F5F5"/>
<path d="M222.801 211.633V66.1633H165.687V211.633H222.801Z" fill="white"/>
<path d="M169.063 211.64V66.1708H165.687V211.64H169.063Z" fill="#E6E6E6"/>
<path d="M160.979 178.103H227.501V168.439H160.979V178.103Z" fill="#F5F5F5"/>
<path d="M160.979 88.5261L227.501 88.5261V78.8617L160.979 78.8617V88.5261Z" fill="#F5F5F5"/>
<path d="M63.4898 218.833H136.652L136.652 58.9706H63.4898L63.4898 218.833Z" fill="#E6E6E6"/>
<path d="M59.0304 218.833H132.193L132.193 58.9706H59.0304L59.0304 218.833Z" fill="#F5F5F5"/>
<path d="M124.161 211.64L124.161 66.1708H67.0467V211.64H124.161Z" fill="white"/>
<path d="M70.4307 211.64L70.4307 66.1708H67.0542L67.0542 211.64H70.4307Z" fill="#E6E6E6"/>
<path d="M62.3467 178.103H128.869V168.439H62.3467V178.103Z" fill="#F5F5F5"/>
<path d="M62.3467 88.5261L128.869 88.5261V78.8617L62.3467 78.8617V88.5261Z" fill="#F5F5F5"/>
<path d="M260.762 218.833H333.924V58.9706H260.762V218.833Z" fill="#E6E6E6"/>
<path d="M256.295 218.833H329.457V58.9706H256.295V218.833Z" fill="#F5F5F5"/>
<path d="M321.433 211.64V66.1708H264.319V211.64H321.433Z" fill="white"/>
<path d="M267.703 211.64V66.1708H264.326V211.64H267.703Z" fill="#E6E6E6"/>
<path d="M259.611 178.103H326.133V168.439H259.611V178.103Z" fill="#F5F5F5"/>
<path d="M259.611 88.5261L326.133 88.5261V78.8617L259.611 78.8617V88.5261Z" fill="#F5F5F5"/>
<path d="M180.839 241.321H51.9014V282.976H180.839V241.321Z" fill="#F5F5F5"/>
<path d="M180.832 282.976H201.384V241.321H180.832V282.976Z" fill="#E6E6E6"/>
<path d="M188.848 241.321H49.5176C48.5423 241.321 47.607 240.94 46.9174 240.261C46.2278 239.583 45.8403 238.662 45.8403 237.703C45.8403 236.743 46.2278 235.823 46.9174 235.144C47.607 234.465 48.5423 234.084 49.5176 234.084H188.848V241.321Z" fill="#EBEBEB"/>
<path d="M178.568 241.321H201.384V234.084H178.568C177.593 234.084 176.658 234.465 175.968 235.144C175.278 235.823 174.891 236.743 174.891 237.703C174.891 238.662 175.278 239.583 175.968 240.261C176.658 240.94 177.593 241.321 178.568 241.321Z" fill="#E0E0E0"/>
<path d="M319.907 241.321H190.969V282.976H319.907V241.321Z" fill="#F5F5F5"/>
<path d="M319.907 282.976H340.459V241.321H319.907V282.976Z" fill="#E6E6E6"/>
<path d="M327.916 241.321H188.585C187.61 241.321 186.674 240.94 185.985 240.261C185.295 239.583 184.908 238.662 184.908 237.703C184.908 236.743 185.295 235.823 185.985 235.144C186.674 234.465 187.61 234.084 188.585 234.084H327.916V241.321Z" fill="#EBEBEB"/>
<path d="M317.643 241.321H340.459V234.084H317.643C316.668 234.084 315.733 234.465 315.043 235.144C314.353 235.823 313.966 236.743 313.966 237.703C313.966 238.662 314.353 239.583 315.043 240.261C315.733 240.94 316.668 241.321 317.643 241.321Z" fill="#E0E0E0"/>
<path d="M198 316.394C278.526 316.394 343.805 312.644 343.805 308.018C343.805 303.391 278.526 299.641 198 299.641C117.474 299.641 52.1947 303.391 52.1947 308.018C52.1947 312.644 117.474 316.394 198 316.394Z" fill="#F5F5F5"/>
<path d="M216.311 298.42L210.536 297.08L213.732 283.435L219.5 284.774L216.311 298.42Z" fill="#B55B52"/>
<path d="M260.619 301.95H254.588L253.874 288.193H259.912L260.619 301.95Z" fill="#B55B52"/>
<path d="M253.595 301.261H260.957C261.077 301.262 261.193 301.303 261.286 301.377C261.379 301.451 261.443 301.553 261.469 301.668L262.672 306.952C262.699 307.08 262.696 307.213 262.664 307.341C262.632 307.468 262.571 307.587 262.486 307.688C262.4 307.789 262.293 307.87 262.172 307.924C262.05 307.979 261.918 308.006 261.785 308.003C259.423 307.966 257.694 307.825 254.708 307.825C252.873 307.825 248.843 308.018 246.308 308.018C243.774 308.018 243.443 305.553 244.481 305.324C249.128 304.325 251.136 302.949 252.625 301.624C252.895 301.394 253.238 301.265 253.595 301.261Z" fill="#263238"/>
<path d="M210.265 296.385L216.687 297.865C216.803 297.893 216.906 297.958 216.98 298.051C217.053 298.144 217.093 298.258 217.093 298.375L217.033 303.785C217.032 303.916 217.002 304.045 216.943 304.162C216.884 304.28 216.799 304.383 216.694 304.463C216.589 304.544 216.467 304.6 216.337 304.627C216.207 304.654 216.072 304.652 215.943 304.621C213.634 304.051 210.318 303.141 207.407 302.475C204.008 301.698 203.941 301.824 199.948 300.906C197.534 300.351 197.436 297.798 198.496 297.813C203.332 297.88 204.196 298.013 208.746 296.518C209.23 296.334 209.756 296.288 210.265 296.385Z" fill="#263238"/>
<path d="M241.353 118.933C238.616 122.566 236.036 126.222 233.54 129.988C232.291 131.875 231.058 133.77 229.877 135.701C228.697 137.633 227.508 139.586 226.396 141.621L225.974 142.361L225.764 142.739L225.44 143.375C225.167 143.952 224.97 144.561 224.854 145.188C224.673 146.156 224.754 147.153 225.087 148.081C225.461 149.071 226.126 149.929 226.997 150.546C227.564 150.95 228.194 151.26 228.862 151.463L234.525 144.396C236.63 141.259 238.834 138.128 241.067 135.006L248.76 124.224L241.353 118.933Z" fill="#B65B52"/>
<path opacity="0.2" d="M213.732 283.435L212.085 290.472L217.86 291.812L219.507 284.782L213.732 283.435Z" fill="black"/>
<path d="M252.685 120.22C254.325 125.667 244.631 136.108 244.631 136.108L232.9 128.76C235.013 125.323 237.333 122.014 239.849 118.851C244.804 112.517 250.7 113.627 252.685 120.22Z" fill="#9F91F5"/>
<path opacity="0.4" d="M252.685 120.22C254.325 125.667 244.631 136.108 244.631 136.108L232.9 128.76C235.013 125.323 237.333 122.014 239.849 118.851C244.804 112.517 250.7 113.627 252.685 120.22Z" fill="black"/>
<path opacity="0.2" d="M259.912 288.2H253.874L254.242 295.29H260.281L259.912 288.2Z" fill="black"/>
<path d="M277.336 122.292C270.26 143.464 269.65 165.479 268.936 170.082C264.229 169.593 246.504 167.714 236.841 166.685C234.284 138.639 241.458 121.478 244.022 116.365C244.271 115.866 244.647 115.439 245.114 115.127C245.58 114.814 246.122 114.626 246.684 114.582C247.519 114.515 248.602 114.448 249.82 114.411C250.708 114.411 251.663 114.367 252.655 114.411C253.204 114.411 253.761 114.411 254.325 114.471C258.896 114.851 263.44 115.491 267.936 116.387C268.786 116.55 269.651 116.735 270.478 116.927C271.305 117.12 271.982 117.305 272.734 117.497C273.629 117.741 274.478 117.986 275.223 118.237C275.633 118.366 276.013 118.573 276.342 118.846C276.67 119.12 276.941 119.455 277.137 119.832C277.333 120.209 277.452 120.62 277.486 121.043C277.52 121.465 277.469 121.89 277.336 122.292Z" fill="#9F91F5"/>
<path opacity="0.3" d="M277.336 122.292C270.26 143.464 269.65 165.479 268.936 170.082C264.229 169.593 246.504 167.714 236.841 166.685C234.284 138.639 241.458 121.478 244.022 116.365C244.271 115.866 244.647 115.439 245.114 115.127C245.58 114.814 246.122 114.626 246.684 114.582C247.519 114.515 248.602 114.448 249.82 114.411C250.708 114.411 251.663 114.367 252.655 114.411C253.204 114.411 253.761 114.411 254.325 114.471C258.896 114.851 263.44 115.491 267.936 116.387C268.786 116.55 269.651 116.735 270.478 116.927C271.305 117.12 271.982 117.305 272.734 117.497C273.629 117.741 274.478 117.986 275.223 118.237C275.633 118.366 276.013 118.573 276.342 118.846C276.67 119.12 276.941 119.455 277.137 119.832C277.333 120.209 277.452 120.62 277.486 121.043C277.52 121.465 277.469 121.89 277.336 122.292Z" fill="black"/>
<path d="M252.422 114.397H252.655C253.204 114.397 253.761 114.397 254.325 114.448C258.896 114.84 263.44 115.487 267.936 116.387C268.59 116.513 269.244 116.654 269.891 116.802L268.831 117.542C265.703 119.828 262.063 121.893 256.994 121.545L256.34 121.493C253.746 121.212 252.136 120.265 251.55 118.659C251.344 117.931 251.316 117.166 251.468 116.425C251.619 115.684 251.946 114.989 252.422 114.397Z" fill="#9F91F5"/>
<path d="M268.778 101.143C267.274 105.324 265.266 113.079 267.906 116.387C265.184 118.37 261.687 120.613 256.468 120.05C251.249 119.488 252.708 116.106 254.325 114.448C259.363 113.997 259.762 110.423 259.408 106.96L268.778 101.143Z" fill="#B55B52"/>
<path opacity="0.2" d="M264.928 103.519L259.378 106.952C259.475 107.76 259.498 108.575 259.446 109.387C261.348 109.387 264.206 107.744 264.71 105.85C264.922 105.091 264.996 104.302 264.928 103.519Z" fill="black"/>
<path d="M259.16 94.8014L261.378 95.0974C264.221 95.0308 269.462 89.3994 267.582 84.5302C261.228 83.4498 254.573 86.5356 259.16 94.8014Z" fill="#263238"/>
<path d="M273.019 97.8502C269.914 102.882 268.35 105.99 264.251 107.278C258.077 109.209 252.821 103.445 254.34 97.5912C255.708 92.3298 260.566 85.0112 266.853 85.5884C268.241 85.7158 269.572 86.1904 270.72 86.967C271.869 87.7437 272.796 88.7967 273.414 90.0257C274.032 91.2547 274.32 92.6189 274.251 93.9885C274.182 95.3581 273.758 96.6875 273.019 97.8502Z" fill="#B55B52"/>
<path d="M276.629 90.4427L274.373 90.4945C271.583 91.0125 267.319 97.3913 269.974 101.905C276.336 102.978 284.104 97.1471 276.629 90.4427Z" fill="#263238"/>
<path d="M272.764 92.5518C267.003 91.353 261.409 84.841 261.694 80.808C261.995 76.5456 268.079 78.7952 269.214 80.142C269.034 77.7888 270.718 78.3438 271.869 79.7868C273.019 81.2298 274.456 86.4468 278.795 90.2208C281.698 92.7442 279.359 93.9282 272.764 92.5518Z" fill="#263238"/>
<path d="M278.005 92.5C278.005 92.5 280.404 93.4472 280.968 92.685C281.412 94.3204 279.675 94.1206 278.005 92.5Z" fill="#263238"/>
<path d="M272.343 104.821C271.696 105.19 270.982 105.43 270.241 105.526C269.501 105.623 268.748 105.574 268.026 105.383C266.101 104.865 266.169 102.927 267.56 101.683C268.808 100.544 271.32 99.4633 272.824 100.647C274.328 101.831 273.952 103.903 272.343 104.821Z" fill="#B55B52"/>
<path d="M237.548 230.14C241.375 217.486 257.942 168.935 257.942 168.935L236.841 166.715C236.841 166.715 224.809 210.079 221.801 227.957C218.62 246.546 210.062 287.379 210.062 287.379L220.379 290.176C220.379 290.176 233.712 242.779 237.548 230.14Z" fill="#9F91F5"/>
<path opacity="0.2" d="M250.076 180.937C244.865 188.915 242.18 206.438 242 216.272C245.421 205.912 249.865 192.733 253.182 182.921C252.196 182.187 251.158 181.524 250.076 180.937Z" fill="black"/>
<path d="M248.226 167.891C248.226 167.891 246.504 216.665 247.196 234.055C247.948 253.102 251.467 293.921 251.467 293.921H262.522C262.522 293.921 261.491 253.258 262.386 234.721C263.409 213.579 268.936 170.111 268.936 170.111L248.226 167.891Z" fill="#9F91F5"/>
<path d="M250.557 294.15H263.574V290.324L249.896 289.71L250.557 294.15Z" fill="#9F91F5"/>
<path opacity="0.5" d="M250.557 294.15H263.574V290.324L249.896 289.71L250.557 294.15Z" fill="white"/>
<path d="M208.866 288.563L220.725 291.294L221.62 287.52L209.573 284.108L208.866 288.563Z" fill="#9F91F5"/>
<path opacity="0.5" d="M208.866 288.563L220.725 291.294L221.62 287.52L209.573 284.108L208.866 288.563Z" fill="white"/>
<path d="M264.221 95.1418C263.995 95.571 263.582 95.793 263.296 95.645C263.01 95.497 262.973 95.0382 263.198 94.6164C263.424 94.1946 263.838 93.9652 264.123 94.1132C264.409 94.2612 264.447 94.72 264.221 95.1418Z" fill="#263238"/>
<path d="M259.348 92.6183C259.122 93.0475 258.709 93.2695 258.431 93.1215C258.152 92.9735 258.1 92.5147 258.333 92.0929C258.566 91.6711 258.972 91.4417 259.25 91.5897C259.529 91.7377 259.574 92.1965 259.348 92.6183Z" fill="#263238"/>
<path d="M260.784 93.6322C259.577 94.6629 258.231 95.5245 256.784 96.1926C256.968 96.5518 257.229 96.867 257.55 97.1163C257.871 97.3656 258.243 97.5428 258.641 97.6356L260.784 93.6322Z" fill="#A02724"/>
<path d="M259.852 99.715C260.362 99.9058 260.906 99.993 261.452 99.9713C261.997 99.9497 262.532 99.8197 263.025 99.5892C263.042 99.5805 263.057 99.5685 263.069 99.5541C263.081 99.5397 263.09 99.5231 263.096 99.5053C263.102 99.4874 263.104 99.4686 263.102 99.45C263.1 99.4314 263.094 99.4133 263.086 99.3968C263.077 99.3803 263.065 99.3656 263.05 99.3537C263.035 99.3418 263.018 99.3328 263 99.3274C262.982 99.3219 262.963 99.3199 262.944 99.3217C262.925 99.3235 262.907 99.3289 262.89 99.3376C262.339 99.5869 261.736 99.7055 261.13 99.6836C260.524 99.6618 259.932 99.5002 259.401 99.2118C259.368 99.196 259.33 99.1933 259.295 99.2043C259.26 99.2153 259.23 99.2392 259.213 99.271C259.203 99.2866 259.196 99.3043 259.193 99.3227C259.191 99.3411 259.193 99.3598 259.198 99.3775C259.204 99.3952 259.214 99.4114 259.227 99.4249C259.24 99.4385 259.255 99.4491 259.273 99.456C259.459 99.5562 259.653 99.6427 259.852 99.715Z" fill="#263238"/>
<path d="M267.613 93.129C267.662 93.1404 267.714 93.1404 267.763 93.129C267.837 93.1146 267.902 93.0728 267.946 93.0122C267.989 92.9515 268.007 92.8768 267.996 92.8034C267.933 92.3617 267.764 91.9411 267.502 91.5768C267.241 91.2125 266.894 90.915 266.492 90.7092C266.458 90.6946 266.42 90.6868 266.383 90.6863C266.345 90.6858 266.308 90.6926 266.273 90.7064C266.238 90.7201 266.206 90.7405 266.179 90.7664C266.152 90.7923 266.131 90.8232 266.116 90.8572C266.088 90.9252 266.086 91.0014 266.113 91.0701C266.14 91.1389 266.192 91.1951 266.259 91.2272C266.577 91.3931 266.85 91.6314 267.056 91.9224C267.261 92.2133 267.393 92.5484 267.44 92.8996C267.443 92.9501 267.462 92.9985 267.492 93.0391C267.523 93.0797 267.565 93.1109 267.613 93.129Z" fill="#263238"/>
<path d="M260.95 89.6436C260.914 89.6132 260.871 89.5924 260.825 89.5834C260.779 89.5743 260.731 89.5772 260.687 89.5918C260.345 89.7 259.981 89.7263 259.627 89.6683C259.272 89.6104 258.937 89.47 258.649 89.2588C258.594 89.2073 258.521 89.1785 258.446 89.1785C258.37 89.1785 258.297 89.2073 258.243 89.2588C258.191 89.3113 258.162 89.3817 258.162 89.4549C258.162 89.5282 258.191 89.5985 258.243 89.651C258.604 89.9219 259.026 90.1035 259.474 90.1808C259.921 90.2581 260.381 90.2286 260.815 90.095C260.887 90.0744 260.949 90.0261 260.985 89.9609C261.022 89.8957 261.031 89.8188 261.01 89.7472C260.998 89.7085 260.978 89.6731 260.95 89.6436Z" fill="#263238"/>
<path d="M251.603 302.305C252.135 302.29 252.665 302.218 253.182 302.09C253.209 302.083 253.234 302.068 253.253 302.047C253.272 302.026 253.283 302 253.287 301.972C253.293 301.945 253.29 301.917 253.279 301.892C253.269 301.867 253.25 301.846 253.227 301.831C253.001 301.698 251.054 300.521 250.392 300.854C250.318 300.893 250.256 300.95 250.212 301.021C250.168 301.091 250.145 301.172 250.144 301.254C250.129 301.391 250.148 301.53 250.199 301.659C250.25 301.788 250.332 301.903 250.437 301.994C250.78 302.221 251.19 302.331 251.603 302.305ZM252.768 301.89C251.745 302.09 250.956 302.053 250.625 301.779C250.552 301.718 250.496 301.64 250.462 301.552C250.428 301.464 250.417 301.369 250.429 301.276C250.427 301.242 250.434 301.209 250.45 301.179C250.466 301.149 250.49 301.124 250.52 301.106C250.866 300.928 251.978 301.439 252.768 301.92V301.89Z" fill="#9F91F5"/>
<path d="M253.152 302.09C253.176 302.097 253.202 302.097 253.227 302.09C253.248 302.076 253.265 302.058 253.277 302.036C253.289 302.014 253.295 301.989 253.295 301.964C253.295 301.89 253.144 300.173 252.437 299.611C252.355 299.54 252.258 299.487 252.153 299.456C252.048 299.425 251.937 299.418 251.828 299.434C251.722 299.433 251.619 299.469 251.537 299.535C251.454 299.601 251.398 299.694 251.377 299.796C251.249 300.462 252.452 301.764 253.084 302.097L253.152 302.09ZM251.933 299.7C252.054 299.699 252.17 299.744 252.257 299.826C252.695 300.354 252.958 301.003 253.009 301.683C252.385 301.217 251.618 300.203 251.693 299.848C251.693 299.811 251.693 299.722 251.903 299.7H251.971H251.933Z" fill="#9F91F5"/>
<path d="M209.498 297.051C209.524 297.048 209.549 297.038 209.57 297.022C209.591 297.007 209.608 296.986 209.618 296.962C209.628 296.935 209.629 296.905 209.621 296.877C209.613 296.849 209.596 296.825 209.573 296.806C209.34 296.607 207.257 294.883 206.452 295.112C206.377 295.132 206.307 295.171 206.252 295.225C206.196 295.28 206.157 295.348 206.137 295.423C206.089 295.544 206.072 295.676 206.089 295.805C206.106 295.934 206.156 296.057 206.234 296.163C206.746 296.903 208.49 297.036 209.476 297.065L209.498 297.051ZM206.588 295.371C207.062 295.327 208.235 296.111 209.062 296.747C207.708 296.666 206.761 296.385 206.468 296.007C206.418 295.939 206.387 295.861 206.377 295.778C206.366 295.695 206.377 295.611 206.407 295.534C206.413 295.504 206.428 295.476 206.449 295.454C206.47 295.432 206.498 295.416 206.528 295.408L206.588 295.371Z" fill="#9F91F5"/>
<path d="M209.498 297.051C209.521 297.04 209.54 297.025 209.556 297.005C209.572 296.986 209.583 296.964 209.588 296.94C209.588 296.873 209.806 295.275 209.205 294.498C209.115 294.382 209.002 294.286 208.873 294.215C208.743 294.145 208.6 294.103 208.453 294.091C208.062 294.039 207.911 294.202 207.844 294.35C207.58 294.979 208.693 296.57 209.348 297.029C209.368 297.047 209.393 297.058 209.419 297.062C209.446 297.066 209.474 297.062 209.498 297.051ZM208.34 294.357H208.49C208.595 294.369 208.696 294.402 208.786 294.454C208.877 294.506 208.955 294.577 209.017 294.661C209.334 295.266 209.455 295.953 209.363 296.629C208.746 296.03 208.024 294.831 208.182 294.453C208.19 294.424 208.212 294.365 208.34 294.357Z" fill="#9F91F5"/>
<path d="M279.043 127.332C278.449 128.442 277.885 129.374 277.268 130.358C276.652 131.343 276.065 132.29 275.411 133.222C274.132 135.102 272.771 136.922 271.358 138.72C269.944 140.519 268.455 142.243 266.846 143.9L266.236 144.559C265.804 145.038 265.311 145.46 264.77 145.817C264.374 146.067 263.95 146.271 263.507 146.424C262.954 146.618 262.372 146.718 261.785 146.72C260.684 146.722 259.608 146.394 258.701 145.78C258.142 145.402 257.648 144.94 257.235 144.411C256.94 144.045 256.676 143.657 256.445 143.249C256.085 142.604 255.773 141.934 255.513 141.244C254.701 138.972 254.105 136.631 253.731 134.251C253.332 132.031 253.054 129.774 252.836 127.546C252.392 123.106 252.182 118.703 252.182 114.226L256.694 113.842C257.506 118.074 258.363 122.352 259.295 126.525C259.769 128.619 260.266 130.691 260.799 132.704C261.296 134.606 261.942 136.466 262.732 138.269C262.883 138.594 263.061 138.906 263.266 139.201C263.341 139.305 263.409 139.379 263.431 139.379C263.454 139.379 263.431 139.312 263.168 139.127C262.721 138.84 262.199 138.685 261.664 138.683C261.161 138.68 260.667 138.813 260.235 139.068C260.017 139.201 259.987 139.253 259.987 139.224L260.446 138.632C261.709 136.952 262.965 135.25 264.153 133.503C265.342 131.757 266.53 130.011 267.68 128.242L269.387 125.578L271.004 122.958L279.043 127.332Z" fill="#B65B52"/>
<path d="M228.832 151.463C229.689 151.717 230.577 151.859 231.471 151.885C232.815 151.929 234.159 151.849 235.487 151.648C236.728 151.471 237.909 151.241 239.074 150.99C243.611 149.942 248.053 148.528 252.354 146.764L251.377 142.502C249.196 142.827 246.677 143.168 244.489 143.456C242.3 143.745 240.119 144.041 237.984 144.196C236.916 144.293 235.863 144.367 234.848 144.381H234.494" fill="#B65B52"/>
<path d="M250.099 142.687L254.934 141.68L255.979 148.74C255.979 148.74 250.61 149.554 248.971 145.543L250.099 142.687Z" fill="#B55B52"/>
<path d="M260.386 143.871L259.461 148.2L255.979 148.725L254.934 141.68L260.386 143.871Z" fill="#B55B52"/>
<path d="M280.051 122.685C282.653 127.754 275.02 139.705 275.02 139.705L262.138 134.525C263.597 130.781 265.282 127.126 267.184 123.58C270.891 116.498 276.892 116.55 280.051 122.685Z" fill="#9F91F5"/>
<path opacity="0.3" d="M280.051 122.685C282.653 127.754 275.02 139.705 275.02 139.705L262.138 134.525C263.597 130.781 265.282 127.126 267.184 123.58C270.891 116.498 276.892 116.55 280.051 122.685Z" fill="black"/>
<path d="M257.318 115.292L257.769 109.276L250.64 110.541C250.64 110.541 250.903 116.062 253.858 116.498L257.318 115.292Z" fill="#B55B52"/>
<path d="M255.686 103.622L249.625 105.805L250.647 110.541L257.769 109.276L255.686 103.622Z" fill="#B55B52"/>
<path d="M195.052 128.693C201.897 128.693 207.445 123.233 207.445 116.498C207.445 109.763 201.897 104.303 195.052 104.303C188.208 104.303 182.659 109.763 182.659 116.498C182.659 123.233 188.208 128.693 195.052 128.693Z" fill="#9F91F5"/>
<path opacity="0.7" d="M195.052 128.693C201.897 128.693 207.445 123.233 207.445 116.498C207.445 109.763 201.897 104.303 195.052 104.303C188.208 104.303 182.659 109.763 182.659 116.498C182.659 123.233 188.208 128.693 195.052 128.693Z" fill="white"/>
<path d="M220.763 112.066C223.915 112.066 226.471 109.551 226.471 106.449C226.471 103.347 223.915 100.832 220.763 100.832C217.611 100.832 215.055 103.347 215.055 106.449C215.055 109.551 217.611 112.066 220.763 112.066Z" fill="#9F91F5"/>
<path opacity="0.6" d="M220.763 112.066C223.915 112.066 226.471 109.551 226.471 106.449C226.471 103.347 223.915 100.832 220.763 100.832C217.611 100.832 215.055 103.347 215.055 106.449C215.055 109.551 217.611 112.066 220.763 112.066Z" fill="white"/>
<path d="M235.758 94.0984C235.758 94.5946 235.608 95.0796 235.328 95.4921C235.048 95.9047 234.65 96.2262 234.184 96.4161C233.718 96.6059 233.206 96.6556 232.711 96.5588C232.217 96.462 231.763 96.2231 231.406 95.8723C231.05 95.5215 230.807 95.0745 230.708 94.5878C230.61 94.1012 230.661 93.5968 230.853 93.1384C231.046 92.6801 231.373 92.2883 231.792 92.0126C232.212 91.737 232.705 91.5898 233.209 91.5898C233.885 91.5898 234.533 91.8541 235.011 92.3246C235.489 92.795 235.758 93.4331 235.758 94.0984Z" fill="#9F91F5"/>
<path opacity="0.5" d="M235.758 94.0984C235.758 94.5946 235.608 95.0796 235.328 95.4921C235.048 95.9047 234.65 96.2262 234.184 96.4161C233.718 96.6059 233.206 96.6556 232.711 96.5588C232.217 96.462 231.763 96.2231 231.406 95.8723C231.05 95.5215 230.807 95.0745 230.708 94.5878C230.61 94.1012 230.661 93.5968 230.853 93.1384C231.046 92.6801 231.373 92.2883 231.792 92.0126C232.212 91.737 232.705 91.5898 233.209 91.5898C233.885 91.5898 234.533 91.8541 235.011 92.3246C235.489 92.795 235.758 93.4331 235.758 94.0984Z" fill="white"/>
<path d="M193.488 79.624C193.49 75.464 192.394 71.3749 190.307 67.7571C188.22 64.1392 185.214 61.1167 181.584 58.9854C181.565 53.7334 180.003 48.5989 177.084 44.202C174.165 39.805 170.015 36.3335 165.135 34.2067C160.255 32.0799 154.853 31.3887 149.583 32.2166C144.312 33.0445 139.398 35.3561 135.434 38.8722C132.877 35.8145 129.591 33.4259 125.87 31.9187C122.149 30.4115 118.107 29.8325 114.103 30.233C110.1 30.6336 106.259 32.0013 102.922 34.2147C99.5848 36.4281 96.8554 39.4184 94.976 42.92C91.5587 41.234 87.7186 40.5571 83.9191 40.971C80.1195 41.3849 76.5229 42.8718 73.563 45.2525C70.6031 47.6331 68.4066 50.8057 67.2383 54.3875C66.07 57.9693 65.98 61.8072 66.979 65.4382C64.4041 67.1267 62.3182 69.4435 60.9252 72.1623C59.5321 74.8812 58.8795 77.9091 59.031 80.9503C59.1825 83.9915 60.1331 86.9421 61.7897 89.5138C63.4464 92.0854 65.7526 94.1903 68.483 95.6228C69.2407 99.6717 71.4158 103.331 74.6304 105.966C77.8451 108.601 81.8962 110.044 86.0798 110.045C87.2027 110.044 88.3229 109.94 89.4262 109.735C90.4092 112.006 91.8666 114.049 93.7039 115.73C95.5413 117.411 97.7174 118.693 100.091 119.493C102.465 120.293 104.983 120.592 107.481 120.372C109.98 120.152 112.404 119.417 114.596 118.215C116.484 119.921 118.722 121.208 121.159 121.989C123.597 122.771 126.176 123.027 128.723 122.742C131.27 122.458 133.725 121.638 135.922 120.338C138.119 119.039 140.006 117.29 141.457 115.211C144.045 118.324 147.547 120.574 151.485 121.651C155.423 122.728 159.604 122.58 163.453 121.227C167.302 119.875 170.631 117.383 172.985 114.095C175.338 110.806 176.6 106.882 176.598 102.86C176.598 102.749 176.598 102.638 176.598 102.52C181.512 100.951 185.794 97.8903 188.829 93.7764C191.864 89.6624 193.495 84.7076 193.488 79.624Z" fill="#9F91F5"/>
<path opacity="0.8" d="M193.488 79.624C193.49 75.464 192.394 71.3749 190.307 67.7571C188.22 64.1392 185.214 61.1167 181.584 58.9854C181.565 53.7334 180.003 48.5989 177.084 44.202C174.165 39.805 170.015 36.3335 165.135 34.2067C160.255 32.0799 154.853 31.3887 149.583 32.2166C144.312 33.0445 139.398 35.3561 135.434 38.8722C132.877 35.8145 129.591 33.4259 125.87 31.9187C122.149 30.4115 118.107 29.8325 114.103 30.233C110.1 30.6336 106.259 32.0013 102.922 34.2147C99.5848 36.4281 96.8554 39.4184 94.976 42.92C91.5587 41.234 87.7186 40.5571 83.9191 40.971C80.1195 41.3849 76.5229 42.8718 73.563 45.2525C70.6031 47.6331 68.4066 50.8057 67.2383 54.3875C66.07 57.9693 65.98 61.8072 66.979 65.4382C64.4041 67.1267 62.3182 69.4435 60.9252 72.1623C59.5321 74.8812 58.8795 77.9091 59.031 80.9503C59.1825 83.9915 60.1331 86.9421 61.7897 89.5138C63.4464 92.0854 65.7526 94.1903 68.483 95.6228C69.2407 99.6717 71.4158 103.331 74.6304 105.966C77.8451 108.601 81.8962 110.044 86.0798 110.045C87.2027 110.044 88.3229 109.94 89.4262 109.735C90.4092 112.006 91.8666 114.049 93.7039 115.73C95.5413 117.411 97.7174 118.693 100.091 119.493C102.465 120.293 104.983 120.592 107.481 120.372C109.98 120.152 112.404 119.417 114.596 118.215C116.484 119.921 118.722 121.208 121.159 121.989C123.597 122.771 126.176 123.027 128.723 122.742C131.27 122.458 133.725 121.638 135.922 120.338C138.119 119.039 140.006 117.29 141.457 115.211C144.045 118.324 147.547 120.574 151.485 121.651C155.423 122.728 159.604 122.58 163.453 121.227C167.302 119.875 170.631 117.383 172.985 114.095C175.338 110.806 176.6 106.882 176.598 102.86C176.598 102.749 176.598 102.638 176.598 102.52C181.512 100.951 185.794 97.8903 188.829 93.7764C191.864 89.6624 193.495 84.7076 193.488 79.624Z" fill="white"/>
<path d="M128.651 104.68L127.846 104.769C127.846 104.547 125.725 87.1202 119.454 78.5362C116.325 79.698 113.919 78.6028 112.904 76.9674C112.506 76.4227 112.326 75.7533 112.396 75.0863C112.467 74.4193 112.784 73.8011 113.287 73.3488L113.445 73.2156L113.641 73.26C125.191 75.887 128.515 103.504 128.651 104.68ZM113.671 74.0888C113.377 74.4309 113.21 74.8606 113.197 75.308C113.183 75.7554 113.324 76.1941 113.596 76.553C114.415 77.8628 116.363 78.773 118.942 77.8702C117.651 76.078 115.8 74.7502 113.671 74.0888Z" fill="white"/>
<path d="M132.253 104.14C132.027 102.978 126.823 75.6429 137.05 69.7451L137.231 69.6415L137.419 69.7229C138.036 70.0062 138.526 70.5024 138.796 71.1175C139.067 71.7325 139.098 72.4238 138.885 73.0603C138.404 74.9251 136.441 76.6789 133.11 76.4791C129.718 86.5135 133.005 103.77 133.05 103.985L132.253 104.14ZM133.396 75.6947C136.118 75.7687 137.712 74.3627 138.096 72.8679C138.247 72.4465 138.249 71.9869 138.1 71.5646C137.951 71.1423 137.66 70.7824 137.276 70.5443C135.448 71.8001 134.085 73.6083 133.396 75.6947Z" fill="white"/>
<path d="M101.797 69.56L101.045 69.634C100.945 68.5937 100.912 67.5482 100.947 66.5038H101.699C101.663 67.5235 101.696 68.5445 101.797 69.56Z" fill="#9F91F5"/>
<path d="M102.015 63.4106L101.263 63.2922C101.841 59.9101 103.182 56.6987 105.188 53.8942L105.805 54.3234C103.866 57.035 102.571 60.1405 102.015 63.4106Z" fill="#9F91F5"/>
<path d="M136.9 93.4842L120.988 95.8744C120.417 95.9575 119.833 95.8586 119.323 95.5924C118.813 95.3261 118.403 94.9064 118.153 94.3944C116.154 90.1871 113.324 86.4137 109.828 83.2944C106.81 80.5526 104.634 77.0326 103.548 73.1345C102.462 69.2364 102.51 65.1166 103.685 61.2436C104.86 57.3706 107.116 53.8998 110.196 51.2257C113.276 48.5516 117.056 46.7815 121.108 46.1168C123.976 45.6448 126.91 45.7385 129.741 46.3926C132.572 47.0467 135.242 48.248 137.597 49.9267C139.951 51.6055 141.943 53.7282 143.457 56.1713C144.97 58.6145 145.975 61.3293 146.413 64.158C147.176 69.0728 146.193 74.0961 143.63 78.3808C141.253 82.3159 139.718 86.6874 139.118 91.2272C139.041 91.787 138.785 92.3079 138.386 92.714C137.987 93.12 137.466 93.3899 136.9 93.4842ZM121.364 47.6708C117.598 48.2735 114.082 49.9079 111.217 52.3866C108.352 54.8654 106.254 58.0882 105.165 61.6859C104.076 65.2835 104.038 69.1104 105.057 72.728C106.076 76.3455 108.11 79.6075 110.926 82.14C114.575 85.4031 117.531 89.3439 119.627 93.7358C119.721 93.9412 119.88 94.1109 120.081 94.219C120.282 94.3272 120.513 94.368 120.74 94.3352L136.652 91.945C136.882 91.9063 137.092 91.7952 137.253 91.6284C137.413 91.4615 137.513 91.248 137.539 91.02C138.157 86.2692 139.751 81.6918 142.224 77.5668C144.601 73.5944 145.512 68.9367 144.804 64.38C144.4 61.7591 143.47 59.2435 142.069 56.9797C140.667 54.7158 138.822 52.7491 136.64 51.194C134.459 49.6388 131.985 48.5264 129.362 47.9216C126.739 47.3167 124.02 47.2315 121.364 47.6708Z" fill="#9F91F5"/>
<path d="M136.148 107.722L126.019 109.246C125.273 109.357 124.513 109.172 123.906 108.732C123.298 108.292 122.892 107.634 122.777 106.9L122.74 106.634C122.687 106.33 122.687 106.02 122.74 105.716C122.225 105.269 121.885 104.66 121.777 103.992V103.874C121.724 103.512 121.739 103.143 121.822 102.786C121.328 102.338 121.004 101.738 120.905 101.084C120.792 100.317 120.99 99.5366 121.455 98.9112C121.921 98.2857 122.617 97.8649 123.394 97.7392L135.193 95.9706C135.973 95.8596 136.765 96.0539 137.401 96.5119C138.037 96.9699 138.464 97.655 138.592 98.42C138.698 99.0759 138.571 99.7478 138.231 100.322C138.42 100.648 138.542 101.008 138.592 101.38V101.498C138.694 102.168 138.553 102.852 138.193 103.43C138.336 103.704 138.435 103.999 138.487 104.303V104.569C138.591 105.291 138.405 106.025 137.968 106.613C137.532 107.202 136.878 107.6 136.148 107.722ZM123.627 99.3154C123.272 99.3701 122.952 99.5612 122.74 99.8469C122.527 100.133 122.438 100.49 122.492 100.84C122.522 101.041 122.6 101.233 122.719 101.4C122.838 101.567 122.994 101.704 123.176 101.802L123.853 102.179L123.499 102.86C123.38 103.088 123.333 103.346 123.364 103.6V103.718C123.395 103.917 123.473 104.105 123.592 104.269C123.711 104.432 123.867 104.565 124.048 104.658L124.733 105.006L124.409 105.694C124.312 105.905 124.281 106.139 124.319 106.368V106.627C124.369 106.943 124.544 107.226 124.807 107.415C125.069 107.603 125.397 107.682 125.718 107.633L135.847 106.116C136.167 106.065 136.454 105.892 136.646 105.634C136.837 105.377 136.918 105.055 136.87 104.74V104.481C136.831 104.252 136.727 104.039 136.569 103.866L136.058 103.304L136.607 102.771C136.75 102.629 136.859 102.457 136.923 102.266C136.987 102.076 137.005 101.874 136.975 101.676V101.558C136.931 101.295 136.805 101.051 136.614 100.862L136.065 100.314L136.599 99.752C136.743 99.6061 136.851 99.4292 136.914 99.2353C136.977 99.0413 136.992 98.8356 136.96 98.6346C136.934 98.4616 136.873 98.2955 136.781 98.1457C136.689 97.9959 136.568 97.8654 136.425 97.7616C136.281 97.6579 136.119 97.5829 135.946 97.5409C135.774 97.499 135.594 97.4909 135.419 97.5172L123.627 99.3154Z" fill="#9F91F5"/>
</svg>
