<svg width="361" height="384" viewBox="0 0 361 384" fill="none" xmlns="http://www.w3.org/2000/svg">
<path fill-rule="evenodd" clip-rule="evenodd" d="M168.579 0.141455C208.224 -2.39888 240.78 29.804 273.301 54.2786C306.434 79.2132 346.914 101.163 358.231 142.869C369.467 184.275 343.727 224.786 330.634 265.558C317.83 305.433 317.636 358.318 282.792 377.801C247.645 397.454 207.371 364.869 168.579 356.173C139.556 349.666 109.959 349.571 84.4563 333.335C56.9235 315.808 33.0046 292.152 19.2607 261.115C4.1292 226.945 -5.98919 187.898 3.98236 151.609C14.0733 114.886 45.4842 92.0589 72.5613 67.1415C102.271 39.8018 129.519 2.64432 168.579 0.141455Z" fill="#DBD6FB"/>
<path d="M245.154 50.0672H309.271C309.271 50.0672 303.605 40.8108 287.096 42.1931C271.337 43.4792 270.518 37.6349 262.522 36.9437C254.525 36.2525 247.826 41.6769 245.154 50.0672Z" fill="#E0E0E0"/>
<path d="M77.5622 202.143C77.5622 202.143 71.1359 205.258 80.4877 217.296C89.8395 229.335 95.9246 235.109 95.9246 235.109C95.9246 235.109 97.6994 237.953 94.9494 238.766C92.1994 239.58 85.8511 239.466 85.071 242.712C84.2616 246.089 87.3334 248.836 93.0088 250.805C98.6843 252.774 110.952 257.612 112.054 258.049C113.156 258.487 114.365 259.755 112.59 260.578C110.815 261.4 97.0558 264.436 99.0451 270.202C101.034 275.967 117.885 279.231 119.719 279.616C121.552 280 122.069 280.613 122.059 281.488C122.049 282.363 117.32 282.993 113.438 283.999C109.557 285.005 105.267 286.79 106.729 290.036C108.192 293.281 118.782 299.17 142.167 298.338L152.972 297.324L157.574 288.443C166.127 268.907 163.425 257.997 160.5 255.687C157.574 253.377 154.278 256.439 151.948 259.397C149.617 262.354 147.394 266.151 146.467 265.871C145.541 265.591 145.073 264.952 145.268 263.246C145.463 261.54 147.579 246.22 142.157 242.633C136.735 239.046 129.012 249.703 127.53 250.936C126.047 252.17 125.14 250.717 125.043 249.65C124.945 248.583 123.922 236.605 123.678 231.128C123.434 225.652 121.591 222.169 117.778 221.749C113.965 221.33 112.142 226.754 110.376 228.819C108.611 230.883 106.203 228.442 106.203 228.442C106.203 228.442 102.117 221.391 92.5505 209.51C82.9841 197.628 77.4355 202.23 77.4355 202.23" fill="#EBEBEB"/>
<path d="M153.879 299.537C146.867 290.788 134.707 275.04 124.185 261.575C113.663 248.11 104.135 235.932 97.1728 227.148C93.6915 222.773 90.883 219.221 88.9229 216.762L86.6801 213.928L86.1047 213.193C85.9779 213.027 85.9194 212.93 85.9194 212.93C85.9194 212.93 85.9974 213.009 86.134 213.175L86.7386 213.893L89.0302 216.692C90.9805 219.116 93.906 222.651 97.3679 227.025C104.379 235.774 113.946 247.935 124.458 261.4C134.97 274.865 147.111 290.631 154.074 299.406" fill="#E0E0E0"/>
<path d="M93.945 243.202C94.2079 243.212 94.4691 243.244 94.7251 243.298C95.2225 243.377 95.9344 243.508 96.8218 243.683C98.5868 244.024 101.005 244.558 103.648 245.188L110.474 246.824L112.541 247.314C112.8 247.353 113.052 247.421 113.292 247.515C113.029 247.512 112.768 247.483 112.512 247.428C112.015 247.349 111.303 247.218 110.416 247.034C108.66 246.675 106.242 246.159 103.589 245.485L96.7632 243.893L94.6959 243.412C94.4362 243.373 94.1836 243.302 93.945 243.202Z" fill="#E0E0E0"/>
<path d="M113.936 246.85C113.838 246.85 114.843 242.301 116.169 236.737C117.495 231.172 118.656 226.666 118.743 226.684C118.831 226.701 117.837 231.225 116.501 236.798C115.165 242.371 114.024 246.85 113.936 246.85Z" fill="#E0E0E0"/>
<path d="M129.051 268.136C129.135 267.909 129.249 267.692 129.392 267.489L130.426 265.739C131.294 264.287 132.493 262.24 133.712 260C134.931 257.76 135.984 255.625 136.716 254.147L137.593 252.353C137.678 252.123 137.799 251.905 137.954 251.706C137.9 251.942 137.822 252.174 137.72 252.397C137.545 252.834 137.281 253.456 136.94 254.226C136.257 255.765 135.253 257.865 134.014 260.14C132.776 262.415 131.547 264.409 130.631 265.844C130.163 266.553 129.773 267.13 129.499 267.515C129.372 267.735 129.222 267.943 129.051 268.136Z" fill="#E0E0E0"/>
<path d="M110.172 268.452C110.41 268.393 110.656 268.366 110.903 268.373L112.922 268.268C114.618 268.189 116.969 268.111 119.563 268.032C122.156 267.953 124.507 267.909 126.213 267.892H128.232C128.478 267.873 128.726 267.873 128.973 267.892C128.731 267.951 128.482 267.981 128.232 267.979L126.223 268.084C124.516 268.154 122.166 268.242 119.572 268.312C116.978 268.382 114.628 268.434 112.922 268.452H110.913C110.667 268.478 110.418 268.478 110.172 268.452Z" fill="#E0E0E0"/>
<path d="M120.85 288.846C121.17 288.782 121.497 288.749 121.825 288.75L124.409 288.61C126.584 288.505 129.597 288.373 132.922 288.251C136.248 288.128 139.261 288.041 141.435 287.988L144.02 287.936C144.344 287.913 144.67 287.913 144.995 287.936C144.673 287.992 144.347 288.024 144.02 288.032L141.435 288.172C139.261 288.277 136.248 288.408 132.922 288.531C129.597 288.653 126.584 288.741 124.409 288.793L121.825 288.846C121.5 288.87 121.174 288.87 120.85 288.846Z" fill="#E0E0E0"/>
<path d="M144.351 287.796C144.461 287.509 144.598 287.231 144.761 286.965L145.989 284.734C147.023 282.853 148.427 280.254 149.89 277.341C151.353 274.427 152.621 271.768 153.518 269.825L154.581 267.533C154.697 267.25 154.838 266.975 155 266.711C154.932 267.011 154.831 267.304 154.698 267.586C154.483 268.146 154.161 268.942 153.723 269.913C152.884 271.873 151.655 274.559 150.183 277.472C148.71 280.385 147.257 282.984 146.175 284.839C145.629 285.766 145.2 286.518 144.849 287.026C144.704 287.293 144.538 287.551 144.351 287.796Z" fill="#E0E0E0"/>
<path d="M235.032 158.678C223.427 146.998 224.539 130.138 228.937 115.711C229.668 113.296 230.049 110.672 231.862 108.817C233.676 106.962 237.109 106.14 239.264 107.68C241.049 108.957 241.37 111.24 242.033 113.218C242.915 115.847 244.605 118.2 246.909 120.007C248.421 121.179 250.42 122.115 252.351 121.643C254.993 120.978 256.027 118.143 256.651 115.72C257.802 111.211 258.959 106.703 260.123 102.194C260.605 99.7474 261.516 97.3849 262.824 95.1947C264.267 93.0775 266.725 91.3452 269.416 91.2489C272.107 91.1527 274.965 93.1475 274.877 95.6234C274.716 96.6457 274.478 97.657 274.165 98.6506C274.019 99.1469 274.037 99.6708 274.219 100.158C274.401 100.644 274.739 101.072 275.189 101.389C276.164 101.905 277.442 101.45 278.436 100.908C281.859 99.0618 284.58 96.3234 287.164 93.5674C289.748 90.8115 292.303 87.9856 295.531 85.8595C298.759 83.7335 302.796 82.3599 306.706 82.9899C310.617 83.6198 314.157 86.6294 314.235 90.2253C314.313 93.8211 311.192 96.8308 308.052 99.0706C303.412 102.396 298.262 105.104 292.761 107.111C291.722 107.371 290.803 107.923 290.138 108.686C289.163 110.173 290.402 112.133 292.03 113.06C293.883 114.084 296.106 114.364 298.154 115.029C300.202 115.694 302.25 117.015 302.572 118.957C303.02 121.661 300.036 123.76 297.325 124.976C291.896 127.397 286.045 128.965 280.026 129.613C277.871 129.841 275.638 129.972 273.707 130.873C271.776 131.774 270.245 133.752 270.781 135.659C271.318 137.566 273.629 138.642 275.794 138.73C277.958 138.817 280.084 138.214 282.239 137.969C286.267 137.496 291.016 138.739 292.596 142.116C293.065 143.263 293.23 144.493 293.078 145.708C292.925 146.923 292.46 148.089 291.718 149.115C290.233 151.138 288.31 152.873 286.062 154.216C278.53 159.287 269.633 162.475 260.279 163.455C250.995 164.329 242.843 163.332 235.051 158.721" fill="#F5F5F5"/>
<path d="M237.392 160.077C239.498 154.443 237.294 157.269 241.634 150.454C246.418 143.097 251.67 135.992 257.363 129.176C258.858 127.356 260.337 125.563 261.8 123.795C263.263 122.045 264.725 120.296 266.247 118.642C269.206 115.515 272.354 112.536 275.676 109.718C278.826 107.006 281.927 104.539 284.853 102.246C287.778 99.9542 290.548 97.8719 293.161 96.0783C297.276 93.2173 301.635 90.6517 306.199 88.4054C307.808 87.6093 309.125 87.0318 309.953 86.6556L310.929 86.2269L311.27 86.0957C311.169 86.1635 311.062 86.2222 310.948 86.2707L309.973 86.7431C309.115 87.1543 307.857 87.758 306.267 88.5717C301.758 90.8757 297.448 93.4815 293.376 96.3671C290.782 98.1781 288.032 100.269 285.126 102.561C282.22 104.854 279.138 107.338 275.998 110.051C272.7 112.868 269.572 115.841 266.627 118.957C265.106 120.584 263.701 122.325 262.209 124.093L257.772 129.473C252.099 136.267 246.851 143.338 242.053 150.655C237.704 157.453 239.888 154.583 237.743 160.182" fill="#E0E0E0"/>
<path d="M266.432 118.66C266.392 118.299 266.392 117.935 266.432 117.575C266.432 116.875 266.559 115.825 266.685 114.626C266.939 112.133 267.427 108.712 267.973 104.941C268.519 101.17 268.948 97.7494 269.153 95.2647C269.26 94.0224 269.338 93.025 269.387 92.325C269.383 91.9632 269.425 91.6021 269.513 91.2489C269.577 91.6075 269.6 91.971 269.582 92.3338C269.582 93.025 269.582 94.0836 269.513 95.2822C269.396 97.7844 269.026 101.223 268.47 105.002C267.914 108.782 267.427 112.089 267.046 114.626C266.881 115.79 266.744 116.77 266.637 117.557C266.614 117.93 266.545 118.3 266.432 118.66Z" fill="#E0E0E0"/>
<path d="M302.513 120.208C302.038 120.205 301.564 120.159 301.099 120.068C300.192 119.946 298.876 119.771 297.247 119.596C294 119.228 289.446 118.87 284.492 118.66C279.538 118.45 274.965 118.45 271.678 118.528C270.04 118.528 268.753 118.616 267.778 118.651C267.301 118.687 266.821 118.687 266.344 118.651C266.811 118.547 267.288 118.483 267.768 118.458C268.685 118.371 270.011 118.266 271.669 118.196C274.955 118.03 279.47 117.986 284.521 118.196C288.8 118.362 293.067 118.721 297.306 119.272C298.924 119.491 300.231 119.718 301.138 119.885C301.607 119.953 302.067 120.061 302.513 120.208Z" fill="#E0E0E0"/>
<path d="M242.209 149.964C242.137 149.828 242.091 149.683 242.072 149.535C241.994 149.194 241.897 148.782 241.77 148.284C241.526 147.199 241.204 145.659 240.844 143.664C240.112 139.753 239.293 134.32 238.474 128.31C237.655 122.299 236.894 116.866 236.26 112.946C235.948 111.039 235.685 109.447 235.49 108.309C235.412 107.802 235.344 107.382 235.285 107.041C235.27 106.892 235.27 106.743 235.285 106.595C235.356 106.731 235.405 106.875 235.431 107.023L235.724 108.274C235.978 109.359 236.29 110.899 236.65 112.894C237.382 116.805 238.201 122.238 239.02 128.248C239.839 134.259 240.6 139.692 241.234 143.612C241.556 145.519 241.809 147.111 242.004 148.257C242.092 148.756 242.15 149.176 242.209 149.517C242.23 149.665 242.23 149.815 242.209 149.964Z" fill="#E0E0E0"/>
<path d="M291.718 146.438C291.557 146.484 291.389 146.508 291.221 146.508L289.777 146.63L284.473 147.015C279.997 147.339 273.814 147.89 266.988 148.433C260.162 148.975 253.96 149.474 249.435 149.719C247.192 149.841 245.378 149.92 244.12 149.955H242.677C242.509 149.978 242.338 149.978 242.17 149.955C242.332 149.913 242.499 149.89 242.667 149.885L244.11 149.763L249.415 149.378C253.891 149.054 260.074 148.503 266.9 147.96C273.726 147.418 279.918 146.919 284.453 146.683C286.706 146.56 288.519 146.473 289.777 146.438H291.221C291.386 146.42 291.553 146.42 291.718 146.438Z" fill="#E0E0E0"/>
<path d="M330.12 235.477C330.086 235.619 330.033 235.757 329.964 235.888L329.428 237.051C328.93 238.101 328.228 239.58 327.35 241.426L319.832 257.025L319.783 257.113H319.676L296.057 260.613L288.139 261.776L287.778 261.829L287.866 261.514C289.816 254.698 291.562 248.39 293.073 243.097L293.181 243.298L279.304 237.734L275.472 236.168L274.497 235.748C274.38 235.703 274.268 235.648 274.165 235.582L274.516 235.695L275.54 236.071L279.441 237.55L293.386 242.974L293.542 243.036V243.176C292.059 248.513 290.314 254.794 288.422 261.619L288.149 261.356L296.067 260.184L319.695 256.737L319.53 256.85L327.204 241.321C328.131 239.466 328.872 237.996 329.398 236.946L329.983 235.8C330.022 235.69 330.067 235.582 330.12 235.477Z" fill="#E0E0E0"/>
<path d="M290.909 259.318L290.255 260.84L291.289 262.187L289.475 262.109L288.373 263.404L287.895 261.829L286.179 261.286L287.7 260.394L287.749 258.767L289.163 259.79L290.909 259.318Z" fill="#E0E0E0"/>
<path d="M274.692 234.602L274.37 235.363L274.877 236.028L273.98 235.984L273.434 236.632L273.19 235.853L272.341 235.582L273.092 235.135L273.122 234.322L273.824 234.829L274.692 234.602Z" fill="#E0E0E0"/>
<path d="M320.495 256.089L320.173 256.85L320.68 257.515L319.783 257.48L319.237 258.128L318.993 257.34L318.145 257.078L318.896 256.632L318.915 255.818L319.627 256.326L320.495 256.089Z" fill="#E0E0E0"/>
<path d="M294.058 242.449L293.737 243.202L294.253 243.876L293.346 243.832L292.8 244.479L292.566 243.692L291.708 243.429L292.469 242.983L292.488 242.169L293.19 242.677L294.058 242.449Z" fill="#E0E0E0"/>
<path d="M331.222 234.715L330.9 235.476L331.417 236.141L330.51 236.106L329.964 236.754L329.73 235.966L328.872 235.695L329.632 235.258L329.652 234.444L330.354 234.952L331.222 234.715Z" fill="#E0E0E0"/>
<path d="M35.6497 298.391H86.7093C86.7093 298.391 82.1943 291.015 69.0491 292.092C56.4987 293.115 55.8649 288.461 49.4775 287.892C43.0902 287.323 37.7853 291.707 35.6497 298.391Z" fill="#E0E0E0"/>
<path d="M45.7914 118.056H96.8413C96.8413 118.056 92.3263 110.689 79.181 111.757C66.6404 112.789 65.9968 108.135 59.6193 107.566C53.2417 106.997 47.9173 111.38 45.7914 118.056Z" fill="#F5F5F5"/>
<path d="M305.068 149.911H347C347 149.911 343.294 143.857 332.499 144.731C322.182 145.606 321.655 141.757 316.419 141.284C311.182 140.812 306.813 144.425 305.068 149.911Z" fill="#F5F5F5"/>
<path d="M221.311 224.181C223.398 210.087 212.349 198.451 198.541 191.46C184.733 184.47 168.711 182.107 153.459 178.24C139.076 174.575 124.77 169.22 114.121 159.806C103.472 150.392 97.0753 136.245 100.898 123.279C101.873 120.024 103.58 116.752 106.7 114.871C109.821 112.99 114.57 113.043 116.9 115.685C121.854 121.319 112.2 131.433 118.246 136.105C119.631 137.19 121.542 137.584 122.976 138.607C126.789 141.346 125.56 146.656 126.096 151.013C127.159 159.631 136.17 165.616 145.014 169.106C156.863 173.778 169.696 175.974 182.256 178.73C194.816 181.486 207.503 184.995 217.966 191.854C228.43 198.713 237.528 209.352 237.47 220.979C237.47 224.225 236.992 228.215 234.72 230.734C232.448 233.254 229.561 233.788 226.285 232.406C223.008 231.023 220.726 228.906 221.331 224.199" fill="#9F91F5"/>
<g opacity="0.8">
<path opacity="0.8" d="M221.311 224.181C223.398 210.087 212.349 198.451 198.541 191.46C184.733 184.47 168.711 182.107 153.459 178.24C139.076 174.575 124.77 169.22 114.121 159.806C103.472 150.392 97.0753 136.245 100.898 123.279C101.873 120.024 103.58 116.752 106.7 114.871C109.821 112.99 114.57 113.043 116.9 115.685C121.854 121.319 112.2 131.433 118.246 136.105C119.631 137.19 121.542 137.584 122.976 138.607C126.789 141.346 125.56 146.656 126.096 151.013C127.159 159.631 136.17 165.616 145.014 169.106C156.863 173.778 169.696 175.974 182.256 178.73C194.816 181.486 207.503 184.995 217.966 191.854C228.43 198.713 237.528 209.352 237.47 220.979C237.47 224.225 236.992 228.215 234.72 230.734C232.448 233.254 229.561 233.788 226.285 232.406C223.008 231.023 220.726 228.906 221.331 224.199" fill="white"/>
</g>
<path d="M154.512 112.115C154.015 106.866 158.355 102.343 163.289 99.9104C168.223 97.4781 173.879 96.4808 178.96 94.3197C191.588 88.9478 199.614 76.3055 200.209 63.3482C200.803 50.3909 194.533 37.4248 184.743 27.9059C180.754 24.0388 175.859 19.9793 175.8 14.7036C175.742 9.19175 181.651 4.85223 187.639 4.92222C193.626 4.99221 199.068 8.57056 202.627 13.0588C206.186 17.5471 208.146 22.8752 210.068 28.1246C208.702 25.9199 211.501 23.1989 214.212 23.4352C216.923 23.6714 219.088 25.6924 220.716 27.7047C227.931 36.4929 231.391 47.3119 230.468 58.195C229.491 68.8752 224.1 78.8421 215.353 86.1394C205.728 94.0135 193.002 97.6969 180.657 101.196L154.903 108.484" fill="#9F91F5"/>
<g opacity="0.8">
<path opacity="0.8" d="M154.512 112.115C154.015 106.866 158.355 102.343 163.289 99.9104C168.223 97.4781 173.879 96.4808 178.96 94.3197C191.588 88.9478 199.614 76.3055 200.209 63.3482C200.803 50.3909 194.533 37.4248 184.743 27.9059C180.754 24.0388 175.859 19.9793 175.8 14.7036C175.742 9.19175 181.651 4.85223 187.639 4.92222C193.626 4.99221 199.068 8.57056 202.627 13.0588C206.186 17.5471 208.146 22.8752 210.068 28.1246C208.702 25.9199 211.501 23.1989 214.212 23.4352C216.923 23.6714 219.088 25.6924 220.716 27.7047C227.931 36.4929 231.391 47.3119 230.468 58.195C229.491 68.8752 224.1 78.8421 215.353 86.1394C205.728 94.0135 193.002 97.6969 180.657 101.196L154.903 108.484" fill="white"/>
</g>
<path d="M147.345 2.33258C146.039 2.81597 144.992 3.73316 144.421 4.89276C143.851 6.05236 143.802 7.36478 144.284 8.55616C144.766 9.74754 145.742 10.7258 147.009 11.2869C148.276 11.848 149.735 11.9484 151.083 11.5674C152.43 11.1863 153.561 10.3532 154.241 9.24178C154.92 8.13037 155.094 6.82658 154.728 5.60247C154.362 4.37836 153.482 3.3285 152.274 2.67197C151.065 2.01544 149.621 1.80295 148.242 2.07885" fill="#9F91F5"/>
<g opacity="0.8">
<path opacity="0.8" d="M147.345 2.33258C146.039 2.81597 144.992 3.73316 144.421 4.89276C143.851 6.05236 143.802 7.36478 144.284 8.55616C144.766 9.74754 145.742 10.7258 147.009 11.2869C148.276 11.848 149.735 11.9484 151.083 11.5674C152.43 11.1863 153.561 10.3532 154.241 9.24178C154.92 8.13037 155.094 6.82658 154.728 5.60247C154.362 4.37836 153.482 3.3285 152.274 2.67197C151.065 2.01544 149.621 1.80295 148.242 2.07885" fill="white"/>
</g>
<path d="M179.106 339.45C175.947 333.579 178.706 326.257 183.738 321.55C188.77 316.843 195.635 314.157 202.266 311.532C216.952 305.723 232.496 298.811 239.956 286.072C242.472 281.777 243.906 277.052 245.32 272.363C248.06 263.299 250.634 253.001 245.125 245.013C243.535 242.712 241.156 240.639 238.191 240.201C234.807 239.659 231.365 241.33 229.259 243.771C227.306 246.321 226.132 249.287 225.855 252.371C225.036 258.172 225.719 264.077 225.036 269.869C224.354 275.661 222.004 281.847 216.699 285.154C210.194 289.222 200.921 288.312 194.611 292.608C189.511 296.107 187.571 302.092 183.592 306.606C180.237 310.377 175.547 312.949 171.256 315.854C166.965 318.759 162.811 322.293 161.348 326.939C160.581 329.367 160.61 331.943 161.433 334.357C162.256 336.77 163.837 338.92 165.987 340.548C168.137 342.176 170.765 343.213 173.555 343.535C176.346 343.857 179.18 343.45 181.72 342.364" fill="#9F91F5"/>
<g opacity="0.8">
<path opacity="0.8" d="M179.106 339.45C175.947 333.579 178.706 326.257 183.738 321.55C188.77 316.843 195.635 314.157 202.266 311.532C216.952 305.723 232.496 298.811 239.956 286.072C242.472 281.777 243.906 277.052 245.32 272.363C248.06 263.299 250.634 253.001 245.125 245.013C243.535 242.712 241.156 240.639 238.191 240.201C234.807 239.659 231.365 241.33 229.259 243.771C227.306 246.321 226.132 249.287 225.855 252.371C225.036 258.172 225.719 264.077 225.036 269.869C224.354 275.661 222.004 281.847 216.699 285.154C210.194 289.222 200.921 288.312 194.611 292.608C189.511 296.107 187.571 302.092 183.592 306.606C180.237 310.377 175.547 312.949 171.256 315.854C166.965 318.759 162.811 322.293 161.348 326.939C160.581 329.367 160.61 331.943 161.433 334.357C162.256 336.77 163.837 338.92 165.987 340.548C168.137 342.176 170.765 343.213 173.555 343.535C176.346 343.857 179.18 343.45 181.72 342.364" fill="white"/>
</g>
<path d="M81.4727 42.8755C78.8762 41.1459 76.777 38.8856 75.3494 36.2822C73.9218 33.6789 73.2069 30.8075 73.2641 27.9066C73.3213 25.0056 74.149 22.1588 75.6784 19.6023C77.2077 17.0459 79.3947 14.8536 82.0578 13.2076C85.0613 11.3615 88.6109 10.2241 91.2828 7.95815C93.6525 5.98087 95.1835 3.24242 97.8457 1.58011C99.5071 0.52305 101.501 -0.0301243 103.538 0.00126576C105.574 0.0326558 107.546 0.646969 109.166 1.75461C110.786 2.86225 111.97 4.40527 112.543 6.15863C113.117 7.91198 113.052 9.78395 112.356 11.5015C111.137 14.5724 108.065 16.8209 106.778 19.8656C105.393 23.1552 106.291 26.8648 105.803 30.3119C105.484 32.4581 104.63 34.5122 103.306 36.3222C101.981 38.1321 100.22 39.6513 98.1518 40.7673C96.0838 41.8832 93.7623 42.5673 91.3594 42.7686C88.9566 42.97 86.5341 42.6836 84.2714 41.9306" fill="#9F91F5"/>
<g opacity="0.8">
<path opacity="0.8" d="M81.4727 42.8755C78.8762 41.1459 76.777 38.8856 75.3494 36.2822C73.9218 33.6789 73.2069 30.8075 73.2641 27.9066C73.3213 25.0056 74.149 22.1588 75.6784 19.6023C77.2077 17.0459 79.3947 14.8536 82.0578 13.2076C85.0613 11.3615 88.6109 10.2241 91.2828 7.95815C93.6525 5.98087 95.1835 3.24242 97.8457 1.58011C99.5071 0.52305 101.501 -0.0301243 103.538 0.00126576C105.574 0.0326558 107.546 0.646969 109.166 1.75461C110.786 2.86225 111.97 4.40527 112.543 6.15863C113.117 7.91198 113.052 9.78395 112.356 11.5015C111.137 14.5724 108.065 16.8209 106.778 19.8656C105.393 23.1552 106.291 26.8648 105.803 30.3119C105.484 32.4581 104.63 34.5122 103.306 36.3222C101.981 38.1321 100.22 39.6513 98.1518 40.7673C96.0838 41.8832 93.7623 42.5673 91.3594 42.7686C88.9566 42.97 86.5341 42.6836 84.2714 41.9306" fill="white"/>
</g>
<path d="M81.8433 24.1177H93.828V46.279C93.828 46.9005 93.6915 47.516 93.4264 48.0903C93.1613 48.6645 92.7727 49.1863 92.2828 49.6259C91.7929 50.0654 91.2113 50.414 90.5713 50.6519C89.9312 50.8898 89.2452 51.0122 88.5524 51.0122H87.1286C85.7295 51.0122 84.3876 50.5135 83.3982 49.6259C82.4088 48.7382 81.853 47.5343 81.853 46.279V24.1177H81.8433Z" fill="#9F91F5"/>
<path d="M81.8433 24.1176L87.8308 14.2574L93.828 24.1176H81.8433Z" fill="#FFBE9D"/>
<path d="M85.4611 18.1595C85.4611 18.1595 87.2846 20.618 90.2101 18.1595L87.8405 14.2574L85.4611 18.1595Z" fill="#9F91F5"/>
<path d="M93.9938 45.2028C91.972 45.422 89.9338 45.4951 87.899 45.4215C85.8674 45.4952 83.8325 45.4221 81.814 45.2028C83.8325 44.9835 85.8674 44.9103 87.899 44.9841C89.9338 44.9104 91.972 44.9836 93.9938 45.2028Z" fill="#263238"/>
<path d="M93.828 43.5492C91.8486 43.7684 89.8526 43.8415 87.86 43.768C85.8673 43.8415 83.8713 43.7684 81.892 43.5492C83.8723 43.3411 85.8676 43.2709 87.86 43.3393C89.8524 43.2709 91.8477 43.3411 93.828 43.5492Z" fill="#263238"/>
<path d="M85.3636 24.275C85.4904 24.275 85.6074 28.562 85.6074 33.8552C85.6074 39.1484 85.4904 43.4791 85.3636 43.4791C85.2368 43.4791 85.1198 39.1834 85.1198 33.8552C85.1198 28.5271 85.2271 24.275 85.3636 24.275Z" fill="#FAFAFA"/>
<path d="M90.2102 24.275C90.3467 24.275 90.454 28.562 90.454 33.8552C90.454 39.1484 90.3467 43.4791 90.2102 43.4791C90.0736 43.4791 89.9664 39.1834 89.9664 33.8552C89.9664 28.5271 90.0736 24.275 90.2102 24.275Z" fill="#FAFAFA"/>
<path d="M185.971 327.096L240.415 329.187L241.731 332.031L206.04 384L141.621 382.312L185.971 327.096Z" fill="#263238"/>
<path d="M139.183 377.246L203.982 380.57L237.84 333.439L214.066 335.172L153.908 354.174L139.183 377.246Z" fill="#E0E0E0"/>
<path d="M130.075 373.755L189.56 374.63C187.093 367.797 192.915 358.182 200.921 354.944C206.226 352.801 216.202 350.019 221.35 347.648C231.102 343.142 239.976 334.621 239.206 327.298L214.749 326.571L183.543 325.487C180.93 332.433 175.352 336.974 166.868 339.712C159.281 342.162 150.641 342.153 143.23 344.962C131.314 349.441 125.589 363.956 130.026 373.781" fill="#EBEBEB"/>
<path d="M130.075 373.755C130.075 373.755 130.016 373.641 129.929 373.405L129.519 372.381C129.303 371.81 129.133 371.225 129.012 370.631C128.813 369.83 128.676 369.017 128.602 368.199C128.413 365.928 128.57 363.643 129.07 361.41C129.763 358.403 131.058 355.533 132.893 352.941C133.41 352.191 133.98 351.473 134.6 350.789C134.921 350.447 135.234 350.071 135.575 349.739L136.677 348.733C137.045 348.388 137.443 348.069 137.866 347.779C138.286 347.473 138.695 347.149 139.144 346.86C140.073 346.274 141.051 345.753 142.069 345.303C146.194 343.439 151.119 342.678 156.248 341.803C158.823 341.383 161.475 340.928 164.128 340.29C166.857 339.618 169.491 338.667 171.978 337.455C173.262 336.831 174.485 336.111 175.635 335.303C176.819 334.486 177.907 333.562 178.882 332.547C180.901 330.452 182.439 328.02 183.407 325.39L183.465 325.241H183.631L209.619 326.116C218.639 326.431 227.972 326.65 237.528 326.939L239.264 326.991H239.479V327.184C239.609 328.86 239.343 330.541 238.698 332.118C238.391 332.897 238.026 333.657 237.606 334.393C237.176 335.116 236.7 335.817 236.182 336.493C234.126 339.141 231.642 341.5 228.81 343.492C226.073 345.447 223.084 347.101 219.907 348.418C216.767 349.686 213.588 350.719 210.477 351.751C207.366 352.783 204.285 353.763 201.369 354.901C199.934 355.472 198.586 356.207 197.361 357.088C196.727 357.49 196.201 358.007 195.625 358.453C195.05 358.899 194.553 359.441 194.094 359.993C192.195 362.05 190.779 364.431 189.93 366.992C189.07 369.416 189.019 372.013 189.784 374.463L189.872 374.7H189.599L146.311 374.017L134.307 373.799L131.167 373.72H130.085C130.085 373.72 130.455 373.72 131.167 373.72H134.317L146.321 373.842L189.599 374.385L189.414 374.612C188.613 372.096 188.657 369.424 189.54 366.931C190.389 364.312 191.826 361.876 193.763 359.774C194.221 359.214 194.797 358.733 195.313 358.208C195.83 357.683 196.445 357.219 197.088 356.799C198.337 355.895 199.714 355.145 201.184 354.568C204.109 353.413 207.21 352.425 210.321 351.392C213.432 350.36 216.601 349.319 219.712 348.059C222.846 346.756 225.793 345.116 228.488 343.177C231.282 341.217 233.734 338.893 235.763 336.283C236.272 335.628 236.744 334.951 237.177 334.253C237.585 333.537 237.94 332.797 238.24 332.039C238.861 330.521 239.12 328.903 239.001 327.289L239.235 327.481L237.489 327.437C227.933 327.149 218.6 326.921 209.59 326.563L183.592 325.688L183.816 325.548C182.821 328.225 181.251 330.701 179.194 332.836C178.198 333.868 177.087 334.806 175.878 335.635C174.71 336.458 173.464 337.187 172.153 337.814C169.641 339.04 166.976 339.997 164.215 340.666C161.534 341.322 158.871 341.76 156.297 342.171C151.168 342.993 146.263 343.763 142.196 345.583C141.201 346.023 140.246 346.532 139.339 347.105C138.89 347.385 138.491 347.709 138.071 347.98C137.651 348.267 137.257 348.583 136.891 348.925L135.76 349.931C135.409 350.264 135.107 350.631 134.785 350.972C134.164 351.643 133.593 352.35 133.078 353.09C131.243 355.651 129.944 358.491 129.246 361.471C128.722 363.684 128.542 365.951 128.71 368.208C128.768 369.023 128.892 369.833 129.08 370.631C129.189 371.224 129.345 371.809 129.548 372.381C129.714 372.836 129.831 373.177 129.919 373.422C130.007 373.667 130.075 373.755 130.075 373.755Z" fill="#263238"/>
<path d="M200.306 326.353C200.306 326.353 200.384 326.011 200.443 325.399C200.514 324.538 200.354 323.673 199.975 322.879C199.444 321.695 198.443 320.729 197.166 320.167C196.383 319.84 195.535 319.658 194.672 319.631C193.809 319.604 192.949 319.733 192.143 320.011C191.337 320.288 190.601 320.708 189.98 321.246C189.358 321.784 188.864 322.429 188.526 323.142C187.929 324.303 187.728 325.597 187.951 326.86C188.092 327.71 188.424 328.525 188.926 329.257C189.297 329.782 189.57 330.027 189.54 330.053C189.238 329.867 188.98 329.629 188.78 329.354C188.176 328.634 187.765 327.798 187.58 326.913C187.291 325.586 187.464 324.211 188.078 322.976C188.434 322.209 188.96 321.516 189.625 320.938C190.289 320.359 191.078 319.908 191.942 319.612C192.807 319.316 193.73 319.181 194.655 319.214C195.58 319.248 196.487 319.45 197.322 319.808C198.68 320.426 199.725 321.483 200.248 322.766C200.612 323.599 200.727 324.504 200.579 325.39C200.54 325.632 200.475 325.869 200.384 326.099C200.365 326.283 200.326 326.353 200.306 326.353Z" fill="#263238"/>
<path d="M209.638 326.352C209.59 326.352 209.716 326.011 209.775 325.398C209.842 324.537 209.681 323.674 209.307 322.879C208.771 321.695 207.768 320.729 206.489 320.167C205.706 319.841 204.858 319.659 203.995 319.633C203.133 319.607 202.273 319.736 201.467 320.014C200.661 320.291 199.926 320.711 199.304 321.248C198.683 321.785 198.188 322.429 197.849 323.141C197.254 324.303 197.057 325.597 197.283 326.86C197.42 327.71 197.752 328.527 198.258 329.257C198.629 329.782 198.902 330.027 198.873 330.053C198.563 329.871 198.301 329.633 198.102 329.353C197.502 328.631 197.092 327.796 196.903 326.912C196.622 325.584 196.799 324.211 197.41 322.975C197.766 322.21 198.292 321.517 198.956 320.94C199.62 320.362 200.407 319.912 201.271 319.616C202.134 319.32 203.056 319.184 203.98 319.217C204.903 319.25 205.81 319.451 206.645 319.808C208.002 320.425 209.048 321.482 209.57 322.765C209.932 323.599 210.049 324.503 209.912 325.39C209.875 325.632 209.806 325.87 209.707 326.098C209.704 326.186 209.681 326.273 209.638 326.352Z" fill="#263238"/>
<path d="M216.699 326.79C216.699 326.79 216.757 326.44 216.777 325.828C216.792 324.964 216.578 324.109 216.153 323.334C215.542 322.182 214.48 321.272 213.169 320.78C212.368 320.495 211.513 320.357 210.653 320.372C209.792 320.387 208.944 320.555 208.156 320.867C206.572 321.519 205.34 322.708 204.733 324.174C204.211 325.365 204.093 326.668 204.392 327.919C204.598 328.764 204.996 329.563 205.562 330.263C205.962 330.762 206.255 330.998 206.225 331.025C205.907 330.859 205.631 330.636 205.416 330.368C204.768 329.678 204.304 328.864 204.061 327.989C203.695 326.678 203.783 325.299 204.314 324.034C204.622 323.251 205.103 322.532 205.73 321.921C206.357 321.31 207.116 320.82 207.961 320.48C208.805 320.141 209.718 319.959 210.644 319.946C211.569 319.932 212.488 320.088 213.344 320.403C214.739 320.949 215.851 321.95 216.455 323.203C216.879 324.023 217.054 324.928 216.962 325.828C216.941 326.072 216.889 326.312 216.806 326.545C216.777 326.711 216.699 326.79 216.699 326.79Z" fill="#263238"/>
<path d="M224.315 327.175C224.315 327.175 224.315 326.825 224.315 326.213C224.283 325.349 224.018 324.506 223.544 323.754C222.87 322.63 221.755 321.769 220.414 321.339C219.597 321.092 218.733 320.994 217.873 321.052C217.013 321.109 216.174 321.322 215.407 321.676C214.641 322.03 213.961 322.519 213.409 323.113C212.857 323.708 212.443 324.396 212.193 325.137C211.74 326.349 211.699 327.656 212.076 328.89C212.333 329.726 212.778 330.506 213.383 331.182C213.812 331.655 214.115 331.873 214.085 331.908C213.759 331.755 213.47 331.543 213.237 331.287C212.551 330.628 212.041 329.839 211.745 328.977C211.295 327.687 211.295 326.304 211.745 325.014C212.008 324.219 212.447 323.479 213.035 322.839C213.623 322.199 214.348 321.671 215.168 321.287C215.993 320.908 216.896 320.683 217.822 320.628C218.747 320.572 219.676 320.686 220.551 320.963C221.971 321.439 223.14 322.375 223.827 323.588C224.3 324.396 224.525 325.301 224.481 326.213C224.471 326.454 224.435 326.695 224.373 326.93C224.363 327.096 224.334 327.175 224.315 327.175Z" fill="#263238"/>
<path d="M231.921 327.018C231.921 327.018 231.921 326.668 231.921 326.055C231.862 325.192 231.571 324.355 231.073 323.614C230.363 322.509 229.224 321.678 227.874 321.278C227.049 321.049 226.181 320.972 225.322 321.051C224.462 321.13 223.63 321.363 222.873 321.737C222.117 322.111 221.452 322.618 220.919 323.228C220.386 323.837 219.995 324.537 219.77 325.285C219.42 326.31 219.362 327.398 219.602 328.448C219.842 329.499 220.373 330.478 221.145 331.296C221.594 331.76 221.906 331.97 221.877 331.996C221.543 331.86 221.246 331.66 221.009 331.41C220.307 330.765 219.773 329.988 219.449 329.135C218.963 327.855 218.925 326.472 219.341 325.172C219.581 324.37 219.997 323.62 220.565 322.965C221.132 322.31 221.84 321.763 222.647 321.357C223.46 320.959 224.355 320.713 225.277 320.635C226.199 320.557 227.129 320.648 228.011 320.902C229.449 321.345 230.65 322.257 231.375 323.457C231.873 324.258 232.125 325.164 232.106 326.082C232.106 326.326 232.076 326.569 232.018 326.808C231.97 326.93 231.94 327.018 231.921 327.018Z" fill="#263238"/>
<path d="M238.338 327.779C238.338 327.779 238.338 327.429 238.338 326.816C238.316 325.952 238.062 325.106 237.596 324.349C236.935 323.223 235.834 322.354 234.505 321.908C233.691 321.651 232.828 321.543 231.967 321.591C231.106 321.639 230.265 321.842 229.493 322.188C228.721 322.535 228.035 323.017 227.475 323.606C226.916 324.195 226.494 324.879 226.236 325.618C225.843 326.629 225.738 327.713 225.93 328.77C226.123 329.828 226.606 330.825 227.338 331.672C227.767 332.153 228.059 332.372 228.04 332.407C227.715 332.251 227.429 332.037 227.201 331.777C226.52 331.113 226.019 330.317 225.738 329.45C225.308 328.154 225.332 326.77 225.807 325.486C226.08 324.694 226.528 323.959 227.125 323.324C227.721 322.69 228.453 322.17 229.278 321.794C230.109 321.425 231.014 321.211 231.94 321.166C232.865 321.121 233.791 321.246 234.661 321.532C236.081 322.022 237.238 322.98 237.899 324.209C238.362 325.019 238.578 325.925 238.523 326.834C238.512 327.076 238.472 327.316 238.406 327.551C238.386 327.7 238.357 327.787 238.338 327.779Z" fill="#263238"/>
<path d="M266.432 148.555C263.738 148.482 261.042 148.594 258.367 148.887C250.251 149.825 242.796 153.392 237.408 158.918C232.02 164.443 229.069 171.546 229.112 178.888C229.084 183.718 229.782 188.53 231.189 193.192C235.88 208.118 237.323 221.268 236.787 227.681L252.487 235.249C252.487 235.249 259.752 225.879 266.773 221.837C273.794 217.795 297.159 206.963 306.414 195.896C312.372 188.739 313.523 174.023 299.305 161.197C290.56 153.357 278.791 148.831 266.432 148.555Z" fill="#9F91F5"/>
<path d="M229.278 243.972L243.457 250.848L234.232 261.365L224.773 257.515L229.278 243.972Z" fill="#455A64"/>
<path d="M229.971 244.401C229.844 244.357 231.248 240.577 233.111 235.967C234.973 231.356 236.582 227.638 236.709 227.681C236.836 227.725 235.432 231.496 233.569 236.115C231.706 240.735 230.097 244.436 229.971 244.401Z" fill="#263238"/>
<path d="M242.57 250.35C242.453 250.289 244.676 246.719 247.524 242.38C250.371 238.04 252.78 234.602 252.906 234.602C253.033 234.602 250.8 238.233 247.943 242.572C245.086 246.912 242.677 250.394 242.57 250.35Z" fill="#263238"/>
<g opacity="0.4">
<path opacity="0.4" d="M271.113 148.958C270.479 148.958 262.677 157.183 259.225 162.729C247.611 181.391 247.085 199.545 243.867 220.718C243.408 223.745 241.731 230.263 241.76 230.114C243.477 231.322 249.25 233.728 249.25 233.728C249.25 233.728 254.701 227.831 256.866 224.865C265.525 212.993 274.935 203.727 282.356 191.19C289.777 178.653 296.916 167.568 290.05 154.742C290.05 154.742 278.134 148.6 271.113 148.958Z" fill="black"/>
</g>
<path d="M306.414 197.768C306.331 197.64 306.263 197.505 306.209 197.366C306.082 197.103 305.926 196.692 305.663 196.185C304.928 194.716 304.009 193.328 302.923 192.046C301.256 190.068 299.22 188.363 296.906 187.007C293.94 185.243 290.558 184.12 287.027 183.726H286.91L286.852 183.656C284.956 181.32 282.839 179.137 280.523 177.129C277.988 174.934 275.065 173.131 271.873 171.792C268.666 170.49 265.16 169.891 261.644 170.043C258.44 170.155 255.338 171.084 252.702 172.72L252.555 172.807L252.429 172.702C249.748 170.592 246.414 169.265 242.872 168.896C240.121 168.615 237.334 168.934 234.749 169.824C233.075 170.399 231.504 171.192 230.088 172.177C229.6 172.527 229.229 172.807 228.995 173C228.879 173.104 228.752 173.198 228.615 173.28C228.719 173.166 228.829 173.058 228.947 172.956C229.171 172.746 229.522 172.449 230 172.081C231.397 171.039 232.971 170.203 234.661 169.605C237.28 168.663 240.115 168.309 242.921 168.573C246.548 168.923 249.969 170.264 252.721 172.414H252.448C255.149 170.723 258.333 169.761 261.624 169.64C265.211 169.475 268.79 170.075 272.068 171.39C275.31 172.751 278.276 174.587 280.845 176.823C283.18 178.85 285.308 181.061 287.203 183.429L287.057 183.35C290.649 183.759 294.083 184.922 297.081 186.744C299.414 188.14 301.456 189.889 303.118 191.915C304.191 193.224 305.082 194.646 305.77 196.15C306.014 196.666 306.15 197.086 306.258 197.357C306.319 197.491 306.371 197.628 306.414 197.768Z" fill="#263238"/>
<path d="M277.217 216.36C276.976 215.276 276.517 214.242 275.862 213.306C275.095 212.236 274.064 211.338 272.849 210.682C271.295 209.819 269.471 209.432 267.651 209.579H267.456V209.404C267.075 207.31 266.104 205.337 264.634 203.674C263.165 202.012 261.246 200.713 259.06 199.903C257.122 199.223 255.04 198.939 252.965 199.072C251.058 199.196 249.202 199.676 247.514 200.48L247.368 200.55L247.25 200.436C245.791 199.064 243.881 198.145 241.799 197.812C240.183 197.53 238.517 197.578 236.923 197.952C235.51 198.305 234.186 198.899 233.023 199.702C233.023 199.702 233.081 199.623 233.228 199.509C233.374 199.395 233.588 199.212 233.891 199.01C234.781 198.445 235.769 198.016 236.816 197.742C238.448 197.32 240.167 197.242 241.838 197.514C244.016 197.837 246.018 198.786 247.543 200.218L247.28 200.174C249.013 199.348 250.919 198.853 252.877 198.722C255.024 198.587 257.176 198.886 259.177 199.597C261.583 200.469 263.668 201.93 265.194 203.814C266.566 205.468 267.463 207.4 267.807 209.439L267.583 209.282C269.486 209.148 271.386 209.575 272.995 210.498C274.232 211.187 275.273 212.124 276.037 213.236C276.526 213.948 276.876 214.729 277.071 215.546C277.12 215.76 277.156 215.976 277.178 216.193C277.196 216.248 277.209 216.303 277.217 216.36Z" fill="#263238"/>
<path d="M240.717 254.164C240.717 254.164 240.561 253.989 240.2 253.849C239.656 253.702 239.073 253.72 238.542 253.902C238.134 254.017 237.711 254.085 237.284 254.103C237.021 254.101 236.761 254.051 236.519 253.957C236.278 253.862 236.061 253.724 235.88 253.552C235.129 252.843 234.846 251.802 234.135 251.129C233.972 250.963 233.771 250.832 233.545 250.746C233.318 250.659 233.073 250.62 232.828 250.63C232.325 250.679 231.829 250.77 231.346 250.901C230.864 251.024 230.357 251.048 229.863 250.971C229.345 250.856 228.873 250.612 228.502 250.267C228.131 249.921 227.876 249.489 227.767 249.02C227.7 248.826 227.7 248.619 227.767 248.425C227.767 248.425 227.767 248.635 227.932 248.985C228.116 249.468 228.455 249.892 228.908 250.201C229.205 250.414 229.557 250.555 229.932 250.612C230.367 250.665 230.81 250.629 231.229 250.507C231.739 250.36 232.265 250.26 232.799 250.21C233.112 250.193 233.426 250.241 233.716 250.348C234.007 250.456 234.266 250.621 234.476 250.831C235.305 251.706 235.558 252.668 236.192 253.272C236.472 253.553 236.865 253.723 237.284 253.744C237.677 253.74 238.067 253.69 238.445 253.596C239.046 253.428 239.696 253.465 240.268 253.701C240.678 253.911 240.736 254.164 240.717 254.164Z" fill="#263238"/>
<path d="M242.345 252.1C239.97 251.213 237.66 250.19 235.431 249.037C233.122 248.012 230.885 246.861 228.732 245.59C231.108 246.482 233.42 247.505 235.656 248.652C237.961 249.679 240.195 250.83 242.345 252.1Z" fill="#263238"/>
<path d="M239.527 255.328C239.527 255.328 239.332 255.416 238.991 255.556C238.815 255.625 238.62 255.73 238.347 255.835C238.034 255.933 237.702 255.972 237.372 255.949C236.516 255.907 235.696 255.622 235.032 255.136C234.643 254.839 234.339 254.465 234.144 254.042C233.985 253.628 233.751 253.241 233.452 252.896C233.1 252.63 232.69 252.434 232.248 252.319C231.806 252.205 231.343 252.175 230.887 252.231C230.057 252.318 229.217 252.247 228.42 252.021C227.874 251.834 227.428 251.468 227.172 250.997C227.016 250.656 227.074 250.437 227.094 250.446C227.113 250.455 227.152 250.639 227.347 250.919C227.63 251.306 228.054 251.594 228.547 251.732C229.305 251.903 230.095 251.936 230.868 251.828C231.388 251.76 231.919 251.793 232.424 251.926C232.929 252.059 233.396 252.288 233.793 252.598C234.123 252.981 234.38 253.409 234.554 253.867C234.719 254.238 234.975 254.57 235.305 254.838C235.895 255.282 236.617 255.562 237.382 255.643C237.904 255.685 238.43 255.601 238.903 255.398C239.303 255.302 239.527 255.302 239.527 255.328Z" fill="#263238"/>
<path d="M132.464 173.621L156.989 170.357L145.287 155.484L139.007 155.817C136.932 155.924 134.931 156.547 133.228 157.616C131.524 158.685 130.186 160.158 129.363 161.871C128.472 163.728 128.224 165.783 128.651 167.768L132.464 173.621Z" fill="#9F91F5"/>
<path opacity="0.4" d="M132.464 173.621L156.989 170.357L145.287 155.484L139.007 155.817C136.932 155.924 134.931 156.547 133.228 157.616C131.524 158.685 130.186 160.158 129.363 161.871C128.472 163.728 128.224 165.783 128.651 167.768L132.464 173.621Z" fill="black"/>
<path d="M237.801 197.996C238.055 198.625 238.328 199.369 238.611 200.262C238.844 201.03 238.933 201.829 238.874 202.624C238.835 203.61 238.648 204.587 238.318 205.528C237.918 206.403 238.854 207.208 239.644 206.788C240.434 206.368 241.595 204.094 241.595 201.171C241.595 198.249 244.852 201.749 246.09 203.009C247.329 204.269 251.366 208.004 252.097 207.969C253.17 207.917 253.306 206.876 252.039 205.642C250.771 204.409 247.25 200.48 248.021 199.92C248.791 199.36 254.993 205.861 254.993 205.861C254.993 205.861 256.066 207.444 256.944 206.832C258.601 205.721 251.434 199.255 250.732 198.66C250.254 198.241 251.063 197.611 251.561 198.083C252.058 198.555 257.587 204.689 259.284 203.569C260.581 202.694 253.433 198.206 253.082 196.368C252.731 194.531 258.114 200.279 259.313 199.422C259.772 199.098 260.054 198.8 256.388 195.922C254.632 194.505 247.943 190.305 247.943 190.305L227.815 138.607L212.271 146.595L237.801 197.996Z" fill="#FFBE9D"/>
<path d="M117.983 100.217L95.4956 76.1392C95.2119 75.3084 94.8431 74.503 94.3936 73.7333C93.872 72.7727 93.1296 71.9222 92.2153 71.2375C91.3009 70.5529 90.2354 70.0498 89.0887 69.7612C87.665 69.4812 86.0267 69.6212 84.9053 68.7813C84.4079 68.4051 84.0764 67.9064 83.5498 67.5214C83.0232 67.1365 82.1553 67.1015 81.814 67.6002C81.7264 67.7948 81.6896 68.0047 81.7065 68.214C81.7234 68.4233 81.7935 68.6264 81.9115 68.8076C82.7561 70.589 84.0998 72.1442 85.8122 73.3221C83.7058 73.8995 80.6926 74.7744 80.6926 74.7744C80.6926 74.7744 75.9435 70.1462 73.5056 70.1549C71.0677 70.1637 75.4559 74.2932 75.4559 74.2932C75.4559 74.2932 71.5553 71.0561 70.3461 71.966C69.1369 72.8759 72.2379 75.2818 72.2379 75.2818C71.3064 74.7137 70.1935 74.4341 69.0686 74.4857C67.9667 74.6519 67.0208 75.8155 67.6156 76.6642C67.8693 76.97 68.2047 77.2137 68.5908 77.3729L74.5783 80.365C75.5363 80.938 76.6328 81.2979 77.7768 81.4149C80.8193 81.5024 83.1305 79.8138 86.1632 79.8838C86.1632 79.8838 103.121 111.914 104.838 113.568C106.554 115.221 143.844 117.47 143.844 117.47L165.405 100.803L117.983 100.217Z" fill="#FFBE9D"/>
<path d="M185.542 274.698L208.507 283.666L196.22 309.362C193.548 308.163 194.426 292.739 194.426 292.739L179.447 287.533L185.542 274.698Z" fill="#9F91F5"/>
<g opacity="0.6">
<path opacity="0.6" d="M196.971 284.331C197.173 284.115 197.457 283.973 197.768 283.932C198.079 283.892 198.396 283.956 198.658 284.112C198.904 284.287 199.066 284.539 199.111 284.817C199.156 285.095 199.081 285.378 198.902 285.609C198.689 285.836 198.389 285.984 198.061 286.024C197.734 286.065 197.401 285.995 197.127 285.827C196.888 285.623 196.748 285.344 196.735 285.048C196.722 284.752 196.838 284.464 197.059 284.244" fill="white"/>
</g>
<path opacity="0.6" d="M208.507 283.666L206.147 282.844L195.245 307.787C195.245 307.787 195.245 309.152 196.22 309.362L208.507 283.666Z" fill="white"/>
<path d="M194.065 293.115C194.211 293.159 194.572 292.555 195.323 292.118C196.074 291.68 196.805 291.566 196.805 291.435C196.805 291.304 195.908 291.173 195.021 291.724C194.133 292.275 193.929 293.089 194.065 293.115Z" fill="#263238"/>
<path d="M194.016 296.282C194.143 296.37 194.64 295.915 195.44 295.714C196.24 295.512 196.913 295.635 196.971 295.512C197.03 295.39 196.269 294.996 195.284 295.259C194.299 295.521 193.89 296.23 194.016 296.282Z" fill="#263238"/>
<path d="M196.883 299.204C196.971 299.099 196.347 298.653 195.43 298.679C194.514 298.706 193.928 299.178 194.016 299.274C194.104 299.371 194.689 299.169 195.45 299.161C196.21 299.152 196.805 299.344 196.883 299.204Z" fill="#263238"/>
<path d="M190.798 291.584C190.954 291.584 191.032 290.928 191.432 290.245C191.832 289.563 192.339 289.099 192.251 288.985C192.164 288.872 191.403 289.213 190.954 290.027C190.506 290.84 190.662 291.601 190.798 291.584Z" fill="#263238"/>
<path d="M187.697 289.659C187.756 289.659 188.077 289.222 188.302 288.373C188.436 287.875 188.498 287.363 188.487 286.851C188.482 286.558 188.456 286.266 188.409 285.976C188.388 285.797 188.335 285.623 188.253 285.46C188.194 285.339 188.092 285.24 187.963 285.179C187.834 285.117 187.685 285.095 187.541 285.118C187.413 285.141 187.293 285.191 187.191 285.264C187.089 285.337 187.009 285.431 186.956 285.538C186.877 285.703 186.825 285.877 186.8 286.054C186.644 286.872 186.721 287.712 187.024 288.495C187.346 289.327 187.775 289.729 187.824 289.694C187.873 289.659 187.6 289.195 187.375 288.399C187.255 287.932 187.199 287.453 187.21 286.973C187.217 286.68 187.25 286.387 187.307 286.098C187.356 285.801 187.463 285.565 187.639 285.547C187.814 285.53 187.717 285.547 187.785 285.635C187.837 285.759 187.873 285.888 187.892 286.019C187.948 286.309 187.984 286.601 187.999 286.894C188.029 287.376 188.006 287.86 187.931 288.338C187.82 288.773 187.742 289.214 187.697 289.659Z" fill="#263238"/>
<path d="M187.97 289.58C187.97 289.58 187.639 289.099 186.751 288.706C186.231 288.477 185.67 288.332 185.094 288.277C184.769 288.245 184.442 288.245 184.118 288.277C183.896 288.275 183.676 288.323 183.48 288.418C183.284 288.513 183.117 288.651 182.997 288.819C182.947 288.935 182.934 289.061 182.96 289.184C182.986 289.306 183.049 289.419 183.143 289.51C183.282 289.64 183.439 289.752 183.611 289.843C183.913 290.012 184.242 290.139 184.586 290.219C185.156 290.346 185.752 290.346 186.322 290.219C187.297 290 187.727 289.545 187.688 289.519C187.218 289.666 186.739 289.789 186.254 289.887C185.738 289.953 185.212 289.917 184.713 289.782C184.424 289.699 184.148 289.582 183.894 289.432C183.611 289.274 183.416 289.082 183.494 288.994C183.578 288.906 183.683 288.836 183.801 288.789C183.92 288.743 184.048 288.72 184.177 288.723C184.501 288.695 184.828 288.695 185.152 288.723C185.682 288.756 186.204 288.856 186.703 289.021C187.444 289.301 187.922 289.633 187.97 289.58Z" fill="#263238"/>
<path d="M167.853 309.992L177.351 327.848L180.325 343.964C180.375 344.238 180.488 344.5 180.656 344.733C180.825 344.967 181.045 345.166 181.303 345.32C181.561 345.473 181.851 345.577 182.156 345.626C182.461 345.674 182.774 345.665 183.075 345.6C183.426 345.527 183.752 345.38 184.025 345.169C184.298 344.959 184.511 344.693 184.645 344.393C186.391 340.517 192.739 326.212 191.959 324.944C191.062 323.474 183.328 305.512 183.328 305.512L167.853 309.992Z" fill="#9F91F5"/>
<path opacity="0.6" d="M183.075 345.557L191.344 323.684L191.734 324.445C192.065 325.105 192.124 325.85 191.9 326.545C191.296 328.409 189.511 333.544 184.704 344.323C184.567 344.634 184.347 344.909 184.063 345.124C183.779 345.34 183.439 345.488 183.075 345.557Z" fill="white"/>
<g opacity="0.6">
<path opacity="0.6" d="M184.304 319.528C184.137 319.79 184.085 320.098 184.157 320.392C184.229 320.686 184.42 320.946 184.694 321.121C184.981 321.28 185.325 321.334 185.655 321.272C185.985 321.21 186.277 321.037 186.469 320.788C186.64 320.509 186.691 320.182 186.612 319.871C186.533 319.56 186.329 319.285 186.039 319.1C185.722 318.961 185.357 318.94 185.022 319.04C184.686 319.139 184.408 319.352 184.245 319.633" fill="white"/>
</g>
<path d="M183.719 335.819C182.981 335.393 182.128 335.153 181.251 335.126C180.374 335.098 179.505 335.283 178.735 335.662C178.735 335.662 178.882 335.382 179.321 335.137C179.908 334.819 180.586 334.664 181.271 334.69C181.952 334.709 182.612 334.903 183.172 335.25C183.602 335.53 183.758 335.784 183.719 335.819Z" fill="#263238"/>
<path d="M183.543 338.811C182.823 338.752 182.1 338.735 181.378 338.759C180.674 338.909 179.981 339.096 179.301 339.319C179.194 339.249 179.974 338.444 181.31 338.321C181.699 338.236 182.105 338.237 182.493 338.322C182.882 338.407 183.242 338.575 183.543 338.811Z" fill="#263238"/>
<path d="M184.83 331.646C183.728 331.474 182.614 331.377 181.495 331.357C180.381 331.469 179.279 331.662 178.199 331.935C179.158 331.323 180.292 330.97 181.468 330.919C182.643 330.868 183.81 331.12 184.83 331.646Z" fill="#263238"/>
<path d="M182.451 326.003C182.451 326.134 181.134 326.16 179.662 326.703C178.189 327.245 177.205 328.006 177.107 327.91C177.665 327.137 178.507 326.565 179.486 326.291C180.406 325.884 181.456 325.782 182.451 326.003Z" fill="#263238"/>
<path d="M179.808 320.692C178.804 320.794 177.82 321.018 176.883 321.357C176.013 321.813 175.219 322.375 174.523 323.028C174.474 323.028 174.572 322.687 174.923 322.267C175.381 321.711 175.984 321.264 176.678 320.963C177.365 320.655 178.124 320.499 178.892 320.508C179.477 320.526 179.818 320.648 179.808 320.692Z" fill="#263238"/>
<path d="M176.415 320.342C176.246 320.14 176.12 319.912 176.044 319.668C175.804 319.015 175.707 318.325 175.761 317.639C175.75 317.133 175.925 316.638 176.259 316.23C176.379 316.111 176.536 316.027 176.709 315.988C176.883 315.949 177.065 315.957 177.234 316.011C177.562 316.155 177.822 316.401 177.965 316.703C178.224 317.328 178.231 318.014 177.985 318.644C177.739 319.273 177.256 319.806 176.619 320.15C175.983 320.478 175.253 320.63 174.52 320.586C173.788 320.543 173.086 320.306 172.504 319.905C172.356 319.8 172.235 319.667 172.151 319.516C172.067 319.365 172.021 319.199 172.017 319.03C172.026 318.862 172.095 318.702 172.212 318.572C172.33 318.441 172.49 318.348 172.67 318.304C173.215 318.205 173.78 318.235 174.308 318.391C175.054 318.566 175.759 318.863 176.385 319.266C176.824 319.537 177.019 319.738 177 319.765C176.143 319.288 175.208 318.934 174.23 318.715C173.764 318.591 173.271 318.576 172.797 318.671C172.698 318.693 172.609 318.744 172.544 318.815C172.479 318.885 172.441 318.973 172.436 319.065C172.453 319.172 172.494 319.275 172.556 319.368C172.618 319.461 172.7 319.543 172.797 319.607C173.309 319.942 173.918 320.137 174.551 320.169C175.184 320.202 175.814 320.07 176.366 319.791C176.919 319.502 177.343 319.051 177.567 318.514C177.791 317.976 177.801 317.386 177.595 316.843C177.507 316.628 177.333 316.45 177.107 316.344C177.014 316.306 176.91 316.295 176.81 316.314C176.71 316.333 176.619 316.38 176.551 316.449C176.265 316.793 176.108 317.209 176.103 317.639C176.028 318.549 176.134 319.464 176.415 320.342Z" fill="#263238"/>
<path d="M199.858 276.877L173.811 261.129L182.431 185.196L157.76 172.274L135.204 167.584C135.204 167.584 125.784 185.17 121.552 196.456C112.639 220.402 106.388 228.985 107.822 246.325C108.27 251.82 130.874 265.573 145.151 273.194C145.311 274.719 145.565 276.235 145.911 277.734C150.787 297.525 165.688 323.842 165.688 323.842L188.312 314.402L181.017 291.96L188.624 295.941L199.858 276.877ZM143.873 227.883L146.916 215.713C146.272 223.456 145.687 231.531 145.268 239.274C143.797 235.64 143.319 231.743 143.873 227.909V227.883Z" fill="#263238"/>
<path d="M165.727 323.842C165.657 323.739 165.598 323.631 165.551 323.518L165.073 322.564L163.328 318.863C161.826 315.635 159.671 310.989 157.087 305.171C154.503 299.353 151.441 292.459 148.31 284.672C147.54 282.721 146.789 280.718 146.077 278.644C145.765 277.594 145.365 276.562 145.161 275.451C145.102 275.18 145.034 274.9 144.985 274.628L144.878 273.797L144.673 272.135C144.4 269.895 144.182 267.615 144.02 265.293C143.942 264.138 143.873 262.966 143.815 261.794C143.756 260.621 143.717 259.423 143.815 258.224C144.205 248.688 145.092 239.641 145.833 231.408C146.575 223.175 147.286 215.774 147.872 209.536C148.457 203.298 148.847 198.276 149.042 194.785C149.169 193.035 149.237 191.688 149.276 190.778L149.344 189.728C149.327 189.612 149.327 189.494 149.344 189.378C149.355 189.494 149.355 189.611 149.344 189.728C149.344 189.99 149.344 190.332 149.344 190.778C149.344 191.696 149.295 193.053 149.208 194.794C149.042 198.293 148.7 203.333 148.184 209.562C147.667 215.791 146.974 223.202 146.233 231.434C145.492 239.667 144.644 248.714 144.283 258.224C144.205 259.414 144.283 260.586 144.283 261.767C144.283 262.948 144.4 264.103 144.488 265.267C144.644 267.6 144.855 269.872 145.122 272.082L145.326 273.754L145.434 274.576C145.482 274.847 145.551 275.11 145.609 275.381C145.804 276.448 146.194 277.489 146.506 278.53C147.199 280.586 147.95 282.59 148.71 284.541C151.772 292.319 154.805 299.239 157.34 305.058C159.876 310.876 161.992 315.556 163.445 318.793C164.157 320.403 164.722 321.654 165.113 322.529C165.288 322.941 165.434 323.264 165.532 323.5C165.629 323.737 165.727 323.842 165.727 323.842Z" fill="#455A64"/>
<path d="M148.31 186.806C148.31 186.806 148.086 186.683 147.725 186.377C147.26 185.907 146.887 185.368 146.623 184.785C145.851 182.855 145.475 180.816 145.512 178.765C145.482 176.72 145.589 174.675 145.834 172.641C145.879 171.801 146.01 170.967 146.224 170.148C146.303 170.986 146.303 171.829 146.224 172.667C146.136 174.216 145.999 176.36 146.038 178.722C146.023 180.729 146.352 182.727 147.013 184.645C147.243 185.207 147.554 185.74 147.94 186.228C148.174 186.587 148.34 186.788 148.31 186.806Z" fill="#455A64"/>
<path d="M138.578 168.739C138.808 169.425 138.875 170.146 138.773 170.856C138.644 172.598 137.998 174.277 136.902 175.72C135.807 177.163 134.301 178.317 132.542 179.063C131.84 179.406 131.066 179.615 130.27 179.675C130.27 179.605 131.118 179.395 132.386 178.8C134.036 178.013 135.448 176.878 136.501 175.492C137.554 174.107 138.217 172.513 138.432 170.848C138.598 169.553 138.49 168.739 138.578 168.739Z" fill="#455A64"/>
<path d="M179.048 212.886C179.048 212.886 179.048 212.965 179.048 213.114C179.048 213.263 179.048 213.516 178.989 213.788C178.911 214.418 178.813 215.292 178.696 216.412C178.414 218.696 178.024 221.942 177.536 225.931C176.561 234.007 175.118 245.092 173.577 257.349C173.028 263.119 173.458 268.931 174.854 274.585C175.465 277.047 176.25 279.473 177.204 281.846C178.082 284.086 178.891 286.177 179.642 288.093C181.115 291.89 182.305 294.979 183.143 297.148C183.533 298.198 183.845 299.021 184.118 299.616L184.352 300.263C184.385 300.333 184.405 300.406 184.411 300.482C184.411 300.482 184.411 300.42 184.304 300.272C184.196 300.123 184.138 299.904 184.031 299.642C183.777 299.056 183.446 298.242 183.055 297.201L179.408 288.198C178.648 286.291 177.809 284.2 176.912 281.969C175.935 279.583 175.13 277.142 174.503 274.663C173.067 268.973 172.617 263.119 173.167 257.305C174.689 245.013 176.21 233.937 177.273 225.896C177.829 221.907 178.248 218.661 178.589 216.386C178.745 215.284 178.872 214.426 178.97 213.761C178.97 213.49 179.048 213.271 179.077 213.096C179.056 213.028 179.046 212.957 179.048 212.886Z" fill="#455A64"/>
<path d="M135.204 167.453L139.202 158.292L148.32 170.489L136.16 167.768" fill="#FFBE9D"/>
<path d="M230.595 139.92L219.78 118.161C218.483 114.661 216.055 114.119 214.027 112.089L186.927 98.3793C167.17 91.1176 156.414 115.457 156.414 115.457L138.461 152.203C117.349 158.476 132.298 173.026 132.298 173.026C132.298 173.026 126.554 164.067 132.21 160.839C138.12 157.453 144.673 166.368 150.973 174.837C158.413 184.828 182.578 191.32 182.578 191.32C185.406 188.643 184.616 179.29 186.829 174.268C187.531 172.685 204.265 137.907 204.265 137.907L210.75 152.002C210.75 152.002 219.058 143.253 223.096 141.871C225.529 141.031 228.038 140.378 230.595 139.92Z" fill="#9F91F5"/>
<path d="M182.568 155.388C182.32 155.59 182.045 155.763 181.749 155.904C180.961 156.314 180.136 156.663 179.282 156.945C176.441 157.905 173.373 158.191 170.373 157.776C167.373 157.361 164.543 156.258 162.158 154.574C161.437 154.075 160.768 153.519 160.159 152.912C159.917 152.706 159.713 152.467 159.554 152.203C159.622 152.142 160.529 153.131 162.362 154.329C164.745 155.906 167.518 156.942 170.444 157.347C173.371 157.752 176.363 157.516 179.165 156.657C181.329 156.009 182.568 155.318 182.568 155.388Z" fill="#263238"/>
<path d="M137.71 120.864L154.434 122.282L181.193 96.9094L165.454 96.4194L137.437 98.9042C138.911 106.158 139.004 113.583 137.71 120.864Z" fill="#9F91F5"/>
<path d="M160.89 107.513C160.85 107.677 160.78 107.833 160.685 107.977L160.012 109.272C159.408 110.444 158.559 112.063 157.535 114.023C155.458 118.047 152.66 123.646 149.734 129.858C146.809 136.07 144.02 141.696 141.933 145.729C140.909 147.75 140.061 149.369 139.456 150.488L138.744 151.766C138.669 151.921 138.575 152.068 138.461 152.203C138.511 152.041 138.576 151.883 138.656 151.731L139.28 150.418L141.621 145.607C143.571 141.486 146.292 135.878 149.256 129.683C152.221 123.489 155.107 117.89 157.223 113.891C158.306 111.897 159.174 110.295 159.847 109.193C160.159 108.686 160.402 108.266 160.598 107.933C160.678 107.784 160.776 107.644 160.89 107.513Z" fill="#263238"/>
<path d="M211.94 114.889C211.989 114.968 210.965 115.449 209.531 116.534C208.709 117.166 207.955 117.866 207.279 118.625C206.455 119.562 205.742 120.573 205.153 121.643C204.587 122.72 204.142 123.846 203.826 125.003C203.581 125.953 203.437 126.923 203.397 127.899C203.329 129.561 203.544 130.593 203.446 130.602C203.343 130.375 203.278 130.137 203.251 129.893C203.178 129.606 203.132 129.313 203.115 129.018C203.065 128.635 203.042 128.249 203.046 127.864C203.039 126.864 203.153 125.866 203.388 124.889C203.68 123.682 204.122 122.508 204.704 121.389C205.315 120.293 206.057 119.261 206.918 118.31C207.631 117.545 208.431 116.85 209.307 116.236C209.637 115.993 209.986 115.771 210.35 115.571C210.613 115.403 210.89 115.253 211.179 115.125C211.417 115.011 211.674 114.931 211.94 114.889Z" fill="#263238"/>
<path d="M216.611 80.0413L200.92 106.358C199.684 108.428 197.62 110.001 195.143 110.761C192.666 111.52 189.961 111.41 187.57 110.453C186.282 109.93 185.127 109.176 184.177 108.238C183.226 107.299 182.5 106.196 182.043 104.995C181.586 103.795 181.408 102.524 181.52 101.259C181.632 99.995 182.032 98.7647 182.695 97.6444L185.396 93.0774C185.396 93.0774 178.57 89.1141 181.768 82.4998C184.616 76.603 195.069 59.9448 197.283 56.4277L210.506 61.7384C212.267 62.562 213.825 63.6938 215.089 65.067C216.353 66.4402 217.298 68.0268 217.867 69.7331C218.436 71.4395 218.618 73.2309 218.403 75.0014C218.187 76.7719 217.578 78.4857 216.611 80.0413Z" fill="#FFBE9D"/>
<path d="M185.396 92.9812C188.754 94.3957 192.504 94.8829 196.171 94.381C196.171 94.381 191.549 98.2044 184.528 94.6785L185.396 92.9812Z" fill="#EB996E"/>
<path d="M190.437 71.9398C190.313 72.184 190.299 72.4622 190.399 72.7155C190.499 72.9687 190.705 73.1769 190.974 73.2959C191.102 73.3583 191.243 73.3973 191.389 73.4104C191.534 73.4235 191.681 73.4106 191.821 73.3723C191.96 73.334 192.09 73.2712 192.203 73.1875C192.315 73.1038 192.408 73.0008 192.476 72.8847C192.6 72.6404 192.614 72.3622 192.514 72.109C192.414 71.8557 192.208 71.6475 191.939 71.5286C191.811 71.4661 191.67 71.4271 191.524 71.414C191.379 71.4009 191.232 71.4138 191.092 71.4521C190.953 71.4904 190.823 71.5532 190.71 71.6369C190.598 71.7206 190.505 71.8236 190.437 71.9398Z" fill="#263238"/>
<path d="M190.496 71.1085C190.564 71.2835 191.617 71.1085 192.749 71.5284C193.88 71.9484 194.445 72.8145 194.631 72.7446C194.816 72.6746 194.689 72.4383 194.455 72.0621C194.116 71.5639 193.616 71.1702 193.022 70.9335C192.435 70.6973 191.779 70.633 191.149 70.7498C190.691 70.846 190.457 70.9948 190.496 71.1085Z" fill="#263238"/>
<path d="M200.979 76.5941C200.852 76.838 200.836 77.1171 200.937 77.371C201.037 77.6248 201.245 77.8329 201.515 77.9502C201.644 78.0124 201.786 78.0508 201.932 78.0633C202.078 78.0758 202.225 78.0621 202.364 78.023C202.504 77.9839 202.634 77.9202 202.746 77.8356C202.858 77.751 202.95 77.6472 203.017 77.5303C203.139 77.287 203.151 77.0109 203.051 76.7597C202.951 76.5085 202.747 76.3018 202.481 76.1829C202.353 76.1192 202.211 76.0793 202.066 76.0656C201.92 76.0518 201.773 76.0645 201.633 76.1029C201.493 76.1412 201.363 76.2045 201.25 76.2889C201.138 76.3733 201.046 76.4771 200.979 76.5941Z" fill="#263238"/>
<path d="M201.476 75.7368C201.545 75.9118 202.598 75.7368 203.729 76.1568C204.86 76.5767 205.426 77.4517 205.611 77.3817C205.796 77.3117 205.679 77.0754 205.435 76.6905C205.096 76.1951 204.596 75.8045 204.002 75.5706C203.416 75.3302 202.76 75.2658 202.13 75.3869C201.671 75.4831 201.437 75.6581 201.476 75.7368Z" fill="#263238"/>
<path d="M193.646 81.5899C193.134 81.1897 192.571 80.846 191.968 80.5662C191.695 80.4175 191.442 80.26 191.481 80.0675C191.52 79.875 191.773 79.6213 192.056 79.3764L193.89 77.749C195.508 76.3996 197.005 74.9368 198.366 73.3745C196.62 74.5974 194.99 75.9463 193.49 77.4078L191.686 79.0614C191.35 79.3005 191.118 79.6381 191.032 80.015C191.031 80.1225 191.055 80.229 191.104 80.3272C191.153 80.4254 191.225 80.5129 191.315 80.5837C191.456 80.6844 191.61 80.7696 191.773 80.8374C192.356 81.1643 192.986 81.4175 193.646 81.5899Z" fill="#263238"/>
<path d="M196.61 83.6196C196.435 83.5409 195.889 84.6345 194.455 84.9932C193.022 85.352 191.773 84.7133 191.686 84.862C191.598 85.0107 191.871 85.1857 192.417 85.4219C193.127 85.7202 193.933 85.7822 194.689 85.5969C195.418 85.4235 196.042 84.9991 196.425 84.4158C196.698 83.9784 196.698 83.6546 196.61 83.6196Z" fill="#263238"/>
<path d="M203.163 71.6598C203.163 71.9835 204.324 72.2985 205.572 72.9722C206.82 73.6458 207.737 74.3983 208.029 74.2233C208.166 74.1358 208.108 73.8033 207.815 73.3484C207.399 72.7933 206.849 72.3296 206.206 71.9918C205.563 71.654 204.843 71.4508 204.1 71.3973C203.534 71.3973 203.173 71.5111 203.163 71.6598Z" fill="#263238"/>
<path d="M192.368 68.37C192.456 68.685 193.343 68.755 194.319 69.1137C195.294 69.4724 195.967 69.9886 196.269 69.7961C196.571 69.6037 196.405 69.4287 196.162 69.0787C195.841 68.6246 195.365 68.275 194.806 68.0813C194.253 67.867 193.639 67.8149 193.051 67.9326C192.563 68.0026 192.319 68.1951 192.368 68.37Z" fill="#263238"/>
<path d="M211.677 83.9871C211.833 83.9871 217.381 84.6695 214.982 89.1052C212.583 93.541 208.156 90.4614 208.156 90.3301C208.156 90.1989 211.677 83.9871 211.677 83.9871Z" fill="#FFBE9D"/>
<path d="M210.594 89.3065C210.594 89.3065 210.653 89.3939 210.76 89.5252C210.926 89.6915 211.156 89.7948 211.403 89.8139C211.827 89.7757 212.231 89.6362 212.575 89.41C212.918 89.1838 213.187 88.8791 213.354 88.5278C213.571 88.154 213.695 87.7418 213.715 87.3204C213.742 87.1614 213.726 86.9988 213.669 86.8465C213.611 86.6941 213.513 86.5565 213.383 86.4455C213.295 86.3801 213.185 86.3442 213.071 86.3442C212.957 86.3442 212.847 86.3801 212.759 86.4455C212.632 86.5418 212.613 86.638 212.583 86.638C212.554 86.638 212.515 86.5155 212.652 86.3493C212.741 86.2514 212.865 86.1835 213.003 86.1568C213.189 86.1254 213.381 86.1599 213.539 86.253C213.721 86.3779 213.865 86.5421 213.957 86.7303C214.049 86.9184 214.086 87.1245 214.066 87.3292C214.067 87.8044 213.94 88.2728 213.695 88.694C213.506 89.0995 213.187 89.446 212.78 89.6903C212.372 89.9345 211.894 90.0658 211.403 90.0676C211.252 90.0406 211.109 89.9853 210.983 89.9054C210.857 89.8256 210.751 89.7228 210.672 89.6039C210.545 89.4202 210.575 89.3065 210.594 89.3065Z" fill="#EB996E"/>
<path d="M214.544 84.9932C214.084 84.785 213.572 84.6891 213.059 84.7153C212.545 84.7414 212.048 84.8885 211.618 85.1419C210.974 85.6494 210.536 86.3493 209.892 86.8917C209.595 87.174 209.203 87.3599 208.775 87.42C208.348 87.4802 207.911 87.4113 207.532 87.2242C207.31 87.0465 207.145 86.8195 207.052 86.5659C206.96 86.3124 206.944 86.0415 207.006 85.7806C207.136 85.2571 207.378 84.7611 207.717 84.3195C209.053 82.3422 210.584 80.4524 211.735 78.3789C212.987 76.3308 213.533 73.9954 213.305 71.6684C213.173 70.5112 212.696 69.4072 211.923 68.4727C211.151 67.5382 210.113 66.8076 208.917 66.3578C207.308 65.8503 205.514 65.9991 203.865 65.5791C202.89 65.3164 201.994 64.8586 201.244 64.2404C200.494 63.6221 199.91 62.8594 199.536 62.0095C199.342 61.6667 199.127 61.3337 198.892 61.0121C198.951 60.9071 199.536 60.0147 200.111 59.8397C204.46 58.5186 210.341 60.0322 213.939 62.5782C215.776 63.8587 217.279 65.4836 218.343 67.3392C219.408 69.1949 220.008 71.2367 220.102 73.322C220.151 77.434 217.264 81.966 214.583 85.0282" fill="#263238"/>
<path d="M214.592 84.5121C215.967 82.4123 218.191 80.8987 219.887 79.0089C221.584 77.1191 222.813 74.4507 221.545 72.2809C221.136 71.5372 220.472 70.9161 220.131 70.1462C219.861 69.3468 219.697 68.5216 219.644 67.6877C219.423 66.4134 218.884 65.2004 218.067 64.1397C217.249 63.079 216.175 62.1982 214.924 61.5634C213.188 60.6885 211.189 60.3385 209.424 59.5073C206.645 58.195 204.607 55.7628 201.623 54.7216C201.153 54.5159 200.639 54.4017 200.117 54.3866C199.594 54.3715 199.074 54.4559 198.59 54.6341C198.358 54.7351 198.153 54.8787 197.988 55.0556C197.822 55.2325 197.7 55.4386 197.629 55.6606C197.558 55.8826 197.54 56.1155 197.577 56.3441C197.613 56.5728 197.702 56.792 197.839 56.9876C197.781 56.7861 197.675 56.5983 197.528 56.4375C197.381 56.2767 197.196 56.1467 196.987 56.0566C196.778 55.9666 196.55 55.9187 196.318 55.9163C196.086 55.9139 195.856 55.957 195.645 56.0427C195.23 56.2456 194.891 56.554 194.671 56.9291C194.45 57.3043 194.358 57.7294 194.406 58.1512C194.521 58.9933 194.888 59.7917 195.469 60.461C197.278 62.7606 199.939 64.4075 202.978 65.1067L209.716 64.6343L215.236 68.3001L219.312 74.1357L211.911 82.7622L214.592 84.5121Z" fill="#263238"/>
<path d="M172.475 50.0847C172.201 46.2726 170.791 42.5965 168.392 39.4404C165.994 36.2843 162.694 33.7641 158.839 32.1429C154.984 30.5218 150.714 29.8593 146.476 30.2246C142.238 30.5899 138.187 31.9697 134.746 34.2197C131.305 36.4698 128.601 39.5076 126.916 43.0157C125.231 46.5238 124.627 50.3735 125.167 54.1626C125.707 57.9517 127.372 61.5411 129.986 64.5559C132.601 67.5707 136.07 69.9002 140.031 71.3011C140.216 73.8208 140.421 76.673 140.421 76.673L161.212 75.4656C161.212 75.4656 161.124 72.4472 160.968 69.7525C164.716 67.7402 167.773 64.8397 169.803 61.3699C171.833 57.9001 172.758 53.9953 172.475 50.0847Z" fill="#9F91F5"/>
<path d="M153.683 75.8155C153.683 75.8155 153.683 75.7193 153.683 75.553C153.683 75.3868 153.683 75.1068 153.683 74.7744C153.683 74.1007 153.791 73.0946 153.908 71.8084C154.025 70.5223 154.191 68.9388 154.512 67.1277C154.868 65.0643 155.446 63.0367 156.238 61.0734C156.704 59.9305 157.282 58.8268 157.964 57.775C158.336 57.2007 158.862 56.7193 159.495 56.3752C159.838 56.2038 160.221 56.1088 160.613 56.0981C161.005 56.0875 161.395 56.1615 161.748 56.3139C162.122 56.4756 162.412 56.7609 162.557 57.1101C162.718 57.4635 162.718 57.8591 162.557 58.2125C162.209 58.8925 161.595 59.4343 160.831 59.7348C160.026 60.0176 159.167 60.1542 158.303 60.1368C157.438 60.1194 156.586 59.9482 155.796 59.6333C155.006 59.3184 154.294 58.8659 153.7 58.3021C153.107 57.7383 152.643 57.0745 152.338 56.3489C151.977 55.5755 151.866 54.7267 152.016 53.8992C152.098 53.4592 152.348 53.0585 152.723 52.7662C153.099 52.4739 153.576 52.3084 154.074 52.2981C154.331 52.3056 154.582 52.3723 154.802 52.4918C155.022 52.6113 155.205 52.7796 155.332 52.9806C155.594 53.3685 155.694 53.8274 155.614 54.2754C155.385 55.1384 154.856 55.9136 154.103 56.4889C153.386 57.1074 152.531 57.5829 151.595 57.8845C150.659 58.186 149.663 58.3067 148.671 58.2387C147.677 58.1549 146.721 57.8564 145.884 57.3689C145.047 56.8813 144.354 56.2192 143.864 55.439C143.612 55.0547 143.452 54.6277 143.393 54.185C143.334 53.7423 143.378 53.2935 143.522 52.8668C143.593 52.6479 143.716 52.4456 143.884 52.2741C144.051 52.1027 144.258 51.9662 144.491 51.8744C144.723 51.7827 144.975 51.7378 145.229 51.743C145.483 51.7481 145.733 51.8033 145.96 51.9044C146.409 52.0908 146.783 52.3961 147.033 52.7793C147.266 53.1528 147.418 53.5625 147.481 53.9867C147.607 54.8061 147.544 55.6397 147.296 56.4364C146.838 57.9981 145.732 59.3439 144.205 60.1985C142.747 61.0006 141.019 61.3108 139.329 61.0734C138.508 61.0044 137.734 60.6973 137.125 60.1985C136.827 59.9379 136.637 59.5942 136.586 59.2237C136.534 58.8532 136.625 58.4781 136.842 58.16C137.095 57.867 137.467 57.6753 137.876 57.6263C138.266 57.5816 138.662 57.6267 139.027 57.7575C139.699 58.0523 140.245 58.5383 140.577 59.1399C141.26 60.2597 141.816 61.3534 142.381 62.3945C144.585 66.5765 146.184 70.0324 147.257 72.4296C147.793 73.6282 148.232 74.5644 148.466 75.1943C148.593 75.5093 148.691 75.7543 148.769 75.9205C148.804 76.0031 148.834 76.0879 148.856 76.1742L148.739 75.9292L148.408 75.2206L147.15 72.4646C146.038 70.0849 144.41 66.6378 142.186 62.4732C141.621 61.4409 141.045 60.3297 140.373 59.2361C140.06 58.6783 139.553 58.2269 138.929 57.95C138.614 57.8168 138.26 57.7772 137.918 57.837C137.576 57.8968 137.264 58.0528 137.028 58.2825C136.851 58.5601 136.782 58.8825 136.831 59.1992C136.88 59.5159 137.046 59.8089 137.301 60.0323C137.869 60.4975 138.592 60.7832 139.358 60.8459C140.988 61.0636 142.651 60.7534 144.049 59.971C145.498 59.1378 146.543 57.844 146.974 56.3489C147.213 55.5836 147.272 54.7824 147.15 53.9954C147.121 53.6043 146.982 53.2262 146.744 52.897C146.507 52.5678 146.18 52.2984 145.794 52.1144C145.6 52.0343 145.389 51.9928 145.175 51.9928C144.961 51.9928 144.75 52.0343 144.556 52.1144C144.359 52.199 144.184 52.321 144.044 52.4721C143.904 52.6231 143.803 52.7996 143.747 52.9893C143.616 53.3816 143.576 53.7941 143.632 54.2006C143.687 54.6072 143.836 54.9991 144.068 55.3515C144.543 56.0858 145.207 56.7073 146.004 57.164C146.802 57.6207 147.71 57.8992 148.652 57.9762C149.602 58.0394 150.556 57.9216 151.452 57.6306C152.347 57.3396 153.165 56.8819 153.849 56.2877C154.547 55.7541 155.041 55.0384 155.263 54.2404C155.332 53.8502 155.245 53.4508 155.019 53.1118C154.915 52.9488 154.766 52.8121 154.587 52.7143C154.408 52.6164 154.205 52.5606 153.996 52.5518C153.565 52.5543 153.151 52.701 152.835 52.9631C152.517 53.2237 152.305 53.5713 152.23 53.9517C152.086 54.7318 152.191 55.5325 152.533 56.2614C152.824 56.9633 153.269 57.6058 153.841 58.1514C154.413 58.6969 155.101 59.1345 155.864 59.4385C156.627 59.7424 157.45 59.9066 158.284 59.9215C159.119 59.9363 159.948 59.8014 160.724 59.5248C161.429 59.2485 161.998 58.7508 162.323 58.125C162.463 57.8301 162.472 57.4986 162.349 57.198C162.226 56.8973 161.979 56.65 161.66 56.5064C161.341 56.368 160.989 56.3005 160.634 56.3096C160.279 56.3187 159.932 56.4042 159.622 56.5589C159.032 56.8845 158.54 57.3351 158.189 57.8713C157.512 58.9093 156.938 59.9983 156.472 61.1259C155.671 63.0706 155.083 65.0807 154.717 67.1277C154.376 68.9388 154.191 70.5136 154.054 71.7997C153.918 73.0858 153.849 74.0744 153.781 74.7656C153.781 75.0893 153.722 75.3518 153.713 75.5355C153.703 75.7193 153.683 75.8155 153.683 75.8155Z" fill="#263238"/>
<path d="M159.856 79.009L142.011 80.0501C141.654 80.0694 141.304 79.9616 141.035 79.7503C140.767 79.5389 140.602 79.2411 140.577 78.9215C140.556 78.6026 140.676 78.2891 140.912 78.0497C141.148 77.8102 141.48 77.6644 141.835 77.6441L159.691 76.6118C159.866 76.6011 160.042 76.6216 160.209 76.6721C160.375 76.7227 160.529 76.8023 160.662 76.9063C160.794 77.0104 160.902 77.1369 160.98 77.2785C161.057 77.4201 161.103 77.5741 161.114 77.7316C161.136 78.0506 161.015 78.3641 160.779 78.6035C160.544 78.8429 160.212 78.9887 159.856 79.009Z" fill="#263238"/>
<path d="M159.934 80.0589L142.079 81.1C141.725 81.1209 141.394 81.2672 141.16 81.5068C140.926 81.7463 140.808 82.0595 140.831 82.3774C140.854 82.6953 141.017 82.9919 141.284 83.2019C141.551 83.4119 141.9 83.5182 142.255 83.4973L144.205 83.3835L147.13 87.6793C147.297 87.919 147.533 88.1139 147.812 88.2433C148.092 88.3726 148.406 88.4317 148.72 88.4142L155.098 88.0468C155.413 88.0249 155.716 87.9272 155.975 87.764C156.234 87.6009 156.44 87.3782 156.57 87.1194L158.774 82.5436L160.11 82.4649C160.452 82.4279 160.765 82.2749 160.984 82.0373C161.204 81.7997 161.314 81.4955 161.292 81.1873C161.269 80.8792 161.116 80.5905 160.863 80.3806C160.611 80.1707 160.279 80.0556 159.934 80.0589Z" fill="#263238"/>
<g opacity="0.2">
<path opacity="0.2" d="M132.532 38.7809C133.847 37.5258 135.386 36.4761 137.086 35.675C138.198 35.1292 139.395 34.7341 140.636 34.5026C141.533 34.3714 142.05 34.4151 142.108 34.5814C142.235 34.9663 140.48 35.64 138.208 37.2061C135.172 39.1876 132.837 41.9109 131.479 45.0508C130.122 48.1907 129.8 51.6146 130.553 54.9141C131.069 57.4951 131.859 59.0524 131.528 59.2886C131.352 59.3849 130.943 59.1049 130.387 58.4662C129.623 57.5431 129.024 56.5188 128.612 55.4303C127.98 53.81 127.651 52.1074 127.637 50.3909C127.591 48.2548 128.005 46.1308 128.856 44.1353" fill="white"/>
</g>
<g opacity="0.2">
<path opacity="0.2" d="M147.901 35.1763C146.399 35.2463 145.044 34.9576 144.839 34.2489C144.751 33.8989 145.005 33.5052 145.521 33.1815C146.191 32.8166 146.949 32.6037 147.731 32.561C148.512 32.5183 149.294 32.6472 150.007 32.9365C150.573 33.2078 150.865 33.5752 150.826 33.9339" fill="white"/>
</g>
<path d="M156.238 87.5129C155.813 87.446 155.393 87.3554 154.981 87.2417C153.978 87.0516 152.949 86.9955 151.928 87.0754C150.922 87.1727 149.937 87.3996 149.003 87.7491C148.281 88.0291 147.852 88.2565 147.833 88.2215C148.148 87.952 148.514 87.7356 148.915 87.5829C149.863 87.1682 150.888 86.9103 151.938 86.8217C152.989 86.7306 154.05 86.8136 155.068 87.0667C155.484 87.155 155.879 87.3058 156.238 87.5129Z" fill="#455A64"/>
<path d="M158.823 82.5961C158.823 82.6661 155.605 82.9111 151.616 83.1473C147.628 83.3835 144.41 83.506 144.4 83.4273C144.39 83.3486 147.618 83.1123 151.597 82.8848C155.575 82.6574 158.813 82.5261 158.823 82.5961Z" fill="#455A64"/>
<path d="M157.838 84.5645C157.265 84.6921 156.681 84.7769 156.092 84.8183C155.01 84.9495 153.508 85.0895 151.84 85.212C150.173 85.3345 148.671 85.3957 147.579 85.422C146.992 85.4698 146.401 85.4698 145.814 85.422C146.392 85.3165 146.979 85.2579 147.569 85.247L151.821 84.9583L156.073 84.6433C156.657 84.5722 157.248 84.5458 157.838 84.5645Z" fill="#455A64"/>
<path d="M29.2722 191.731L33.1728 197.304C33.1728 197.304 49.7506 183.647 66.1236 187.505C66.0943 187.488 51.3499 176.272 29.2722 191.731Z" fill="#9F91F5"/>
<path d="M66.0944 187.488C66.0944 187.488 78.2352 175.659 96.0417 178.354L100.917 179.01L99.3767 176.499C99.3767 176.499 68.3762 166.98 66.0944 187.488Z" fill="#9F91F5"/>
<path d="M40.4671 147.601C40.4671 147.601 16.1465 143.848 0.212311 151.591L25.5666 194.356C25.5666 194.356 46.2986 176.429 66.1334 187.47L40.4671 147.601Z" fill="#F5F5F5"/>
<path d="M40.467 147.601C40.5171 147.657 40.5627 147.715 40.6036 147.776L40.9644 148.319L42.3686 150.445L47.6345 158.546L66.2796 187.418C66.3029 187.455 66.312 187.497 66.3058 187.539C66.2995 187.581 66.2781 187.619 66.2448 187.649C66.2116 187.679 66.1684 187.698 66.1218 187.704C66.0753 187.71 66.0279 187.701 65.9871 187.68C63.1284 186.094 59.9625 185.005 56.6548 184.47C54.9174 184.217 53.1583 184.106 51.3986 184.137C49.5887 184.209 47.7883 184.413 46.0157 184.75C38.5229 186.402 31.6101 189.71 25.9078 194.373L25.6933 194.548C25.6714 194.569 25.645 194.586 25.6156 194.597C25.5863 194.609 25.5546 194.615 25.5227 194.615C25.4907 194.615 25.459 194.609 25.4297 194.597C25.4003 194.586 25.3739 194.569 25.352 194.548V194.505L0.0269909 151.678C0.0135453 151.658 0.004881 151.636 0.0015464 151.613C-0.00178819 151.59 0.000283458 151.567 0.00763225 151.545C0.014981 151.522 0.0274435 151.502 0.0442143 151.484C0.0609851 151.466 0.0816916 151.452 0.105006 151.442C5.18714 149.167 10.6711 147.702 16.3122 147.111C20.6171 146.636 24.957 146.466 29.2917 146.604C32.8803 146.718 35.679 146.971 37.5708 147.181C38.546 147.286 39.2481 147.382 39.7357 147.461L40.2915 147.549H40.467H40.2818L39.7259 147.487C39.2383 147.435 38.5167 147.347 37.5611 147.26C35.6107 147.085 32.8608 146.866 29.2819 146.788C24.9645 146.68 20.6443 146.876 16.361 147.374C10.7664 147.991 5.33283 149.471 0.300036 151.748L0.37805 151.512L25.7323 194.277L25.352 194.216L25.5665 194.041C28.5232 191.671 31.7759 189.615 35.2597 187.917C38.6012 186.265 42.1863 185.046 45.9085 184.295C47.7089 183.949 49.5393 183.744 51.3791 183.682C53.1684 183.645 54.9576 183.759 56.723 184.023C60.0827 184.578 63.2973 185.691 66.2016 187.304L65.8993 187.567L47.459 158.695L42.2711 150.523L40.9156 148.354C40.7693 148.109 40.6523 147.925 40.5743 147.785C40.5338 147.726 40.4979 147.665 40.467 147.601Z" fill="#263238"/>
<path d="M78.6935 138.826C78.6935 138.826 60.3019 128.327 40.7791 147.575L66.4064 187.462C66.4064 187.462 71.6333 171.276 102.234 176.902L78.6935 138.826Z" fill="#F5F5F5"/>
<path d="M78.6935 138.826C78.7437 138.876 78.7863 138.932 78.8203 138.992C78.8983 139.123 79.0153 139.29 79.1518 139.508L80.4488 141.538L85.3246 149.272L102.419 176.858C102.433 176.879 102.442 176.903 102.445 176.927C102.449 176.951 102.447 176.976 102.44 177C102.433 177.023 102.42 177.045 102.403 177.065C102.386 177.084 102.365 177.1 102.341 177.112C102.294 177.128 102.242 177.128 102.195 177.112L97.6409 176.438C96.8631 176.32 96.0785 176.241 95.2908 176.202L92.8919 176.027C92.0779 175.966 91.2605 175.948 90.4442 175.974L87.977 175.983C87.1384 175.983 86.3095 176.132 85.4709 176.202C84.6245 176.264 83.784 176.378 82.955 176.543L80.4488 177.05L77.9816 177.829C77.1705 178.123 76.3764 178.453 75.6022 178.818C75.2 178.982 74.8149 179.178 74.4515 179.404L73.3301 180.051C72.589 180.498 71.9259 181.04 71.2335 181.539C70.5803 182.088 69.9648 182.672 69.3904 183.289C68.21 184.532 67.2855 185.954 66.66 187.488C66.638 187.543 66.5927 187.587 66.5342 187.612C66.4757 187.636 66.4087 187.639 66.3479 187.619C66.294 187.602 66.2489 187.568 66.2211 187.523L65.1875 185.922C56.1282 171.792 47.6345 158.625 40.6231 147.627C40.5996 147.595 40.5871 147.557 40.5871 147.518C40.5871 147.479 40.5996 147.441 40.6231 147.409C44.4937 143.477 49.2149 140.292 54.4997 138.047C58.6003 136.368 63.0958 135.611 67.5961 135.843C70.4706 135.997 73.2988 136.564 75.9728 137.522C76.6727 137.78 77.3563 138.072 78.0206 138.397L78.5277 138.66L78.6837 138.765L78.5082 138.686L77.9914 138.45C77.533 138.249 76.8504 137.951 75.9338 137.636C72.5126 136.468 68.8651 135.927 65.2069 136.046C61.5488 136.164 57.9543 136.94 54.6362 138.327C49.4112 140.578 44.7475 143.753 40.9254 147.663V147.453L65.5483 185.773L66.621 187.357L66.1724 187.409C66.8171 185.814 67.7712 184.333 68.9906 183.035C69.5856 182.402 70.217 181.797 70.8824 181.224C71.604 180.708 72.2769 180.148 73.0375 179.701L74.1785 179.037C74.5518 178.808 74.9466 178.609 75.3584 178.442C76.1776 178.1 76.9479 177.689 77.7866 177.427L80.2927 176.648L82.8477 176.132C83.6888 175.962 84.5428 175.848 85.4026 175.791C86.251 175.721 87.0896 175.581 87.9283 175.572H90.4345C91.2572 175.537 92.0817 175.554 92.9016 175.624L95.32 175.808C96.1146 175.842 96.9061 175.921 97.6897 176.044L102.273 176.736L102.049 177.015C95.0567 165.642 89.2155 156.114 85.1003 149.404C83.0622 146.07 81.4532 143.428 80.3513 141.608L79.103 139.543C78.9763 139.316 78.869 139.141 78.791 139.01C78.713 138.878 78.6935 138.826 78.6935 138.826Z" fill="#263238"/>
<path d="M7.03845 131.031L34.4698 178.407C34.4698 178.407 56.7523 177.532 66.1919 187.278L40.7791 147.601C40.7791 147.601 25.8786 131.031 7.03845 131.031Z" fill="#F5F5F5"/>
<path d="M7.03842 131.031H7.74054L9.84689 131.109C10.0809 131.109 10.3345 131.109 10.588 131.109L11.3974 131.232L13.2307 131.503C13.941 131.609 14.6417 131.761 15.3273 131.958C16.122 132.129 16.9064 132.336 17.6775 132.579C24.2306 134.539 33.0265 139.281 40.9254 147.453L66.3771 187.103C66.4091 187.153 66.4178 187.212 66.4014 187.268C66.385 187.324 66.3447 187.371 66.2894 187.401C66.2479 187.43 66.1963 187.447 66.1431 187.447C66.0899 187.447 66.0383 187.43 65.9968 187.401L64.9241 186.438C62.8847 184.682 60.5054 183.273 57.903 182.282C55.3822 181.271 52.7515 180.497 50.0529 179.973C44.9324 178.953 39.6941 178.489 34.4503 178.59C34.4088 178.591 34.368 178.581 34.3321 178.563C34.2961 178.544 34.2662 178.518 34.2455 178.485C26.2492 164.574 19.423 152.684 14.5764 144.268C12.2165 140.112 10.3247 136.787 8.98875 134.495C8.3549 133.384 7.85756 132.518 7.51625 131.871L7.14569 131.214L7.02867 130.996C7.08692 131.069 7.13598 131.149 7.17495 131.232L7.58451 131.905L9.12527 134.53L14.8397 144.347L34.6356 178.31L34.4308 178.205C39.7096 178.091 44.9845 178.549 50.1407 179.57C52.8679 180.102 55.5276 180.882 58.0785 181.897C60.7321 182.914 63.1575 184.354 65.2362 186.149L66.3479 187.129L65.9481 187.383C56.5182 172.641 47.7905 158.975 40.5938 147.697C37.0686 144.006 33.0349 140.731 28.5895 137.951C25.197 135.801 21.4971 134.071 17.5897 132.807C16.8221 132.558 16.041 132.345 15.2493 132.168C14.571 131.964 13.8767 131.807 13.1722 131.696L11.3486 131.398L10.5588 131.267L9.83715 131.214L7.03842 131.031Z" fill="#263238"/>
<path d="M92.6578 265.398L93.2429 266.273C93.9039 267.258 94.8648 268.053 96.0124 268.565L96.9876 269.02L96.0124 269.545C94.9178 270.142 94.0324 271.003 93.4575 272.03L92.9504 272.949L92.3653 272.074C91.7043 271.089 90.7435 270.293 89.5958 269.781L88.5719 269.326L89.5471 268.802C90.6475 268.211 91.5347 267.348 92.102 266.317L92.6578 265.398Z" fill="#9F91F5"/>
<path d="M38.5947 84.9321L39.1798 85.807C39.8414 86.7895 40.8023 87.5818 41.9493 88.0905L42.9245 88.5455L41.9493 89.0792C40.847 89.6675 39.9593 90.5308 39.3944 91.5639L38.8873 92.4388L38.3022 91.5639C37.6403 90.5763 36.6754 89.7805 35.5229 89.2716L34.499 88.8167L35.4742 88.2918C36.5702 87.6926 37.4557 86.8284 38.0291 85.7983L38.5947 84.9321Z" fill="#9F91F5"/>
<path d="M288.802 116.07L289.387 116.945C290.049 117.932 291.014 118.728 292.167 119.237L293.191 119.692L292.215 120.217C291.12 120.813 290.237 121.679 289.67 122.71L289.163 123.585L288.568 122.71C287.909 121.726 286.948 120.933 285.799 120.427L284.765 119.989L285.74 119.456C286.843 118.867 287.73 118.004 288.295 116.971L288.802 116.07Z" fill="#9F91F5"/>
<path d="M259.255 276.728L259.84 277.603C260.505 278.586 261.469 279.379 262.619 279.887L263.643 280.342L262.668 280.875C261.57 281.469 260.684 282.331 260.113 283.36L259.616 284.279L259.021 283.404C258.363 282.416 257.401 281.621 256.251 281.112L255.227 280.657L256.203 280.132C257.303 279.538 258.19 278.672 258.758 277.638L259.255 276.728Z" fill="#9F91F5"/>
<path d="M264.881 310.491L265.164 310.596C265.474 310.704 265.812 310.734 266.139 310.683L266.442 310.631L266.325 310.884C266.204 311.163 266.17 311.465 266.227 311.759L266.286 312.031L266.003 311.926C265.693 311.818 265.356 311.787 265.028 311.838L264.725 311.891L264.842 311.637C264.963 311.359 264.997 311.056 264.94 310.762L264.881 310.491Z" fill="#9F91F5"/>
<path d="M281.898 82.2023L282.171 82.3073C282.481 82.4144 282.818 82.4446 283.146 82.3947L283.439 82.3423L283.331 82.596C283.206 82.8731 283.172 83.1769 283.234 83.4709L283.293 83.7421L283.01 83.6371C282.699 83.5299 282.362 83.4997 282.035 83.5496L281.742 83.6021L281.849 83.3484C281.975 83.0712 282.009 82.7675 281.947 82.4735L281.898 82.2023Z" fill="#9F91F5"/>
<path d="M49.5848 61.371L49.8676 61.4672C50.1765 61.5798 50.5151 61.6102 50.8428 61.5547H51.1451L51.028 61.7997C50.9086 62.0782 50.8749 62.3804 50.9305 62.6746L50.989 62.9371L50.7062 62.8408C50.3973 62.7282 50.0587 62.6978 49.7311 62.7533H49.4288L49.5458 62.5084C49.6652 62.2299 49.6989 61.9276 49.6433 61.6334L49.5848 61.371Z" fill="#9F91F5"/>
<path d="M78.2254 239.116L78.5082 239.212C78.816 239.329 79.1559 239.36 79.4834 239.3L79.7857 239.256L79.6687 239.51C79.5478 239.788 79.5141 240.091 79.5712 240.385L79.6297 240.647L79.3469 240.551C79.0379 240.438 78.6994 240.408 78.3717 240.464L78.0694 240.516L78.1864 240.262C78.3059 239.984 78.3395 239.682 78.2839 239.387L78.2254 239.116Z" fill="#9F91F5"/>
<path d="M109.343 307.822L109.07 308.076L108.26 308.802L105.111 311.593L93.4087 321.716V321.611C94.023 332.591 94.8031 347.464 95.6223 364.087V364.455L95.2712 364.253L91.0487 361.716L64.2903 345.644H64.2317V345.592C60.2336 334.892 56.8693 325.863 54.4801 319.493C53.3099 316.326 52.3933 313.824 51.7497 312.092L51.0475 310.123C50.9695 309.913 50.911 309.747 50.872 309.625C50.872 309.502 50.8135 309.45 50.8232 309.45L50.9013 309.607L51.106 310.106C51.2816 310.569 51.5351 311.217 51.8667 312.057L54.6946 319.432C57.113 325.793 60.5456 334.796 64.5828 345.478L64.5048 345.391L91.2925 361.436L95.515 363.965L95.1834 364.131C94.3936 347.508 93.6817 332.635 93.1551 321.637V321.576H93.2039L104.984 311.549L108.192 308.846L109.031 308.155C109.236 307.892 109.343 307.822 109.343 307.822Z" fill="#9F91F5"/>
<path d="M96.8803 359.057L96.7925 361.533L99.0256 363.002L96.3732 363.694L95.5053 366.047L93.945 364L91.1853 363.991L92.8821 362.031L92.0337 359.669L94.6374 360.509L96.8803 359.057Z" fill="#9F91F5"/>
<path d="M64.6414 342.25L64.6999 343.851L66.2017 344.725L64.5146 345.259L64.0563 346.817L62.9641 345.548L61.1796 345.635L62.184 344.306L61.5404 342.809L63.2567 343.264L64.6414 342.25Z" fill="#9F91F5"/>
<path d="M50.755 306.44L52.1007 307.997L54.2948 307.875L53.0661 309.511L53.8658 311.339L51.7594 310.797L50.0626 312.048L49.9846 310.08L48.1415 309.021L50.1991 308.347L50.755 306.44Z" fill="#9F91F5"/>
<path d="M107.987 304.891L109.343 306.44L111.527 306.326L110.299 307.953L111.098 309.791L108.992 309.239L107.295 310.49L107.227 308.522L105.374 307.463L107.441 306.79L107.987 304.891Z" fill="#9F91F5"/>
<path d="M92.9699 319.887L93.828 320.885L95.2225 320.806L94.4424 321.847L94.9495 323.019L93.6037 322.669L92.5213 323.466L92.4726 322.214L91.2926 321.532L92.6091 321.103L92.9699 319.887Z" fill="#9F91F5"/>
<path d="M41.3544 253.718C52.0935 253.718 60.7992 245.908 60.7992 236.273C60.7992 226.638 52.0935 218.827 41.3544 218.827C30.6154 218.827 21.9097 226.638 21.9097 236.273C21.9097 245.908 30.6154 253.718 41.3544 253.718Z" fill="#9F91F5"/>
<g opacity="0.3">
<path opacity="0.3" d="M38.8288 241.715C38.8307 242.28 38.6456 242.832 38.2971 243.303C37.9485 243.773 37.4521 244.14 36.8708 244.357C36.2895 244.574 35.6495 244.631 35.0319 244.521C34.4143 244.412 33.847 244.14 33.4018 243.74C32.9566 243.341 32.6537 242.832 32.5313 242.278C32.409 241.724 32.4727 241.149 32.7146 240.628C32.9564 240.106 33.3654 239.661 33.8896 239.348C34.4139 239.036 35.0299 238.87 35.6595 238.871C36.4992 238.874 37.3039 239.174 37.8977 239.707C38.4914 240.239 38.8262 240.961 38.8288 241.715Z" fill="white"/>
</g>
<g opacity="0.3">
<path opacity="0.3" d="M34.343 233.508C34.3449 233.837 34.2379 234.159 34.0355 234.434C33.8331 234.708 33.5444 234.923 33.206 235.05C32.8676 235.177 32.4948 235.211 32.1347 235.148C31.7747 235.085 31.4436 234.927 31.1835 234.695C30.9234 234.463 30.746 234.167 30.6737 233.844C30.6014 233.522 30.6375 233.187 30.7775 232.883C30.9174 232.578 31.1549 232.318 31.4598 232.135C31.7647 231.952 32.1233 231.854 32.4902 231.854C32.9799 231.854 33.4497 232.028 33.7969 232.338C34.1441 232.648 34.3404 233.069 34.343 233.508Z" fill="white"/>
</g>
<path d="M22.485 240.516C22.5728 240.822 5.83896 255.223 10.1589 258.294C14.4789 261.365 32.5877 253.491 48.083 242.283C63.5784 231.076 77.6793 217.462 73.8079 213.857C69.9365 210.253 50.6087 220.918 50.6087 220.918L52.9199 222.248C52.9199 222.248 64.6218 215.52 68.3079 218.127C71.9941 220.734 61.4818 230.936 46.591 240.682C31.7003 250.428 17.3361 257.253 15.1225 254.584C12.9089 251.916 23.4114 243.018 23.4114 243.018L22.485 240.516Z" fill="#9F91F5"/>
<g opacity="0.3">
<path opacity="0.3" d="M22.485 240.516C22.5728 240.822 5.83896 255.223 10.1589 258.294C14.4789 261.365 32.5877 253.491 48.083 242.283C63.5784 231.076 77.6793 217.462 73.8079 213.857C69.9365 210.253 50.6087 220.918 50.6087 220.918L52.9199 222.248C52.9199 222.248 64.6218 215.52 68.3079 218.127C71.9941 220.734 61.4818 230.936 46.591 240.682C31.7003 250.428 17.3361 257.253 15.1225 254.584C12.9089 251.916 23.4114 243.018 23.4114 243.018L22.485 240.516Z" fill="black"/>
</g>
<g opacity="0.3">
<path opacity="0.3" d="M30.6374 223.981C30.7934 224.147 29.477 225.153 27.985 227.165C26.0056 229.751 24.9138 232.8 24.8444 235.936C24.7751 239.072 25.7313 242.158 27.5949 244.812C28.9991 246.885 30.2668 247.935 30.1011 248.093C29.9353 248.25 28.4433 247.41 26.7075 245.346C25.705 244.137 24.9095 242.802 24.3476 241.382C22.9247 237.849 23.0115 233.969 24.5914 230.49C25.2134 229.088 26.0683 227.778 27.1268 226.605C28.9504 224.61 30.5496 223.858 30.6374 223.981Z" fill="white"/>
</g>
<path d="M266.786 83.1926C273.174 77.685 273.376 68.5742 267.237 62.843C261.099 57.1118 250.944 56.9305 244.556 62.4381C238.168 67.9456 237.966 77.0564 244.104 82.7876C250.243 88.5188 260.398 88.7001 266.786 83.1926Z" fill="#9F91F5"/>
<g opacity="0.4">
<path opacity="0.4" d="M260.903 67.3202C260.914 66.8567 261.079 66.4066 261.376 66.027C261.673 65.6473 262.088 65.3552 262.57 65.1874C263.052 65.0196 263.578 64.9838 264.083 65.0845C264.587 65.1851 265.047 65.4177 265.404 65.7528C265.762 66.088 266 66.5106 266.089 66.9673C266.179 67.424 266.116 67.8942 265.907 68.3186C265.699 68.7429 265.355 69.1023 264.919 69.3513C264.483 69.6003 263.974 69.7277 263.458 69.7175C263.114 69.7118 262.775 69.6452 262.46 69.5214C262.146 69.3976 261.861 69.2191 261.624 68.9963C261.386 68.7734 261.2 68.5106 261.076 68.2229C260.953 67.9353 260.894 67.6285 260.903 67.3202Z" fill="black"/>
</g>
<g opacity="0.4">
<path opacity="0.4" d="M266.13 72.7972C266.136 72.5253 266.231 72.261 266.405 72.0379C266.578 71.8148 266.822 71.643 267.104 71.5442C267.387 71.4453 267.695 71.424 267.991 71.4828C268.287 71.5416 268.557 71.678 268.767 71.8746C268.976 72.0712 269.116 72.3192 269.168 72.5871C269.221 72.8551 269.183 73.1309 269.06 73.3796C268.938 73.6284 268.736 73.8389 268.479 73.9844C268.223 74.1299 267.925 74.204 267.622 74.1971C267.421 74.1937 267.223 74.1547 267.039 74.0824C266.856 74.0101 266.69 73.9059 266.551 73.7757C266.412 73.6456 266.304 73.4922 266.231 73.3242C266.159 73.1563 266.124 72.9772 266.13 72.7972Z" fill="black"/>
</g>
<g opacity="0.4">
<path opacity="0.4" d="M264.091 76.9966C264.165 76.9966 264.238 77.0098 264.305 77.0355C264.373 77.0613 264.434 77.0989 264.485 77.1463C264.536 77.1936 264.575 77.2497 264.602 77.3112C264.628 77.3727 264.64 77.4383 264.638 77.5041C264.633 77.6379 264.57 77.7648 264.462 77.8578C264.355 77.9509 264.211 78.0029 264.062 78.0028C263.914 77.9982 263.774 77.9415 263.671 77.845C263.569 77.7484 263.513 77.6197 263.516 77.4866C263.517 77.4203 263.533 77.355 263.563 77.2943C263.593 77.2337 263.636 77.1789 263.689 77.1333C263.743 77.0877 263.806 77.0521 263.875 77.0287C263.944 77.0052 264.018 76.9943 264.091 76.9966Z" fill="black"/>
</g>
</svg>
