<svg width="357" height="357" viewBox="0 0 357 357" fill="none" xmlns="http://www.w3.org/2000/svg">
<path d="M124 103.07C155.68 80.07 164.25 35.9 198.78 15.94C229.14 -1.61 283.37 -6.25 314.12 13.38C348.4 35.26 351.86 79.25 331.68 112.5C309.48 149.08 266.05 153.5 230.76 170.9C168.93 201.43 41.52 306.4 -17 209.16C-35.16 178.98 -34.3 114.31 8.30004 105.16C49.25 96.44 79.37 135.44 124 103.07Z" fill="#9F91F5"/>
<path opacity="0.9" d="M124 103.07C155.68 80.07 164.25 35.9 198.78 15.94C229.14 -1.61 283.37 -6.25 314.12 13.38C348.4 35.26 351.86 79.25 331.68 112.5C309.48 149.08 266.05 153.5 230.76 170.9C168.93 201.43 41.52 306.4 -17 209.16C-35.16 178.98 -34.3 114.31 8.30004 105.16C49.25 96.44 79.37 135.44 124 103.07Z" fill="white"/>
<path d="M163 356.56C270.082 356.56 356.89 351.492 356.89 345.24C356.89 338.988 270.082 333.92 163 333.92C55.9175 333.92 -30.89 338.988 -30.89 345.24C-30.89 351.492 55.9175 356.56 163 356.56Z" fill="#F5F5F5"/>
<path d="M205.85 30.45H21.05L35.41 282.12H220.2L205.85 30.45Z" fill="#263238"/>
<path d="M209.44 30.45H24.64L39 282.12H223.8L209.44 30.45Z" fill="#9F91F5"/>
<path opacity="0.5" d="M196.71 38.91H33.0901L44.8201 266.72H212.69L196.71 38.91Z" fill="black"/>
<path d="M33.0901 38.91C45.2501 114.85 36.9101 190.79 49.0901 266.72H216.94C204.78 190.79 213.12 114.85 200.94 38.91H33.0901Z" fill="white"/>
<g opacity="0.3">
<path opacity="0.3" d="M67.4101 107.17C71.1169 107.2 74.6709 108.651 77.3391 111.224C80.0074 113.798 81.5862 117.297 81.7501 121C81.8248 122.781 81.5362 124.559 80.9018 126.226C80.2674 127.892 79.3005 129.412 78.06 130.693C76.8195 131.973 75.3314 132.988 73.6861 133.675C72.0409 134.363 70.273 134.708 68.4901 134.69C64.8061 134.66 61.2752 133.212 58.6295 130.649C55.9838 128.085 54.4264 124.601 54.2801 120.92C54.203 119.144 54.4847 117.37 55.1084 115.705C55.7321 114.041 56.685 112.518 57.9101 111.23C59.139 109.953 60.6151 108.94 62.2484 108.252C63.8817 107.565 65.6379 107.217 67.4101 107.23V107.17ZM67.3101 104.34C65.1546 104.327 63.019 104.753 61.0339 105.593C59.0488 106.433 57.2559 107.669 55.7649 109.226C54.2738 110.782 53.1159 112.627 52.362 114.646C51.6081 116.665 51.2739 118.817 51.3801 120.97C51.5546 125.415 53.4334 129.621 56.6266 132.718C59.8197 135.814 64.0823 137.562 68.5301 137.6C70.6954 137.618 72.8418 137.196 74.8393 136.36C76.8368 135.524 78.6439 134.292 80.151 132.737C81.6581 131.182 82.834 129.337 83.6073 127.315C84.3806 125.292 84.7354 123.134 84.6501 120.97C84.4353 116.506 82.518 112.294 79.2926 109.201C76.0672 106.108 71.779 104.368 67.3101 104.34V104.34Z" fill="#9F91F5"/>
</g>
<path d="M160.22 231.92H107.22C106.824 231.913 106.43 231.991 106.066 232.148C105.702 232.306 105.376 232.539 105.109 232.832C104.842 233.126 104.641 233.472 104.519 233.85C104.396 234.227 104.356 234.626 104.4 235.02V235.02C104.496 235.863 104.895 236.643 105.522 237.214C106.149 237.786 106.962 238.111 107.81 238.13H160.81C161.207 238.137 161.6 238.059 161.964 237.901C162.328 237.743 162.654 237.509 162.92 237.214C163.185 236.919 163.384 236.57 163.503 236.192C163.622 235.813 163.659 235.414 163.61 235.02V235.02C163.516 234.181 163.12 233.404 162.497 232.834C161.874 232.264 161.065 231.939 160.22 231.92V231.92Z" fill="#E0E0E0"/>
<path d="M188.57 218.87H106.15C105.751 218.863 105.355 218.939 104.988 219.096C104.621 219.252 104.291 219.484 104.02 219.777C103.749 220.07 103.543 220.416 103.416 220.794C103.288 221.172 103.242 221.573 103.28 221.97C103.352 222.81 103.733 223.594 104.351 224.169C104.968 224.743 105.777 225.068 106.62 225.08H189C189.4 225.091 189.797 225.018 190.166 224.865C190.535 224.712 190.868 224.482 191.142 224.191C191.416 223.9 191.625 223.554 191.756 223.177C191.886 222.799 191.936 222.398 191.9 222V222C191.835 221.157 191.458 220.369 190.842 219.79C190.226 219.21 189.415 218.882 188.57 218.87V218.87Z" fill="#E0E0E0"/>
<g opacity="0.3">
<path opacity="0.3" d="M69.1001 161C72.7796 161.026 76.3066 162.474 78.9437 165.04C81.5807 167.606 83.1237 171.093 83.2501 174.77C83.3175 176.55 83.0255 178.326 82.3915 179.991C81.7575 181.656 80.7945 183.176 79.5601 184.46C78.3247 185.739 76.8418 186.754 75.2016 187.442C73.5615 188.129 71.7985 188.476 70.0201 188.46C66.3317 188.435 62.7946 186.99 60.1431 184.426C57.4915 181.862 55.9291 178.376 55.7801 174.69C55.7194 172.907 56.0197 171.13 56.6629 169.466C57.3061 167.802 58.2789 166.285 59.523 165.007C60.767 163.728 62.2567 162.714 63.9024 162.026C65.5482 161.337 67.3161 160.988 69.1001 161V161ZM69.1001 158.1C66.9333 158.087 64.7862 158.511 62.7875 159.348C60.7888 160.185 58.9797 161.416 57.4687 162.969C55.9577 164.523 54.776 166.365 53.9943 168.386C53.2127 170.407 52.8473 172.564 52.9201 174.73C53.0976 179.187 54.9865 183.403 58.1939 186.503C61.4012 189.602 65.68 191.345 70.1401 191.37C72.3004 191.379 74.4401 190.949 76.43 190.109C78.42 189.268 80.2192 188.033 81.7189 186.478C83.2187 184.923 84.388 183.08 85.1565 181.061C85.9249 179.042 86.2765 176.889 86.1901 174.73C86.0404 170.288 84.1777 166.075 80.992 162.976C77.8064 159.876 73.5449 158.129 69.1001 158.1V158.1Z" fill="#9F91F5"/>
</g>
<path d="M130.8 117.49H102.45C101.617 117.483 100.818 117.157 100.219 116.578C99.62 115.999 99.2659 115.212 99.2301 114.38V114.38C99.2166 113.978 99.2843 113.577 99.4291 113.201C99.5738 112.826 99.7927 112.483 100.073 112.194C100.353 111.905 100.688 111.675 101.058 111.518C101.429 111.361 101.828 111.28 102.23 111.28H130.57C131.403 111.287 132.203 111.611 132.805 112.187C133.407 112.763 133.767 113.548 133.81 114.38V114.38C133.825 114.784 133.758 115.187 133.613 115.564C133.468 115.942 133.249 116.286 132.968 116.576C132.687 116.867 132.35 117.098 131.977 117.255C131.605 117.412 131.204 117.492 130.8 117.49V117.49Z" fill="#E0E0E0"/>
<path d="M163.52 117.49H144.32C143.486 117.483 142.686 117.157 142.085 116.579C141.485 116 141.128 115.213 141.09 114.38V114.38C141.077 113.978 141.144 113.577 141.289 113.201C141.434 112.826 141.653 112.483 141.933 112.194C142.212 111.905 142.548 111.675 142.918 111.518C143.289 111.361 143.688 111.28 144.09 111.28H163.3C164.132 111.287 164.931 111.612 165.531 112.188C166.132 112.764 166.489 113.549 166.53 114.38V114.38C166.545 114.784 166.478 115.187 166.333 115.564C166.188 115.942 165.969 116.286 165.688 116.576C165.407 116.867 165.07 117.098 164.697 117.255C164.325 117.412 163.924 117.492 163.52 117.49V117.49Z" fill="#E0E0E0"/>
<path d="M179 130.54H102.9C102.067 130.535 101.268 130.209 100.67 129.63C100.072 129.05 99.7209 128.262 99.69 127.43V127.43C99.6766 127.028 99.7443 126.627 99.889 126.251C100.034 125.876 100.253 125.533 100.533 125.244C100.812 124.954 101.148 124.725 101.518 124.568C101.889 124.411 102.287 124.33 102.69 124.33H178.78C179.61 124.335 180.406 124.66 181.003 125.237C181.599 125.815 181.949 126.6 181.98 127.43C181.995 127.831 181.929 128.232 181.786 128.607C181.643 128.983 181.426 129.326 181.148 129.616C180.87 129.906 180.537 130.137 180.168 130.296C179.799 130.455 179.402 130.538 179 130.54V130.54Z" fill="#E0E0E0"/>
<g opacity="0.3">
<path opacity="0.3" d="M71.27 214.76C75.0003 214.833 78.5726 216.279 81.3033 218.822C84.0339 221.364 85.7311 224.824 86.07 228.54C86.2494 230.281 86.0657 232.04 85.5303 233.706C84.995 235.372 84.1198 236.909 82.96 238.22C81.7906 239.508 80.3594 240.531 78.7624 241.221C77.1654 241.911 75.4394 242.251 73.7 242.22C69.9374 242.159 66.3265 240.726 63.5459 238.191C60.7654 235.655 59.0066 232.191 58.6 228.45C58.4285 226.696 58.6303 224.926 59.1922 223.256C59.7541 221.586 60.6633 220.053 61.86 218.76C63.0642 217.476 64.523 216.456 66.1432 215.768C67.7635 215.079 69.5096 214.736 71.27 214.76V214.76ZM71.13 211.87C68.9884 211.828 66.8622 212.239 64.8906 213.076C62.9191 213.914 61.1467 215.158 59.6898 216.729C58.2329 218.299 57.1243 220.159 56.4367 222.188C55.7492 224.216 55.4981 226.368 55.7 228.5C56.47 237.68 64.8 245.13 73.98 245.13C83.16 245.13 89.74 237.68 88.98 228.5C88.5833 224.015 86.5417 219.835 83.2482 216.765C79.9546 213.695 75.6419 211.951 71.14 211.87H71.13Z" fill="#9F91F5"/>
</g>
<path d="M192 178.13H104.19C103.787 178.13 103.389 178.211 103.018 178.368C102.648 178.525 102.312 178.755 102.033 179.044C101.753 179.333 101.534 179.676 101.389 180.051C101.244 180.427 101.177 180.828 101.19 181.23V181.23C101.226 182.06 101.579 182.844 102.176 183.421C102.774 183.998 103.57 184.323 104.4 184.33H192.25C192.653 184.33 193.051 184.249 193.422 184.093C193.792 183.936 194.128 183.706 194.407 183.416C194.687 183.127 194.906 182.784 195.051 182.409C195.196 182.033 195.263 181.632 195.25 181.23V181.23C195.219 180.392 194.862 179.599 194.255 179.02C193.648 178.441 192.839 178.122 192 178.13V178.13Z" fill="#E0E0E0"/>
<path d="M171.19 165.07H103.81C103.407 165.07 103.007 165.151 102.636 165.308C102.265 165.466 101.929 165.697 101.649 165.987C101.369 166.278 101.15 166.621 101.006 166.998C100.862 167.375 100.795 167.777 100.81 168.18V168.18C100.838 169.009 101.186 169.794 101.781 170.372C102.376 170.95 103.171 171.275 104 171.28H171.39C171.793 171.28 172.191 171.199 172.562 171.042C172.932 170.885 173.268 170.656 173.547 170.366C173.827 170.077 174.046 169.734 174.191 169.359C174.336 168.983 174.403 168.582 174.39 168.18V168.18C174.367 167.347 174.019 166.556 173.422 165.975C172.824 165.394 172.023 165.07 171.19 165.07V165.07Z" fill="#E0E0E0"/>
<path d="M68.93 130.72L67.75 128.78C65.16 124.55 59.75 120.78 57.89 119.67L59.29 117.19C62.9631 119.413 66.2356 122.24 68.97 125.55C73.22 119.84 79.43 113.97 87.84 107.63L89.65 109.97C80.65 116.74 74.27 122.97 70.18 128.9C69.77 129.51 69.35 130.12 68.93 130.72Z" fill="#9F91F5"/>
<path d="M70.43 184.52C70.04 183.87 69.64 183.22 69.24 182.58C66.64 178.35 61.24 174.58 59.4 173.46L60.82 170.98C64.4742 173.21 67.7292 176.035 70.45 179.34C74.71 173.64 80.97 167.76 89.51 161.42L91.28 163.76C82.16 170.53 75.74 176.76 71.67 182.69L70.43 184.52Z" fill="#9F91F5"/>
<path d="M73.86 238.44L72.54 236.5C69.66 232.27 64.08 228.5 62.16 227.39L63.46 224.91C67.2388 227.149 70.6435 229.967 73.55 233.26C77.47 227.56 83.43 221.68 91.71 215.35L93.58 217.69C84.74 224.46 78.67 230.69 74.98 236.62L73.86 238.44Z" fill="#9F91F5"/>
<path d="M137.1 58C135.34 61.84 133.537 65.6767 131.69 69.51C135.497 71.4035 138.752 74.2458 141.141 77.7629C143.53 81.28 144.973 85.3533 145.33 89.59H158.62C157.74 76 149 64.17 137.1 58Z" fill="#9F91F5"/>
<path d="M86.47 89.61H99.76C99.4342 85.8509 100.119 82.073 101.744 78.6674C103.368 75.2618 105.873 72.3523 109 70.24C106.413 66.4 103.787 62.56 101.12 58.72C91.42 65 85.62 76.51 86.47 89.61Z" fill="#263238"/>
<path d="M119.12 53.54C112.744 53.4769 106.488 55.2773 101.12 58.72C103.787 62.56 106.413 66.4 109 70.24C112.465 67.9759 116.521 66.7861 120.66 66.82C124.489 66.8422 128.259 67.7709 131.66 69.53C133.5 65.69 135.303 61.8534 137.07 58.02C131.53 55.1159 125.375 53.5798 119.12 53.54V53.54Z" fill="#9F91F5"/>
<path opacity="0.5" d="M119.12 53.54C112.744 53.4769 106.488 55.2773 101.12 58.72C103.787 62.56 106.413 66.4 109 70.24C112.465 67.9759 116.521 66.7861 120.66 66.82C124.489 66.8422 128.259 67.7709 131.66 69.53C133.5 65.69 135.303 61.8534 137.07 58.02C131.53 55.1159 125.375 53.5798 119.12 53.54V53.54Z" fill="#263238"/>
<path d="M135.36 80.51C135.36 80.51 121.94 86 120.52 87C120.181 87.2568 119.896 87.5789 119.684 87.9473C119.471 88.3156 119.334 88.7228 119.281 89.1449C119.228 89.567 119.259 89.9955 119.374 90.4051C119.489 90.8147 119.685 91.1972 119.95 91.53C120.451 92.2414 121.209 92.73 122.064 92.8924C122.919 93.0547 123.803 92.8782 124.53 92.4C126 91.34 135.38 80.51 135.36 80.51ZM121.26 90.51C121.13 90.3462 121.033 90.158 120.976 89.9564C120.92 89.7547 120.904 89.5438 120.93 89.336C120.956 89.1282 121.024 88.9277 121.128 88.7464C121.233 88.565 121.373 88.4065 121.54 88.28C121.9 88.0483 122.335 87.9638 122.756 88.0438C123.176 88.1238 123.55 88.3623 123.8 88.71C123.931 88.8738 124.027 89.062 124.084 89.2637C124.14 89.4653 124.156 89.6762 124.13 89.884C124.104 90.0918 124.036 90.2923 123.932 90.4736C123.827 90.655 123.687 90.8136 123.52 90.94C123.165 91.1758 122.733 91.2668 122.312 91.1943C121.892 91.1218 121.516 90.8913 121.26 90.55V90.51Z" fill="#263238"/>
<path d="M151.27 74.16C151.336 74.7619 151.272 75.3709 151.084 75.9463C150.895 76.5217 150.586 77.0504 150.178 77.497C149.769 77.9437 149.269 78.2981 148.713 78.5365C148.156 78.775 147.555 78.8921 146.95 78.88C145.667 78.8548 144.438 78.3607 143.495 77.4911C142.552 76.6214 141.959 75.4365 141.83 74.16C141.762 73.5613 141.822 72.9549 142.007 72.3814C142.192 71.8079 142.497 71.2805 142.902 70.8346C143.307 70.3886 143.803 70.0344 144.356 69.7956C144.91 69.5568 145.508 69.439 146.11 69.45C147.396 69.4718 148.63 69.9623 149.58 70.8296C150.531 71.6968 151.131 72.8811 151.27 74.16V74.16Z" fill="white"/>
<path d="M145.42 73.08C145.43 73.175 145.42 73.271 145.39 73.3618C145.36 73.4525 145.312 73.536 145.247 73.6067C145.183 73.6775 145.105 73.734 145.018 73.7724C144.93 73.8109 144.836 73.8305 144.74 73.83C144.535 73.8285 144.337 73.751 144.186 73.6125C144.035 73.474 143.94 73.2843 143.92 73.08C143.909 72.9847 143.918 72.888 143.947 72.7966C143.976 72.7051 144.024 72.6209 144.089 72.5498C144.153 72.4787 144.232 72.4222 144.321 72.3843C144.409 72.3464 144.504 72.3279 144.6 72.33C144.805 72.3315 145.003 72.409 145.154 72.5475C145.306 72.686 145.4 72.8757 145.42 73.08V73.08Z" fill="#263238"/>
<path d="M149 73.08C149.01 73.1759 148.999 73.2727 148.969 73.3642C148.939 73.4557 148.889 73.5396 148.824 73.6106C148.759 73.6815 148.679 73.7377 148.591 73.7755C148.502 73.8134 148.406 73.832 148.31 73.83C148.106 73.8242 147.911 73.7453 147.761 73.6076C147.61 73.4699 147.514 73.2826 147.49 73.08C147.478 72.9838 147.488 72.8863 147.518 72.7941C147.547 72.7019 147.597 72.6172 147.662 72.5459C147.728 72.4746 147.808 72.4184 147.897 72.3811C147.987 72.3439 148.083 72.3264 148.18 72.33C148.385 72.3315 148.583 72.409 148.734 72.5475C148.886 72.686 148.98 72.8758 149 73.08V73.08Z" fill="#263238"/>
<path d="M146.77 77C145.781 76.9922 144.83 76.6181 144.1 75.95C144.032 75.8808 143.993 75.7874 143.993 75.69C143.993 75.5927 144.032 75.4993 144.1 75.43C144.134 75.3949 144.174 75.367 144.219 75.3479C144.263 75.3289 144.311 75.319 144.36 75.319C144.409 75.319 144.457 75.3289 144.501 75.3479C144.546 75.367 144.586 75.3949 144.62 75.43C145.212 75.9755 145.985 76.282 146.79 76.29V76.29C147.164 76.2984 147.535 76.2279 147.88 76.0832C148.224 75.9384 148.534 75.7227 148.79 75.45C148.858 75.3784 148.951 75.3366 149.049 75.3338C149.098 75.3324 149.147 75.3406 149.192 75.358C149.238 75.3754 149.28 75.4015 149.315 75.435C149.35 75.4685 149.379 75.5087 149.399 75.5532C149.419 75.5977 149.43 75.6457 149.431 75.6944C149.433 75.7432 149.424 75.7917 149.407 75.8373C149.39 75.8829 149.364 75.9246 149.33 75.96C149.001 76.3039 148.602 76.5744 148.161 76.7536C147.72 76.9328 147.246 77.0168 146.77 77V77Z" fill="#263238"/>
<path d="M124.62 60.1C124.703 60.6951 124.655 61.301 124.481 61.8758C124.306 62.4507 124.009 62.9809 123.61 63.4297C123.21 63.8785 122.718 64.2353 122.168 64.4753C121.617 64.7153 121.021 64.833 120.42 64.82C119.126 64.7899 117.887 64.2971 116.925 63.4312C115.964 62.5652 115.345 61.3834 115.18 60.1C115.091 59.5077 115.132 58.903 115.302 58.3284C115.471 57.7539 115.765 57.2235 116.161 56.7745C116.558 56.3255 117.048 55.9689 117.597 55.7297C118.146 55.4905 118.741 55.3745 119.34 55.39C120.636 55.4205 121.879 55.9111 122.846 56.774C123.814 57.637 124.442 58.8159 124.62 60.1Z" fill="white"/>
<path d="M118.74 59C118.753 59.0939 118.746 59.1895 118.718 59.2803C118.691 59.3711 118.644 59.4549 118.582 59.526C118.519 59.5972 118.442 59.654 118.355 59.6927C118.269 59.7313 118.175 59.7509 118.08 59.75C117.874 59.7448 117.676 59.6666 117.522 59.5292C117.369 59.3919 117.268 59.2043 117.24 59C117.225 58.9058 117.232 58.8095 117.258 58.718C117.285 58.6265 117.331 58.5419 117.394 58.4704C117.457 58.3988 117.535 58.3419 117.623 58.3039C117.71 58.2658 117.805 58.2474 117.9 58.25C118.107 58.2531 118.306 58.3307 118.46 58.4684C118.614 58.6061 118.714 58.7949 118.74 59V59Z" fill="#263238"/>
<path d="M122.31 59C122.323 59.0948 122.315 59.1912 122.288 59.2827C122.26 59.3742 122.212 59.4586 122.148 59.5299C122.085 59.6012 122.006 59.6579 121.918 59.6959C121.831 59.7339 121.736 59.7524 121.64 59.75C121.434 59.7429 121.238 59.664 121.084 59.527C120.931 59.3899 120.83 59.2035 120.8 59C120.787 58.9053 120.795 58.8088 120.823 58.7173C120.85 58.6258 120.898 58.5415 120.962 58.4701C121.025 58.3988 121.104 58.3421 121.192 58.3041C121.279 58.2661 121.374 58.2477 121.47 58.25C121.676 58.2552 121.874 58.3334 122.028 58.4708C122.182 58.6082 122.282 58.7957 122.31 59Z" fill="#263238"/>
<path d="M122.41 62H117.73C117.641 61.9854 117.56 61.9397 117.502 61.871C117.444 61.8023 117.411 61.7151 117.411 61.625C117.411 61.5349 117.444 61.4477 117.502 61.379C117.56 61.3103 117.641 61.2646 117.73 61.25H122.41C122.499 61.2646 122.58 61.3103 122.638 61.379C122.697 61.4477 122.729 61.5349 122.729 61.625C122.729 61.7151 122.697 61.8023 122.638 61.871C122.58 61.9397 122.499 61.9854 122.41 62V62Z" fill="#263238"/>
<path d="M100.87 74.16C100.935 74.7619 100.872 75.3709 100.684 75.9463C100.495 76.5217 100.186 77.0504 99.7775 77.497C99.3687 77.9437 98.8694 78.2981 98.3129 78.5365C97.7563 78.775 97.1554 78.8921 96.55 78.88C95.2672 78.8548 94.0381 78.3607 93.0948 77.4911C92.1515 76.6214 91.5593 75.4365 91.43 74.16C91.3615 73.5613 91.4217 72.9549 91.6066 72.3814C91.7915 71.8079 92.0968 71.2805 92.502 70.8346C92.9073 70.3886 93.4031 70.0344 93.9564 69.7956C94.5096 69.5568 95.1075 69.439 95.71 69.45C96.9956 69.4739 98.2285 69.9652 99.1781 70.832C100.128 71.6989 100.729 72.8819 100.87 74.16V74.16Z" fill="white"/>
<path d="M95.0001 73.08C95.0099 73.175 94.9996 73.271 94.9699 73.3618C94.9401 73.4525 94.8916 73.536 94.8274 73.6067C94.7633 73.6775 94.6849 73.734 94.5975 73.7724C94.5101 73.8109 94.4156 73.8305 94.3201 73.83C94.1148 73.8285 93.9174 73.751 93.766 73.6125C93.6146 73.474 93.5198 73.2843 93.5001 73.08C93.4886 72.9847 93.4977 72.888 93.5268 72.7966C93.556 72.7051 93.6044 72.6209 93.6689 72.5498C93.7334 72.4787 93.8124 72.4222 93.9006 72.3843C93.9888 72.3464 94.0841 72.3279 94.18 72.33C94.3853 72.3315 94.5827 72.409 94.7341 72.5475C94.8855 72.686 94.9803 72.8757 95.0001 73.08V73.08Z" fill="#263238"/>
<path d="M98.58 73.08C98.5915 73.1753 98.5824 73.272 98.5532 73.3634C98.5241 73.4549 98.4757 73.5391 98.4112 73.6102C98.3467 73.6813 98.2677 73.7377 98.1795 73.7757C98.0913 73.8136 97.996 73.8321 97.9 73.83C97.6961 73.8242 97.501 73.7453 97.3505 73.6076C97.1999 73.4699 97.1039 73.2826 97.08 73.08C97.0685 72.9847 97.0776 72.888 97.1068 72.7966C97.1359 72.7051 97.1844 72.6209 97.2488 72.5498C97.3133 72.4787 97.3923 72.4222 97.4805 72.3843C97.5687 72.3464 97.664 72.3279 97.76 72.33C97.9659 72.3292 98.1645 72.406 98.3164 72.5449C98.4683 72.6839 98.5624 72.8749 98.58 73.08V73.08Z" fill="#263238"/>
<path d="M94.0001 77C93.9539 77.0007 93.908 76.9922 93.8651 76.975C93.8222 76.9578 93.7831 76.9323 93.7501 76.9C93.6817 76.8307 93.6433 76.7373 93.6433 76.64C93.6433 76.5427 93.6817 76.4493 93.7501 76.38C94.0744 76.0351 94.4666 75.7611 94.9021 75.5753C95.3375 75.3894 95.8066 75.2957 96.2801 75.3C97.2706 75.3105 98.222 75.6882 98.9501 76.36C98.9851 76.3936 99.0131 76.434 99.0322 76.4787C99.0512 76.5233 99.0611 76.5714 99.0611 76.62C99.0611 76.6686 99.0512 76.7167 99.0322 76.7614C99.0131 76.806 98.9851 76.8464 98.9501 76.88C98.878 76.9468 98.7833 76.9839 98.6851 76.9839C98.5868 76.9839 98.4922 76.9468 98.4201 76.88C97.8283 76.328 97.0493 76.0207 96.2401 76.02C95.8673 76.0116 95.4969 76.0811 95.1525 76.224C94.8081 76.3669 94.4974 76.5801 94.2401 76.85C94.1817 76.9283 94.096 76.9818 94.0001 77V77Z" fill="#263238"/>
<path d="M169.74 39.56C166.62 32.99 159.34 28.64 151.49 28.64H135.49C134.392 28.6885 133.3 28.4459 132.325 27.9366C131.35 27.4273 130.528 26.6696 129.94 25.74C127.71 21.56 122.39 18.58 116.35 18.58C110.31 18.58 105.35 21.58 103.59 25.74C102.86 27.5 100.77 28.64 98.3701 28.64H82.3701C74.5201 28.64 67.7301 32.99 65.3701 39.56C65.2827 39.7893 65.2485 40.0355 65.2701 40.28C65.2958 40.7929 65.5178 41.2763 65.8901 41.63C66.2624 41.9837 66.7565 42.1807 67.2701 42.18H168.15C168.458 42.1807 168.762 42.1018 169.03 41.9509C169.299 41.8 169.524 41.5822 169.684 41.3187C169.844 41.0552 169.934 40.7548 169.943 40.4467C169.953 40.1385 169.883 39.8331 169.74 39.56V39.56ZM117 30.45C115.807 30.4254 114.666 29.955 113.801 29.1315C112.937 28.308 112.412 27.1909 112.33 26C112.29 25.4264 112.369 24.8508 112.563 24.3093C112.756 23.7679 113.06 23.2725 113.455 22.8544C113.849 22.4362 114.326 22.1044 114.856 21.8799C115.385 21.6554 115.955 21.5431 116.53 21.55C117.731 21.5624 118.884 22.0276 119.757 22.8525C120.63 23.6775 121.16 24.8015 121.24 26C121.281 26.577 121.2 27.1561 121.004 27.7003C120.808 28.2445 120.501 28.7419 120.102 29.1606C119.703 29.5794 119.221 29.9103 118.687 30.1324C118.153 30.3544 117.578 30.4626 117 30.45V30.45Z" fill="#263238"/>
<path d="M273.42 338.11C272.638 338.206 271.847 338.011 271.2 337.56C271.115 337.454 271.063 337.326 271.05 337.191C271.038 337.055 271.066 336.92 271.13 336.8C271.178 336.697 271.249 336.607 271.337 336.536C271.426 336.464 271.529 336.415 271.64 336.39C272.82 336.06 275.55 337.52 275.64 337.59C275.674 337.605 275.702 337.631 275.72 337.663C275.738 337.696 275.745 337.733 275.74 337.77C275.738 337.803 275.726 337.835 275.704 337.861C275.682 337.886 275.653 337.903 275.62 337.91C274.894 338.039 274.158 338.106 273.42 338.11V338.11ZM272.1 336.69C271.991 336.674 271.879 336.674 271.77 336.69C271.702 336.703 271.637 336.731 271.582 336.773C271.526 336.814 271.481 336.868 271.45 336.93C271.35 337.15 271.45 337.26 271.45 337.32C271.85 337.79 273.71 337.8 275.05 337.61C274.13 337.129 273.131 336.817 272.1 336.69Z" fill="#9F91F5"/>
<path d="M275.62 337.91H275.55C274.62 337.51 272.68 335.91 272.72 335.09C272.72 334.89 272.84 334.65 273.32 334.6C273.679 334.569 274.037 334.677 274.32 334.9C275.068 335.684 275.575 336.666 275.78 337.73C275.792 337.755 275.799 337.782 275.799 337.81C275.799 337.838 275.792 337.865 275.78 337.89C275.757 337.906 275.73 337.917 275.702 337.92C275.675 337.924 275.646 337.92 275.62 337.91V337.91ZM273.49 334.91H273.39C273.08 334.91 273.07 335.06 273.07 335.1C273.07 335.6 274.38 336.85 275.35 337.39C275.16 336.536 274.734 335.753 274.12 335.13C273.939 334.994 273.717 334.923 273.49 334.93V334.91Z" fill="#9F91F5"/>
<path d="M283.68 337.74H276.33L273.7 320.72H281.05L283.68 337.74Z" fill="#FFC3BD"/>
<path d="M276.28 336.89H284.28C284.431 336.894 284.577 336.944 284.698 337.034C284.82 337.123 284.911 337.247 284.96 337.39L287.14 343.92C287.186 344.066 287.198 344.221 287.175 344.373C287.151 344.525 287.094 344.669 287.006 344.794C286.918 344.92 286.802 345.024 286.667 345.098C286.533 345.171 286.383 345.213 286.23 345.22C283.33 345.22 279.13 345.01 275.49 345.01C271.24 345.01 271.62 345.24 266.63 345.24C263.63 345.24 262.44 342.19 263.63 341.91C269.24 340.66 269.89 340.52 274.51 337.46C275.028 337.093 275.645 336.894 276.28 336.89V336.89Z" fill="#263238"/>
<path opacity="0.2" d="M273.7 320.73L275.06 329.5H282.41L281.05 320.73H273.7Z" fill="black"/>
<path d="M282.84 154.45L277.84 159.5L285.5 162.21C285.5 162.21 288.5 158.09 286.39 155.27L282.84 154.45Z" fill="#FFC3BD"/>
<path d="M276.16 166.56L283.81 167.68L285.52 162.21L277.86 159.5L276.16 166.56Z" fill="#FFC3BD"/>
<path d="M286.18 92.27C286.83 93.67 287.35 94.86 287.87 96.16C288.39 97.46 288.87 98.71 289.37 99.99C290.32 102.56 291.17 105.18 291.96 107.83C292.764 110.511 293.432 113.231 293.96 115.98L294.34 118.08L294.65 120.22C294.76 120.93 294.83 121.67 294.89 122.4C294.95 123.13 295.05 123.79 295.05 124.71V126.01V127.16L294.99 128.29L294.88 129.36C294.75 130.8 294.56 132.15 294.38 133.52C293.98 136.22 293.52 138.86 293.01 141.52C291.95 146.75 290.79 151.86 289.39 157.01L280.28 155.21C280.86 150.13 281.46 144.97 281.94 139.89C282.17 137.35 282.42 134.82 282.56 132.34C282.62 131.12 282.69 129.88 282.69 128.71V127.83V127.02V126.21L282.62 125.55C282.574 125.023 282.501 124.499 282.4 123.98C282.31 123.42 282.23 122.86 282.1 122.29L281.73 120.58L281.3 118.86C280.68 116.56 279.98 114.25 279.18 111.94C278.38 109.63 277.49 107.33 276.55 105.05C276.09 103.9 275.61 102.76 275.11 101.64C274.61 100.52 274.11 99.35 273.62 98.38L286.18 92.27Z" fill="#263238"/>
<path d="M251.65 150.87C251.65 150.87 252.87 207.11 256.17 229.51C259.61 252.81 272.17 327.8 272.17 327.8H284.61C284.61 327.8 280.15 256.43 278.73 233.5C277.18 208.5 277.52 150.87 277.52 150.87H251.65Z" fill="#9F91F5"/>
<path d="M269.18 322.84C269.12 322.84 270.46 328.01 270.46 328.01H285.6L285.49 323.4L269.18 322.84Z" fill="#263238"/>
<path d="M248.847 59.6992C248.885 59.0763 248.586 58.551 248.178 58.5259C247.77 58.5008 247.408 58.9854 247.37 59.6083C247.331 60.2312 247.631 60.7565 248.039 60.7816C248.447 60.8067 248.809 60.3221 248.847 59.6992Z" fill="#263238"/>
<path d="M248.54 60.78C247.729 62.6865 246.666 64.4757 245.38 66.1C245.8 66.4051 246.282 66.6135 246.792 66.7103C247.302 66.8071 247.827 66.79 248.33 66.66L248.54 60.78Z" fill="#ED847E"/>
<path d="M251.18 56.2C251.103 56.2002 251.027 56.1794 250.96 56.14C250.602 55.8585 250.182 55.6678 249.734 55.5842C249.286 55.5006 248.825 55.5266 248.39 55.66C248.345 55.6776 248.298 55.6862 248.25 55.6851C248.202 55.6841 248.155 55.6735 248.111 55.6539C248.067 55.6343 248.028 55.6062 247.995 55.5712C247.962 55.5362 247.937 55.495 247.92 55.45C247.904 55.404 247.898 55.3554 247.901 55.3069C247.904 55.2584 247.916 55.211 247.938 55.1674C247.959 55.1237 247.989 55.0847 248.025 55.0526C248.062 55.0204 248.104 54.9958 248.15 54.98C248.698 54.8017 249.281 54.7596 249.849 54.8571C250.417 54.9547 250.953 55.1891 251.41 55.54C251.486 55.5993 251.535 55.6857 251.548 55.7808C251.561 55.876 251.537 55.9726 251.48 56.05C251.445 56.0963 251.399 56.1339 251.347 56.1599C251.295 56.1859 251.238 56.1996 251.18 56.2V56.2Z" fill="#263238"/>
<path d="M268.3 66.52C267.06 71.9 265.66 81.75 269.3 85.33C269.3 85.33 267.64 90.78 257.65 90.78C246.65 90.78 252.6 85.33 252.6 85.33C258.6 83.9 258.65 79.46 257.75 75.28L268.3 66.52Z" fill="#FFC3BD"/>
<path d="M273.17 87.85C274.25 85.66 275.44 83.14 273.17 82.36C270.69 81.49 256.98 80.61 252.17 82.23C250.885 82.5576 249.783 83.3821 249.106 84.5224C248.429 85.6626 248.232 87.025 248.56 88.31L273.17 87.85Z" fill="#9F91F5"/>
<path d="M283.69 87.44C290.02 90.36 293.24 112.5 293.24 112.5L280.49 116.5C278.212 110.642 276.364 104.626 274.96 98.5C273 89.26 277.21 84.46 283.69 87.44Z" fill="#263238"/>
<path d="M205.33 121.89L199.45 116.83L194.16 124.53C194.16 124.53 198.91 128.34 204.16 126.78L205.33 121.89Z" fill="#FFC3BD"/>
<path d="M191.7 114.38L190.89 121.99L194.16 124.53L199.45 116.83L191.7 114.38Z" fill="#FFC3BD"/>
<path d="M269.65 58.33C268.91 65.97 268.86 70.47 264.86 74.39C263.572 75.6662 261.96 76.568 260.199 76.9989C258.437 77.4298 256.592 77.3736 254.86 76.8364C253.128 76.2991 251.575 75.3009 250.366 73.9488C249.158 72.5966 248.34 70.9413 248 69.16C246.6 62.3 248 50.96 255.63 47.92C257.254 47.2197 259.034 46.9586 260.791 47.1629C262.548 47.3673 264.22 48.0299 265.64 49.0843C267.06 50.1388 268.178 51.548 268.882 53.1707C269.586 54.7934 269.851 56.5727 269.65 58.33V58.33Z" fill="#FFC3BD"/>
<path d="M254 60.78C253.33 55.5 253.44 53.5 256.26 52.33C253.33 51.75 250.79 51.67 249.58 49.96C248.37 48.25 248.08 43.88 253.96 41.88C253.42 42.88 255.13 44.96 260.54 43.08C265.95 41.2 273.83 41 274.54 46.5C277.4 45.5 282.19 54.33 276.54 60.78C271.83 66.18 268.69 69.91 267.76 72.78C267.717 72.9144 267.645 73.0381 267.55 73.1429C267.455 73.2477 267.339 73.3312 267.21 73.3879C267.08 73.4446 266.94 73.4732 266.799 73.4718C266.658 73.4705 266.518 73.4392 266.39 73.38C264.44 72.47 260.95 73.25 259.39 73.67C259.17 73.727 258.938 73.7075 258.731 73.6148C258.523 73.5222 258.354 73.3618 258.25 73.16C257.24 71.08 254.51 65.14 254 60.78Z" fill="#263238"/>
<path d="M273.48 47.17C273.48 47.17 275.8 43.9 280.25 46.33C277.962 46.2234 275.673 46.5074 273.48 47.17Z" fill="#263238"/>
<path d="M273.86 47.87C273.86 47.87 277.09 45.87 274.57 42.1C274.724 44.0515 274.483 46.0141 273.86 47.87Z" fill="#263238"/>
<path d="M257.74 61C257.389 62.8906 256.451 64.6226 255.06 65.95C253.21 67.7 251.61 66.46 251.56 64.21C251.51 62.21 252.41 58.83 254.56 57.93C256.71 57.03 258.12 58.74 257.74 61Z" fill="#FFC3BD"/>
<path opacity="0.3" d="M252.68 182.12C253.4 198.9 254.53 218.38 256.17 229.51C256.8 233.75 257.72 239.69 258.82 246.58C263.24 222.46 265.88 191.38 252.68 182.12Z" fill="black"/>
<path d="M247.17 338.11C246.23 338.11 245.32 337.98 245.03 337.56C244.954 337.448 244.914 337.315 244.914 337.18C244.914 337.045 244.954 336.912 245.03 336.8C245.164 336.599 245.367 336.453 245.6 336.39C246.83 336.06 249.35 337.52 249.46 337.59C249.491 337.607 249.515 337.634 249.528 337.667C249.541 337.7 249.541 337.737 249.53 337.77C249.523 337.804 249.506 337.836 249.481 337.861C249.456 337.886 249.425 337.903 249.39 337.91C248.657 338.038 247.914 338.105 247.17 338.11ZM246.06 336.69C245.947 336.674 245.833 336.674 245.72 336.69C245.648 336.704 245.58 336.732 245.52 336.773C245.46 336.815 245.409 336.868 245.37 336.93C245.24 337.15 245.28 337.26 245.32 337.32C245.65 337.79 247.5 337.8 248.88 337.61C248.009 337.121 247.051 336.809 246.06 336.69V336.69Z" fill="#9F91F5"/>
<path d="M249.4 337.91H249.33C248.46 337.51 246.75 335.91 246.92 335.09C246.92 334.89 247.1 334.65 247.58 334.6C247.758 334.578 247.939 334.593 248.112 334.644C248.284 334.696 248.443 334.783 248.58 334.9C249.49 335.67 249.58 337.65 249.58 337.73C249.579 337.761 249.572 337.791 249.558 337.819C249.544 337.847 249.524 337.871 249.5 337.89C249.469 337.906 249.435 337.913 249.4 337.91ZM247.71 334.91H247.61C247.29 334.91 247.27 335.06 247.26 335.1C247.16 335.6 248.31 336.85 249.2 337.39C249.145 336.563 248.834 335.773 248.31 335.13C248.14 334.995 247.927 334.924 247.71 334.93V334.91Z" fill="#9F91F5"/>
<path d="M257.48 337.74H250.14L250 320.72H257.35L257.48 337.74Z" fill="#FFC3BD"/>
<path d="M250.21 336.89H258.21C258.353 336.888 258.492 336.937 258.603 337.029C258.713 337.121 258.786 337.249 258.81 337.39L260.04 343.92C260.068 344.081 260.06 344.246 260.017 344.403C259.974 344.561 259.897 344.707 259.791 344.831C259.685 344.955 259.552 345.054 259.404 345.122C259.255 345.189 259.093 345.222 258.93 345.22C256.04 345.22 251.86 345.01 248.23 345.01C243.97 345.01 240.29 345.24 235.3 345.24C232.3 345.24 231.56 342.19 232.83 341.91C238.62 340.66 243.32 340.52 248.39 337.46C248.934 337.108 249.563 336.911 250.21 336.89Z" fill="#263238"/>
<path opacity="0.2" d="M250.01 320.73L250.07 329.5H257.42L257.36 320.73H250.01Z" fill="black"/>
<path d="M238.54 150.87C238.54 150.87 235.54 205.8 235.6 228.2C235.6 251.5 247.4 327.8 247.4 327.8H259.84C259.84 327.8 256.6 252.86 258 230C259.49 205 266.71 150.89 266.71 150.89L238.54 150.87Z" fill="#9F91F5"/>
<path d="M245.18 322.84C245.12 322.84 245.69 328.01 245.69 328.01H260.83L261.41 323.4L245.18 322.84Z" fill="#263238"/>
<path d="M241.22 87.37C241.22 87.37 228.7 119 234.15 173.67H279.87C280.35 167.67 275.57 115.41 282.39 86.99C278.064 86.1525 273.688 85.598 269.29 85.33C263.728 85.0098 258.152 85.0098 252.59 85.33C248.753 85.7161 244.952 86.3981 241.22 87.37V87.37Z" fill="#263238"/>
<path opacity="0.2" d="M234.75 116C234.07 121 233.51 126.71 233.15 133C242.03 124.84 245.07 104.51 245.07 104.51L234.75 116Z" fill="black"/>
<path d="M245.93 102.43C244.13 107.11 242.31 111.62 240.31 116.15C238.31 120.68 236.24 125.15 233.91 129.63L233 131.3L232.54 132.14C232.35 132.48 232.37 132.5 231.85 133.37C230.953 134.78 229.711 135.937 228.24 136.73C227.024 137.369 225.697 137.77 224.33 137.91C222.451 138.082 220.557 137.93 218.73 137.46C217.285 137.102 215.868 136.641 214.49 136.08C212.016 135.056 209.619 133.852 207.32 132.48C206.19 131.83 205.11 131.13 204.04 130.48C202.97 129.83 202 129 200.85 128.2L206.25 119.92C210.125 122.055 214.193 123.82 218.4 125.19C219.293 125.466 220.206 125.673 221.13 125.81C221.657 125.922 222.203 125.922 222.73 125.81C222.79 125.81 222.6 125.75 222.27 125.92C221.868 126.125 221.524 126.427 221.27 126.8C221.06 127.15 221.33 126.63 221.42 126.43L221.78 125.64L222.5 124.07C224.4 119.83 226.16 115.44 227.87 111.07C229.58 106.7 231.24 102.14 232.77 97.73L245.93 102.43Z" fill="#263238"/>
<path d="M250.9 90.69C253.24 97.23 236.68 123.56 236.68 123.56L226.86 113.83C226.86 113.83 229.37 105.56 232.68 95.6C235.94 85.81 248.67 84.44 250.9 90.69Z" fill="#263238"/>
</svg>
