<svg width="383" height="354" viewBox="0 0 383 354" fill="none" xmlns="http://www.w3.org/2000/svg">
<path d="M192.35 325.553C290.028 325.553 369.212 283.296 369.212 231.169C369.212 179.043 290.028 136.786 192.35 136.786C94.6722 136.786 15.4885 179.043 15.4885 231.169C15.4885 283.296 94.6722 325.553 192.35 325.553Z" fill="#F5F5F5"/>
<path d="M64.7652 290.882L62.3599 289.572C61.9616 289.329 61.6303 289.003 61.3922 288.621C61.1542 288.239 61.016 287.81 60.9888 287.37V122.597C61.0172 122.158 61.1559 121.731 61.3939 121.35C61.6319 120.969 61.9626 120.645 62.3599 120.402L172.97 61.3694C173.397 61.1714 173.868 61.0682 174.345 61.0682C174.823 61.0682 175.294 61.1714 175.72 61.3694L178.125 62.658C178.524 62.8995 178.856 63.2236 179.096 63.6046C179.335 63.9856 179.475 64.413 179.504 64.8528V229.654C179.476 230.095 179.337 230.524 179.097 230.906C178.858 231.288 178.525 231.614 178.125 231.856L67.5151 290.882C67.0884 291.08 66.6176 291.183 66.1401 291.183C65.6627 291.183 65.1918 291.08 64.7652 290.882Z" fill="#37474F"/>
<path d="M179.489 64.6474C179.39 63.9961 178.815 63.7554 178.126 64.1235L67.5152 123.149C67.1086 123.381 66.7736 123.705 66.5424 124.091L61.3872 121.344C61.6206 120.96 61.9552 120.636 62.36 120.402L172.97 61.3694C173.397 61.1714 173.868 61.0682 174.345 61.0682C174.823 61.0682 175.294 61.1714 175.72 61.3694L178.126 62.658C178.494 62.8797 178.806 63.1722 179.042 63.5155C179.277 63.8588 179.43 64.2448 179.489 64.6474Z" fill="#455A64"/>
<path d="M67.27 290.988C67.2448 290.994 67.2185 290.994 67.1934 290.988L67.0478 291.038H66.9942C66.9099 291.038 66.8257 291.08 66.7414 291.101C66.1964 291.199 65.633 291.16 65.1098 290.988C65.0043 290.953 64.9019 290.91 64.8034 290.861L62.3599 289.572C61.9616 289.329 61.6303 289.003 61.3922 288.621C61.1542 288.239 61.016 287.811 60.9888 287.37V122.597C61.0056 122.155 61.1426 121.724 61.3871 121.344L66.5423 124.091C66.2929 124.47 66.1531 124.901 66.1363 125.344V290.153C66.124 290.389 66.1967 290.623 66.3431 290.818C66.4364 290.917 66.5573 290.989 66.6925 291.028C66.8278 291.067 66.972 291.07 67.1091 291.038L67.27 290.988Z" fill="#263238"/>
<path d="M106.053 115.985C106.017 115.812 105.932 115.65 105.807 115.517L105.716 115.446C105.643 115.396 105.558 115.363 105.469 115.351C105.379 115.338 105.287 115.347 105.202 115.376C105.134 115.391 105.069 115.417 105.011 115.454C104.671 115.67 104.405 115.972 104.245 116.324C104.04 116.723 103.93 117.158 103.923 117.599C103.892 117.929 104.002 118.256 104.229 118.512C104.33 118.602 104.462 118.657 104.602 118.667C104.741 118.678 104.88 118.643 104.995 118.569C105.159 118.477 105.305 118.36 105.424 118.222C105.534 118.09 105.631 117.95 105.716 117.804C105.951 117.378 106.079 116.909 106.091 116.431C106.095 116.281 106.082 116.132 106.053 115.985ZM124.038 78.8358C123.639 78.619 123.184 78.5065 122.721 78.5101C121.842 78.548 120.988 78.7916 120.239 79.2181C118.148 80.4008 116.534 82.1838 115.643 84.2945C115.497 84.5918 115.359 84.9033 115.237 85.2078C115.114 85.5122 114.984 85.8237 114.877 86.1423C114.77 86.4609 114.647 86.7795 114.548 87.0981C114.509 87.2043 114.479 87.3176 114.44 87.4167L114.241 88.061C114.244 88.0916 114.244 88.1225 114.241 88.1531C114.126 88.5425 114.019 88.946 113.896 89.3425C113.835 89.562 113.782 89.7673 113.72 89.9797L113.544 90.6098C113.299 91.4523 113.054 92.2595 112.778 93.0312L112.602 93.4985C112.518 93.7179 112.433 93.9374 112.341 94.1498C112.25 94.3622 112.196 94.4755 112.127 94.6242C112.012 94.8861 111.889 95.1339 111.759 95.3747C111.629 95.6154 111.598 95.6791 111.514 95.8278C109.576 99.2687 107.209 100.614 105.838 102.384C104.635 103.927 104.306 105.159 102.682 107.602C102.169 108.381 101.526 109.28 100.683 110.356C98.3466 113.33 97.5117 114.802 97.2282 115.694C97.2252 115.718 97.2252 115.742 97.2282 115.765C97.2282 115.836 97.2282 115.9 97.1746 115.963C97.1718 115.984 97.1718 116.006 97.1746 116.027C97.1716 116.084 97.1716 116.14 97.1746 116.197C97.1478 116.37 97.135 116.546 97.1363 116.721V123.334L99.7101 124.707V118.087C99.7036 117.742 99.758 117.397 99.8709 117.068C100.154 116.176 100.982 114.71 103.326 111.737C104.168 110.653 104.812 109.754 105.325 108.975C106.933 106.54 107.278 105.301 108.481 103.772C109.852 101.994 112.219 100.656 114.157 97.2084C114.436 96.6785 114.684 96.1349 114.9 95.58C116.141 92.748 116.7 88.9319 118.224 85.7246C119.114 83.6168 120.729 81.8379 122.82 80.6624C124.391 79.827 125.54 79.7562 126.421 80.1385L124.038 78.8358ZM135.321 87.2893C135.108 87.1766 134.878 87.0909 134.64 87.0344C133.667 86.822 132.219 87.3459 130.764 87.1902C132.809 89.6328 135.651 88.061 137.213 88.4079C137.457 88.4617 137.689 88.5501 137.903 88.6699L135.321 87.2893ZM140.775 96.3729C140.699 96.4162 140.627 96.4659 140.561 96.5216L140.454 96.6207L140.354 96.7269C139.924 97.2403 139.688 97.8692 139.68 98.5182C139.654 98.844 139.761 99.167 139.979 99.4244C140.008 99.4497 140.038 99.4734 140.071 99.4952C140.142 99.5456 140.225 99.5785 140.314 99.5909C140.402 99.6033 140.492 99.5947 140.576 99.566C140.647 99.5505 140.714 99.5242 140.775 99.4881C140.852 99.4457 140.921 99.389 140.998 99.3395C141.109 99.2431 141.209 99.1363 141.296 99.0209C141.661 98.528 141.861 97.947 141.871 97.35C141.871 96.4933 141.38 96.0473 140.775 96.3729ZM142.461 90.3903C141.634 89.9641 140.735 89.6697 139.803 89.5195C139.404 89.4345 139.037 89.3425 138.738 89.2505C139.763 90.0935 141.019 90.6594 142.369 90.8859C143.188 91.0333 143.985 91.271 144.743 91.5939L142.461 90.3903Z" fill="#9F91F5"/>
<path d="M144.95 91.7143L144.743 91.6011C143.985 91.2781 143.188 91.0404 142.369 90.8931C141.018 90.6679 139.762 90.1019 138.738 89.2576C138.481 89.0385 138.202 88.844 137.903 88.677C137.688 88.5601 137.456 88.4741 137.214 88.4221C135.682 88.0752 132.809 89.647 130.771 87.2044L130.703 87.1265C129.278 85.3494 128.757 81.3846 126.62 80.2235L126.405 80.1102C125.524 79.7279 124.375 79.7987 122.805 80.6341C117.144 83.6573 116.953 90.8364 114.915 95.5588C112.878 100.281 109.982 101.761 108.412 103.793C106.842 105.825 106.734 107.333 103.249 111.765C99.7638 116.197 99.6335 117.287 99.6335 118.137V124.75L145.992 99.9696V93.3569C146.02 93.0176 145.935 92.6786 145.749 92.3851C145.563 92.0915 145.284 91.8575 144.95 91.7143ZM105.011 118.569C104.406 118.894 103.923 118.463 103.923 117.599C103.917 117.192 104.012 116.788 104.201 116.42C104.389 116.052 104.666 115.729 105.011 115.475C105.616 115.149 106.099 115.588 106.099 116.452C106.105 116.858 106.01 117.26 105.821 117.627C105.633 117.994 105.355 118.316 105.011 118.569ZM122.805 98.6457C122.515 98.8499 122.176 98.9873 121.817 99.0465C121.457 99.1057 121.088 99.085 120.739 98.986C120.39 98.8871 120.072 98.7128 119.811 98.4775C119.549 98.2423 119.352 97.9529 119.235 97.6332C118.835 96.7959 118.644 95.8861 118.676 94.9711C118.676 91.7214 120.522 88.1035 122.805 86.8858C123.113 86.7157 123.45 86.5937 123.801 86.5247C125.609 86.1919 126.934 87.792 126.934 90.5603C126.934 93.81 125.088 97.4279 122.805 98.6457ZM140.775 99.4811C140.17 99.8068 139.68 99.3749 139.68 98.5182C139.675 98.1104 139.772 97.7071 139.962 97.339C140.151 96.9709 140.43 96.6477 140.775 96.3942C141.381 96.0756 141.871 96.5075 141.871 97.3713C141.875 97.777 141.779 98.1783 141.589 98.5441C141.399 98.9099 141.121 99.2305 140.775 99.4811Z" fill="#9F91F5"/>
<path opacity="0.1" d="M144.95 91.7143L144.743 91.6011C143.985 91.2781 143.188 91.0404 142.369 90.8931C141.018 90.6679 139.762 90.1019 138.738 89.2576C138.481 89.0385 138.202 88.844 137.903 88.677C137.688 88.5601 137.456 88.4741 137.214 88.4221C135.682 88.0752 132.809 89.647 130.771 87.2044L130.703 87.1265C129.278 85.3494 128.757 81.3846 126.62 80.2235L126.405 80.1102C125.524 79.7279 124.375 79.7987 122.805 80.6341C117.144 83.6573 116.953 90.8364 114.915 95.5588C112.878 100.281 109.982 101.761 108.412 103.793C106.842 105.825 106.734 107.333 103.249 111.765C99.7638 116.197 99.6335 117.287 99.6335 118.137V124.75L145.992 99.9696V93.3569C146.02 93.0176 145.935 92.6786 145.749 92.3851C145.563 92.0915 145.284 91.8575 144.95 91.7143ZM105.011 118.569C104.406 118.894 103.923 118.463 103.923 117.599C103.917 117.192 104.012 116.788 104.201 116.42C104.389 116.052 104.666 115.729 105.011 115.475C105.616 115.149 106.099 115.588 106.099 116.452C106.105 116.858 106.01 117.26 105.821 117.627C105.633 117.994 105.355 118.316 105.011 118.569ZM122.805 98.6457C122.515 98.8499 122.176 98.9873 121.817 99.0465C121.457 99.1057 121.088 99.085 120.739 98.986C120.39 98.8871 120.072 98.7128 119.811 98.4775C119.549 98.2423 119.352 97.9529 119.235 97.6332C118.835 96.7959 118.644 95.8861 118.676 94.9711C118.676 91.7214 120.522 88.1035 122.805 86.8858C123.113 86.7157 123.45 86.5937 123.801 86.5247C125.609 86.1919 126.934 87.792 126.934 90.5603C126.934 93.81 125.088 97.4279 122.805 98.6457ZM140.775 99.4811C140.17 99.8068 139.68 99.3749 139.68 98.5182C139.675 98.1104 139.772 97.7071 139.962 97.339C140.151 96.9709 140.43 96.6477 140.775 96.3942C141.381 96.0756 141.871 96.5075 141.871 97.3713C141.875 97.777 141.779 98.1783 141.589 98.5441C141.399 98.9099 141.121 99.2305 140.775 99.4811Z" fill="black"/>
<path opacity="0.25" d="M99.7943 117.096C99.6813 117.426 99.627 117.77 99.6334 118.116V124.735L97.0597 123.362V116.749C97.0584 116.574 97.0712 116.399 97.098 116.225C97.0949 116.169 97.0949 116.112 97.098 116.055C97.0952 116.034 97.0952 116.013 97.098 115.992C97.098 115.928 97.098 115.864 97.1516 115.793V115.723L99.7943 117.096Z" fill="black"/>
<path opacity="0.25" d="M108.404 103.8C107.202 105.329 106.872 106.568 105.248 109.004L102.682 107.616C104.291 105.173 104.635 103.941 105.838 102.398L108.404 103.8Z" fill="black"/>
<path opacity="0.25" d="M118.24 85.668C116.708 88.8752 116.156 92.6559 114.915 95.5233C114.674 96.0967 114.398 96.6569 114.088 97.2013L111.514 95.8348C111.598 95.6862 111.683 95.5304 111.759 95.3817C111.836 95.233 112.012 94.8932 112.127 94.6312C112.196 94.4826 112.273 94.3197 112.341 94.1569C112.41 93.994 112.518 93.725 112.602 93.5055L112.778 93.0382C113.054 92.2665 113.299 91.4594 113.544 90.6169L113.72 89.9868C113.782 89.7744 113.835 89.569 113.896 89.3496C114.019 88.9531 114.126 88.5495 114.241 88.1601C114.244 88.1295 114.244 88.0987 114.241 88.0681L114.44 87.4238C114.479 87.3247 114.509 87.2114 114.548 87.1052C114.647 86.7866 114.762 86.468 114.877 86.1494C114.992 85.8308 115.107 85.5264 115.237 85.2148C115.367 84.9033 115.497 84.5989 115.643 84.3015L118.24 85.668Z" fill="black"/>
<path d="M104.237 116.324C104.032 116.723 103.923 117.158 103.915 117.599C103.885 117.929 103.995 118.256 104.222 118.512C104.002 118.253 103.895 117.927 103.923 117.599C103.932 117.159 104.039 116.725 104.237 116.324ZM106.106 116.431C106.105 116.281 106.087 116.131 106.053 115.985C106.085 116.131 106.1 116.281 106.099 116.431C106.089 116.908 105.964 117.378 105.731 117.804C105.966 117.378 106.095 116.909 106.106 116.431ZM140.071 99.4952C140.142 99.5456 140.225 99.5785 140.314 99.5909C140.402 99.6033 140.492 99.5947 140.576 99.566C140.492 99.5906 140.402 99.597 140.315 99.5847C140.227 99.5724 140.144 99.5418 140.071 99.4952Z" fill="#9F91F5"/>
<path d="M126.941 90.5603C126.941 93.81 125.088 97.4279 122.805 98.6456C122.512 98.8424 122.174 98.9737 121.818 99.0292C121.461 99.0847 121.095 99.0629 120.749 98.9654C120.403 98.8679 120.086 98.6975 119.823 98.4675C119.561 98.2376 119.359 97.9544 119.235 97.6403C119.59 97.5699 119.929 97.4455 120.239 97.2721C122.537 96.0473 124.368 92.4365 124.368 89.1868C124.401 88.271 124.207 87.3604 123.801 86.5247C125.624 86.1919 126.941 87.792 126.941 90.5603Z" fill="#9F91F5"/>
<path opacity="0.3" d="M126.941 90.5603C126.941 93.81 125.088 97.4279 122.805 98.6456C122.512 98.8424 122.174 98.9737 121.818 99.0292C121.461 99.0847 121.095 99.0629 120.749 98.9654C120.403 98.8679 120.086 98.6975 119.823 98.4675C119.561 98.2376 119.359 97.9544 119.235 97.6403C119.59 97.5699 119.929 97.4455 120.239 97.2721C122.537 96.0473 124.368 92.4365 124.368 89.1868C124.401 88.271 124.207 87.3604 123.801 86.5247C125.624 86.1919 126.941 87.792 126.941 90.5603Z" fill="black"/>
<path d="M105.708 117.804C105.631 117.953 105.535 118.093 105.424 118.222C105.305 118.36 105.159 118.477 104.995 118.569C104.88 118.643 104.741 118.677 104.601 118.667C104.462 118.657 104.33 118.602 104.229 118.512C104.002 118.256 103.892 117.928 103.923 117.599C103.93 117.158 104.04 116.723 104.245 116.324C104.405 115.972 104.671 115.67 105.011 115.453C105.069 115.417 105.134 115.391 105.202 115.376C105.307 115.342 105.42 115.337 105.528 115.362C105.635 115.388 105.733 115.441 105.807 115.517C105.932 115.65 106.017 115.811 106.053 115.984C106.087 116.131 106.105 116.28 106.106 116.431C106.094 116.911 105.958 117.382 105.708 117.804Z" fill="#37474F"/>
<path d="M141.871 97.3499C141.861 97.9469 141.661 98.528 141.296 99.0208C141.209 99.1363 141.109 99.2431 140.997 99.3394C140.921 99.389 140.852 99.4456 140.775 99.4881C140.714 99.5241 140.647 99.5504 140.576 99.566C140.472 99.5982 140.361 99.602 140.255 99.5769C140.149 99.5517 140.053 99.4988 139.979 99.4244C139.761 99.167 139.654 98.844 139.68 98.5181C139.688 97.8691 139.924 97.2402 140.354 96.7269L140.454 96.6207L140.561 96.5216C140.627 96.4659 140.699 96.4161 140.775 96.3729C141.38 96.0472 141.871 96.4932 141.871 97.3499Z" fill="#37474F"/>
<path d="M74.6925 138.563L170.948 87.1973C171.204 87.0784 171.486 87.0165 171.772 87.0165C172.058 87.0165 172.34 87.0784 172.595 87.1973L173.522 87.6929C173.762 87.8389 173.961 88.0346 174.105 88.2645C174.249 88.4943 174.332 88.7519 174.349 89.0169V224.74C174.333 225.005 174.249 225.261 174.106 225.49C173.962 225.719 173.762 225.913 173.522 226.057L77.2663 277.423C77.0119 277.545 76.7295 277.609 76.4428 277.609C76.1562 277.609 75.8737 277.545 75.6194 277.423L74.6925 276.927C74.452 276.783 74.2517 276.589 74.1079 276.36C73.9642 276.132 73.881 275.875 73.8652 275.61V139.887C73.8804 139.621 73.9633 139.363 74.1071 139.133C74.2508 138.903 74.4514 138.707 74.6925 138.563Z" fill="#F5F5F5"/>
<path d="M174.318 88.7832C174.211 88.4717 173.897 88.3725 173.552 88.5708L77.2663 139.936C77.0223 140.078 76.8219 140.276 76.6841 140.51L74.1104 139.136C74.2431 138.901 74.4448 138.704 74.6925 138.57L170.948 87.2043C171.201 87.0821 171.482 87.0183 171.768 87.0183C172.053 87.0183 172.334 87.0821 172.587 87.2043L173.522 87.6929C173.726 87.8165 173.902 87.9767 174.039 88.1639C174.176 88.3511 174.271 88.5616 174.318 88.7832Z" fill="#FAFAFA"/>
<path d="M77.0748 277.536C76.9759 277.57 76.8731 277.594 76.7684 277.607H76.6075C76.4421 277.624 76.275 277.624 76.1096 277.607C76.0047 277.595 75.9018 277.571 75.8032 277.536L75.6194 277.451L74.6925 276.955C74.4512 276.813 74.2502 276.619 74.1063 276.39C73.9624 276.161 73.8798 275.903 73.8652 275.639V139.887C73.8732 139.621 73.9578 139.362 74.1104 139.136L76.6841 140.51C76.539 140.738 76.4575 140.996 76.4467 141.26V276.984C76.4467 277.401 76.7071 277.607 77.0748 277.536Z" fill="#E0E0E0"/>
<path d="M115.099 107.389L114.969 107.588C114.662 108.051 114.439 108.558 114.31 109.089C114.31 109.131 114.31 109.152 114.31 109.174C114.308 109.185 114.308 109.197 114.31 109.209L112.74 117.379L112.249 119.992C112.249 120.098 112.196 120.204 112.165 120.317C112.135 120.423 112.099 120.527 112.058 120.629C112.058 120.7 112.004 120.771 111.974 120.841L114.547 122.215C114.67 121.942 114.76 121.657 114.815 121.365L115.321 118.753L116.853 110.582C116.969 109.928 117.244 109.306 117.657 108.763L115.099 107.389Z" fill="#9F91F5"/>
<path d="M97.3737 133.748C97.1133 134.131 96.8682 134.513 96.6077 134.895C96.5005 135.079 96.3932 135.263 96.2937 135.447C96.1941 135.632 96.0485 135.922 95.9413 136.155C95.8341 136.389 95.6962 136.679 95.5889 136.948C95.4817 137.217 95.3745 137.487 95.2749 137.756C95.1753 138.025 95.0527 138.386 94.9608 138.704C94.8995 138.91 94.8383 139.115 94.777 139.334C94.634 139.835 94.5038 140.344 94.3863 140.864C94.3863 141.041 94.3021 141.225 94.2714 141.402C94.2408 141.579 94.1718 141.841 94.1335 142.053C94.1335 142.053 94.1335 142.053 94.1335 142.089C94.1335 142.258 94.1335 142.372 94.2255 142.421C94.2375 142.426 94.2505 142.429 94.2638 142.429C94.277 142.429 94.29 142.426 94.3021 142.421L96.5158 140.821L96.8758 140.559L97.052 140.439L97.2435 140.297L97.3967 140.191L97.5269 140.092C98.1734 137.928 99.2515 135.894 100.706 134.095L98.1321 132.722C97.8793 133.062 97.6189 133.408 97.3737 133.748Z" fill="#9F91F5"/>
<path d="M125.226 89.4133C125.103 89.5974 124.996 89.7815 124.888 89.9656C124.818 90.0671 124.757 90.1736 124.705 90.2842C124.613 90.4328 124.536 90.5886 124.452 90.7444C124.368 90.9001 124.314 90.9922 124.253 91.1196C124.122 91.3603 124.008 91.601 123.9 91.8276C123.793 92.0542 123.655 92.3515 123.548 92.6135C123.441 92.8471 123.356 93.0808 123.272 93.3215C123.134 93.6755 123.019 94.0295 122.912 94.3906C122.851 94.5817 122.805 94.7658 122.751 94.9499C122.753 94.964 122.753 94.9782 122.751 94.9924C122.751 95.0915 122.698 95.1835 122.682 95.2826C122.621 95.5021 122.575 95.7287 122.537 95.9482C122.499 96.1676 122.46 96.2951 122.407 96.4721C122.353 96.6491 122.307 96.8402 122.246 97.0243C122.184 97.2084 122.123 97.3712 122.062 97.5482C122.062 97.5482 122.062 97.5482 122.062 97.5978C121.985 97.789 121.901 97.9872 121.809 98.1854C121.717 98.3837 121.641 98.5748 121.533 98.7802C121.507 98.8332 121.484 98.8876 121.464 98.943C121.388 99.0917 121.304 99.2404 121.227 99.3961L120.821 100.104C120.729 100.274 120.637 100.43 120.538 100.593L123.119 101.966C124.047 100.519 124.724 98.9476 125.126 97.3075C125.613 94.9893 126.53 92.7664 127.838 90.7373L125.226 89.4133Z" fill="#9F91F5"/>
<path d="M140.538 94.7091C140.41 94.6375 140.266 94.5939 140.116 94.5817C140.366 94.9504 140.702 95.2627 141.1 95.4955C141.498 95.7283 141.947 95.8757 142.414 95.9269C142.636 95.9295 142.855 95.9728 143.058 96.0543L140.538 94.7091Z" fill="#9F91F5"/>
<path opacity="0.4" d="M140.538 94.7091C140.41 94.6375 140.266 94.5939 140.116 94.5817C140.366 94.9504 140.702 95.2627 141.1 95.4955C141.498 95.7283 141.947 95.8757 142.414 95.9269C142.636 95.9295 142.855 95.9728 143.058 96.0543L140.538 94.7091Z" fill="white"/>
<path d="M150.136 105.053C149.732 104.87 149.286 104.781 148.836 104.794C148.386 104.806 147.946 104.919 147.555 105.124C144.559 106.342 143.265 106.894 141.718 107.489C141.419 109.329 142.591 109.499 143.173 109.28C145.348 108.487 146.459 107.998 150.136 106.504C150.524 106.303 150.96 106.191 151.405 106.177C151.85 106.164 152.292 106.249 152.694 106.427L150.136 105.053Z" fill="#9F91F5"/>
<path opacity="0.4" d="M150.136 105.053C149.732 104.87 149.286 104.781 148.836 104.794C148.386 104.806 147.946 104.919 147.555 105.124C144.559 106.342 143.265 106.894 141.718 107.489C141.419 109.329 142.591 109.499 143.173 109.28C145.348 108.487 146.459 107.998 150.136 106.504C150.524 106.303 150.96 106.191 151.405 106.177C151.85 106.164 152.292 106.249 152.694 106.427L150.136 105.053Z" fill="white"/>
<path d="M114.532 122.215C113.978 123.336 113.198 124.35 112.234 125.203L104.176 130.803C102.888 131.773 101.726 132.877 100.714 134.095L98.1399 132.722C99.1498 131.5 100.312 130.393 101.602 129.422L109.676 123.829C110.622 122.971 111.389 121.958 111.936 120.841L114.532 122.215Z" fill="#9F91F5"/>
<path opacity="0.4" d="M114.532 122.215C113.978 123.336 113.198 124.35 112.234 125.203L104.176 130.803C102.888 131.773 101.726 132.877 100.714 134.095L98.1399 132.722C99.1498 131.5 100.312 130.393 101.602 129.422L109.676 123.829C110.622 122.971 111.389 121.958 111.936 120.841L114.532 122.215Z" fill="white"/>
<path d="M123.081 102.023C121.969 103.922 120.6 105.683 119.006 107.262C118.504 107.716 118.057 108.219 117.673 108.763L115.099 107.389C115.477 106.842 115.924 106.338 116.432 105.888C118.023 104.309 119.39 102.548 120.499 100.649L123.081 102.023Z" fill="#9F91F5"/>
<path opacity="0.4" d="M123.081 102.023C121.969 103.922 120.6 105.683 119.006 107.262C118.504 107.716 118.057 108.219 117.673 108.763L115.099 107.389C115.477 106.842 115.924 106.338 116.432 105.888C118.023 104.309 119.39 102.548 120.499 100.649L123.081 102.023Z" fill="white"/>
<path d="M137.619 84.4432C136.669 83.983 135.406 84.0609 133.92 84.783C131.713 85.8521 129.492 88.1177 127.792 90.794L125.218 89.378C126.903 86.7017 129.124 84.422 131.346 83.367C132.068 82.9904 132.877 82.7792 133.705 82.7511C134.201 82.7452 134.69 82.86 135.122 83.0838L137.619 84.4432Z" fill="#9F91F5"/>
<path opacity="0.4" d="M137.619 84.4432C136.669 83.983 135.406 84.0609 133.92 84.783C131.713 85.8521 129.492 88.1177 127.792 90.794L125.218 89.378C126.903 86.7017 129.124 84.422 131.346 83.367C132.068 82.9904 132.877 82.7792 133.705 82.7511C134.201 82.7452 134.69 82.86 135.122 83.0838L137.619 84.4432Z" fill="white"/>
<path opacity="0.15" d="M100.736 134.095C99.2821 135.894 98.204 137.928 97.5575 140.092L97.4273 140.191L97.2741 140.297L97.0826 140.439L96.9064 140.559L96.5464 140.821L94.3633 142.435C94.3513 142.441 94.3382 142.443 94.325 142.443C94.3118 142.443 94.2987 142.441 94.2867 142.435C94.2025 142.386 94.1642 142.273 94.1948 142.103C94.1948 142.103 94.1948 142.103 94.1948 142.067C94.1948 141.855 94.2791 141.635 94.3327 141.416C94.3863 141.196 94.4093 141.055 94.4476 140.878C94.565 140.363 94.6953 139.854 94.8382 139.349C94.8995 139.129 94.9608 138.924 95.0221 138.718C95.114 138.4 95.2212 138.088 95.3361 137.77C95.451 137.451 95.5353 137.232 95.6502 136.963C95.7651 136.694 95.8723 136.432 96.0026 136.17C96.1328 135.908 96.2324 135.681 96.3549 135.462C96.4775 135.242 96.5617 135.093 96.669 134.909C96.8911 134.527 97.1362 134.145 97.435 133.762C97.7337 133.38 97.9405 133.054 98.201 132.736L100.736 134.095Z" fill="black"/>
<path opacity="0.15" d="M117.673 108.763C117.26 109.306 116.985 109.928 116.868 110.582L115.336 118.753L114.831 121.365C114.776 121.657 114.686 121.942 114.563 122.215L111.989 120.841C111.989 120.771 112.05 120.7 112.073 120.629C112.115 120.527 112.151 120.423 112.181 120.317C112.181 120.204 112.242 120.098 112.265 119.992L112.755 117.379L114.325 109.209C114.324 109.197 114.324 109.185 114.325 109.174C114.325 109.174 114.325 109.131 114.325 109.089C114.454 108.558 114.677 108.051 114.984 107.588L115.114 107.389L117.673 108.763Z" fill="black"/>
<path opacity="0.15" d="M127.799 90.7939C126.492 92.823 125.575 95.0459 125.088 97.3642C124.685 99.0042 124.008 100.576 123.081 102.023L120.499 100.649C120.599 100.486 120.691 100.331 120.783 100.161L121.189 99.4528C121.265 99.297 121.35 99.1483 121.426 98.9996C121.446 98.9442 121.469 98.8898 121.495 98.8368C121.595 98.6386 121.687 98.4332 121.771 98.2421C121.855 98.0509 121.947 97.8456 122.024 97.6544C122.024 97.6544 122.024 97.619 122.024 97.6049C122.085 97.4279 122.154 97.258 122.207 97.081C122.261 96.904 122.322 96.7128 122.368 96.5287C122.414 96.3446 122.46 96.1747 122.499 96.0048C122.537 95.8349 122.583 95.5588 122.644 95.3393C122.644 95.2402 122.69 95.1481 122.713 95.049C122.714 95.0349 122.714 95.0207 122.713 95.0065C122.767 94.8225 122.813 94.6384 122.874 94.4472C122.981 94.0861 123.096 93.7392 123.234 93.3781C123.318 93.1374 123.402 92.9038 123.51 92.6701C123.617 92.4082 123.739 92.1462 123.862 91.8842C123.985 91.6223 124.084 91.4028 124.214 91.1762C124.276 91.0488 124.345 90.9284 124.414 90.801C124.482 90.6736 124.574 90.4895 124.666 90.3408C124.718 90.2303 124.78 90.1237 124.85 90.0222C124.957 89.8381 125.065 89.6541 125.187 89.47L127.799 90.7939Z" fill="black"/>
<path d="M94.3403 142.435L96.5158 140.821C95.6502 141.465 94.4706 142.308 94.3403 142.435Z" fill="#9F91F5"/>
<path d="M152.702 106.441C152.299 106.263 151.856 106.177 151.41 106.19C150.963 106.202 150.527 106.312 150.136 106.511C146.467 108.012 145.356 108.501 143.181 109.301C142.598 109.513 141.426 109.343 141.725 107.503C141.722 107.463 141.722 107.422 141.725 107.382L142.223 104.77L143.617 97.6473C143.617 97.6473 143.931 96.5216 143.127 96.1039H143.066C142.868 96.0141 142.65 95.9703 142.43 95.9765C141.961 95.9232 141.511 95.7734 141.114 95.5382C140.716 95.3029 140.38 94.9881 140.132 94.6171C139.702 94.0259 139.404 93.3613 139.255 92.6623C139.106 91.9632 139.11 91.2438 139.266 90.5461C139.856 87.4875 139.213 85.3494 137.734 84.5564L137.619 84.4856C136.67 84.0254 135.406 84.1033 133.92 84.8255C130.005 86.7229 126.053 92.3515 125.088 97.4066C124.482 100.593 121.012 105.499 119.006 107.319C116.999 109.138 116.868 110.639 116.868 110.639L115.336 118.809L114.831 121.422C114.463 123.376 112.295 125.266 112.295 125.266L104.176 130.803C100.954 133.172 98.629 136.424 97.5346 140.092C97.5346 140.092 94.4706 142.258 94.3174 142.435L95.3515 141.89L151.055 112.289C151.055 112.289 151.698 111.97 151.821 111.885C151.944 111.8 154.203 109.846 154.203 109.846C154.165 108.161 153.636 106.958 152.702 106.441ZM136.616 91.424C136.018 94.5321 133.598 97.9943 131.193 99.1625C129.53 99.9625 128.312 99.4669 127.906 98.0509C127.728 97.2569 127.728 96.4376 127.906 95.6437C128.496 92.5356 130.932 89.0735 133.337 87.9123C133.56 87.8004 133.793 87.708 134.034 87.6362C136.003 87.084 137.114 88.6345 136.601 91.424H136.616Z" fill="#9F91F5"/>
<path d="M94.348 142.443L151.093 112.296L151.859 111.892C151.997 111.814 154.242 109.846 154.242 109.846L97.5575 140.092C97.5575 140.092 94.1258 142.556 94.348 142.443Z" fill="#9F91F5"/>
<path opacity="0.3" d="M94.348 142.443L151.093 112.296L151.859 111.892C151.997 111.814 154.242 109.846 154.242 109.846L97.5575 140.092C97.5575 140.092 94.1258 142.556 94.348 142.443Z" fill="black"/>
<path d="M134.05 87.6362C133.809 87.7079 133.575 87.8004 133.353 87.9123C130.947 89.0734 128.512 92.5356 127.922 95.6437C127.744 96.4376 127.744 97.2569 127.922 98.0509C128.328 99.4669 129.546 99.9625 131.208 99.1624C133.613 97.9942 136.034 94.5321 136.631 91.424C137.114 88.6345 136.003 87.084 134.05 87.6362ZM128.075 97.9943C127.906 97.2281 127.906 96.4382 128.075 95.672C128.665 92.5993 131.062 89.1796 133.437 88.0398C133.634 87.9434 133.839 87.8605 134.05 87.792C134.207 88.5402 134.207 89.3093 134.05 90.0576C133.46 93.1657 131.032 96.6278 128.619 97.796C128.444 97.8814 128.262 97.9547 128.075 98.0155V97.9943Z" fill="#9F91F5"/>
<path opacity="0.4" d="M134.05 87.6362C133.809 87.7079 133.575 87.8004 133.353 87.9123C130.947 89.0734 128.512 92.5356 127.922 95.6437C127.744 96.4376 127.744 97.2569 127.922 98.0509C128.328 99.4669 129.546 99.9625 131.208 99.1624C133.613 97.9942 136.034 94.5321 136.631 91.424C137.114 88.6345 136.003 87.084 134.05 87.6362ZM128.075 97.9943C127.906 97.2281 127.906 96.4382 128.075 95.672C128.665 92.5993 131.062 89.1796 133.437 88.0398C133.634 87.9434 133.839 87.8605 134.05 87.792C134.207 88.5402 134.207 89.3093 134.05 90.0576C133.46 93.1657 131.032 96.6278 128.619 97.796C128.444 97.8814 128.262 97.9547 128.075 98.0155V97.9943Z" fill="black"/>
<path d="M89.369 182.445C89.248 182.445 89.129 182.416 89.0243 182.36C88.8983 182.284 88.7972 182.179 88.7323 182.054C88.6674 181.929 88.6412 181.789 88.6567 181.652V178.628C88.6681 178.357 88.7508 178.092 88.8975 177.856C89.0443 177.621 89.2508 177.422 89.4993 177.276L92.3564 175.754C92.4749 175.682 92.6128 175.641 92.7548 175.637C92.8968 175.633 93.0372 175.665 93.1604 175.73C93.2835 175.796 93.3846 175.892 93.4523 176.007C93.52 176.122 93.5517 176.253 93.5437 176.384V179.436C93.5336 179.707 93.4515 179.973 93.3046 180.209C93.1577 180.444 92.9505 180.643 92.7011 180.788L89.844 182.317C89.7005 182.397 89.5367 182.441 89.369 182.445ZM92.8314 176.257C92.786 176.268 92.7423 176.285 92.7011 176.306L89.844 177.828C89.7004 177.918 89.5809 178.036 89.4946 178.175C89.4083 178.314 89.3575 178.469 89.3461 178.628V181.68C89.3333 181.722 89.3333 181.766 89.3461 181.807C89.3918 181.8 89.4359 181.786 89.4763 181.765L92.3335 180.236C92.477 180.146 92.5965 180.028 92.6828 179.889C92.7691 179.75 92.82 179.595 92.8314 179.436V176.384C92.8352 176.353 92.8352 176.323 92.8314 176.292V176.257Z" fill="#455A64"/>
<path d="M95.9719 175.315L107.232 169.304C107.607 169.106 107.906 169.261 107.906 169.658V170.472C107.893 170.687 107.825 170.895 107.708 171.081C107.59 171.267 107.428 171.425 107.232 171.541L95.9719 177.552C95.6042 177.75 95.2979 177.595 95.2979 177.198V176.384C95.3113 176.169 95.3793 175.961 95.4965 175.775C95.6136 175.589 95.7765 175.431 95.9719 175.315Z" fill="#E0E0E0"/>
<path d="M117.274 167.555C117.153 167.556 117.034 167.527 116.93 167.47C116.802 167.396 116.7 167.29 116.633 167.165C116.567 167.04 116.54 166.901 116.554 166.762V163.711C116.567 163.439 116.651 163.173 116.799 162.938C116.948 162.702 117.155 162.504 117.405 162.358L120.262 160.836C120.38 160.758 120.52 160.712 120.665 160.705C120.81 160.697 120.955 160.728 121.081 160.794C121.205 160.863 121.305 160.962 121.37 161.081C121.435 161.2 121.463 161.334 121.449 161.466V164.518C121.439 164.79 121.357 165.055 121.21 165.291C121.063 165.527 120.856 165.726 120.607 165.87L117.749 167.399C117.609 167.49 117.445 167.543 117.274 167.555ZM120.729 161.367C120.687 161.381 120.646 161.398 120.607 161.417L117.749 162.939C117.605 163.028 117.484 163.146 117.396 163.285C117.309 163.424 117.257 163.579 117.244 163.739V166.791C117.229 166.832 117.229 166.877 117.244 166.918C117.289 166.91 117.333 166.895 117.374 166.876L120.231 165.346C120.376 165.258 120.496 165.139 120.582 165C120.669 164.862 120.719 164.706 120.729 164.546V161.495C120.743 161.453 120.743 161.409 120.729 161.367Z" fill="#455A64"/>
<path d="M123.877 160.426L135.138 154.415C135.513 154.217 135.812 154.372 135.812 154.769V155.583C135.798 155.798 135.73 156.006 135.613 156.192C135.496 156.378 135.333 156.535 135.138 156.652L123.877 162.663C123.502 162.861 123.203 162.705 123.203 162.309V161.495C123.221 161.281 123.291 161.074 123.407 160.889C123.524 160.703 123.685 160.545 123.877 160.426Z" fill="#E0E0E0"/>
<path d="M145.172 152.666C145.051 152.666 144.932 152.637 144.827 152.581C144.703 152.505 144.603 152.399 144.538 152.274C144.473 152.149 144.446 152.011 144.46 151.873V148.822C144.472 148.55 144.555 148.285 144.702 148.05C144.848 147.814 145.054 147.615 145.302 147.469L148.16 145.947C148.279 145.872 148.418 145.83 148.562 145.825C148.706 145.82 148.849 145.853 148.973 145.919C149.098 145.986 149.2 146.083 149.267 146.201C149.335 146.319 149.365 146.451 149.355 146.584V149.629C149.343 149.901 149.259 150.167 149.111 150.402C148.963 150.638 148.755 150.837 148.504 150.981L145.647 152.51C145.507 152.601 145.343 152.655 145.172 152.666ZM145.647 148.05C145.505 148.14 145.386 148.259 145.3 148.398C145.214 148.536 145.162 148.691 145.149 148.85V151.901C145.134 151.943 145.134 151.987 145.149 152.029C145.193 152.024 145.235 152.01 145.272 151.986L148.129 150.457C148.273 150.368 148.394 150.25 148.482 150.111C148.569 149.972 148.622 149.817 148.634 149.657V146.613C148.649 146.569 148.649 146.522 148.634 146.478C148.634 146.478 148.589 146.478 148.504 146.528L145.647 148.05Z" fill="#455A64"/>
<path d="M151.783 145.536L163.043 139.526C163.411 139.327 163.717 139.483 163.717 139.88V140.694C163.7 140.907 163.63 141.115 163.513 141.3C163.396 141.485 163.235 141.643 163.043 141.763L151.783 147.774C151.407 147.972 151.109 147.816 151.109 147.42V146.606C151.122 146.391 151.19 146.182 151.307 145.996C151.424 145.811 151.587 145.653 151.783 145.536Z" fill="#E0E0E0"/>
<path d="M96.0027 160.419V161.608C96.0027 162.259 96.4929 162.521 97.0981 162.196L162.974 127.072C163.293 126.878 163.559 126.617 163.749 126.311C163.94 126.005 164.049 125.662 164.069 125.309V124.112C164.069 123.468 163.579 123.206 162.974 123.525L97.0981 158.656C96.7787 158.85 96.5131 159.11 96.3228 159.416C96.1326 159.723 96.0229 160.066 96.0027 160.419Z" fill="#E0E0E0"/>
<path d="M90.9854 151.13V152.319C90.9854 152.97 91.4756 153.232 92.0884 152.907L157.926 117.783C158.248 117.591 158.515 117.331 158.707 117.024C158.899 116.718 159.009 116.373 159.029 116.02V114.823C159.029 114.179 158.539 113.917 157.926 114.236L92.0884 149.388C91.7698 149.578 91.5039 149.835 91.3123 150.137C91.1207 150.44 91.0087 150.78 90.9854 151.13Z" fill="#455A64"/>
<path d="M96.0027 167.619V168.816C96.0027 169.46 96.4929 169.722 97.0981 169.403L162.974 134.279C163.293 134.085 163.559 133.825 163.749 133.519C163.94 133.212 164.049 132.869 164.069 132.516V131.32C164.069 130.676 163.579 130.414 162.974 130.732L97.0981 165.863C96.7797 166.056 96.5147 166.316 96.3245 166.621C96.1343 166.926 96.0241 167.268 96.0027 167.619Z" fill="#E0E0E0"/>
<path d="M88.7871 168.235C90.5106 166.656 90.9395 165.983 90.9395 165.403C90.9395 164.822 90.6867 164.511 89.9131 164.921C89.5786 165.101 89.2907 165.346 89.0697 165.64C88.8488 165.934 88.7 166.268 88.6339 166.621L86.7495 167.01C86.9136 166.098 87.286 165.228 87.8421 164.459C88.3981 163.69 89.125 163.039 89.9744 162.55C91.8587 161.544 92.9541 162.295 92.9541 163.966C92.8489 165.592 92.0828 167.122 90.8093 168.249V169.63L88.7871 170.706V168.235Z" fill="#455A64"/>
<path d="M88.764 172.823C88.7609 172.483 88.854 172.147 89.034 171.851C89.214 171.554 89.4748 171.306 89.7904 171.131C90.4645 170.77 90.8092 171.088 90.8092 171.732C90.815 172.074 90.7241 172.412 90.5454 172.711C90.3667 173.01 90.1064 173.261 89.7904 173.439C89.1087 173.8 88.764 173.46 88.764 172.823Z" fill="#455A64"/>
<path d="M89.8135 178.628L90.6561 179.216L89.8901 180.561C89.8242 180.643 89.7886 180.742 89.7886 180.844C89.7886 180.946 89.8242 181.046 89.8901 181.128C90.0356 181.227 90.2424 181.128 90.365 180.915L91.131 179.577L91.9736 180.165C92.0961 180.25 92.28 180.165 92.3872 179.981C92.4438 179.91 92.4744 179.824 92.4744 179.736C92.4744 179.648 92.4438 179.563 92.3872 179.492L91.5446 178.904L92.3106 177.559C92.3765 177.477 92.4121 177.378 92.4121 177.276C92.4121 177.174 92.3765 177.075 92.3106 176.993C92.1651 176.894 91.9583 176.993 91.8357 177.205L91.0697 178.55L90.2271 177.963C90.1045 177.878 89.9207 177.963 89.8135 178.14C89.7569 178.211 89.7263 178.296 89.7263 178.384C89.7263 178.472 89.7569 178.558 89.8135 178.628Z" fill="#9F91F5"/>
<path d="M89.369 209.327C89.2487 209.33 89.1297 209.303 89.0243 209.249C88.8983 209.174 88.7972 209.068 88.7323 208.943C88.6674 208.818 88.6412 208.679 88.6567 208.541V205.49C88.6668 205.218 88.7489 204.952 88.8958 204.717C89.0427 204.481 89.2499 204.282 89.4993 204.138L92.3564 202.615C92.4749 202.543 92.6128 202.502 92.7548 202.498C92.8968 202.494 93.0372 202.527 93.1604 202.592C93.2835 202.657 93.3846 202.753 93.4523 202.868C93.52 202.984 93.5517 203.114 93.5437 203.245V206.297C93.5336 206.569 93.4515 206.834 93.3046 207.07C93.1577 207.306 92.9505 207.505 92.7011 207.649L89.844 209.171C89.7035 209.262 89.5396 209.315 89.369 209.327ZM92.8314 203.146C92.7847 203.154 92.7403 203.171 92.7011 203.196L89.844 204.718C89.7004 204.807 89.5809 204.926 89.4946 205.065C89.4083 205.203 89.3575 205.359 89.3461 205.518V208.57C89.3333 208.611 89.3333 208.655 89.3461 208.697C89.3918 208.69 89.4359 208.676 89.4763 208.655L92.3335 207.125C92.477 207.036 92.5965 206.917 92.6828 206.779C92.7691 206.64 92.82 206.485 92.8314 206.325V203.274C92.8387 203.232 92.8387 203.189 92.8314 203.146Z" fill="#455A64"/>
<path d="M95.9719 202.198L107.232 196.194C107.607 195.996 107.906 196.151 107.906 196.548V197.355C107.894 197.571 107.826 197.781 107.709 197.968C107.592 198.155 107.429 198.314 107.232 198.431L95.9719 204.442C95.6042 204.64 95.2979 204.477 95.2979 204.081V203.274C95.3107 203.058 95.3785 202.848 95.4956 202.661C95.6127 202.474 95.7759 202.315 95.9719 202.198Z" fill="#E0E0E0"/>
<path d="M117.274 194.438C117.154 194.442 117.035 194.415 116.93 194.36C116.802 194.286 116.7 194.18 116.633 194.055C116.567 193.93 116.54 193.791 116.554 193.652V190.601C116.566 190.328 116.65 190.063 116.798 189.827C116.946 189.591 117.154 189.393 117.405 189.248L120.262 187.726C120.38 187.648 120.52 187.602 120.665 187.595C120.81 187.587 120.955 187.618 121.081 187.684C121.205 187.752 121.305 187.852 121.37 187.971C121.435 188.09 121.463 188.224 121.449 188.356V191.408C121.439 191.68 121.357 191.945 121.21 192.181C121.063 192.417 120.856 192.615 120.607 192.76L117.749 194.282C117.609 194.372 117.445 194.426 117.274 194.438ZM120.729 188.257C120.686 188.267 120.644 188.284 120.607 188.307L117.749 189.829C117.605 189.918 117.484 190.036 117.396 190.175C117.309 190.314 117.257 190.469 117.244 190.629V193.68C117.229 193.722 117.229 193.767 117.244 193.808C117.289 193.8 117.333 193.785 117.374 193.765L120.231 192.236C120.375 192.147 120.494 192.028 120.581 191.889C120.667 191.751 120.718 191.596 120.729 191.436V188.385C120.743 188.343 120.743 188.299 120.729 188.257Z" fill="#455A64"/>
<path d="M123.877 187.308L135.138 181.305C135.513 181.106 135.812 181.262 135.812 181.659V182.466C135.799 182.682 135.732 182.892 135.615 183.079C135.498 183.266 135.334 183.425 135.138 183.542L123.877 189.553C123.502 189.751 123.203 189.553 123.203 189.192V188.385C123.22 188.17 123.289 187.961 123.406 187.774C123.523 187.588 123.684 187.429 123.877 187.308Z" fill="#E0E0E0"/>
<path d="M145.172 179.549C145.052 179.552 144.933 179.525 144.827 179.471C144.703 179.395 144.603 179.289 144.538 179.164C144.473 179.039 144.446 178.901 144.46 178.763V175.711C144.472 175.44 144.555 175.175 144.702 174.94C144.848 174.704 145.054 174.505 145.302 174.359L148.16 172.837C148.278 172.763 148.417 172.72 148.56 172.715C148.703 172.71 148.845 172.742 148.97 172.808C149.094 172.873 149.196 172.97 149.264 173.086C149.332 173.203 149.364 173.335 149.355 173.467V176.519C149.343 176.791 149.259 177.057 149.111 177.292C148.963 177.528 148.755 177.727 148.504 177.871L145.647 179.393C145.507 179.484 145.343 179.538 145.172 179.549ZM145.647 174.94C145.505 175.03 145.386 175.149 145.3 175.288C145.214 175.426 145.162 175.581 145.149 175.74V178.791C145.134 178.833 145.134 178.877 145.149 178.919C145.192 178.91 145.233 178.895 145.272 178.876L148.129 177.347C148.274 177.258 148.394 177.14 148.482 177.001C148.569 176.862 148.622 176.707 148.634 176.547V173.495C148.648 173.454 148.648 173.41 148.634 173.368C148.589 173.378 148.545 173.395 148.504 173.418L145.647 174.94Z" fill="#455A64"/>
<path d="M151.783 172.419L163.043 166.415C163.411 166.217 163.717 166.373 163.717 166.769V167.577C163.701 167.791 163.631 168 163.515 168.187C163.398 168.373 163.236 168.533 163.043 168.653L151.783 174.664C151.407 174.862 151.109 174.699 151.109 174.303V173.495C151.121 173.28 151.188 173.069 151.306 172.882C151.423 172.695 151.586 172.537 151.783 172.419Z" fill="#E0E0E0"/>
<path d="M96.0027 187.301V188.498C96.0027 189.142 96.4929 189.404 97.0981 189.086L162.974 153.962C163.293 153.768 163.559 153.507 163.749 153.201C163.94 152.895 164.049 152.551 164.069 152.199V151.002C164.069 150.358 163.579 150.096 162.974 150.415L97.0981 185.546C96.7797 185.739 96.5147 185.998 96.3245 186.303C96.1343 186.608 96.0241 186.95 96.0027 187.301Z" fill="#E0E0E0"/>
<path d="M96.0027 194.509V195.705C96.0027 196.35 96.4929 196.612 97.0981 196.293L162.974 161.162C163.294 160.97 163.56 160.711 163.751 160.406C163.941 160.101 164.05 159.758 164.069 159.406V158.21C164.069 157.558 163.579 157.296 162.974 157.622L97.0981 192.753C96.7797 192.946 96.5147 193.206 96.3245 193.511C96.1343 193.815 96.0241 194.157 96.0027 194.509Z" fill="#E0E0E0"/>
<path d="M88.7871 195.125C90.5106 193.546 90.9395 192.873 90.9395 192.293C90.9395 191.712 90.6867 191.401 89.9131 191.811C89.5786 191.991 89.2907 192.236 89.0697 192.53C88.8488 192.823 88.7 193.158 88.6339 193.511L86.7495 193.9C86.9136 192.987 87.286 192.118 87.8421 191.349C88.3981 190.58 89.125 189.929 89.9744 189.44C91.8587 188.434 92.9541 189.185 92.9541 190.891C92.8489 192.518 92.0828 194.047 90.8093 195.174V196.555L88.7871 197.631V195.125Z" fill="#455A64"/>
<path d="M88.764 199.713C88.7609 199.372 88.854 199.037 89.034 198.74C89.214 198.444 89.4748 198.195 89.7904 198.02C90.4645 197.659 90.8092 197.978 90.8092 198.622C90.8143 198.964 90.723 199.301 90.5444 199.6C90.3657 199.899 90.1059 200.15 89.7904 200.328C89.1087 200.69 88.764 200.364 88.764 199.713Z" fill="#455A64"/>
<path d="M117.719 190.601L118.561 191.188L117.795 192.533C117.729 192.615 117.694 192.715 117.694 192.817C117.694 192.919 117.729 193.018 117.795 193.1C117.933 193.199 118.148 193.1 118.27 192.887L119.036 191.549L119.879 192.137C120.001 192.222 120.185 192.137 120.285 191.953C120.341 191.882 120.372 191.797 120.372 191.709C120.372 191.621 120.341 191.535 120.285 191.464L119.442 190.877L120.208 189.532C120.27 189.446 120.3 189.345 120.293 189.242C120.286 189.14 120.243 189.043 120.17 188.965C120.032 188.873 119.818 188.965 119.695 189.178L118.929 190.523L118.086 189.935C117.972 189.85 117.788 189.935 117.68 190.112C117.628 190.186 117.603 190.274 117.61 190.362C117.617 190.451 117.655 190.534 117.719 190.601Z" fill="#9F91F5"/>
<path d="M89.369 236.217C89.248 236.218 89.129 236.188 89.0243 236.132C88.9008 236.063 88.8007 235.964 88.7356 235.845C88.6706 235.726 88.6432 235.592 88.6567 235.46V232.408C88.6668 232.136 88.7489 231.871 88.8958 231.635C89.0427 231.399 89.2499 231.2 89.4993 231.056L92.3564 229.534C92.4749 229.461 92.6128 229.421 92.7548 229.416C92.8968 229.412 93.0372 229.445 93.1604 229.51C93.2835 229.576 93.3846 229.671 93.4523 229.787C93.52 229.902 93.5517 230.033 93.5437 230.164V233.215C93.5336 233.487 93.4515 233.753 93.3046 233.988C93.1577 234.224 92.9505 234.423 92.7011 234.567L89.844 236.09C89.7005 236.17 89.5367 236.214 89.369 236.217ZM92.8314 230.036C92.7847 230.044 92.7403 230.061 92.7011 230.086L89.844 231.608C89.7004 231.697 89.5809 231.816 89.4946 231.955C89.4083 232.093 89.3575 232.248 89.3461 232.408V235.46C89.3344 235.501 89.3344 235.545 89.3461 235.587C89.3928 235.579 89.4371 235.562 89.4763 235.537L92.3335 234.015C92.477 233.926 92.5965 233.807 92.6828 233.669C92.7691 233.53 92.82 233.375 92.8314 233.215V230.164C92.8387 230.121 92.8387 230.078 92.8314 230.036Z" fill="#455A64"/>
<path d="M95.9719 229.088L107.232 223.077C107.607 222.878 107.906 223.041 107.906 223.438V224.245C107.894 224.461 107.826 224.671 107.709 224.858C107.592 225.045 107.429 225.204 107.232 225.321L95.9719 231.332C95.6042 231.53 95.2979 231.367 95.2979 230.971V230.164C95.3107 229.948 95.3785 229.738 95.4956 229.551C95.6127 229.364 95.7759 229.205 95.9719 229.088Z" fill="#E0E0E0"/>
<path d="M117.274 221.328C117.153 221.329 117.034 221.3 116.93 221.243C116.805 221.175 116.703 221.076 116.637 220.957C116.57 220.838 116.542 220.704 116.554 220.57V217.519C116.566 217.246 116.65 216.981 116.798 216.745C116.946 216.509 117.154 216.311 117.405 216.167L120.262 214.644C120.381 214.57 120.52 214.525 120.664 214.517C120.808 214.508 120.952 214.535 121.082 214.595C121.206 214.671 121.306 214.777 121.371 214.902C121.436 215.027 121.463 215.165 121.449 215.303V218.354C121.439 218.626 121.357 218.892 121.21 219.127C121.063 219.363 120.856 219.562 120.607 219.707L117.749 221.229C117.603 221.299 117.439 221.333 117.274 221.328ZM120.729 215.147C120.686 215.157 120.644 215.174 120.607 215.197L117.749 216.719C117.605 216.808 117.484 216.926 117.397 217.065C117.309 217.203 117.257 217.359 117.244 217.519V220.57C117.23 220.612 117.23 220.656 117.244 220.698C117.29 220.689 117.334 220.672 117.374 220.648L120.262 219.126C120.405 219.037 120.525 218.918 120.611 218.779C120.698 218.641 120.748 218.486 120.76 218.326V215.274C120.765 215.23 120.755 215.185 120.729 215.147Z" fill="#455A64"/>
<path d="M123.877 214.198L135.138 208.187C135.513 207.996 135.812 208.152 135.812 208.548V209.356C135.799 209.571 135.732 209.782 135.615 209.969C135.498 210.156 135.334 210.314 135.138 210.432L123.877 216.443C123.502 216.641 123.203 216.478 123.203 216.082V215.274C123.22 215.059 123.289 214.851 123.406 214.664C123.523 214.478 123.684 214.318 123.877 214.198Z" fill="#E0E0E0"/>
<path d="M145.172 206.439C145.051 206.439 144.932 206.41 144.828 206.354C144.704 206.285 144.604 206.185 144.539 206.066C144.474 205.947 144.446 205.814 144.46 205.681V202.63C144.47 202.358 144.552 202.092 144.699 201.856C144.846 201.621 145.053 201.422 145.302 201.277L148.16 199.755C148.277 199.678 148.415 199.633 148.558 199.625C148.702 199.617 148.845 199.646 148.971 199.709C149.097 199.773 149.202 199.868 149.272 199.984C149.343 200.099 149.377 200.231 149.37 200.364V203.415C149.358 203.688 149.275 203.953 149.127 204.189C148.978 204.425 148.77 204.624 148.52 204.768L145.663 206.29C145.517 206.381 145.347 206.432 145.172 206.439ZM145.647 201.83C145.505 201.92 145.386 202.039 145.3 202.177C145.214 202.316 145.162 202.47 145.149 202.63V205.681C145.136 205.723 145.136 205.767 145.149 205.808C145.193 205.798 145.234 205.782 145.272 205.759L148.129 204.237C148.274 204.148 148.394 204.029 148.482 203.891C148.57 203.752 148.622 203.597 148.635 203.437V200.364C148.648 200.322 148.648 200.278 148.635 200.237C148.59 200.246 148.546 200.26 148.504 200.279L145.647 201.83Z" fill="#455A64"/>
<path d="M151.783 199.309L163.043 193.298C163.411 193.107 163.717 193.298 163.717 193.659V194.466C163.701 194.681 163.631 194.89 163.515 195.076C163.398 195.263 163.236 195.422 163.043 195.542L151.783 201.553C151.407 201.752 151.109 201.589 151.109 201.192V200.364C151.124 200.152 151.194 199.946 151.311 199.763C151.428 199.58 151.589 199.424 151.783 199.309Z" fill="#E0E0E0"/>
<path d="M96.0027 214.191V215.388C96.0027 216.032 96.4929 216.294 97.0981 215.975L162.974 180.844C163.294 180.653 163.56 180.394 163.751 180.089C163.941 179.783 164.05 179.441 164.069 179.089V177.892C164.069 177.248 163.579 176.979 162.974 177.304L97.0981 212.435C96.7797 212.629 96.5147 212.888 96.3245 213.193C96.1343 213.498 96.0241 213.84 96.0027 214.191Z" fill="#E0E0E0"/>
<path d="M96.0027 221.399V222.595C96.0027 223.239 96.4929 223.501 97.0981 223.176L162.974 188.052C163.293 187.86 163.559 187.6 163.749 187.295C163.94 186.99 164.049 186.648 164.069 186.296V185.1C164.069 184.448 163.579 184.186 162.974 184.512L97.0981 219.643C96.7788 219.835 96.5133 220.094 96.3229 220.4C96.1326 220.705 96.0229 221.047 96.0027 221.399Z" fill="#E0E0E0"/>
<path d="M88.7871 222.015C90.5106 220.436 90.9395 219.763 90.9395 219.183C90.9395 218.602 90.6867 218.283 89.9131 218.701C89.5786 218.881 89.2907 219.126 89.0697 219.42C88.8488 219.713 88.7 220.048 88.6339 220.4L86.7495 220.783C86.9146 219.871 87.2875 219.003 87.8435 218.235C88.3995 217.468 89.1259 216.818 89.9744 216.329C91.8587 215.324 92.9541 216.075 92.9541 217.745C92.8489 219.372 92.0828 220.902 90.8093 222.029V223.409L88.7871 224.486V222.015Z" fill="#455A64"/>
<path d="M88.764 226.602C88.7603 226.261 88.8531 225.925 89.0331 225.627C89.2131 225.329 89.4742 225.079 89.7905 224.903C90.4645 224.549 90.8092 224.868 90.8092 225.512C90.8135 225.854 90.7219 226.19 90.5434 226.49C90.3648 226.789 90.1054 227.04 89.7905 227.218C89.1087 227.58 88.764 227.268 88.764 226.602Z" fill="#455A64"/>
<path d="M145.624 202.601L146.459 203.189L145.693 204.534C145.626 204.615 145.59 204.715 145.59 204.817C145.59 204.92 145.626 205.019 145.693 205.1C145.831 205.2 146.045 205.1 146.168 204.888L146.934 203.543L147.777 204.13C147.899 204.215 148.075 204.13 148.183 203.953C148.24 203.883 148.272 203.797 148.272 203.709C148.272 203.621 148.24 203.535 148.183 203.465L147.34 202.877L148.106 201.532C148.164 201.446 148.192 201.345 148.185 201.243C148.178 201.142 148.137 201.045 148.068 200.966C147.93 200.867 147.715 200.966 147.593 201.178L146.827 202.523L145.984 201.929C145.862 201.844 145.678 201.929 145.578 202.113C145.527 202.187 145.503 202.276 145.512 202.364C145.52 202.452 145.559 202.536 145.624 202.601Z" fill="#9F91F5"/>
<path d="M89.369 263.107C89.248 263.107 89.129 263.078 89.0243 263.022C88.9008 262.953 88.8007 262.854 88.7356 262.735C88.6706 262.616 88.6432 262.482 88.6567 262.349V259.298C88.6668 259.026 88.7489 258.761 88.8958 258.525C89.0427 258.289 89.2499 258.09 89.4993 257.946L92.3564 256.416C92.4775 256.345 92.6166 256.303 92.7602 256.296C92.9038 256.288 93.0471 256.315 93.1761 256.374C93.3021 256.449 93.4032 256.555 93.4681 256.68C93.533 256.805 93.5592 256.944 93.5438 257.082V260.133C93.5317 260.405 93.4487 260.67 93.302 260.905C93.1553 261.141 92.9492 261.34 92.7011 261.486L89.844 263.008C89.6975 263.078 89.5339 263.112 89.369 263.107ZM92.8314 256.926C92.7856 256.933 92.7415 256.947 92.7011 256.969L89.844 258.498C89.7004 258.587 89.5809 258.706 89.4946 258.844C89.4083 258.983 89.3575 259.138 89.3461 259.298V262.349C89.3344 262.391 89.3344 262.435 89.3461 262.477C89.3914 262.465 89.4351 262.448 89.4763 262.427L92.3335 260.905C92.477 260.816 92.5965 260.697 92.6829 260.558C92.7692 260.42 92.82 260.265 92.8314 260.105V257.054C92.8397 257.011 92.8397 256.968 92.8314 256.926Z" fill="#455A64"/>
<path d="M95.9719 255.977L107.232 249.966C107.607 249.768 107.906 249.931 107.906 250.328V251.135C107.894 251.351 107.826 251.561 107.709 251.748C107.592 251.935 107.429 252.093 107.232 252.211L95.9719 258.222C95.6042 258.42 95.2979 258.222 95.2979 257.861V257.054C95.3107 256.838 95.3785 256.628 95.4956 256.441C95.6127 256.254 95.7759 256.095 95.9719 255.977Z" fill="#E0E0E0"/>
<path d="M117.274 248.218C117.153 248.219 117.034 248.189 116.93 248.133C116.798 248.062 116.692 247.958 116.626 247.831C116.559 247.705 116.534 247.564 116.554 247.425V244.373C116.566 244.101 116.649 243.835 116.798 243.599C116.946 243.364 117.154 243.165 117.405 243.021L120.262 241.492C120.381 241.419 120.519 241.378 120.662 241.374C120.805 241.37 120.946 241.403 121.069 241.47C121.193 241.536 121.294 241.633 121.361 241.749C121.428 241.866 121.459 241.997 121.449 242.129V245.18C121.439 245.452 121.357 245.718 121.21 245.953C121.063 246.189 120.856 246.388 120.606 246.533L117.749 248.055C117.61 248.148 117.446 248.204 117.274 248.218ZM120.729 242.037C120.686 242.046 120.645 242.06 120.606 242.079L117.749 243.609C117.605 243.698 117.484 243.816 117.396 243.955C117.309 244.093 117.257 244.248 117.244 244.409V247.46C117.23 247.502 117.23 247.546 117.244 247.588C117.289 247.574 117.332 247.558 117.374 247.538L120.231 246.016C120.375 245.926 120.494 245.808 120.581 245.669C120.667 245.53 120.718 245.375 120.729 245.216V242.136C120.738 242.103 120.738 242.069 120.729 242.037Z" fill="#455A64"/>
<path d="M123.877 241.088L135.138 235.077C135.513 234.879 135.812 235.077 135.812 235.438V236.245C135.799 236.461 135.732 236.671 135.615 236.858C135.498 237.046 135.334 237.204 135.138 237.322L123.877 243.333C123.502 243.531 123.203 243.368 123.203 242.971V242.136C123.224 241.926 123.296 241.723 123.412 241.542C123.529 241.36 123.688 241.205 123.877 241.088Z" fill="#E0E0E0"/>
<path d="M145.172 233.328C145.051 233.329 144.932 233.3 144.828 233.243C144.704 233.175 144.604 233.075 144.539 232.956C144.474 232.837 144.446 232.704 144.46 232.571V229.519C144.47 229.247 144.552 228.982 144.699 228.746C144.846 228.51 145.053 228.312 145.302 228.167L148.16 226.638C148.282 226.566 148.423 226.525 148.567 226.517C148.712 226.51 148.857 226.537 148.987 226.595C149.112 226.672 149.212 226.778 149.277 226.902C149.341 227.027 149.368 227.166 149.355 227.303V230.355C149.342 230.627 149.258 230.892 149.11 231.128C148.961 231.363 148.754 231.562 148.504 231.707L145.647 233.229C145.501 233.3 145.337 233.334 145.172 233.328ZM145.647 228.719C145.505 228.81 145.386 228.929 145.3 229.067C145.214 229.206 145.162 229.36 145.149 229.519V232.571C145.136 232.612 145.136 232.657 145.149 232.698C145.191 232.684 145.232 232.668 145.272 232.649L148.129 231.126C148.274 231.037 148.394 230.919 148.482 230.781C148.57 230.642 148.622 230.487 148.635 230.326V227.268C148.65 227.227 148.65 227.182 148.635 227.14C148.59 227.15 148.546 227.164 148.504 227.183L145.647 228.719Z" fill="#455A64"/>
<path d="M151.783 226.199L163.043 220.188C163.411 219.99 163.717 220.153 163.717 220.549V221.356C163.701 221.571 163.631 221.78 163.515 221.966C163.398 222.153 163.236 222.312 163.043 222.432L151.783 228.443C151.407 228.642 151.109 228.443 151.109 228.082V227.268C151.122 227.053 151.19 226.845 151.307 226.659C151.424 226.473 151.587 226.316 151.783 226.199Z" fill="#E0E0E0"/>
<path d="M96.0027 241.081V242.278C96.0027 242.922 96.4929 243.184 97.0981 242.858L162.974 207.734C163.293 207.542 163.559 207.283 163.749 206.978C163.94 206.672 164.049 206.33 164.069 205.978V204.782C164.069 204.131 163.579 203.869 162.974 204.194L97.0981 239.325C96.7788 239.518 96.5133 239.777 96.3229 240.082C96.1326 240.387 96.0229 240.729 96.0027 241.081Z" fill="#E0E0E0"/>
<path d="M96.0027 248.288V249.485C96.0027 250.129 96.4929 250.391 97.0981 250.066L162.974 214.942C163.292 214.748 163.557 214.489 163.748 214.184C163.938 213.879 164.048 213.537 164.069 213.186V211.989C164.069 211.338 163.579 211.076 162.974 211.402L97.0981 246.533C96.7788 246.725 96.5133 246.984 96.3229 247.289C96.1326 247.594 96.0229 247.937 96.0027 248.288Z" fill="#E0E0E0"/>
<path d="M88.7871 248.904C90.5106 247.326 90.9395 246.653 90.9395 246.072C90.9395 245.492 90.6867 245.173 89.9131 245.591C89.5795 245.77 89.2922 246.014 89.0712 246.306C88.8503 246.599 88.701 246.932 88.6339 247.283L86.7495 247.673C86.9146 246.761 87.2875 245.893 87.8435 245.125C88.3995 244.357 89.1259 243.708 89.9744 243.219C91.8587 242.214 92.9541 242.964 92.9541 244.671C92.8489 246.297 92.0828 247.827 90.8093 248.954V250.335L88.7871 251.411V248.904Z" fill="#455A64"/>
<path d="M88.764 253.464C88.7603 253.123 88.8531 252.786 89.0331 252.488C89.2131 252.19 89.4742 251.941 89.7905 251.765C90.4645 251.411 90.8092 251.722 90.8092 252.374C90.8145 252.714 90.7232 253.05 90.5445 253.349C90.3658 253.647 90.1058 253.896 89.7905 254.073C89.1087 254.469 88.764 254.172 88.764 253.464Z" fill="#455A64"/>
<path d="M145.624 229.604L146.459 230.192L145.693 231.537C145.626 231.619 145.59 231.718 145.59 231.82C145.59 231.923 145.626 232.022 145.693 232.104C145.831 232.203 146.045 232.104 146.168 231.891L146.934 230.546L147.777 231.141C147.899 231.226 148.075 231.141 148.183 230.957C148.24 230.886 148.272 230.801 148.272 230.712C148.272 230.624 148.24 230.538 148.183 230.468L147.34 229.88L148.106 228.535C148.164 228.449 148.192 228.348 148.185 228.246C148.178 228.145 148.137 228.048 148.068 227.969C147.93 227.87 147.715 227.969 147.593 228.181L146.827 229.526L145.984 228.932C145.862 228.854 145.678 228.932 145.578 229.116C145.527 229.191 145.503 229.279 145.512 229.367C145.52 229.456 145.559 229.539 145.624 229.604Z" fill="#9F91F5"/>
<path d="M220.247 115.022L214.617 112.02L214.564 111.984C211.76 110.519 207.923 110.738 203.671 113.011C199.688 115.135 196.057 118.675 193.323 122.76C190.159 127.475 188.175 132.927 188.175 137.819C188.175 142.386 189.899 145.607 192.694 147.087L198.416 150.11C201.235 151.774 205.226 151.625 209.646 149.268C218.21 144.694 225.15 133.585 225.15 124.452C225.142 119.716 223.258 116.438 220.247 115.022Z" fill="#9F91F5"/>
<path opacity="0.1" d="M198.294 150.096L192.687 147.129C189.891 145.629 188.168 142.421 188.168 137.862C188.168 132.969 190.152 127.518 193.315 122.803L199.298 125.996C196.134 130.704 194.15 136.156 194.15 141.041C194.135 145.374 195.713 148.496 198.294 150.096Z" fill="black"/>
<path opacity="0.4" d="M220.133 114.964C217.376 113.725 213.691 114.037 209.639 116.196C205.587 118.356 202.025 121.86 199.283 125.967L193.3 122.773C196.035 118.674 199.673 115.141 203.649 113.024C207.9 110.752 211.738 110.539 214.541 111.998L214.595 112.033L220.133 114.964Z" fill="white"/>
<path d="M206.215 128.474C206.226 129.025 206.099 129.571 205.844 130.07C205.589 130.569 205.212 131.006 204.744 131.348C203.932 131.78 203.274 131.199 203.274 130.045C203.263 129.494 203.39 128.948 203.645 128.449C203.9 127.95 204.276 127.513 204.744 127.171C205.556 126.732 206.215 127.32 206.215 128.474Z" fill="#455A64"/>
<path d="M214.587 124.006C214.598 124.558 214.471 125.104 214.216 125.602C213.961 126.101 213.585 126.538 213.117 126.881C212.305 127.313 211.646 126.732 211.646 125.578C211.635 125.026 211.762 124.48 212.017 123.982C212.272 123.483 212.649 123.046 213.117 122.703C213.929 122.272 214.587 122.852 214.587 124.006Z" fill="#455A64"/>
<path d="M201.213 145.735C201.155 145.742 201.095 145.742 201.037 145.735C200.928 145.715 200.825 145.675 200.734 145.617C200.642 145.56 200.563 145.486 200.503 145.401C200.442 145.315 200.401 145.219 200.381 145.118C200.36 145.018 200.362 144.914 200.386 144.814C201.719 138.959 205.112 133.833 209.026 131.745C209.823 131.256 210.733 130.946 211.683 130.84C212.632 130.734 213.596 130.836 214.495 131.136C216.341 131.844 217.766 133.55 218.502 135.971C218.539 136.164 218.497 136.363 218.384 136.528C218.271 136.694 218.096 136.814 217.892 136.867C217.687 136.919 217.47 136.899 217.281 136.811C217.092 136.722 216.945 136.572 216.87 136.389C216.288 134.449 215.215 133.097 213.86 132.58C213.198 132.379 212.495 132.322 211.806 132.413C211.116 132.504 210.459 132.74 209.884 133.104C206.422 134.952 203.274 139.788 202.056 145.14C202.009 145.313 201.9 145.466 201.747 145.574C201.594 145.682 201.406 145.738 201.213 145.735Z" fill="#455A64"/>
<path d="M220.247 69.7225L214.617 66.7205H214.564C211.76 65.255 207.923 65.4745 203.671 67.7471C199.688 69.8711 196.057 73.4111 193.323 77.4963C190.159 82.2116 188.175 87.6632 188.175 92.5554C188.175 97.122 189.899 100.343 192.694 101.823L198.416 104.846C201.235 106.51 205.226 106.361 209.646 104.004C218.21 99.4301 225.15 88.3216 225.15 79.2238C225.142 74.4165 223.258 71.1385 220.247 69.7225Z" fill="#9F91F5"/>
<path opacity="0.1" d="M198.294 104.784L192.687 101.817C189.891 100.317 188.168 97.1093 188.168 92.5498C188.168 87.6575 190.152 82.2059 193.315 77.4906L199.298 80.6837C196.134 85.3919 194.15 90.8435 194.15 95.7287C194.135 100.076 195.713 103.198 198.294 104.784Z" fill="black"/>
<path opacity="0.4" d="M220.133 69.6672C217.376 68.4282 213.691 68.7397 209.639 70.8991C205.587 73.0585 202.025 76.5631 199.283 80.6695L193.3 77.4764C196.035 73.3771 199.673 69.8442 203.649 67.7273C207.9 65.4546 211.738 65.2422 214.541 66.7007H214.595L220.133 69.6672Z" fill="white"/>
<path d="M206.123 98.1926C205.396 98.1944 204.675 98.0645 204.001 97.8102C202.002 97.0527 200.47 95.2048 199.681 92.5923C199.628 92.3808 199.665 92.1585 199.784 91.9717C199.904 91.7849 200.097 91.648 200.323 91.5896C200.55 91.5311 200.792 91.5557 200.999 91.6581C201.206 91.7605 201.362 91.9328 201.435 92.1392C202.071 94.2632 203.228 95.6792 204.691 96.2526C205.406 96.4733 206.167 96.5376 206.914 96.4406C207.661 96.3435 208.374 96.0877 208.996 95.6933C212.726 93.7038 216.127 88.4788 217.422 82.7015C217.473 82.4837 217.615 82.2933 217.817 82.1714C218.019 82.0495 218.265 82.006 218.502 82.0502C218.619 82.0729 218.73 82.1168 218.829 82.1792C218.928 82.2417 219.012 82.3216 219.078 82.4143C219.143 82.507 219.188 82.6108 219.21 82.7196C219.232 82.8284 219.231 82.9401 219.206 83.0484C217.766 89.3638 214.105 94.9004 209.884 97.1589C208.749 97.7994 207.453 98.1557 206.123 98.1926Z" fill="#455A64"/>
<path d="M205.955 84.1741C205.966 84.7699 205.828 85.36 205.553 85.8989C205.279 86.4378 204.873 86.9111 204.369 87.2822C203.488 87.7495 202.783 87.1194 202.783 85.8662C202.77 85.2712 202.907 84.6816 203.182 84.1436C203.457 83.6055 203.863 83.1337 204.369 82.7652C205.242 82.2979 205.955 82.928 205.955 84.1741Z" fill="#455A64"/>
<path d="M214.993 79.3527C215.005 79.9474 214.867 80.5365 214.592 81.0743C214.317 81.612 213.912 82.0841 213.408 82.4537C212.535 82.921 211.822 82.2908 211.822 81.0377C211.811 80.443 211.948 79.8539 212.223 79.3161C212.498 78.7783 212.904 78.3063 213.408 77.9367C214.281 77.4694 214.993 78.1066 214.993 79.3527Z" fill="#455A64"/>
<path d="M231.769 197.22L191.171 218.885C190.763 219.077 190.311 219.177 189.853 219.177C189.395 219.177 188.944 219.077 188.536 218.885L186.383 217.731C185.997 217.499 185.677 217.185 185.448 216.816C185.219 216.447 185.088 216.032 185.066 215.607V172.278C185.088 171.852 185.219 171.438 185.448 171.069C185.677 170.7 185.997 170.386 186.383 170.154L226.981 148.489C227.388 148.297 227.838 148.197 228.295 148.197C228.752 148.197 229.202 148.297 229.609 148.489L231.761 149.65C232.148 149.882 232.469 150.195 232.698 150.565C232.927 150.934 233.058 151.349 233.079 151.774V195.111C233.055 195.533 232.924 195.944 232.696 196.31C232.469 196.677 232.151 196.989 231.769 197.22Z" fill="#455A64"/>
<path d="M190.948 218.977C190.562 219.121 190.147 219.187 189.731 219.171C189.315 219.155 188.908 219.057 188.536 218.885L186.383 217.724C185.997 217.492 185.677 217.178 185.45 216.809C185.222 216.439 185.093 216.025 185.073 215.6V172.271C185.085 171.845 185.217 171.43 185.456 171.067L190.236 173.637C190 173.999 189.868 174.411 189.853 174.833V218.163C189.853 218.878 190.32 219.204 190.948 218.977Z" fill="#263238"/>
<path d="M231.769 197.22L191.171 218.885C190.443 219.275 189.853 218.963 189.853 218.177V174.876C189.875 174.451 190.006 174.037 190.235 173.667C190.465 173.298 190.785 172.984 191.171 172.752L231.769 151.087C232.496 150.698 233.086 151.016 233.086 151.795V195.132C233.058 195.551 232.924 195.958 232.696 196.321C232.467 196.683 232.149 196.992 231.769 197.22Z" fill="#37474F"/>
<path fill-rule="evenodd" clip-rule="evenodd" d="M210.359 186.423L199.329 200.867C204.2 205.419 213.576 201.999 220.271 193.227C224.293 187.967 226.453 182.289 226.453 176.986L213.101 184.08C212.042 184.702 211.113 185.496 210.359 186.423Z" fill="#9F91F5"/>
<path opacity="0.3" fill-rule="evenodd" clip-rule="evenodd" d="M210.359 186.423L199.329 200.867C204.2 205.419 213.576 201.999 220.271 193.227C224.293 187.967 226.453 182.289 226.453 176.986L213.101 184.08C212.042 184.702 211.113 185.496 210.359 186.423Z" fill="black"/>
<path d="M198.769 200.499L209.8 186.055C210.61 185.061 211.613 184.214 212.757 183.556L226.108 176.434C226.213 176.378 226.332 176.348 226.453 176.348C226.574 176.348 226.693 176.378 226.798 176.434C226.902 176.49 226.989 176.57 227.05 176.667C227.11 176.764 227.142 176.874 227.142 176.986C227.142 182.452 224.959 188.201 220.838 193.596C216.403 199.401 210.704 203.097 205.594 203.508C204.364 203.639 203.117 203.512 201.947 203.136C200.777 202.759 199.714 202.143 198.838 201.334C198.732 201.235 198.665 201.106 198.645 200.968C198.626 200.83 198.656 200.69 198.731 200.569C198.735 200.543 198.749 200.518 198.769 200.499ZM225.733 178.105L213.477 184.661C212.503 185.222 211.646 185.942 210.949 186.785L200.263 200.768C200.989 201.317 201.827 201.725 202.727 201.969C203.627 202.212 204.571 202.285 205.503 202.184C210.144 201.83 215.598 198.247 219.727 192.831C220.432 191.918 221.068 190.99 221.65 190.063C224.008 186.428 225.407 182.332 225.733 178.105Z" fill="white"/>
<path fill-rule="evenodd" clip-rule="evenodd" d="M210.857 183.322L206.82 172.242C198.946 179.174 194.633 190.502 197.192 197.539C197.603 198.79 198.333 199.931 199.321 200.867L210.351 186.423C210.664 185.967 210.871 185.456 210.958 184.922C211.045 184.388 211.01 183.843 210.857 183.322Z" fill="#9F91F5"/>
<path d="M206.353 171.782C206.435 171.707 206.537 171.653 206.648 171.625C206.759 171.596 206.876 171.594 206.989 171.619C207.101 171.647 207.204 171.699 207.29 171.772C207.375 171.845 207.44 171.936 207.479 172.037L211.508 183.117C211.695 183.733 211.74 184.379 211.639 185.012C211.539 185.645 211.296 186.251 210.926 186.792L199.926 201.235C199.866 201.309 199.79 201.37 199.703 201.416C199.616 201.461 199.52 201.488 199.42 201.497C199.319 201.507 199.217 201.495 199.122 201.463C199.026 201.431 198.94 201.38 198.869 201.313C197.811 200.318 197.023 199.104 196.571 197.773C194.71 192.654 196.364 185.333 200.332 178.982C201.956 176.328 203.983 173.904 206.353 171.782ZM209.8 186.055C210.048 185.68 210.212 185.262 210.28 184.826C210.349 184.39 210.321 183.946 210.198 183.521L206.521 173.41C199.336 180.221 195.46 190.756 197.85 197.341C198.156 198.246 198.636 199.093 199.267 199.84L209.8 186.055Z" fill="white"/>
<path fill-rule="evenodd" clip-rule="evenodd" d="M212.558 183.549L223.588 169.106C219.697 165.467 213.124 166.692 206.828 172.242L210.857 183.322C211.186 184.243 211.952 184.342 212.558 183.549Z" fill="#9F91F5"/>
<path opacity="0.1" fill-rule="evenodd" clip-rule="evenodd" d="M212.558 183.549L223.588 169.106C219.697 165.467 213.124 166.692 206.828 172.242L210.857 183.322C211.186 184.243 211.952 184.342 212.558 183.549Z" fill="black"/>
<path d="M206.353 171.782C212.94 165.976 219.903 164.752 224.078 168.66C224.192 168.766 224.262 168.905 224.276 169.054C224.29 169.203 224.247 169.351 224.155 169.474L213.117 183.917C212.98 184.199 212.748 184.432 212.456 184.581C212.163 184.73 211.825 184.786 211.495 184.741C211.164 184.696 210.859 184.553 210.625 184.332C210.391 184.112 210.241 183.827 210.198 183.521L206.169 172.44C206.139 172.355 206.129 172.265 206.139 172.176C206.15 172.087 206.181 172.001 206.23 171.924C206.26 171.869 206.302 171.821 206.353 171.782ZM222.676 169.212C219.099 166.38 213.293 167.591 207.617 172.44L211.508 183.131C211.55 183.25 211.612 183.363 211.692 183.464C211.816 183.402 211.92 183.308 211.991 183.195L222.676 169.212Z" fill="white"/>
<path fill-rule="evenodd" clip-rule="evenodd" d="M213.101 184.08L226.453 177C226.453 173.46 225.533 170.947 223.588 169.12L212.557 183.563C211.952 184.342 212.182 184.59 213.101 184.08Z" fill="#9F91F5"/>
<path opacity="0.2" fill-rule="evenodd" clip-rule="evenodd" d="M213.101 184.08L226.453 177C226.453 173.46 225.533 170.947 223.588 169.12L212.557 183.563C211.952 184.342 212.182 184.59 213.101 184.08Z" fill="black"/>
<path d="M211.991 183.181L223.029 168.738C223.087 168.662 223.163 168.6 223.25 168.554C223.337 168.509 223.434 168.482 223.534 168.476C223.634 168.467 223.735 168.478 223.829 168.51C223.923 168.542 224.008 168.593 224.078 168.66C226.169 170.614 227.142 173.262 227.142 176.986C227.142 177.098 227.11 177.208 227.05 177.305C226.989 177.402 226.902 177.482 226.798 177.538L213.454 184.66C213.163 184.816 212.289 185.284 211.753 184.738C211.604 184.556 211.522 184.334 211.522 184.105C211.522 183.876 211.604 183.653 211.753 183.471L211.991 183.181ZM223.672 170.132L213.86 182.983L225.779 176.611C225.702 173.8 225.028 171.711 223.672 170.132Z" fill="white"/>
<path d="M316.932 132.042C316.224 131.726 315.445 131.568 314.659 131.582C313.873 131.596 313.101 131.78 312.405 132.12L242.592 169.375C241.919 169.788 241.36 170.341 240.961 170.991C240.562 171.64 240.333 172.367 240.294 173.113V191.521C240.264 192.257 240.452 192.987 240.837 193.632C241.222 194.277 241.791 194.813 242.481 195.182C243.171 195.55 243.957 195.738 244.754 195.724C245.551 195.71 246.329 195.496 247.004 195.103L316.818 157.848C317.491 157.435 318.05 156.882 318.449 156.233C318.848 155.583 319.076 154.856 319.116 154.11V135.702C319.088 134.977 318.876 134.267 318.496 133.631C318.117 132.996 317.581 132.451 316.932 132.042Z" fill="#263238"/>
<path d="M319.093 135.313C318.901 134.223 317.944 133.84 316.795 134.463L287.687 149.99L246.981 171.711C246.291 172.108 245.721 172.661 245.327 173.318L240.945 170.982C241.339 170.324 241.905 169.769 242.592 169.368L312.405 132.12C313.048 131.743 313.787 131.528 314.547 131.497C315.308 131.466 316.064 131.62 316.74 131.943C317.417 132.266 317.99 132.747 318.403 133.338C318.815 133.929 319.053 134.61 319.093 135.313Z" fill="#455A64"/>
<path d="M244.637 175.449V193.857C244.637 195.231 245.687 195.79 246.974 195.103L316.787 157.849C317.46 157.435 318.019 156.882 318.418 156.233C318.817 155.583 319.046 154.856 319.085 154.11V135.702C319.085 134.329 318.043 133.769 316.787 134.456L287.679 149.99L246.966 171.711C246.288 172.122 245.723 172.674 245.319 173.323C244.914 173.973 244.681 174.701 244.637 175.449Z" fill="#37474F"/>
<path d="M256.511 172.752L257.652 174.989C257.665 175.021 257.686 175.051 257.712 175.075C257.738 175.1 257.769 175.119 257.804 175.131C257.838 175.144 257.875 175.15 257.913 175.149C257.95 175.147 257.986 175.139 258.02 175.124L260.57 174.225C260.976 174.076 261.137 174.607 260.846 175.117L259 178.317C258.889 178.503 258.838 178.714 258.855 178.926L259.291 181.829C259.36 182.289 258.939 182.891 258.579 182.848L256.281 182.586C256.188 182.59 256.098 182.615 256.018 182.658C255.938 182.701 255.871 182.761 255.821 182.834L253.523 185.531C253.163 185.956 252.757 185.8 252.811 185.269L253.247 181.906C253.267 181.825 253.263 181.74 253.238 181.659C253.212 181.579 253.166 181.506 253.102 181.446L251.256 180.214C250.965 180.016 251.126 179.315 251.532 179.032L254.082 177.212C254.261 177.074 254.389 176.889 254.45 176.681L255.591 173.226C255.844 172.681 256.327 172.405 256.511 172.752Z" fill="#9F91F5"/>
<path d="M269.418 165.927L270.559 168.164C270.571 168.197 270.591 168.227 270.617 168.252C270.643 168.277 270.675 168.297 270.709 168.309C270.744 168.322 270.782 168.328 270.819 168.326C270.857 168.324 270.894 168.315 270.927 168.299L273.478 167.399C273.884 167.251 274.044 167.782 273.753 168.292L271.93 171.492C271.818 171.68 271.768 171.894 271.785 172.108L272.221 175.003C272.29 175.464 271.869 176.065 271.509 176.023L269.211 175.768C269.119 175.769 269.028 175.791 268.947 175.833C268.867 175.875 268.8 175.936 268.751 176.009L266.453 178.706C266.093 179.131 265.687 178.982 265.741 178.444L266.178 175.081C266.197 174.999 266.193 174.914 266.168 174.834C266.143 174.754 266.096 174.68 266.032 174.621L264.186 173.389C263.895 173.191 264.056 172.497 264.462 172.207L267.013 170.387C267.191 170.249 267.32 170.064 267.38 169.856L268.522 166.401C268.713 165.849 269.234 165.573 269.418 165.927Z" fill="#9F91F5"/>
<path d="M282.325 159.102L283.466 161.339C283.479 161.371 283.5 161.4 283.526 161.425C283.552 161.449 283.583 161.468 283.618 161.481C283.653 161.494 283.69 161.5 283.727 161.498C283.764 161.497 283.8 161.489 283.834 161.474L286.385 160.567C286.791 160.426 286.951 160.95 286.66 161.459L284.814 164.66C284.703 164.848 284.653 165.062 284.669 165.276L285.105 168.171C285.174 168.631 284.753 169.24 284.393 169.198L282.095 168.936C282.002 168.94 281.912 168.964 281.832 169.008C281.752 169.051 281.685 169.111 281.635 169.184L279.337 171.874C278.977 172.306 278.571 172.15 278.625 171.619L279.062 168.256C279.081 168.173 279.077 168.087 279.052 168.006C279.027 167.924 278.98 167.85 278.916 167.789L277.07 166.557C276.779 166.366 276.94 165.665 277.346 165.375L279.897 163.555C280.075 163.417 280.204 163.232 280.264 163.024L281.406 159.569C281.62 159.024 282.141 158.741 282.325 159.102Z" fill="#9F91F5"/>
<path d="M295.232 152.269L296.373 154.507C296.386 154.539 296.407 154.568 296.433 154.593C296.459 154.617 296.49 154.636 296.525 154.649C296.559 154.661 296.597 154.667 296.634 154.666C296.671 154.665 296.707 154.656 296.741 154.641L299.292 153.735C299.698 153.593 299.858 154.117 299.567 154.627L297.721 157.827C297.61 158.016 297.56 158.229 297.576 158.443L298.012 161.339C298.081 161.799 297.66 162.408 297.3 162.366L295.002 162.104C294.909 162.108 294.819 162.132 294.739 162.175C294.659 162.219 294.592 162.279 294.542 162.351L292.244 165.042C291.884 165.474 291.478 165.318 291.532 164.787L291.969 161.424C291.988 161.342 291.984 161.257 291.959 161.177C291.934 161.096 291.887 161.023 291.823 160.964L289.977 159.732C289.686 159.534 289.847 158.833 290.253 158.542L292.804 156.73C292.979 156.589 293.107 156.405 293.171 156.199L294.313 152.744C294.527 152.22 295.048 151.915 295.232 152.269Z" fill="#9F91F5"/>
<path d="M308.139 145.437L309.28 147.675C309.294 147.707 309.314 147.736 309.34 147.76C309.366 147.785 309.398 147.804 309.432 147.817C309.467 147.829 309.504 147.835 309.541 147.834C309.578 147.833 309.615 147.824 309.648 147.809L312.199 146.91C312.605 146.761 312.766 147.292 312.475 147.802L310.629 151.002C310.517 151.188 310.467 151.399 310.483 151.611L310.92 154.514C310.989 154.974 310.567 155.576 310.207 155.533L307.909 155.271C307.817 155.275 307.727 155.3 307.647 155.343C307.567 155.386 307.499 155.447 307.45 155.519L305.152 158.217C304.792 158.642 304.386 158.486 304.439 157.955L304.876 154.592C304.895 154.51 304.892 154.425 304.866 154.345C304.841 154.264 304.794 154.191 304.73 154.132L302.915 152.928C302.624 152.73 302.785 152.029 303.191 151.746L305.742 149.926C305.92 149.788 306.049 149.603 306.109 149.395L307.251 145.94C307.434 145.359 307.932 145.083 308.139 145.437Z" fill="#9F91F5"/>
<path d="M254.588 160.978L250.758 158.939C250.682 158.908 250.618 158.856 250.574 158.79L249.869 157.657L252.167 156.447L252.098 156.631L254.588 160.978Z" fill="#9F91F5"/>
<path opacity="0.2" d="M254.588 160.978L250.758 158.939C250.682 158.908 250.618 158.856 250.574 158.79L249.869 157.657L252.167 156.447L252.098 156.631L254.588 160.978Z" fill="black"/>
<path d="M251.807 156.617L254.458 160.865C254.495 160.926 254.55 160.976 254.618 161.008C254.685 161.041 254.761 161.055 254.836 161.048C254.912 161.041 254.984 161.014 255.043 160.97C255.102 160.927 255.146 160.868 255.17 160.801L257.966 153.346L251.807 156.617Z" fill="#9F91F5"/>
<path d="M318.656 97.4209C318.623 96.829 318.438 96.2528 318.117 95.7397C317.796 95.2265 317.348 94.7909 316.81 94.4685C316.237 94.2031 315.605 94.0649 314.964 94.0649C314.323 94.0649 313.691 94.2031 313.118 94.4685L242.14 132.325C241.603 132.65 241.156 133.087 240.835 133.601C240.514 134.115 240.329 134.692 240.294 135.285V156.879C240.329 157.471 240.514 158.048 240.835 158.562C241.156 159.076 241.603 159.513 242.14 159.838C242.712 160.107 243.345 160.247 243.987 160.247C244.628 160.247 245.261 160.107 245.833 159.838L316.986 121.875C318.649 120.997 318.664 120.119 318.664 119.043L318.656 97.4209Z" fill="#9F91F5"/>
<path opacity="0.2" d="M240.264 156.871C240.298 157.464 240.484 158.041 240.804 158.555C241.125 159.069 241.572 159.506 242.11 159.831C242.629 160.076 243.199 160.215 243.781 160.241C244.364 160.267 244.945 160.178 245.488 159.98C244.622 160.284 243.956 159.824 243.956 158.847V137.246C243.977 136.652 244.164 136.074 244.5 135.568L240.8 133.592C240.471 134.104 240.286 134.683 240.264 135.277V156.871Z" fill="black"/>
<path opacity="0.4" d="M318.572 96.9394C318.357 96.2314 317.637 95.9836 316.787 96.4367L245.802 134.293C245.254 134.605 244.805 135.045 244.5 135.568L240.808 133.593C241.119 133.074 241.567 132.635 242.11 132.318L313.087 94.4685C313.659 94.1998 314.292 94.0598 314.933 94.0598C315.575 94.0598 316.208 94.1998 316.779 94.4685C317.245 94.7456 317.644 95.1078 317.952 95.5327C318.26 95.9576 318.471 96.4363 318.572 96.9394Z" fill="white"/>
<path d="M248.95 137.628L312.689 103.545C313.309 103.219 313.815 103.368 313.815 103.885C313.769 104.203 313.644 104.507 313.448 104.773C313.253 105.038 312.993 105.258 312.689 105.414L248.95 139.476C248.337 139.809 247.832 139.66 247.832 139.143C247.88 138.828 248.006 138.528 248.2 138.265C248.394 138.002 248.651 137.784 248.95 137.628Z" fill="white"/>
<path d="M248.95 147.264L303.62 118.094C304.24 117.762 304.738 117.91 304.738 118.427C304.693 118.746 304.569 119.05 304.375 119.317C304.18 119.584 303.922 119.805 303.62 119.963L248.95 149.126C248.337 149.459 247.832 149.303 247.832 148.786C247.883 148.471 248.01 148.171 248.203 147.907C248.397 147.644 248.652 147.424 248.95 147.264Z" fill="white"/>
<path d="M248.95 151.951L311.387 118.59C312 118.257 312.505 118.413 312.505 118.93C312.455 119.246 312.329 119.548 312.135 119.813C311.942 120.077 311.686 120.298 311.387 120.459L248.95 153.813C248.337 154.146 247.832 153.997 247.832 153.48C247.878 153.163 248.003 152.86 248.197 152.594C248.391 152.329 248.649 152.109 248.95 151.951Z" fill="white"/>
<path d="M248.95 142.308L311.387 108.947C312 108.614 312.505 108.77 312.505 109.287C312.459 109.604 312.333 109.907 312.139 110.172C311.945 110.438 311.688 110.658 311.387 110.816L248.95 144.205C248.337 144.531 247.832 144.382 247.832 143.866C247.873 143.543 247.996 143.234 248.19 142.964C248.385 142.693 248.645 142.469 248.95 142.308Z" fill="white"/>
<path d="M316.932 60.3145C316.224 59.9986 315.445 59.841 314.659 59.8546C313.873 59.8681 313.101 60.0523 312.405 60.3924L242.592 97.6402C241.92 98.0545 241.362 98.6083 240.963 99.2574C240.564 99.9065 240.335 100.633 240.294 101.378V119.786C240.264 120.523 240.452 121.253 240.837 121.898C241.222 122.543 241.791 123.079 242.481 123.447C243.171 123.816 243.957 124.003 244.754 123.989C245.551 123.976 246.329 123.761 247.004 123.369L316.818 86.114C317.491 85.7009 318.05 85.1474 318.449 84.498C318.848 83.8487 319.076 83.1217 319.116 82.3757V63.9677C319.087 63.2434 318.874 62.5354 318.495 61.9009C318.115 61.2664 317.58 60.723 316.932 60.3145Z" fill="#263238"/>
<path d="M319.093 63.5854C318.901 62.4951 317.944 62.1128 316.795 62.7287L287.687 78.2552L246.981 99.9766C246.292 100.378 245.723 100.933 245.327 101.591L240.945 99.2544C241.337 98.5955 241.903 98.0398 242.592 97.6402L312.405 60.3923C313.048 60.0154 313.787 59.8008 314.547 59.7697C315.308 59.7386 316.064 59.8922 316.74 60.2151C317.417 60.5381 317.99 61.0192 318.403 61.6105C318.815 62.2018 319.053 62.8827 319.093 63.5854Z" fill="#455A64"/>
<path d="M244.637 103.722V122.13C244.637 123.504 245.687 124.063 246.974 123.376L316.787 86.1211C317.46 85.7081 318.019 85.1546 318.418 84.5052C318.817 83.8558 319.046 83.1289 319.085 82.3829V63.9749C319.085 62.6014 318.043 62.042 316.787 62.7288L287.679 78.2552L246.966 99.9838C246.288 100.394 245.723 100.946 245.319 101.596C244.914 102.245 244.681 102.974 244.637 103.722Z" fill="#37474F"/>
<path d="M256.511 101.032L257.652 103.269C257.665 103.301 257.686 103.33 257.712 103.355C257.738 103.379 257.769 103.398 257.804 103.411C257.838 103.424 257.875 103.429 257.913 103.428C257.95 103.427 257.986 103.418 258.02 103.403L260.57 102.497C260.976 102.355 261.137 102.886 260.846 103.389L259 106.589C258.889 106.778 258.839 106.991 258.855 107.205L259.291 110.101C259.36 110.561 258.939 111.17 258.579 111.128L256.281 110.866C256.188 110.87 256.098 110.894 256.018 110.937C255.938 110.981 255.871 111.041 255.821 111.113L253.523 113.804C253.163 114.236 252.757 114.08 252.811 113.549L253.247 110.186C253.267 110.104 253.263 110.019 253.238 109.939C253.212 109.858 253.166 109.785 253.102 109.726L251.256 108.494C250.965 108.296 251.126 107.595 251.532 107.304L254.082 105.492C254.259 105.353 254.387 105.168 254.45 104.961L255.591 101.506C255.844 100.954 256.327 100.678 256.511 101.032Z" fill="#9F91F5"/>
<path d="M269.418 94.1993L270.559 96.4365C270.572 96.4686 270.593 96.4979 270.619 96.5223C270.645 96.5468 270.676 96.5659 270.711 96.5786C270.745 96.5912 270.783 96.5971 270.82 96.5958C270.857 96.5945 270.893 96.5861 270.927 96.571L273.478 95.6719C273.884 95.5232 274.044 96.0542 273.753 96.564L271.93 99.7641C271.819 99.9498 271.768 100.161 271.785 100.373L272.221 103.276C272.29 103.736 271.869 104.338 271.509 104.295L269.211 104.033C269.118 104.037 269.028 104.062 268.948 104.105C268.868 104.148 268.801 104.209 268.751 104.281L266.453 106.979C266.093 107.403 265.687 107.255 265.741 106.717L266.178 103.354C266.197 103.272 266.193 103.187 266.168 103.107C266.143 103.026 266.096 102.953 266.032 102.893L264.186 101.662C263.895 101.463 264.056 100.762 264.462 100.479L267.013 98.6597C267.191 98.5217 267.32 98.3363 267.38 98.1287L268.522 94.6736C268.713 94.1214 269.234 93.8453 269.418 94.1993Z" fill="#9F91F5"/>
<path d="M282.325 87.3671L283.466 89.6114C283.479 89.6435 283.5 89.6728 283.526 89.6972C283.552 89.7217 283.583 89.7408 283.618 89.7535C283.653 89.7661 283.69 89.772 283.727 89.7707C283.764 89.7694 283.8 89.761 283.834 89.7459L286.385 88.8397C286.791 88.6981 286.951 89.222 286.66 89.7318L284.814 92.9319C284.702 93.12 284.652 93.3339 284.669 93.5479L285.105 96.4436C285.174 96.9038 284.753 97.5056 284.393 97.4702L282.095 97.2083C282.003 97.209 281.912 97.2315 281.831 97.2736C281.751 97.3157 281.684 97.3761 281.635 97.449L279.337 100.146C278.977 100.571 278.571 100.423 278.625 99.8845L279.062 96.5215C279.08 96.4396 279.076 96.3549 279.051 96.2746C279.026 96.1943 278.979 96.1211 278.916 96.0613L277.07 94.8294C276.779 94.6382 276.94 93.9373 277.346 93.647L279.897 91.8275C280.075 91.6895 280.204 91.5041 280.264 91.2965L281.406 87.8414C281.62 87.2963 282.141 87.0131 282.325 87.3671Z" fill="#9F91F5"/>
<path d="M295.232 80.542L296.373 82.7792C296.386 82.8114 296.407 82.8406 296.433 82.865C296.459 82.8895 296.49 82.9086 296.525 82.9213C296.559 82.934 296.597 82.9398 296.634 82.9385C296.671 82.9372 296.707 82.9288 296.741 82.9138L299.292 82.0075C299.698 81.8659 299.858 82.3898 299.567 82.8996L297.721 86.0998C297.61 86.2881 297.56 86.5018 297.576 86.7157L298.012 89.6114C298.081 90.0716 297.66 90.6805 297.3 90.638L295.002 90.3761C294.909 90.3801 294.819 90.4047 294.739 90.4478C294.659 90.491 294.592 90.5514 294.542 90.6239L292.244 93.3143C291.884 93.7462 291.478 93.5904 291.532 93.0594L291.969 89.6964C291.995 89.6121 291.997 89.523 291.976 89.4375C291.954 89.352 291.91 89.273 291.846 89.2079L290 87.976C289.709 87.7848 289.87 87.0839 290.276 86.7936L292.827 84.9811C293.004 84.839 293.131 84.6519 293.194 84.443L294.336 80.988C294.527 80.4641 295.048 80.1809 295.232 80.542Z" fill="#9F91F5"/>
<path d="M308.139 73.7098L309.28 75.9471C309.294 75.9792 309.314 76.0084 309.34 76.0329C309.366 76.0573 309.398 76.0765 309.432 76.0891C309.467 76.1018 309.504 76.1076 309.541 76.1063C309.578 76.105 309.615 76.0966 309.648 76.0816L312.199 75.1753C312.605 75.0337 312.766 75.5647 312.475 76.0674L310.628 79.2959C310.517 79.4842 310.467 79.6979 310.483 79.9119L310.92 82.8076C310.989 83.2678 310.567 83.8767 310.207 83.8342L307.909 83.5722C307.817 83.5762 307.727 83.6008 307.646 83.644C307.566 83.6871 307.499 83.7475 307.45 83.82L305.152 86.5104C304.792 86.9423 304.386 86.7865 304.439 86.2555L304.876 82.8925C304.895 82.8107 304.892 82.7257 304.866 82.6454C304.841 82.565 304.794 82.4918 304.73 82.4323L302.884 81.2004C302.593 81.0022 302.754 80.3013 303.16 80.011L305.711 78.1985C305.889 78.0606 306.018 77.8752 306.078 77.6675L307.22 74.2125C307.434 73.6319 307.932 73.3558 308.139 73.7098Z" fill="#455A64"/>
<path d="M254.588 89.2504L250.758 87.2114C250.682 87.1801 250.618 87.1283 250.574 87.0627L249.869 85.9299L252.167 84.7192L252.098 84.9033L254.588 89.2504Z" fill="#9F91F5"/>
<path opacity="0.2" d="M254.588 89.2504L250.758 87.2114C250.682 87.1801 250.618 87.1283 250.574 87.0627L249.869 85.9299L252.167 84.7192L252.098 84.9033L254.588 89.2504Z" fill="black"/>
<path d="M251.807 84.8891L254.458 89.1371C254.495 89.1984 254.55 89.2484 254.618 89.2809C254.685 89.3135 254.761 89.3273 254.836 89.3205C254.912 89.3137 254.984 89.2868 255.043 89.2429C255.102 89.199 255.146 89.1401 255.17 89.0734L257.966 81.6182L251.807 84.8891Z" fill="#9F91F5"/>
<path d="M318.656 25.6933C318.621 25.1007 318.436 24.524 318.115 24.0099C317.795 23.4957 317.347 23.0586 316.81 22.7338C316.238 22.4652 315.606 22.3252 314.964 22.3252C314.322 22.3252 313.69 22.4652 313.118 22.7338L242.11 60.5906C241.572 60.9154 241.125 61.3525 240.804 61.8666C240.484 62.3807 240.298 62.9574 240.264 63.55V85.144C240.298 85.7366 240.484 86.3133 240.804 86.8275C241.125 87.3416 241.572 87.7787 242.11 88.1035C242.682 88.3721 243.314 88.5121 243.956 88.5121C244.597 88.5121 245.23 88.3721 245.802 88.1035L316.956 50.1334C318.618 49.2626 318.633 48.3847 318.633 47.3014L318.656 25.6933Z" fill="#9F91F5"/>
<path opacity="0.2" d="M240.264 85.144C240.298 85.7366 240.484 86.3133 240.804 86.8275C241.125 87.3416 241.572 87.7787 242.11 88.1035C242.629 88.3487 243.199 88.4883 243.782 88.5127C244.365 88.5371 244.946 88.4459 245.488 88.2451C244.622 88.5495 243.956 88.0964 243.956 87.1194V65.5183C243.978 64.9228 244.165 64.3427 244.5 63.8332L240.8 61.865C240.471 62.3761 240.286 62.9556 240.264 63.55V85.144Z" fill="black"/>
<path opacity="0.4" d="M318.572 25.2116C318.357 24.5036 317.637 24.2558 316.787 24.7089L245.802 62.5657C245.254 62.8772 244.805 63.3168 244.5 63.8401L240.808 61.8648C241.119 61.3458 241.567 60.9076 242.11 60.5904L313.087 22.7336C313.66 22.4683 314.293 22.3301 314.933 22.3301C315.574 22.3301 316.206 22.4683 316.779 22.7336C317.246 23.0116 317.645 23.3749 317.953 23.8011C318.262 24.2273 318.472 24.7073 318.572 25.2116Z" fill="white"/>
<path d="M248.95 65.8936L312.689 31.8175C313.309 31.4918 313.815 31.6405 313.815 32.1574C313.769 32.4758 313.644 32.7799 313.448 33.0454C313.253 33.3109 312.993 33.5305 312.689 33.6867L248.95 67.7627C248.337 68.0954 247.832 67.9468 247.832 67.4299C247.881 67.1124 248.007 66.8093 248.2 66.5432C248.394 66.2771 248.65 66.055 248.95 65.8936Z" fill="white"/>
<path d="M248.95 75.5293L303.62 46.3597C304.24 46.027 304.738 46.1757 304.738 46.6925C304.694 47.0104 304.569 47.3143 304.375 47.5798C304.181 47.8454 303.922 48.0652 303.62 48.2218L248.95 77.3985C248.337 77.7241 247.832 77.5755 247.832 77.0586C247.878 76.7414 248.004 76.4384 248.198 76.1731C248.392 75.9079 248.649 75.6876 248.95 75.5293Z" fill="white"/>
<path d="M248.95 80.2164L311.387 46.8625C312 46.5297 312.505 46.6855 312.505 47.1953C312.456 47.5128 312.33 47.8159 312.137 48.082C311.943 48.3481 311.687 48.5702 311.387 48.7316L248.95 82.0855C248.337 82.4183 247.832 82.2696 247.832 81.7527C247.881 81.4352 248.007 81.1321 248.2 80.866C248.394 80.5999 248.65 80.3778 248.95 80.2164Z" fill="white"/>
<path d="M248.95 70.6087L311.387 37.2478C312 36.915 312.505 37.0708 312.505 37.5876C312.455 37.9039 312.329 38.2056 312.135 38.4704C311.942 38.7352 311.686 38.9562 311.387 39.1169L248.95 72.4708C248.337 72.8035 247.832 72.6549 247.832 72.138C247.878 71.8206 248.003 71.5174 248.197 71.2521C248.391 70.9868 248.649 70.7666 248.95 70.6087Z" fill="white"/>
<path d="M275.438 200.718L302.287 195.854C302.456 195.828 302.63 195.851 302.785 195.92C302.939 195.989 303.067 196.101 303.151 196.239C303.235 196.378 303.27 196.537 303.253 196.695C303.235 196.852 303.165 197.001 303.053 197.121L284.845 216.181L275.438 200.718Z" fill="#FFA8A7"/>
<path d="M303.068 197.121C303.18 197.001 303.25 196.852 303.268 196.695C303.285 196.537 303.25 196.378 303.166 196.239C303.082 196.101 302.955 195.989 302.8 195.92C302.645 195.851 302.471 195.828 302.302 195.854L297.047 196.824C297.766 197.236 298.349 197.823 298.73 198.522C299.111 199.22 299.276 200.002 299.207 200.782V201.221L303.068 197.121Z" fill="#9F91F5"/>
<path d="M184.752 269.245L186.942 268.077L189.6 266.661L284.853 216.159C285.726 213.426 285.453 210.488 284.087 207.933C282.179 203.996 278.487 200.853 275.423 200.704L180.248 251.198L175.184 253.882C178.57 252.31 188.122 267.624 184.752 269.245Z" fill="#37474F"/>
<path d="M193.124 264.834L198.026 262.229C199.474 261.521 198.647 258.229 196.954 254.83C194.71 250.313 190.305 245.938 188.383 246.88L184.767 248.798L183.488 249.506C185.41 248.565 189.823 252.933 192.059 257.457C193.676 260.714 194.503 263.879 193.27 264.742C193.231 264.785 193.181 264.816 193.124 264.834Z" fill="#EBEBEB"/>
<path d="M194.342 264.176C197.705 262.526 188.076 247.184 184.706 248.841L179.796 251.432C183.158 249.789 192.818 265.118 189.424 266.767L194.342 264.176Z" fill="#9F91F5"/>
<path d="M184.752 269.245L189.6 266.682C192.917 265.082 183.756 250.214 180.248 251.198C180.177 251.211 180.11 251.235 180.048 251.269L175.184 253.882C178.57 252.31 188.122 267.624 184.752 269.245Z" fill="#EBEBEB"/>
<path opacity="0.15" d="M303.191 196.285L302.287 195.854L282.807 205.702L182.078 259.127C181.887 258.851 181.734 258.83 181.611 259.021C184.476 263.149 186.636 268.346 184.752 269.252L186.942 268.084L189.6 266.668L284.853 216.166L303.06 197.107C303.173 197 303.246 196.863 303.269 196.716C303.293 196.568 303.265 196.418 303.191 196.285Z" fill="black"/>
<path d="M164.169 280.127L184.752 269.245C186.192 268.537 185.395 265.295 183.733 261.917C181.504 257.393 177.115 252.975 175.184 253.882L154.518 264.792C150.412 266.98 154.188 275.207 158.761 278.888C160.462 280.297 162.392 280.913 164.169 280.127Z" fill="#F28F8F"/>
<path opacity="0.1" d="M165.395 274.23C164.215 269.939 160.462 265.734 157.007 264.834C156.5 264.669 155.957 264.617 155.424 264.685C154.891 264.753 154.383 264.938 153.943 265.224C150.879 267.879 154.456 275.426 158.784 278.909C160.446 280.269 162.308 280.878 164.085 280.163C165.602 279.327 166.222 277.132 165.395 274.23Z" fill="black"/>
</svg>
