<svg width="223" height="206" viewBox="0 0 223 206" fill="none" xmlns="http://www.w3.org/2000/svg">
<path d="M208.738 146.204C213.271 112.26 191.322 67.1404 168.561 48.5144C127.48 14.8764 93.35 21.3816 66.8072 33.4301C40.2644 45.4786 36.4648 85.6941 18.1394 103.892C-0.186077 122.09 -10.6214 146.565 17.194 170.934C45.0094 195.304 67.4375 182.916 96.5133 181.376C125.589 179.836 164.137 191.996 184.989 181.415C199.564 174.031 206.739 161.21 208.738 146.204Z" fill="#9F91F5"/>
<path opacity="0.7" d="M208.738 146.204C213.271 112.26 191.322 67.1404 168.561 48.5144C127.48 14.8764 93.35 21.3816 66.8072 33.4301C40.2644 45.4786 36.4648 85.6941 18.1394 103.892C-0.186077 122.09 -10.6214 146.565 17.194 170.934C45.0094 195.304 67.4375 182.916 96.5133 181.376C125.589 179.836 164.137 191.996 184.989 181.415C199.564 174.031 206.739 161.21 208.738 146.204Z" fill="white"/>
<path d="M93.6895 145.008V19.9416" stroke="#263238" stroke-linecap="round" stroke-linejoin="round"/>
<path d="M5.08008 146.248H91.0654L221.701 184.935" stroke="#263238" stroke-linecap="round" stroke-linejoin="round"/>
<path d="M44.2336 143.312H38.2948V53.207H50.5541L45.2638 35.6875H29.3866L24.0962 53.207H36.3556V143.312H30.3986C28.8754 143.314 27.4135 143.863 26.3269 144.842C25.2403 145.821 24.6156 147.153 24.5871 148.55C24.5871 148.55 24.5871 148.578 24.5871 148.589C24.5871 148.589 24.5871 148.622 24.5871 148.633C24.7628 149.89 30.3865 150.902 37.3131 150.902C44.2396 150.902 49.8633 149.89 50.0391 148.633C50.0343 147.223 49.4209 145.871 48.333 144.874C47.2451 143.877 45.7712 143.315 44.2336 143.312Z" fill="#263238"/>
<path d="M123.371 13.7422V119.838L210.435 132.982V0.59832L123.371 13.7422ZM208.175 44.122L163.937 46.4238V9.56104L208.175 3.10032V44.122ZM163.937 50.2992L208.175 48.4366V85.4995L163.937 83.6036V50.2992ZM160.349 83.4479L124.832 81.93V51.9449L160.319 50.4548L160.349 83.4479ZM160.349 10.0837V46.624L124.832 48.4532V15.2656L160.349 10.0837ZM124.832 85.4217L160.319 87.2954V123.497L124.832 118.315V85.4217ZM163.906 124.019V87.4844L208.144 89.8196V130.48L163.906 124.019Z" fill="#263238" stroke="#263238" stroke-linecap="round" stroke-linejoin="round"/>
<path d="M93.3443 197.828C131.816 197.828 163.004 188.914 163.004 177.918C163.004 166.922 131.816 158.007 93.3443 158.007C54.8723 158.007 23.6846 166.922 23.6846 177.918C23.6846 188.914 54.8723 197.828 93.3443 197.828Z" fill="#9F91F5"/>
<path opacity="0.5" d="M93.3443 197.828C131.816 197.828 163.004 188.914 163.004 177.918C163.004 166.922 131.816 158.007 93.3443 158.007C54.8723 158.007 23.6846 166.922 23.6846 177.918C23.6846 188.914 54.8723 197.828 93.3443 197.828Z" fill="white"/>
<path d="M87.4603 90.1254C87.4603 90.1254 71.674 88.4074 61.2871 95.8411C50.9003 103.275 41.9679 134.339 42.1739 149.217C42.3799 164.096 48.4096 171.518 63.5718 177.612C78.7339 183.706 106.98 181.426 122.766 176.85C138.552 172.274 143.746 156.278 143.54 147.694C143.333 139.109 132.947 129.207 129.414 127.122C125.881 125.037 115.912 120.644 110.931 113.778C105.949 106.911 98.6713 92.0325 87.4603 90.1254Z" fill="#9F91F5"/>
<path opacity="0.13" d="M125.663 175.822C119.693 175.082 112.615 173.598 107.258 170.612C95.9443 164.313 93.1203 152.447 89.0783 147.999C85.0363 143.551 77.7643 143.924 74.5343 139.103C71.3043 134.283 76.5523 98.7045 67.2623 96.4805C65.3771 95.9809 63.4252 95.7246 61.4629 95.7188C61.4083 95.7633 61.3417 95.7967 61.2871 95.8411C50.9003 103.275 41.9679 134.339 42.1739 149.217C42.3799 164.096 48.4096 171.518 63.5718 177.612C78.7339 183.706 106.98 181.426 122.766 176.85C123.754 176.563 124.721 176.22 125.663 175.822Z" fill="black"/>
<path d="M87.4603 90.1254C87.4603 90.1254 71.674 88.4074 61.2871 95.8411C50.9003 103.275 41.9679 134.339 42.1739 149.217C42.3799 164.096 48.4096 171.518 63.5718 177.612C78.7339 183.706 106.98 181.426 122.766 176.85C138.552 172.274 143.746 156.278 143.54 147.694C143.333 139.109 132.947 129.207 129.414 127.122C125.881 125.037 115.912 120.644 110.931 113.778C105.949 106.911 98.6713 92.0325 87.4603 90.1254Z" stroke="#263238" stroke-linecap="round" stroke-linejoin="round"/>
<path d="M81.2425 96.8419C81.2425 96.8419 70.9405 98.6489 69.1225 100.317C67.3045 101.985 59.7295 128.117 59.7295 128.117C61.8355 127.646 64.0447 127.743 66.0925 128.395C69.1225 129.507 69.4255 132.426 69.7285 133.816C69.9717 135.476 70.1234 137.146 70.183 138.82C70.183 138.82 100.804 136.312 107.319 134.928C113.833 133.544 123.747 132.899 123.747 132.899C123.747 132.899 106.997 98.2375 104.422 96.9865C101.846 95.7355 91.09 95.5965 89.575 95.8745C88.06 96.1525 81.2425 96.8419 81.2425 96.8419Z" fill="#263238" stroke="#263238" stroke-linecap="round" stroke-linejoin="round"/>
<path d="M71.0923 128.951L73.6678 109.63" stroke="white" stroke-linecap="round" stroke-linejoin="round"/>
<path d="M73.0615 114.773L76.546 110.603" stroke="white" stroke-linecap="round" stroke-linejoin="round"/>
<path d="M83.5151 117.275C83.5151 117.275 93.3626 114.356 99.8771 114.356" stroke="white" stroke-linecap="round" stroke-linejoin="round"/>
<path d="M92.8109 109.307L92.1504 113.939C92.1504 113.939 93.8169 113.939 93.9684 114.634C93.9788 114.892 93.9302 115.148 93.8259 115.388C93.7215 115.627 93.5636 115.844 93.3624 116.024C93.3624 116.024 98.0589 118.387 98.6649 121.167" stroke="white" stroke-linecap="round" stroke-linejoin="round"/>
<path d="M86.8965 91.66C86.8965 91.66 81.2425 93.328 80.4305 94.6235C79.6184 95.919 80.2305 105.004 80.2305 106.116C80.2305 107.228 80.9395 105.465 81.5455 104.17C82.1515 102.875 84.2725 100.923 84.9755 101.112C85.6784 101.301 86.0905 102.035 86.0905 103.241C86.0905 104.448 87.7025 106.116 89.1205 107.039C90.5386 107.962 91.8475 108.896 91.8475 108.896C91.8475 108.896 94.7745 105.004 95.4835 103.981C96.1925 102.958 96.0895 100.834 96.1865 100.089C96.2834 99.3439 98.1075 102.129 98.5135 101.39C98.9195 100.651 97.6045 100 96.1865 97.9595C94.7684 95.919 95.1805 93.7895 93.0595 92.305C90.9385 90.8204 88.5145 91.2819 86.8965 91.66Z" fill="white"/>
<path d="M80.4307 94.6179C79.8974 95.4853 79.9823 99.811 80.1035 102.958C81.3942 101.434 84.0546 98.5544 85.5938 99.0993C87.5573 99.7943 88.3087 104.915 88.3087 104.915L86.9816 91.66H86.8967C86.8967 91.66 81.2427 93.328 80.4307 94.6179Z" fill="#9F91F5"/>
<path opacity="0.5" d="M80.4307 94.6179C79.8974 95.4853 79.9823 99.811 80.1035 102.958C81.3942 101.434 84.0546 98.5544 85.5938 99.0993C87.5573 99.7943 88.3087 104.915 88.3087 104.915L86.9816 91.66H86.8967C86.8967 91.66 81.2427 93.328 80.4307 94.6179Z" fill="white"/>
<path d="M86.8965 91.66C86.8965 91.66 81.2425 93.328 80.4305 94.6235C79.6184 95.919 80.2305 105.004 80.2305 106.116C80.2305 107.228 80.9395 105.465 81.5455 104.17C82.1515 102.875 84.2725 100.923 84.9755 101.112C85.6784 101.301 86.0905 102.035 86.0905 103.241C86.0905 104.448 87.7025 106.116 89.1205 107.039C90.5386 107.962 91.8475 108.896 91.8475 108.896C91.8475 108.896 94.7745 105.004 95.4835 103.981C96.1925 102.958 96.0895 100.834 96.1865 100.089C96.2834 99.3439 98.1075 102.129 98.5135 101.39C98.9195 100.651 97.6045 100 96.1865 97.9595C94.7684 95.919 95.1805 93.7895 93.0595 92.305C90.9385 90.8204 88.5145 91.2819 86.8965 91.66Z" stroke="#263238" stroke-linecap="round" stroke-linejoin="round"/>
<path d="M73.5161 129.229C73.5161 129.229 70.0316 124.642 65.7896 124.225C61.5476 123.808 56.3966 127.005 56.2451 128.117C56.0936 129.229 55.0331 135.206 55.7906 136.04C56.5481 136.874 59.4266 137.569 65.0321 135.901C70.6376 134.233 72.9101 132.148 73.5161 129.229Z" fill="white"/>
<path d="M59.3418 135.895C59.3418 135.895 58.1298 132.715 58.7358 131.609C59.3418 130.502 61.7658 128.829 63.2626 127.161C64.7594 125.493 59.7296 128.1 59.4872 127.161C59.2993 126.404 62.1475 124.892 63.2686 124.331C59.7417 124.953 56.3663 127.205 56.2451 128.1C56.0936 129.212 55.0331 135.189 55.7906 136.023C56.1784 136.451 57.142 136.846 58.7479 136.896C59.1115 136.323 59.3418 135.895 59.3418 135.895Z" fill="#9F91F5"/>
<path opacity="0.5" d="M59.3418 135.895C59.3418 135.895 58.1298 132.715 58.7358 131.609C59.3418 130.502 61.7658 128.829 63.2626 127.161C64.7594 125.493 59.7296 128.1 59.4872 127.161C59.2993 126.404 62.1475 124.892 63.2686 124.331C59.7417 124.953 56.3663 127.205 56.2451 128.1C56.0936 129.212 55.0331 135.189 55.7906 136.023C56.1784 136.451 57.142 136.846 58.7479 136.896C59.1115 136.323 59.3418 135.895 59.3418 135.895Z" fill="white"/>
<path d="M73.5161 129.229C73.5161 129.229 70.0316 124.642 65.7896 124.225C61.5476 123.808 56.3966 127.005 56.2451 128.117C56.0936 129.229 55.0331 135.206 55.7906 136.04C56.5481 136.874 59.4266 137.569 65.0321 135.901C70.6376 134.233 72.9101 132.148 73.5161 129.229Z" stroke="#263238" stroke-linecap="round" stroke-linejoin="round"/>
<path d="M61.699 130.48C61.699 130.48 56.0147 132.548 55.7905 136.596C55.6632 138.82 59.7295 139.793 63.9715 139.793C68.2135 139.793 74.2735 134.928 78.2125 132.843C82.1515 130.758 91.2415 125.893 92.302 125.476C93.3625 125.059 96.9985 126.171 98.5135 126.588C99.9573 126.872 101.43 127.012 102.907 127.005C102.907 127.005 105.028 130.063 106.089 130.063C107.149 130.063 103.816 125.476 103.361 124.503C102.907 123.53 95.4835 121.306 94.5745 121.306C93.6655 121.306 72.4555 126.171 69.274 127.283C66.0925 128.395 61.699 130.48 61.699 130.48Z" fill="white"/>
<path d="M73.5827 129.902C82.2424 125.926 94.5745 121.306 94.5745 121.306C93.6655 121.306 72.4555 126.171 69.274 127.283C66.0925 128.395 61.699 130.48 61.699 130.48C61.699 130.48 56.0147 132.548 55.7905 136.596C55.6632 138.82 59.7295 139.793 63.9715 139.793C68.2135 139.793 74.2735 134.928 78.2125 132.843L80.6001 131.575C74.8128 132.248 67.0742 132.882 73.5827 129.902Z" fill="#9F91F5"/>
<path opacity="0.5" d="M73.5827 129.902C82.2424 125.926 94.5745 121.306 94.5745 121.306C93.6655 121.306 72.4555 126.171 69.274 127.283C66.0925 128.395 61.699 130.48 61.699 130.48C61.699 130.48 56.0147 132.548 55.7905 136.596C55.6632 138.82 59.7295 139.793 63.9715 139.793C68.2135 139.793 74.2735 134.928 78.2125 132.843L80.6001 131.575C74.8128 132.248 67.0742 132.882 73.5827 129.902Z" fill="white"/>
<path d="M61.699 130.48C61.699 130.48 56.0147 132.548 55.7905 136.596C55.6632 138.82 59.7295 139.793 63.9715 139.793C68.2135 139.793 74.2735 134.928 78.2125 132.843C82.1515 130.758 91.2415 125.893 92.302 125.476C93.3625 125.059 96.9985 126.171 98.5135 126.588C99.9573 126.872 101.43 127.012 102.907 127.005C102.907 127.005 105.028 130.063 106.089 130.063C107.149 130.063 103.816 125.476 103.362 124.503C102.907 123.53 95.4835 121.306 94.5745 121.306C93.6655 121.306 72.4555 126.171 69.274 127.283C66.0925 128.395 61.699 130.48 61.699 130.48Z" stroke="#263238" stroke-linecap="round" stroke-linejoin="round"/>
<path d="M106.01 99.5663L101.392 123.391L134.722 123.53L139.679 100.934C139.72 100.735 139.714 100.53 139.661 100.333C139.607 100.136 139.508 99.9517 139.37 99.7932C139.232 99.6348 139.058 99.5056 138.86 99.4146C138.663 99.3236 138.446 99.273 138.225 99.2661L107.561 98.421C107.196 98.4101 106.839 98.5196 106.554 98.7298C106.269 98.9399 106.076 99.2367 106.01 99.5663Z" fill="white" stroke="#263238" stroke-linecap="round" stroke-linejoin="round"/>
<path d="M101.392 123.391L85.1636 133.922L122.281 132.949L134.722 123.53L101.392 123.391Z" fill="white"/>
<path d="M101.392 123.391L85.1636 133.922L122.281 132.949L134.722 123.53L101.392 123.391Z" fill="#9F91F5"/>
<path opacity="0.5" d="M101.392 123.391L85.1636 133.922L122.281 132.949L134.722 123.53L101.392 123.391Z" fill="white"/>
<path d="M101.392 123.391L85.1636 133.922L122.281 132.949L134.722 123.53L101.392 123.391Z" stroke="#263238" stroke-linecap="round" stroke-linejoin="round"/>
<path d="M113.664 133.816C113.664 133.816 126.996 123.113 140.176 119.499C153.357 115.885 156.084 116.441 155.781 121.862C155.478 127.283 149.115 155.639 144.873 162.867C140.631 170.095 135.328 183.3 135.48 185.802C135.631 188.304 140.782 195.671 145.327 198.312C149.872 200.953 149.418 204.15 146.539 204.706C143.661 205.262 140.328 206.235 130.48 200.397C120.633 194.559 116.542 186.219 117.148 184.134C117.754 182.049 124.117 179.269 126.693 175.099C129.268 170.929 133.51 155.361 133.813 148.272C134.059 143.796 135.082 139.386 136.843 135.206C136.843 135.206 120.178 137.986 115.33 140.766L113.664 133.816Z" fill="white"/>
<path d="M113.664 133.816C113.664 133.816 126.996 123.113 140.176 119.499C153.357 115.885 156.084 116.441 155.781 121.862C155.478 127.283 149.115 155.639 144.873 162.867C140.631 170.095 135.328 183.3 135.48 185.802C135.631 188.304 140.782 195.671 145.327 198.312C149.872 200.953 149.418 204.15 146.539 204.706C143.661 205.262 140.328 206.235 130.48 200.397C120.633 194.559 116.542 186.219 117.148 184.134C117.754 182.049 124.117 179.269 126.693 175.099C129.268 170.929 133.51 155.361 133.813 148.272C134.059 143.796 135.082 139.386 136.843 135.206C136.843 135.206 120.178 137.986 115.33 140.766L113.664 133.816Z" fill="#9F91F5"/>
<path opacity="0.5" d="M113.664 133.816C113.664 133.816 126.996 123.113 140.176 119.499C153.357 115.885 156.084 116.441 155.781 121.862C155.478 127.283 149.115 155.639 144.873 162.867C140.631 170.095 135.328 183.3 135.48 185.802C135.631 188.304 140.782 195.671 145.327 198.312C149.872 200.953 149.418 204.15 146.539 204.706C143.661 205.262 140.328 206.235 130.48 200.397C120.633 194.559 116.542 186.219 117.148 184.134C117.754 182.049 124.117 179.269 126.693 175.099C129.268 170.929 133.51 155.361 133.813 148.272C134.059 143.796 135.082 139.386 136.843 135.206C136.843 135.206 120.178 137.986 115.33 140.766L113.664 133.816Z" fill="white"/>
<path d="M113.664 133.816C113.664 133.816 126.996 123.113 140.176 119.499C153.357 115.885 156.084 116.441 155.781 121.862C155.478 127.283 149.115 155.639 144.873 162.867C140.631 170.095 135.328 183.3 135.48 185.802C135.631 188.304 140.782 195.671 145.327 198.312C149.872 200.953 149.418 204.15 146.539 204.706C143.661 205.262 140.328 206.235 130.48 200.397C120.633 194.559 116.542 186.219 117.148 184.134C117.754 182.049 124.117 179.269 126.693 175.099C129.268 170.929 133.51 155.361 133.813 148.272C134.059 143.796 135.082 139.386 136.843 135.206C136.843 135.206 120.178 137.986 115.33 140.766L113.664 133.816Z" stroke="#263238" stroke-linecap="round" stroke-linejoin="round"/>
<path d="M126.693 175.099C126.499 175.41 126.28 175.711 126.05 176.011C129.184 176.282 132.155 177.418 134.571 179.269C135.297 179.848 135.989 180.462 136.643 181.109C138.843 174.834 141.595 168.733 144.873 162.867C149.115 155.639 155.478 127.283 155.781 121.862C156.084 116.441 153.357 115.885 140.176 119.499C126.996 123.113 113.664 133.816 113.664 133.816L115.33 140.766C120.178 137.986 136.843 135.206 136.843 135.206C135.082 139.386 134.059 143.796 133.813 148.272C133.51 155.361 129.268 170.929 126.693 175.099Z" fill="white" stroke="#263238" stroke-linecap="round" stroke-linejoin="round"/>
<path d="M126.693 175.099C126.499 175.41 126.28 175.711 126.05 176.011C129.184 176.282 132.155 177.418 134.571 179.269C135.297 179.848 135.989 180.462 136.643 181.109C139.546 177.529 142.812 166.236 146.497 161.588C156.017 149.584 155.478 127.283 155.781 121.862C156.084 116.441 153.357 115.885 140.176 119.499C126.996 123.113 113.664 133.816 113.664 133.816L115.33 140.766C120.178 137.986 136.843 135.206 136.843 135.206C135.082 139.386 134.059 143.796 133.813 148.272C133.51 155.361 129.268 170.929 126.693 175.099Z" fill="#263238"/>
<path opacity="0.53" d="M126.693 175.099C126.499 175.41 126.28 175.711 126.05 176.011C129.184 176.282 132.155 177.418 134.571 179.269C135.297 179.848 135.989 180.462 136.643 181.109C139.546 177.529 142.812 166.236 146.497 161.588C156.017 149.584 155.478 127.283 155.781 121.862C156.084 116.441 153.357 115.885 140.176 119.499C126.996 123.113 113.664 133.816 113.664 133.816L115.33 140.766C120.178 137.986 136.843 135.206 136.843 135.206C135.082 139.386 134.059 143.796 133.813 148.272C133.51 155.361 129.268 170.929 126.693 175.099Z" fill="white"/>
<path opacity="0.14" d="M149.375 121.128C149.139 119.154 125.705 128.256 115.821 132.181C114.451 133.182 113.664 133.816 113.664 133.816L115.33 140.766C120.178 137.986 136.843 135.206 136.843 135.206C135.082 139.386 134.059 143.796 133.813 148.272C133.51 155.361 129.268 170.929 126.693 175.099C126.499 175.41 126.28 175.711 126.05 176.011C127.719 176.175 129.352 176.563 130.898 177.162C134.528 170.056 138.437 161.788 140.285 155.322C143.618 143.646 149.678 123.63 149.375 121.128Z" fill="black"/>
<path d="M136.843 135.206C136.843 135.206 141.388 126.727 145.327 123.252" stroke="#263238" stroke-linecap="round" stroke-linejoin="round"/>
<path d="M126.693 175.099C126.499 175.41 126.28 175.711 126.05 176.011C129.184 176.282 132.155 177.418 134.571 179.269C135.297 179.848 135.989 180.462 136.643 181.109C139.546 177.529 142.812 166.236 146.497 161.588C156.017 149.584 155.478 127.283 155.781 121.862C156.084 116.441 153.357 115.885 140.176 119.499C126.996 123.113 113.664 133.816 113.664 133.816L115.33 140.766C120.178 137.986 136.843 135.206 136.843 135.206C135.082 139.386 134.059 143.796 133.813 148.272C133.51 155.361 129.268 170.929 126.693 175.099Z" stroke="#263238" stroke-linecap="round" stroke-linejoin="round"/>
<path d="M93.6901 145.036C98.5702 144.832 103.395 143.999 108.022 142.562C114.876 140.271 102.41 136.079 97.6352 138.37C96.3009 138.963 95.2028 139.926 94.4952 141.121C93.7876 142.317 93.5061 143.686 93.6901 145.036Z" fill="#263238" stroke="#263238" stroke-linecap="round" stroke-linejoin="round"/>
<path d="M73.9707 136.04C73.9707 136.04 69.1227 138.542 67.4562 141.322C65.7897 144.102 72.9587 148.733 80.5337 148.455C88.1087 148.177 101.998 140.627 101.998 140.627C101.998 140.627 102.15 152.859 104.725 157.307C107.301 161.755 119.118 172.597 123.814 175.377C128.511 178.157 144.267 188.582 146.691 190.25C149.115 191.918 153.66 194.976 154.72 195.115C155.781 195.254 166.84 182.883 169.416 178.713C171.991 174.543 174.264 165.786 173.355 163.84C172.446 161.894 170.628 163.562 168.81 164.952C166.992 166.342 150.327 176.489 148.812 177.184C147.984 177.574 147.123 177.899 146.236 178.157C146.236 178.157 132.601 166.203 125.329 157.029C118.057 147.855 117.451 136.04 114.724 131.592C111.997 127.144 108.058 125.198 102.15 125.754C96.2412 126.31 83.9697 129.229 73.9707 136.04Z" fill="white"/>
<path d="M138.073 184.512C142.121 187.17 145.642 189.516 146.691 190.239C149.115 191.907 153.66 194.965 154.72 195.104C155.096 195.154 156.732 193.625 158.798 191.451L141.449 181.209L138.073 184.512Z" fill="#9F91F5"/>
<path opacity="0.5" d="M138.073 184.512C142.121 187.17 145.642 189.516 146.691 190.239C149.115 191.907 153.66 194.965 154.72 195.104C155.096 195.154 156.732 193.625 158.798 191.451L141.449 181.209L138.073 184.512Z" fill="white"/>
<path d="M73.9707 136.04C73.9707 136.04 69.1227 138.542 67.4562 141.322C65.7897 144.102 72.9587 148.733 80.5337 148.455C88.1087 148.177 101.998 140.627 101.998 140.627C101.998 140.627 102.15 152.859 104.725 157.307C107.301 161.755 119.118 172.597 123.814 175.377C128.511 178.157 144.267 188.582 146.691 190.25C149.115 191.918 153.66 194.976 154.72 195.115C155.781 195.254 166.84 182.883 169.416 178.713C171.991 174.543 174.264 165.786 173.355 163.84C172.446 161.894 170.628 163.562 168.81 164.952C166.992 166.342 150.327 176.489 148.812 177.184C147.984 177.574 147.123 177.899 146.236 178.157C146.236 178.157 132.601 166.203 125.329 157.029C118.057 147.855 117.451 136.04 114.724 131.592C111.997 127.144 108.058 125.198 102.15 125.754C96.2412 126.31 83.9697 129.229 73.9707 136.04Z" stroke="#263238" stroke-linecap="round" stroke-linejoin="round"/>
<path d="M145.297 177.323C142.091 174.454 130.074 159.659 125.329 151.152C118.378 138.686 117.627 134.439 114.9 129.991C112.173 125.543 108.058 125.198 102.174 125.754C96.2895 126.31 85.6906 127.316 72.7222 134.066C72.7222 134.066 67.2682 136.779 65.6077 139.559C63.9473 142.339 70.0134 149.339 80.5578 148.455C88.1085 147.822 102.022 140.627 102.022 140.627C102.022 140.627 102.174 152.859 104.749 157.307C107.325 161.755 119.142 172.597 123.838 175.377C126.814 177.139 134.237 181.977 139.891 185.702C141.285 181.048 143.788 178.502 145.297 177.323Z" fill="#263238"/>
<path opacity="0.53" d="M145.297 177.323C142.091 174.454 130.074 159.659 125.329 151.152C118.378 138.686 117.627 134.439 114.9 129.991C112.173 125.543 108.058 125.198 102.174 125.754C96.2895 126.31 85.6906 127.316 72.7222 134.066C72.7222 134.066 67.2682 136.779 65.6077 139.559C63.9473 142.339 70.0134 149.339 80.5578 148.455C88.1085 147.822 102.022 140.627 102.022 140.627C102.022 140.627 102.174 152.859 104.749 157.307C107.325 161.755 119.142 172.597 123.838 175.377C126.814 177.139 134.237 181.977 139.891 185.702C141.285 181.048 143.788 178.502 145.297 177.323Z" fill="white"/>
<path opacity="0.14" d="M114.833 157.546C110.288 146.982 113.015 125.854 100.289 128.634C91.0173 130.658 74.019 137.852 65.4805 141.605C66.4925 144.797 72.0677 149.167 80.5335 148.455C88.0843 147.822 101.998 140.627 101.998 140.627C101.998 140.627 102.15 152.859 104.725 157.307C107.301 161.755 119.118 172.597 123.814 175.377C126.789 177.139 134.213 181.977 139.867 185.702C140.354 184.075 141.064 182.511 141.982 181.048C130.698 173.392 117.372 163.445 114.833 157.546Z" fill="black"/>
<path d="M101.998 140.627L101.543 133.399" stroke="#263238" stroke-linecap="round" stroke-linejoin="round"/>
<path d="M145.297 177.323C142.091 174.454 130.074 159.659 125.329 151.152C118.378 138.686 117.627 134.439 114.9 129.991C112.173 125.543 108.058 125.198 102.174 125.754C96.2895 126.31 85.6906 127.316 72.7222 134.066C72.7222 134.066 67.2682 136.779 65.6077 139.559C63.9473 142.339 70.0134 149.339 80.5578 148.455C88.1085 147.822 102.022 140.627 102.022 140.627C102.022 140.627 102.174 152.859 104.749 157.307C107.325 161.755 119.142 172.597 123.838 175.377C126.814 177.139 134.237 181.977 139.891 185.702C141.285 181.048 143.788 178.502 145.297 177.323Z" stroke="#263238" stroke-linecap="round" stroke-linejoin="round"/>
<path d="M146.691 190.25C149.115 191.918 153.66 194.976 154.72 195.115C155.781 195.254 166.84 182.883 169.416 178.713C171.991 174.543 174.264 165.786 173.355 163.84C172.446 161.894 170.628 163.562 168.81 164.952C166.992 166.342 150.327 176.489 148.812 177.184C148.412 177.367 148.048 177.518 147.727 177.645C147.29 178.407 146.757 179.586 147.121 180.381C147.727 181.632 150.302 183.3 150.302 183.3L145.715 189.605L146.691 190.25Z" fill="#263238" stroke="#263238" stroke-linecap="round" stroke-linejoin="round"/>
<path d="M169.416 178.713C171.991 174.543 174.264 165.786 173.355 163.84C172.827 162.728 171.997 162.8 171.034 163.345C171.67 165.942 171.034 170.951 167.901 176.35C165.107 181.165 156.477 189.694 152.145 193.819C152.934 194.364 153.806 194.801 154.732 195.115C155.781 195.254 166.84 182.883 169.416 178.713Z" fill="white"/>
<path d="M154.872 195.076L155.005 195.015L155.041 194.987C155.115 194.949 155.184 194.904 155.247 194.854L155.32 194.798L155.496 194.665L155.593 194.581L155.829 194.381L155.975 194.253L156.175 194.075L156.344 193.92L156.514 193.764L156.944 193.347L157.017 193.28L157.284 193.013L157.393 192.908C157.708 192.591 158.047 192.246 158.399 191.879V191.851L158.774 191.462L156.126 189.9C154.623 191.401 153.223 192.758 152.108 193.819L152.514 194.064L152.575 194.097L152.951 194.314L153.557 194.631L153.726 194.72L153.896 194.804L154.09 194.893L154.217 194.948C154.278 194.976 154.341 195 154.405 195.02L154.496 195.054C154.566 195.08 154.639 195.099 154.714 195.109C154.752 195.118 154.792 195.118 154.829 195.109L154.872 195.076Z" fill="#9F91F5"/>
<path opacity="0.5" d="M154.872 195.076L155.005 195.015L155.041 194.987C155.115 194.949 155.184 194.904 155.247 194.854L155.32 194.798L155.496 194.665L155.593 194.581L155.829 194.381L155.975 194.253L156.175 194.075L156.344 193.92L156.514 193.764L156.944 193.347L157.017 193.28L157.284 193.013L157.393 192.908C157.708 192.591 158.047 192.246 158.399 191.879V191.851L158.774 191.462L156.126 189.9C154.623 191.401 153.223 192.758 152.108 193.819L152.514 194.064L152.575 194.097L152.951 194.314L153.557 194.631L153.726 194.72L153.896 194.804L154.09 194.893L154.217 194.948C154.278 194.976 154.341 195 154.405 195.02L154.496 195.054C154.566 195.08 154.639 195.099 154.714 195.109C154.752 195.118 154.792 195.118 154.829 195.109L154.872 195.076Z" fill="white"/>
<path d="M169.416 178.713C171.991 174.543 174.264 165.786 173.355 163.84C172.827 162.728 171.997 162.8 171.034 163.345C171.67 165.942 171.034 170.951 167.901 176.35C165.107 181.165 156.477 189.694 152.145 193.819C152.934 194.364 153.806 194.801 154.732 195.115C155.781 195.254 166.84 182.883 169.416 178.713Z" stroke="#263238" stroke-linecap="round" stroke-linejoin="round"/>
<path d="M145.327 198.312C140.782 195.671 135.631 188.304 135.48 185.802C135.473 185.528 135.497 185.254 135.553 184.985C134.648 185.011 133.775 185.297 133.056 185.802C131.191 184.249 129.217 182.81 127.147 181.493C125.481 180.612 123.613 180.1 121.693 179.997C119.494 181.665 117.451 183 117.13 184.134C116.524 186.219 120.615 194.559 130.462 200.397C140.31 206.235 143.643 205.262 146.521 204.706C149.4 204.15 149.872 200.953 145.327 198.312Z" fill="#263238" stroke="#263238" stroke-linecap="round" stroke-linejoin="round"/>
<path d="M145.327 198.312C143.821 197.375 142.463 196.253 141.291 194.976C138.164 193.753 133.989 192.196 130.329 190.105C126.39 187.881 127.299 186.491 125.026 184.406C123.281 182.805 119.851 182.599 118.36 182.588C117.822 183 117.405 183.53 117.148 184.128C116.542 186.213 120.633 194.553 130.48 200.391C140.328 206.229 143.661 205.256 146.539 204.7C149.418 204.144 149.872 200.953 145.327 198.312Z" fill="white"/>
<path d="M145.327 198.312C143.821 197.375 142.463 196.253 141.291 194.976C138.164 193.753 133.989 192.196 130.329 190.105C126.39 187.881 127.299 186.491 125.026 184.406C123.281 182.805 119.851 182.599 118.36 182.588C117.822 183 117.405 183.53 117.148 184.128C116.542 186.213 120.633 194.553 130.48 200.391C140.328 206.229 143.661 205.256 146.539 204.7C149.418 204.144 149.872 200.953 145.327 198.312Z" fill="#9F91F5"/>
<path opacity="0.5" d="M145.327 198.312C143.821 197.375 142.463 196.253 141.291 194.976C138.164 193.753 133.989 192.196 130.329 190.105C126.39 187.881 127.299 186.491 125.026 184.406C123.281 182.805 119.851 182.599 118.36 182.588C117.822 183 117.405 183.53 117.148 184.128C116.542 186.213 120.633 194.553 130.48 200.391C140.328 206.229 143.661 205.256 146.539 204.7C149.418 204.144 149.872 200.953 145.327 198.312Z" fill="white"/>
<path d="M145.327 198.312C143.821 197.375 142.463 196.253 141.291 194.976C138.164 193.753 133.989 192.196 130.329 190.105C126.39 187.881 127.299 186.491 125.026 184.406C123.281 182.805 119.851 182.599 118.36 182.588C117.822 183 117.405 183.53 117.148 184.128C116.542 186.213 120.633 194.553 130.48 200.391C140.328 206.229 143.661 205.256 146.539 204.7C149.418 204.144 149.872 200.953 145.327 198.312Z" stroke="#263238" stroke-linecap="round" stroke-linejoin="round"/>
<path d="M146.085 199.285C142.146 197.2 134.116 195.81 128.965 192.613C123.814 189.416 125.178 186.636 121.39 184.412C120.785 183.997 120.06 183.754 119.306 183.715C118.551 183.675 117.801 183.84 117.148 184.19C116.621 186.358 120.724 194.603 130.48 200.397C140.237 206.19 143.661 205.262 146.539 204.706C148.454 204.333 149.285 202.799 148.297 201.036C147.679 200.337 146.93 199.744 146.085 199.285Z" fill="#263238"/>
<path opacity="0.53" d="M146.085 199.285C142.146 197.2 134.116 195.81 128.965 192.613C123.814 189.416 125.178 186.636 121.39 184.412C120.785 183.997 120.06 183.754 119.306 183.715C118.551 183.675 117.801 183.84 117.148 184.19C116.621 186.358 120.724 194.603 130.48 200.397C140.237 206.19 143.661 205.262 146.539 204.706C148.454 204.333 149.285 202.799 148.297 201.036C147.679 200.337 146.93 199.744 146.085 199.285Z" fill="white"/>
<path d="M146.085 199.285C142.146 197.2 134.116 195.81 128.965 192.613C123.814 189.416 125.178 186.636 121.39 184.412C120.785 183.997 120.06 183.754 119.306 183.715C118.551 183.675 117.801 183.84 117.148 184.19C116.621 186.358 120.724 194.603 130.48 200.397C140.237 206.19 143.661 205.262 146.539 204.706C148.454 204.333 149.285 202.799 148.297 201.036C147.679 200.337 146.93 199.744 146.085 199.285V199.285Z" stroke="#263238" stroke-linecap="round" stroke-linejoin="round"/>
<path d="M70.5888 172.697C70.5888 172.697 73.4976 169.456 73.9097 171.935C74.3218 174.415 73.7037 178.985 71.6251 180.698C69.5465 182.41 68.5103 179.747 68.5103 179.747L69.7586 178.224C69.7586 178.224 70.7949 180.131 71.6251 177.078C72.4553 174.026 69.9647 174.409 69.9647 174.409L70.5888 172.697Z" fill="white" stroke="#263238" stroke-linecap="round" stroke-linejoin="round"/>
<path d="M68.365 184.896C66.6439 186.063 61.0324 186.063 59.3174 184.896C55.6814 182.421 56.2874 170.467 56.2874 170.467H71.3525C71.3525 170.467 72.007 182.421 68.365 184.896Z" fill="white" stroke="#263238" stroke-linecap="round" stroke-linejoin="round"/>
<path d="M57.936 168.121C57.936 166.62 59.4571 166.62 59.4571 165.113C59.4571 163.606 57.936 163.606 57.936 162.105C57.936 160.604 59.4571 160.598 59.4571 159.092C59.4571 157.585 57.936 157.585 57.936 156.078C57.936 154.571 59.4571 154.571 59.4571 153.065" stroke="#263238" stroke-linecap="round" stroke-linejoin="round"/>
<path d="M63.1416 168.121C63.1416 167.009 64.6627 167.009 64.6627 165.836C64.6627 164.663 63.1416 164.696 63.1416 163.551C63.1416 162.405 64.6627 162.411 64.6627 161.266C64.6627 160.12 63.1416 160.12 63.1416 158.975C63.1416 157.83 64.6627 157.835 64.6627 156.69" stroke="#263238" stroke-linecap="round" stroke-linejoin="round"/>
<path d="M68.8682 168.121C68.8682 166.62 70.3832 166.62 70.3832 165.113C70.3832 163.606 68.8682 163.606 68.8682 162.105C68.8682 160.604 70.3832 160.598 70.3832 159.092C70.3832 157.585 68.8682 157.585 68.8682 156.078C68.8682 154.571 70.3832 154.571 70.3832 153.065" stroke="#263238" stroke-linecap="round" stroke-linejoin="round"/>
<path d="M71.365 170.467C71.365 170.818 67.9956 171.096 63.8324 171.096C59.6692 171.096 56.2998 170.818 56.2998 170.467C56.2998 170.117 59.6692 169.839 63.8324 169.839C67.9956 169.839 71.365 170.117 71.365 170.467Z" fill="white" stroke="#263238" stroke-linecap="round" stroke-linejoin="round"/>
<path d="M85.2725 84.432C85.2725 84.432 85.9815 91.4543 86.2784 93.6727C86.5754 95.8912 87.248 102.263 87.9449 104.37C88.6418 106.477 92.4414 110.141 92.7929 109.296C93.1444 108.451 95.0351 102.719 94.2837 99.2883C93.5322 95.8578 93.302 92.9277 93.7686 92.0603C94.2352 91.193 95.9138 90.22 95.9138 90.22C93.9586 89.3012 92.059 88.2859 90.2235 87.1786C87.545 85.544 85.6482 83.6925 85.2725 84.432Z" fill="white"/>
<path d="M94.9988 90.598L94.3928 89.5194C93.2778 88.9634 91.7264 88.1405 90.2539 87.2342C87.5572 85.5662 85.6604 83.6925 85.2847 84.4542C85.2847 84.4542 85.9937 91.4765 86.2906 93.695C86.5876 95.9134 87.2602 102.285 87.9571 104.392C88.1949 105.009 88.5231 105.592 88.9328 106.127C88.1995 101.935 88.9934 94.3622 88.9934 94.3622L94.9988 90.598Z" fill="#9F91F5"/>
<path opacity="0.5" d="M94.9988 90.598L94.3928 89.5194C93.2778 88.9634 91.7264 88.1405 90.2539 87.2342C87.5572 85.5662 85.6604 83.6925 85.2847 84.4542C85.2847 84.4542 85.9937 91.4765 86.2906 93.695C86.5876 95.9134 87.2602 102.285 87.9571 104.392C88.1949 105.009 88.5231 105.592 88.9328 106.127C88.1995 101.935 88.9934 94.3622 88.9934 94.3622L94.9988 90.598Z" fill="white"/>
<path d="M85.2725 84.432C85.2725 84.432 85.9815 91.4543 86.2784 93.6727C86.5754 95.8912 87.248 102.263 87.9449 104.37C88.6418 106.477 92.4414 110.141 92.7929 109.296C93.1444 108.451 95.0351 102.719 94.2837 99.2883C93.5322 95.8578 93.302 92.9277 93.7686 92.0603C94.2352 91.193 95.9138 90.22 95.9138 90.22C93.9586 89.3012 92.059 88.2859 90.2235 87.1786C87.545 85.544 85.6482 83.6925 85.2725 84.432Z" stroke="#263238" stroke-linecap="round" stroke-linejoin="round"/>
<path d="M84.9935 85.4495C84.9935 85.4495 89.3567 88.7855 92.7018 90.0087C96.0469 91.2319 101.186 91.154 101.919 89.5583C102.652 87.9626 100.646 75.3247 98.9194 71.9998C97.1923 68.675 95.3501 68.6194 92.3019 68.3636C89.2537 68.1078 83.1573 70.3874 82.0847 73.0896C81.0121 75.7918 82.2362 79.617 83.121 81.8855C83.5888 83.1375 84.2174 84.3339 84.9935 85.4495Z" fill="white"/>
<path d="M92.8292 85.2994C91.2839 81.096 90.8961 74.4796 90.8961 72.7171C90.8961 71.3549 94.7623 69.8593 96.5258 69.2477C95.3683 68.5916 94.023 68.5082 92.2838 68.3636C89.2538 68.1134 83.1393 70.3875 82.0666 73.0896C80.994 75.7918 82.2182 79.6171 83.1029 81.8855C83.5708 83.1375 84.1994 84.3339 84.9754 85.4495C84.9754 85.4495 89.3386 88.7855 92.6838 90.0087C95.0021 90.8136 97.513 91.0344 99.9558 90.6481C97.5621 89.8197 93.8594 88.1072 92.8292 85.2994Z" fill="#9F91F5"/>
<path opacity="0.5" d="M92.8292 85.2994C91.2839 81.096 90.8961 74.4796 90.8961 72.7171C90.8961 71.3549 94.7623 69.8593 96.5258 69.2477C95.3683 68.5916 94.023 68.5082 92.2838 68.3636C89.2538 68.1134 83.1393 70.3875 82.0666 73.0896C80.994 75.7918 82.2182 79.6171 83.1029 81.8855C83.5708 83.1375 84.1994 84.3339 84.9754 85.4495C84.9754 85.4495 89.3386 88.7855 92.6838 90.0087C95.0021 90.8136 97.513 91.0344 99.9558 90.6481C97.5621 89.8197 93.8594 88.1072 92.8292 85.2994Z" fill="white"/>
<path d="M84.9935 85.4495C84.9935 85.4495 89.3567 88.7855 92.7018 90.0087C96.0469 91.2319 101.186 91.154 101.919 89.5583C102.652 87.9626 100.646 75.3247 98.9194 71.9998C97.1923 68.675 95.3501 68.6194 92.3019 68.3636C89.2537 68.1078 83.1573 70.3874 82.0847 73.0896C81.0121 75.7918 82.2362 79.617 83.121 81.8855C83.5888 83.1375 84.2174 84.3339 84.9935 85.4495V85.4495Z" stroke="#263238" stroke-linecap="round" stroke-linejoin="round"/>
<path d="M99.2469 77.204C99.3197 78.8053 98.2228 80.1452 96.8229 80.1953C95.4231 80.2453 94.199 78.9943 94.1323 77.4153C94.0656 75.8362 95.1564 74.474 96.5563 74.4184C97.9562 74.3628 99.1803 75.586 99.2469 77.204Z" stroke="#263238" stroke-linecap="round" stroke-linejoin="round"/>
<path d="M102.677 76.5813C102.75 78.1826 102.186 79.5003 101.422 79.5281C100.659 79.5559 99.9802 78.2826 99.9136 76.6814C99.8469 75.0801 100.41 73.7568 101.174 73.729C101.938 73.7012 102.61 74.98 102.677 76.5813Z" stroke="#263238" stroke-linecap="round" stroke-linejoin="round"/>
<path d="M99.4287 76.6146C99.4287 76.6146 104.434 77.4876 103.949 78.594C103.465 79.7004 100.083 80.8958 100.083 80.8958" fill="white"/>
<path d="M99.4287 76.6146C99.4287 76.6146 104.434 77.4876 103.949 78.594C103.465 79.7004 100.083 80.8958 100.083 80.8958" stroke="#263238" stroke-linecap="round" stroke-linejoin="round"/>
<path d="M99.1196 76.092C99.1196 76.092 99.1923 75.536 99.962 75.8863" stroke="#263238" stroke-linecap="round" stroke-linejoin="round"/>
<path d="M93.9747 77.6377L84.8726 80.9237" stroke="#263238" stroke-linecap="round" stroke-linejoin="round"/>
<path d="M94.0957 74.9355C94.2874 74.538 94.6076 74.2043 95.0131 73.9795C95.4185 73.7547 95.8895 73.6498 96.3622 73.679" stroke="#263238" stroke-width="2" stroke-linecap="round" stroke-linejoin="round"/>
<path d="M100.156 73.7179L98.7559 74.2016" stroke="#263238" stroke-width="2" stroke-linecap="round" stroke-linejoin="round"/>
<path d="M95.8291 83.042C95.8291 83.042 97.6471 82.6083 98.6773 83.598" stroke="#263238" stroke-linecap="round" stroke-linejoin="round"/>
<path d="M96.9988 77.4931C97.0836 78.0491 96.9988 78.5273 96.7503 78.5551C96.5018 78.5829 96.2837 78.1548 96.1988 77.5932C96.114 77.0316 96.2291 76.5646 96.4534 76.5368C96.6776 76.509 96.92 76.9371 96.9988 77.4931Z" fill="#263238"/>
<path d="M85.7211 80.9459C85.7211 80.9459 85.1151 82.0579 86.824 82.1135C88.5329 82.1691 89.6965 81.4074 88.8662 80.4455C88.036 79.4836 86.8058 78.5829 88.0724 77.3263C89.3389 76.0698 91.7993 75.0134 90.4176 73.6122C89.0359 72.2111 83.9516 73.4844 85.2242 72.3501C86.4968 71.2159 92.375 70.0316 95.0171 70.1817C97.6593 70.3318 102.592 68.4526 103.677 65.995C104.762 63.5375 103.247 58.995 99.6955 59.2396C96.1443 59.4843 93.4961 62.3699 91.9205 62.5756C90.3449 62.7814 87.1149 61.1745 84.4061 62.5756C81.6973 63.9768 81.6064 68.0022 81.3761 68.497C81.1458 68.9919 77.4734 69.7258 76.825 73.1341C76.5816 74.5082 76.6856 75.9152 77.129 77.2465C77.5725 78.5779 78.3434 79.7979 79.3823 80.8124C80.9034 82.3303 81.5882 82.9086 81.5882 82.9086L85.7211 80.9459Z" fill="#263238" stroke="#263238" stroke-linecap="round" stroke-linejoin="round"/>
<path d="M78.0128 74.7854C77.9812 75.3026 78.1161 75.817 78.4007 76.2644" stroke="white" stroke-width="0.75" stroke-linecap="round" stroke-linejoin="round"/>
<path d="M93.4595 65.9839C93.4595 65.9839 92.1384 63.3318 95.5078 63.3318C98.8771 63.3318 99.362 67.2238 95.8714 68.6361C92.3808 70.0483 84.7876 70.4041 80.6911 72.0666C79.8871 72.3553 79.1717 72.819 78.6064 73.4177" stroke="white" stroke-width="0.75" stroke-linecap="round" stroke-linejoin="round"/>
<path d="M87.3574 75.4026C86.1454 75.8029 84.5759 76.3589 82.9821 77.0372C79.6067 78.4772 80.3278 79.9117 80.3278 79.9117" stroke="white" stroke-width="0.75" stroke-linecap="round" stroke-linejoin="round"/>
<path d="M89.6056 74.7187C89.6056 74.7187 89.3087 74.7965 88.8057 74.9466" stroke="white" stroke-width="0.75" stroke-linecap="round" stroke-linejoin="round"/>
<path d="M86.2969 82.1357C86.2969 82.1357 84.3396 79.5448 82.2791 80.5845C80.2187 81.6242 81.8186 85.3216 83.0609 86.606C84.3032 87.8903 86.6969 85.494 86.9454 84.8935" fill="white"/>
<path d="M86.2969 82.1357C86.2969 82.1357 84.3396 79.5448 82.2791 80.5845C80.2187 81.6242 81.8186 85.3216 83.0609 86.606C84.3032 87.8903 86.6969 85.494 86.9454 84.8935" fill="#9F91F5"/>
<path opacity="0.5" d="M86.2969 82.1357C86.2969 82.1357 84.3396 79.5448 82.2791 80.5845C80.2187 81.6242 81.8186 85.3216 83.0609 86.606C84.3032 87.8903 86.6969 85.494 86.9454 84.8935" fill="white"/>
<path d="M86.2969 82.1357C86.2969 82.1357 84.3396 79.5448 82.2791 80.5845C80.2187 81.6242 81.8186 85.3216 83.0609 86.606C84.3032 87.8903 86.6969 85.494 86.9454 84.8935" stroke="#263238" stroke-linecap="round" stroke-linejoin="round"/>
<path d="M61.5779 79.7727H18.1398C16.4262 79.7727 15.0371 81.0472 15.0371 82.6194V111.754C15.0371 113.326 16.4262 114.601 18.1398 114.601H61.5779C63.2915 114.601 64.6806 113.326 64.6806 111.754V82.6194C64.6806 81.0472 63.2915 79.7727 61.5779 79.7727Z" fill="white" stroke="#263238" stroke-linecap="round" stroke-linejoin="round"/>
<path d="M63.7354 104.826L92.8234 111.776L63.7354 98.7101" fill="white"/>
<path d="M63.7354 104.826L92.8234 111.776L63.7354 98.7101" stroke="#263238" stroke-linecap="round" stroke-linejoin="round"/>
<path d="M30.7264 83.1198H19.0488V111.253H30.7264V83.1198Z" fill="#9F91F5" stroke="#263238" stroke-linecap="round" stroke-linejoin="round"/>
<path d="M62.105 83.1198H60.6445V111.253H62.105V83.1198Z" fill="#9F91F5" stroke="#263238" stroke-linecap="round" stroke-linejoin="round"/>
<path d="M62.105 95.9801H60.6445V98.382H62.105V95.9801Z" fill="#263238" stroke="#263238" stroke-linecap="round" stroke-linejoin="round"/>
<path d="M34.3809 83.787H57.3786" stroke="#263238" stroke-linecap="round" stroke-linejoin="round"/>
<path d="M34.3809 86.8006H57.3786" stroke="#263238" stroke-linecap="round" stroke-linejoin="round"/>
<path d="M34.3809 89.8196H57.3786" stroke="#263238" stroke-linecap="round" stroke-linejoin="round"/>
<path d="M34.3809 92.8332H57.3786" stroke="#263238" stroke-linecap="round" stroke-linejoin="round"/>
<path d="M34.3809 100.2H57.3786" stroke="#263238" stroke-linecap="round" stroke-linejoin="round"/>
<path d="M34.3809 102.88H57.3786" stroke="#263238" stroke-linecap="round" stroke-linejoin="round"/>
<path d="M34.3809 105.56H57.3786" stroke="#263238" stroke-linecap="round" stroke-linejoin="round"/>
<path d="M34.3809 111.12H57.3786" stroke="#263238" stroke-linecap="round" stroke-linejoin="round"/>
<path d="M19.0488 111.248L30.7325 83.1198" stroke="#263238" stroke-linecap="round" stroke-linejoin="round"/>
<path d="M195.049 189.105C200.648 189.105 205.187 187.238 205.187 184.935C205.187 182.632 200.648 180.765 195.049 180.765C189.45 180.765 184.911 182.632 184.911 184.935C184.911 187.238 189.45 189.105 195.049 189.105Z" fill="#9F91F5"/>
<path opacity="0.5" d="M195.049 189.105C200.648 189.105 205.187 187.238 205.187 184.935C205.187 182.632 200.648 180.765 195.049 180.765C189.45 180.765 184.911 182.632 184.911 184.935C184.911 187.238 189.45 189.105 195.049 189.105Z" fill="white"/>
<path d="M183.19 123.23C184.274 123.663 186.929 123.608 186.929 123.608C186.929 123.608 186.359 122.012 186.323 121.94C185.717 120.828 183.899 118.976 182.402 119.16C182.156 119.201 181.922 119.288 181.714 119.415C181.507 119.543 181.33 119.708 181.195 119.901C181.061 120.094 180.971 120.311 180.931 120.537C180.892 120.764 180.903 120.995 180.966 121.217C181.19 122.151 182.262 122.857 183.19 123.23Z" fill="#263238"/>
<path d="M217.95 114.94C216.447 114.795 214.659 116.68 214.108 117.814C214.059 117.914 213.502 119.521 213.538 119.521H213.569C213.284 119.816 212.963 120.138 212.666 120.494C212.06 121.156 211.417 121.906 210.763 122.774C210.045 123.697 209.387 124.659 208.793 125.654C208.12 126.766 207.556 127.931 207.109 129.134C207.105 129.149 207.105 129.164 207.109 129.179C207.109 128.773 207.109 127.633 207.109 127.544C206.933 126.321 205.812 124.036 204.321 123.786C204.074 123.755 203.822 123.771 203.582 123.833C203.341 123.895 203.117 124.002 202.924 124.147C202.731 124.292 202.572 124.472 202.458 124.676C202.344 124.88 202.277 125.103 202.261 125.331C202.176 126.304 202.945 127.283 203.697 127.9C204.545 128.595 206.897 129.268 207.084 129.318C206.665 130.554 206.333 131.813 206.091 133.088C205.945 133.833 205.83 134.583 205.715 135.339C205.715 134.984 205.715 134.672 205.715 134.628C205.539 133.399 204.418 131.119 202.933 130.869C202.686 130.837 202.434 130.853 202.193 130.914C201.953 130.975 201.728 131.082 201.534 131.226C201.341 131.371 201.181 131.55 201.066 131.754C200.951 131.957 200.884 132.181 200.867 132.409C200.782 133.388 201.552 134.361 202.303 134.978C203.054 135.595 205.06 136.218 205.594 136.374C205.557 136.663 205.515 136.93 205.472 137.241C205.291 138.631 205.121 140.021 204.903 141.383C204.824 141.861 204.733 142.328 204.642 142.795C204.642 142.484 204.642 142.239 204.642 142.184C204.466 140.955 203.345 138.675 201.855 138.42C201.607 138.389 201.355 138.405 201.115 138.467C200.875 138.529 200.651 138.636 200.458 138.781C200.264 138.926 200.106 139.106 199.992 139.31C199.877 139.514 199.81 139.737 199.794 139.965C199.709 140.944 200.479 141.917 201.23 142.534C201.982 143.151 203.794 143.713 204.424 143.896C204.315 144.374 204.2 144.853 204.073 145.314C203.976 145.625 203.903 145.931 203.788 146.237C203.673 146.543 203.576 146.849 203.467 147.149C203.242 147.705 203.012 148.316 202.776 148.867C202.612 149.256 202.448 149.623 202.291 149.979C202.37 149.501 202.509 148.567 202.509 148.489C202.494 147.399 202.175 146.331 201.582 145.386C201.591 145.266 201.591 145.145 201.582 145.025C201.546 144.798 201.46 144.581 201.328 144.386C201.197 144.191 201.023 144.023 200.818 143.893C200.613 143.763 200.38 143.672 200.135 143.628C199.89 143.584 199.638 143.586 199.394 143.635C197.934 143.991 197.007 146.343 196.934 147.577C196.934 147.655 196.982 148.45 197.025 148.95C196.952 148.661 196.885 148.394 196.807 148.077C196.649 147.482 196.479 146.893 196.298 146.265C196.195 145.959 196.098 145.653 195.995 145.347C195.892 145.042 195.758 144.725 195.643 144.408C195.352 143.685 195.037 142.962 194.667 142.239C195.237 142.117 197.237 141.65 198.043 141.083C198.849 140.516 199.691 139.598 199.679 138.62C199.685 138.391 199.638 138.163 199.542 137.951C199.446 137.74 199.302 137.549 199.121 137.392C198.939 137.235 198.723 137.114 198.487 137.038C198.251 136.962 198.001 136.933 197.752 136.952C196.243 137.102 194.94 139.298 194.667 140.51C194.667 140.588 194.564 141.478 194.522 141.967C194.31 141.533 194.098 141.105 193.868 140.671C193.195 139.432 192.474 138.197 191.759 136.957C191.534 136.579 191.322 136.201 191.11 135.818C191.31 135.779 193.704 135.262 194.601 134.633C195.401 134.077 196.249 133.149 196.243 132.17C196.244 131.942 196.193 131.716 196.095 131.506C195.996 131.297 195.852 131.108 195.671 130.952C195.489 130.795 195.275 130.675 195.041 130.597C194.807 130.52 194.558 130.488 194.31 130.502C192.807 130.652 191.504 132.848 191.231 134.061C191.231 134.15 191.086 135.434 191.068 135.762C190.595 134.922 190.135 134.094 189.71 133.243C189.138 132.11 188.646 130.943 188.238 129.752C188.329 129.752 190.831 129.196 191.753 128.562C192.553 128.006 193.401 127.077 193.395 126.099C193.395 125.87 193.345 125.645 193.246 125.435C193.148 125.225 193.004 125.037 192.822 124.88C192.641 124.724 192.427 124.603 192.193 124.526C191.959 124.449 191.71 124.416 191.462 124.431C189.959 124.581 188.656 126.777 188.383 127.989C188.383 128.089 188.226 129.468 188.22 129.718C188.22 129.646 188.165 129.579 188.141 129.507C187.767 128.3 187.511 127.064 187.377 125.815C187.292 125.131 187.256 124.464 187.232 123.819C187.711 123.769 189.88 123.502 190.783 123.002C191.686 122.501 192.601 121.695 192.71 120.717C192.739 120.489 192.717 120.258 192.645 120.039C192.573 119.82 192.453 119.616 192.291 119.442C192.13 119.267 191.931 119.124 191.707 119.023C191.483 118.922 191.238 118.865 190.989 118.854C189.474 118.854 187.917 120.906 187.498 122.079C187.498 122.145 187.329 122.818 187.226 123.313C187.226 123.018 187.226 122.718 187.226 122.44C187.226 121.395 187.298 120.433 187.371 119.582C187.42 119.099 187.468 118.665 187.523 118.253C187.959 117.981 189.704 116.847 190.244 116.029C190.783 115.212 191.201 114.1 190.807 113.194C190.724 112.976 190.592 112.778 190.419 112.61C190.246 112.443 190.036 112.311 189.804 112.224C189.572 112.136 189.322 112.094 189.071 112.101C188.819 112.109 188.573 112.165 188.347 112.265C187.002 112.899 186.65 115.379 186.868 116.602C186.868 116.708 187.395 118.326 187.42 118.315C187.365 118.704 187.305 119.126 187.25 119.582C187.159 120.433 187.062 121.395 187.038 122.451C186.995 123.584 187.024 124.718 187.123 125.848C187.232 127.116 187.463 128.372 187.814 129.601C187.81 129.616 187.81 129.631 187.814 129.646C187.577 129.307 186.874 128.367 186.814 128.3C185.929 127.361 183.626 126.032 182.232 126.571C182.007 126.67 181.807 126.811 181.644 126.984C181.48 127.157 181.358 127.359 181.283 127.578C181.209 127.796 181.184 128.026 181.211 128.254C181.237 128.482 181.315 128.702 181.438 128.901C181.954 129.763 183.184 130.185 184.184 130.319C185.305 130.469 187.674 129.841 187.862 129.79C188.254 131.032 188.733 132.248 189.298 133.432C189.626 134.127 189.977 134.817 190.341 135.501C190.122 135.211 189.929 134.945 189.898 134.945C189.013 134.011 186.705 132.676 185.317 133.215C185.091 133.314 184.89 133.455 184.726 133.629C184.562 133.802 184.439 134.005 184.364 134.224C184.29 134.443 184.266 134.674 184.293 134.903C184.32 135.131 184.398 135.351 184.523 135.551C185.038 136.407 186.268 136.835 187.262 136.968C188.256 137.102 190.292 136.601 190.844 136.462C190.983 136.724 191.122 136.985 191.268 137.246C191.953 138.503 192.643 139.748 193.28 140.988C193.504 141.428 193.704 141.867 193.886 142.306C193.698 142.045 193.534 141.833 193.504 141.8C192.619 140.866 190.31 139.532 188.923 140.071C188.697 140.17 188.496 140.31 188.332 140.484C188.168 140.658 188.045 140.86 187.97 141.08C187.896 141.299 187.871 141.53 187.899 141.758C187.926 141.986 188.004 142.207 188.129 142.406C188.644 143.262 189.874 143.685 190.868 143.818C191.862 143.952 193.716 143.501 194.352 143.34C194.546 143.796 194.746 144.252 194.91 144.702C195.019 145.008 195.146 145.297 195.231 145.614C195.316 145.931 195.419 146.231 195.516 146.537C195.667 147.132 195.831 147.744 195.97 148.322C196.067 148.728 196.152 149.111 196.237 149.501C196.019 149.061 195.57 148.216 195.528 148.15C194.807 147.099 192.746 145.459 191.286 145.803C191.043 145.865 190.818 145.974 190.625 146.121C190.431 146.269 190.274 146.453 190.163 146.66C190.053 146.868 189.992 147.094 189.983 147.325C189.975 147.556 190.021 147.786 190.116 147.999C190.48 148.917 191.625 149.506 192.589 149.779C193.655 150.073 196.007 149.779 196.298 149.779C196.437 150.424 196.57 151.052 196.679 151.647C197.079 153.704 197.322 155.433 197.473 156.651C197.473 156.868 197.522 157.057 197.546 157.24H192.995L194.455 183.428C194.51 184.387 194.963 185.29 195.722 185.951C196.481 186.612 197.487 186.981 198.534 186.981C199.58 186.98 200.585 186.612 201.343 185.95C202.101 185.289 202.553 184.386 202.606 183.428L204.073 157.24H199.831C199.861 157.179 199.891 157.123 199.928 157.062C200.534 155.95 201.315 154.349 202.188 152.397C202.461 151.78 202.745 151.113 203.024 150.429C203.309 150.485 205.636 150.918 206.721 150.691C207.709 150.49 208.896 149.979 209.339 149.089C209.446 148.882 209.506 148.656 209.515 148.426C209.523 148.197 209.479 147.968 209.386 147.754C209.294 147.541 209.154 147.347 208.976 147.185C208.797 147.024 208.585 146.898 208.351 146.815C206.915 146.376 204.715 147.872 203.927 148.867C203.879 148.922 203.448 149.617 203.182 150.057C203.291 149.773 203.406 149.501 203.521 149.212C203.751 148.656 203.957 148.066 204.188 147.443C204.285 147.143 204.388 146.837 204.485 146.526C204.582 146.215 204.666 145.887 204.757 145.564C204.951 144.814 205.109 144.046 205.248 143.268C205.794 143.451 207.745 144.074 208.757 144.007C209.769 143.941 211.023 143.602 211.605 142.784C211.745 142.594 211.84 142.379 211.885 142.154C211.93 141.928 211.924 141.697 211.867 141.473C211.811 141.25 211.704 141.04 211.555 140.856C211.405 140.672 211.216 140.518 210.999 140.405C209.654 139.765 207.248 140.961 206.291 141.811C206.23 141.867 205.618 142.567 205.291 142.957C205.375 142.484 205.454 142.017 205.521 141.544C205.709 140.165 205.848 138.764 205.994 137.374L206.139 136.101C206.333 136.168 208.636 136.952 209.775 136.879C210.781 136.813 212.041 136.474 212.623 135.656C212.763 135.466 212.858 135.251 212.903 135.026C212.948 134.8 212.942 134.569 212.885 134.345C212.829 134.122 212.722 133.912 212.573 133.728C212.423 133.544 212.234 133.39 212.017 133.277C210.672 132.637 208.26 133.833 207.309 134.683C207.236 134.75 206.357 135.756 206.151 136.023C206.254 135.084 206.375 134.15 206.533 133.243C206.736 132.006 207.026 130.782 207.4 129.579C207.49 129.613 209.89 130.441 211.036 130.363C212.041 130.302 213.302 129.963 213.884 129.14C214.023 128.95 214.119 128.735 214.164 128.51C214.209 128.284 214.203 128.052 214.146 127.829C214.089 127.606 213.983 127.395 213.833 127.212C213.684 127.028 213.495 126.874 213.278 126.76C211.932 126.126 209.527 127.316 208.569 128.173C208.496 128.239 207.551 129.323 207.4 129.529C207.4 129.462 207.436 129.385 207.46 129.318C207.873 128.12 208.403 126.959 209.042 125.848C209.381 125.231 209.751 124.659 210.12 124.114C210.551 124.308 212.544 125.187 213.575 125.226C214.605 125.265 215.871 125.053 216.55 124.297C216.713 124.123 216.834 123.919 216.907 123.699C216.98 123.48 217.003 123.249 216.974 123.02C216.945 122.792 216.865 122.572 216.738 122.374C216.612 122.175 216.443 122.003 216.241 121.867C214.981 121.1 212.447 122.023 211.393 122.796C211.339 122.84 210.787 123.352 210.423 123.686L210.932 122.946C211.569 122.073 212.205 121.311 212.75 120.639C213.078 120.255 213.387 119.921 213.672 119.605C214.205 119.605 216.344 119.538 217.277 119.138C218.211 118.737 219.235 118.026 219.459 117.053C219.531 116.822 219.548 116.58 219.509 116.343C219.469 116.106 219.375 115.88 219.232 115.679C219.089 115.479 218.9 115.309 218.679 115.181C218.458 115.054 218.209 114.971 217.95 114.94ZM201.303 151.992C200.394 153.91 199.558 155.478 198.958 156.562L198.631 157.157H198.528C198.497 156.946 198.467 156.712 198.425 156.451C198.243 155.227 197.958 153.487 197.51 151.447C197.364 150.791 197.201 150.09 197.025 149.378C197.732 149.116 198.424 148.819 199.097 148.489C200.011 149.21 201.031 149.809 202.127 150.268C201.836 150.852 201.57 151.441 201.303 151.992Z" fill="#263238"/>
<path d="M210.029 123.763C210.029 123.763 210.508 122.145 210.526 122.04C210.714 120.811 210.284 118.342 208.926 117.736C208.697 117.648 208.451 117.603 208.202 117.605C207.953 117.608 207.708 117.657 207.48 117.749C207.253 117.842 207.049 117.977 206.881 118.145C206.713 118.313 206.584 118.511 206.502 118.726C206.139 119.649 206.599 120.778 207.151 121.556C207.781 122.468 210.023 123.763 210.029 123.763Z" fill="#263238"/>
</svg>
