<svg width="23" height="13" viewBox="0 0 23 13" fill="none" xmlns="http://www.w3.org/2000/svg">
<path fill-rule="evenodd" clip-rule="evenodd" d="M11.9106 0.420785C12.0413 0.33639 12.1964 0.26943 12.3673 0.223744C12.5381 0.178057 12.7213 0.154541 12.9063 0.154541C13.0912 0.154541 13.2744 0.178057 13.4452 0.223744C13.6161 0.26943 13.7713 0.33639 13.9019 0.420785L22.3394 5.85828C22.4703 5.94247 22.5742 6.04247 22.6451 6.15257C22.716 6.26267 22.7525 6.38071 22.7525 6.49991C22.7525 6.61911 22.716 6.73714 22.6451 6.84725C22.5742 6.95735 22.4703 7.05735 22.3394 7.14154L13.9019 12.579C13.6378 12.7492 13.2797 12.8448 12.9063 12.8448C12.5328 12.8448 12.1747 12.7492 11.9106 12.579C11.6466 12.4089 11.4982 12.1781 11.4982 11.9374C11.4982 11.6968 11.6466 11.466 11.9106 11.2958L19.3553 6.49991L11.9106 1.70404C11.7797 1.61985 11.6758 1.51985 11.6049 1.40975C11.534 1.29965 11.4975 1.18161 11.4975 1.06241C11.4975 0.943207 11.534 0.825175 11.6049 0.715075C11.6758 0.604974 11.7797 0.504968 11.9106 0.420785Z" fill="white"/>
<path fill-rule="evenodd" clip-rule="evenodd" d="M0.25 6.5C0.25 6.25965 0.398158 6.02914 0.661881 5.85918C0.925604 5.68923 1.28329 5.59375 1.65625 5.59375H19.9375C20.3105 5.59375 20.6681 5.68923 20.9319 5.85918C21.1956 6.02914 21.3438 6.25965 21.3438 6.5C21.3438 6.74035 21.1956 6.97086 20.9319 7.14082C20.6681 7.31077 20.3105 7.40625 19.9375 7.40625H1.65625C1.28329 7.40625 0.925604 7.31077 0.661881 7.14082C0.398158 6.97086 0.25 6.74035 0.25 6.5Z" fill="white"/>
</svg>
